<svg width="617" height="411" viewBox="0 0 617 411" fill="none" xmlns="http://www.w3.org/2000/svg">
<path d="M339.391 72.6073H343.504L352.554 60.0471V51.786C352.554 51.786 358.946 51.3915 358.197 62.1925C357.449 72.9936 358.255 70.2481 358.255 70.2481C358.255 70.2481 371.829 70.2974 372.956 71.4729C373.779 72.2949 374.149 85.8004 374.289 93.1079C374.363 96.7823 372.109 100.202 368.678 101.073C368.203 101.199 367.714 101.265 367.222 101.27C363.841 101.27 346.54 98.5249 346.54 98.5249H339.399L339.391 72.6073Z" fill="#E0E0E0"/>
<path d="M327.553 70.3467L330.095 98.6071H337.178V70.9139L327.553 70.3467Z" fill="#E0E0E0"/>
<path d="M217.398 207.752L208.48 235.182H214.856L223.699 207.752H217.398Z" fill="#EBEBEB"/>
<path d="M228.208 207.81L219.306 235.182L225.682 235.191L234.501 207.81H228.208Z" fill="#EBEBEB"/>
<path d="M207.098 218.208L209.253 212.092H238.022L236.138 218.208H207.098Z" fill="#EBEBEB"/>
<path d="M204.433 229.494L206.588 223.379H235.357L233.473 229.494H204.433Z" fill="#EBEBEB"/>
<path d="M64.8096 181.399C64.5149 179.252 63.5739 177.245 62.1113 175.645C60.7336 174.021 58.8804 172.871 56.8133 172.357C55.0509 171.954 53.2047 172.142 51.5601 172.892C49.9154 173.642 48.564 174.913 47.7146 176.508C47.0988 175.449 46.256 174.54 45.2466 173.845C44.3165 173.208 43.2675 172.765 42.1622 172.542C41.0569 172.318 39.918 172.32 38.8134 172.546C36.7361 173.058 34.8718 174.208 33.4825 175.834C31.995 177.424 31.0329 179.433 30.7266 181.588C30.3802 184.339 30.9282 187.129 32.2896 189.545C33.8802 191.988 36.0287 194.02 38.5583 195.472C42.6717 197.938 48.0684 201.094 48.0684 201.094C48.0684 201.094 52.6588 197.699 56.7886 195.241C59.3397 193.823 61.5122 191.813 63.1232 189.381C64.5359 186.973 65.1278 184.172 64.8096 181.399Z" fill="#EBEBEB"/>
<path d="M472.367 208.788C472.176 207.331 471.541 205.968 470.549 204.884C469.614 203.787 468.36 203.008 466.962 202.656C465.77 202.388 464.523 202.52 463.414 203.031C462.305 203.542 461.395 204.404 460.825 205.484C460.241 204.46 459.345 203.649 458.268 203.168C457.191 202.688 455.989 202.563 454.836 202.812C453.435 203.145 452.174 203.91 451.233 204.999C450.228 206.074 449.576 207.431 449.365 208.887C449.137 210.743 449.509 212.624 450.426 214.254C451.497 215.909 452.95 217.282 454.663 218.257C457.435 219.951 461.08 222.063 461.08 222.063C461.08 222.063 464.19 219.77 466.978 218.109C468.701 217.149 470.168 215.791 471.256 214.147C472.191 212.526 472.58 210.647 472.367 208.788Z" fill="#EBEBEB"/>
<path d="M555.555 107.477C557.796 106.486 559.698 104.861 561.025 102.803C562.353 100.745 563.048 98.3431 563.025 95.8946C563.025 88.9733 557.809 83.3508 551.318 83.318C544.827 83.2851 539.554 88.8665 539.521 95.7795C539.473 98.2502 540.158 100.68 541.49 102.762C542.822 104.844 544.742 106.484 547.008 107.477C528.909 110.197 529.732 129.827 529.732 129.827L572.51 130.024C572.51 130.024 573.481 110.148 555.555 107.477Z" fill="#EBEBEB"/>
<path d="M109.349 64.6996C110.43 64.2213 111.347 63.4371 111.988 62.4438C112.628 61.4505 112.963 60.2915 112.952 59.1101C113.007 58.3347 112.902 57.5563 112.644 56.823C112.386 56.0897 111.98 55.4173 111.451 54.8472C110.922 54.2771 110.282 53.8215 109.57 53.5086C108.857 53.1958 108.089 53.0323 107.311 53.0284C106.533 53.0244 105.762 53.1801 105.047 53.4857C104.332 53.7913 103.687 54.2404 103.152 54.8051C102.617 55.3698 102.204 56.0381 101.939 56.7687C101.673 57.4993 101.56 58.2766 101.608 59.0525C101.583 60.2451 101.914 61.418 102.556 62.4232C103.199 63.4283 104.126 64.2205 105.219 64.6996C96.4905 66.0148 96.8854 75.4925 96.8854 75.4925L117.526 75.5912C117.526 75.5912 118.003 66.0066 109.349 64.6996Z" fill="#EBEBEB"/>
<path d="M588.717 236.415C589.8 235.939 590.72 235.156 591.362 234.162C592.004 233.168 592.34 232.008 592.328 230.826C592.373 230.056 592.26 229.284 591.997 228.559C591.733 227.834 591.325 227.17 590.796 226.607C590.267 226.045 589.63 225.596 588.921 225.288C588.213 224.981 587.45 224.82 586.678 224.817C585.906 224.813 585.141 224.967 584.43 225.269C583.72 225.571 583.078 226.014 582.544 226.572C582.011 227.129 581.596 227.79 581.327 228.513C581.057 229.236 580.937 230.006 580.975 230.776C580.954 231.969 581.286 233.14 581.93 234.144C582.574 235.148 583.502 235.938 584.595 236.415C575.858 237.731 576.262 247.216 576.262 247.216L596.902 247.307C596.902 247.307 597.371 237.722 588.717 236.415Z" fill="#EBEBEB"/>
<path d="M597.865 361.294C597.865 361.409 470.508 361.507 313.452 361.507C156.397 361.507 29.0072 361.409 29.0072 361.294C29.0072 361.179 156.307 361.072 313.436 361.072C470.565 361.072 597.865 361.17 597.865 361.294Z" fill="#263238"/>
<path d="M271.093 91.6612L230.223 361.179H292.853L332.966 91.6612H271.093Z" fill="#0080FF"/>
<path d="M271.093 91.6612H272.13H275.231H287.308L332.966 91.5955H333.106V91.7352C324.279 151.158 309.635 249.756 293.083 361.269V361.45H229.977L230.018 361.203C241.691 284.428 251.95 217.033 259.28 168.855C262.957 144.779 265.902 125.495 267.926 112.219C268.946 105.643 269.728 100.481 270.263 97.0042C270.534 95.278 270.74 93.9628 270.871 93.0751C271.003 92.1873 271.093 91.7516 271.093 91.7516L270.896 93.1079C270.764 94.0039 270.575 95.3273 270.312 97.0618C269.794 100.547 269.02 105.685 268.033 112.326C266.026 125.618 263.097 144.919 259.494 169.044C252.213 217.222 242.029 284.576 230.429 361.318L230.223 361.072H292.869L292.656 361.253C309.29 249.757 323.999 151.166 332.859 91.7516L332.983 91.8914L287.399 91.8256H275.289H272.171L271.093 91.6612Z" fill="#263238"/>
<path d="M385.337 93.5025L343.472 361.803L405.517 361.154L447.218 93.5025H385.337Z" fill="#0080FF"/>
<path d="M385.337 93.5025H386.382H389.483H401.56L447.218 93.4367H447.358V93.5764C438.169 152.654 422.949 250.578 405.739 361.244V361.425H405.155L343.513 362.066H343.266V361.82C355.236 285.374 365.733 218.307 373.244 170.294C377.012 146.324 380.031 127.122 382.112 113.913C383.149 107.337 383.955 102.224 384.506 98.7633C384.778 97.0453 384.983 95.7383 385.131 94.8505C385.28 93.9628 385.345 93.5353 385.345 93.5353C385.345 93.5353 385.288 93.9957 385.156 94.8834C385.025 95.7712 384.819 97.0946 384.556 98.8208L382.211 114.02L373.491 170.433C366.029 218.397 355.59 285.456 343.71 361.836L343.496 361.59L405.139 360.94H405.542L405.336 361.121C422.612 250.439 437.906 152.555 447.128 93.4778L447.251 93.6258L401.659 93.56H389.557H386.44L385.337 93.5025Z" fill="#263238"/>
<path d="M206.514 189.931L226.061 129.884H500.683L486.788 189.931H206.514Z" fill="#0080FF"/>
<path d="M206.489 189.931L486.764 189.718L486.558 189.882C490.885 171.206 495.385 151.733 499.984 131.865C500.14 131.175 500.297 130.493 500.453 129.835L500.659 130.098L226.028 130.008L226.151 129.917L206.489 189.923C206.777 189.044 213.638 167.803 225.913 129.835V129.753H225.995L500.626 129.662H500.897L500.84 129.925L500.362 131.947C495.764 151.823 491.264 171.288 486.936 189.972V190.137H486.764L206.489 189.931Z" fill="#263238"/>
<path d="M182.385 302.521L201.924 242.474H476.554L462.66 302.521H182.385Z" fill="#0080FF"/>
<path d="M182.385 302.496L462.66 302.29L462.454 302.447C466.773 283.771 471.281 264.306 475.872 244.43C476.036 243.739 476.192 243.057 476.341 242.4L476.554 242.663L201.924 242.572L202.039 242.49C189.625 280.434 182.673 301.674 182.385 302.496L201.808 242.408V242.326H201.899L476.53 242.235H476.801L476.735 242.498C476.587 243.156 476.423 243.838 476.266 244.529C471.668 264.405 467.168 283.861 462.841 302.545V302.71H462.676L182.385 302.496Z" fill="#263238"/>
<g opacity="0.3">
<path d="M254.303 204.744L316.661 203.618L318.701 189.931H256.549L254.303 204.744Z" fill="black"/>
</g>
<g opacity="0.3">
<path d="M367.691 205.377H429.597L432.237 189.931H370.077L367.691 205.377Z" fill="black"/>
</g>
<g opacity="0.3">
<path d="M299.385 316.865L237.043 316.207L238.935 302.521H301.129L299.385 316.865Z" fill="black"/>
</g>
<g opacity="0.3">
<path d="M412.304 316.865L350.917 316.215L352.809 302.529H415.002L412.304 316.865Z" fill="black"/>
</g>
<path d="M192.627 62.3898L177.655 108.463H188.358L203.207 62.3898H192.627Z" fill="#0080FF"/>
<path d="M210.775 62.4966L195.836 108.463L206.539 108.479L221.355 62.4966H210.775Z" fill="#0080FF"/>
<path d="M175.327 79.9559L178.947 69.6891H227.262L224.103 79.9559H175.327Z" fill="#0080FF"/>
<path d="M170.851 98.9113L174.463 88.6445H222.786L219.627 98.9113H170.851Z" fill="#0080FF"/>
<path d="M485.275 73.3799L475 104.994H482.346L492.531 73.3799H485.275Z" fill="#455A64"/>
<path d="M497.722 73.4539L487.471 104.994L494.818 105.002L504.978 73.4539H497.722Z" fill="#455A64"/>
<path d="M473.404 85.4386L475.888 78.3941H509.033L506.861 85.4386H473.404Z" fill="#455A64"/>
<path d="M470.335 98.4345L472.811 91.3981H505.965L503.793 98.4345H470.335Z" fill="#455A64"/>
<path d="M168.318 339.708C168.318 339.708 165.126 317.736 165.356 304.962C165.586 292.188 165.356 277.795 165.356 277.795H166.829C166.829 277.795 165.833 303.17 166.919 318.476C168.005 333.781 170.868 339.716 170.868 339.716H168.318" fill="#263238"/>
<path d="M177.852 253.069C177.615 252.291 177.144 251.606 176.503 251.105C175.574 250.513 174.348 250.759 173.303 251.105C168.844 252.675 164.904 260.969 163.102 265.333L169.009 285.234C179.687 275.37 181.53 262.399 177.852 253.069Z" fill="#455A64"/>
<path d="M176.158 251.91C176.143 252.001 176.115 252.09 176.075 252.173L175.787 252.897C175.524 253.521 175.162 254.434 174.726 255.56C173.854 257.82 172.752 260.985 171.756 264.544C170.761 268.103 170.111 271.383 169.667 273.767C169.461 274.959 169.297 275.929 169.198 276.603L169.074 277.367C169.064 277.46 169.042 277.552 169.009 277.639C168.999 277.549 168.999 277.458 169.009 277.367L169.091 276.587C169.157 275.913 169.297 274.943 169.486 273.742C169.982 270.619 170.655 267.526 171.501 264.478C172.351 261.432 173.37 258.435 174.553 255.502C175.006 254.376 175.376 253.472 175.68 252.855C175.82 252.568 175.927 252.338 176.009 252.148C176.053 252.065 176.102 251.986 176.158 251.91Z" fill="#263238"/>
<path d="M166.384 290.034C163.692 288.507 161.439 286.312 159.843 283.661C158.246 281.011 157.36 277.994 157.269 274.901C157.064 270.487 158.421 266.155 159.959 262.004C160.051 261.628 160.272 261.296 160.585 261.067C160.835 260.978 161.105 260.952 161.368 260.994C161.631 261.036 161.879 261.143 162.09 261.306C166.121 263.599 168.556 267.964 169.856 272.411C170.789 275.359 171.1 278.469 170.769 281.543C170.263 284.772 168.725 287.751 166.384 290.034Z" fill="#455A64"/>
<path d="M166.384 290.034C166.374 289.947 166.374 289.859 166.384 289.771V289.007C166.384 288.341 166.384 287.363 166.302 286.204C166.132 283.122 165.777 280.053 165.241 277.014C164.624 273.446 163.875 270.257 163.324 267.972C163.053 266.846 162.83 265.917 162.674 265.243C162.6 264.939 162.542 264.692 162.501 264.495C162.473 264.41 162.46 264.321 162.46 264.232C162.497 264.314 162.528 264.399 162.551 264.487C162.608 264.676 162.674 264.922 162.765 265.218C162.946 265.859 163.192 266.78 163.497 267.931C164.089 270.232 164.862 273.422 165.479 276.973C166.011 280.024 166.329 283.109 166.434 286.204C166.434 287.388 166.475 288.349 166.434 289.015C166.434 289.328 166.434 289.574 166.434 289.78C166.427 289.866 166.411 289.952 166.384 290.034Z" fill="#263238"/>
<g opacity="0.3">
<path d="M166.384 290.034C163.692 288.507 161.439 286.312 159.843 283.661C158.246 281.011 157.36 277.994 157.269 274.901C157.064 270.487 158.421 266.155 159.959 262.004C160.051 261.628 160.272 261.296 160.585 261.067C160.835 260.978 161.105 260.952 161.368 260.994C161.631 261.036 161.879 261.143 162.09 261.306C166.121 263.599 168.556 267.964 169.856 272.411C170.789 275.359 171.1 278.469 170.769 281.543C170.263 284.772 168.725 287.751 166.384 290.034Z" fill="black"/>
</g>
<path d="M172.637 323.654C178.091 324.854 182.583 328.693 187.839 330.567C191.328 331.8 195.243 332.211 198.041 334.677C197.374 333.033 195.795 331.874 194.256 330.921C189.927 328.215 185.304 326.009 180.477 324.345C178.009 323.523 175.31 322.775 172.793 323.482" fill="#455A64"/>
<path d="M164.756 328.512C157.919 328.397 150.729 322.586 143.934 322.24C151.042 319.947 161.21 321.821 164.756 328.512Z" fill="#455A64"/>
<path d="M167.421 312.138C170.941 310.986 174.694 310.731 178.338 311.398C181.977 312.065 185.554 313.033 189.032 314.292C188.679 311.924 186.762 310.141 184.919 308.538C183.601 307.308 182.168 306.207 180.641 305.25C179.103 304.287 177.323 303.782 175.508 303.795C174.419 303.868 173.357 304.159 172.383 304.65C171.409 305.142 170.545 305.824 169.84 306.655C168.445 308.155 167.578 310.068 167.372 312.105" fill="#455A64"/>
<path d="M153.403 304.6C149.1 300.934 142.593 301.312 136.949 301.419C146.02 305.745 154.575 311.078 162.452 317.317C162.699 313.33 158.832 309.236 153.403 304.6Z" fill="#455A64"/>
<g opacity="0.3">
<path d="M153.403 304.6C149.1 300.934 142.593 301.312 136.949 301.419C146.02 305.745 154.575 311.078 162.452 317.317C162.699 313.33 158.832 309.236 153.403 304.6Z" fill="black"/>
</g>
<path d="M169.354 299.537C171.443 298.086 173.644 296.802 175.936 295.698C178.198 294.671 180.304 293.035 182.517 291.851C185.355 290.322 187.807 288.185 190.406 286.286C193.006 284.387 195.869 282.669 199.052 282.176C196.432 281.709 193.738 281.864 191.188 282.628C188.649 283.394 186.174 284.356 183.784 285.505C180.427 287.018 177.021 288.563 174.274 291.013C171.526 293.462 169.058 295.887 169.338 299.545" fill="#455A64"/>
<path d="M187.716 328.512C187.64 328.49 187.568 328.457 187.502 328.414L186.91 328.11C186.392 327.838 185.651 327.427 184.722 326.959C184.261 326.72 183.751 326.466 183.2 326.202C182.649 325.939 182.056 325.668 181.423 325.38C180.066 324.77 178.66 324.278 177.219 323.909C175.79 323.519 174.288 323.482 172.842 323.802C172.21 323.94 171.588 324.124 170.983 324.353C169.703 324.878 168.55 325.672 167.602 326.679C167.207 327.107 167.01 327.361 166.993 327.353C167.026 327.28 167.068 327.211 167.117 327.148C167.199 327.024 167.339 326.844 167.528 326.613C168.07 325.983 168.695 325.43 169.387 324.969C169.868 324.649 170.378 324.374 170.909 324.147C171.517 323.902 172.145 323.707 172.785 323.564C174.266 323.216 175.811 323.247 177.276 323.654C178.732 324.02 180.151 324.521 181.513 325.15C182.147 325.43 182.739 325.701 183.29 325.972C183.841 326.244 184.351 326.507 184.804 326.794C185.725 327.279 186.449 327.707 186.951 328.011L187.527 328.356C187.659 328.455 187.724 328.504 187.716 328.512Z" fill="#263238"/>
<path d="M159.655 325.126C159.802 325.148 159.946 325.19 160.083 325.249C160.354 325.348 160.741 325.512 161.202 325.734C162.409 326.337 163.518 327.119 164.492 328.052C165.472 328.975 166.304 330.042 166.96 331.217C167.162 331.568 167.338 331.933 167.487 332.31C167.555 332.442 167.605 332.583 167.635 332.729C167.635 332.729 167.339 332.17 166.812 331.299C165.442 329.032 163.498 327.167 161.177 325.89C160.231 325.397 159.639 325.167 159.655 325.126Z" fill="#263238"/>
<path d="M144.543 304.263C144.645 304.276 144.745 304.304 144.839 304.346L145.661 304.641L146.953 305.11C147.463 305.299 148.006 305.578 148.598 305.85C151.81 307.337 154.807 309.251 157.508 311.538C158.971 312.813 160.346 314.186 161.621 315.648C162.667 316.838 163.65 318.08 164.566 319.372C165.348 320.481 165.94 321.394 166.343 322.035L166.812 322.767C166.875 322.846 166.925 322.935 166.96 323.03C166.96 323.03 166.886 322.956 166.771 322.791C166.656 322.627 166.475 322.397 166.261 322.084C165.833 321.468 165.224 320.564 164.426 319.479C163.628 318.393 162.633 317.128 161.457 315.796C160.171 314.364 158.797 313.013 157.343 311.752C154.658 309.493 151.697 307.582 148.533 306.063C147.924 305.784 147.381 305.496 146.887 305.299L145.612 304.781L144.789 304.452C144.702 304.397 144.619 304.333 144.543 304.263Z" fill="#263238"/>
<path d="M177.696 308.299C177.513 308.298 177.331 308.276 177.153 308.234L176.52 308.118C176.281 308.069 175.993 308.069 175.697 308.036C174.077 307.891 172.45 308.214 171.008 308.965C170.217 309.377 169.496 309.91 168.869 310.543C168.347 311.056 167.886 311.627 167.495 312.245C167.141 312.817 166.828 313.413 166.557 314.029C166.578 313.847 166.625 313.67 166.697 313.503C166.869 313.033 167.087 312.582 167.347 312.154C167.706 311.515 168.143 310.921 168.647 310.387C169.536 309.45 170.632 308.734 171.848 308.296C173.063 307.857 174.365 307.709 175.648 307.864C175.96 307.905 176.248 307.921 176.47 307.979L177.095 308.143C177.302 308.167 177.504 308.219 177.696 308.299Z" fill="#263238"/>
<path d="M184.532 287.026C184.454 287.088 184.368 287.14 184.277 287.182L183.512 287.593C182.854 287.955 181.867 288.481 180.74 289.163C179.613 289.845 178.272 290.7 176.783 291.736C175.206 292.839 173.728 294.077 172.365 295.435C171.659 296.128 171.05 296.913 170.555 297.769C170.111 298.591 169.683 299.455 169.288 300.235C168.583 301.641 167.949 303.081 167.388 304.551C167.022 305.546 166.715 306.562 166.467 307.592C166.294 308.324 166.228 308.735 166.203 308.735C166.19 308.634 166.19 308.532 166.203 308.431C166.203 308.234 166.269 307.946 166.343 307.609C166.543 306.563 166.818 305.533 167.166 304.526C167.701 303.04 168.322 301.585 169.025 300.17C169.412 299.348 169.848 298.526 170.276 297.704C170.783 296.825 171.406 296.018 172.127 295.303C173.497 293.932 174.99 292.689 176.585 291.588C178.042 290.561 179.415 289.73 180.584 289.056C181.752 288.382 182.731 287.881 183.405 287.552L184.187 287.182L184.532 287.026Z" fill="#263238"/>
<path d="M165.356 307.691C165.291 307.505 165.247 307.312 165.224 307.116C165.142 306.688 165.043 306.162 164.92 305.537C164.594 303.806 164.162 302.096 163.628 300.416C163.076 298.735 162.425 297.089 161.679 295.484C161.415 294.909 161.193 294.416 161.012 294.029C160.918 293.856 160.846 293.671 160.798 293.479C160.912 293.641 161.014 293.811 161.103 293.988C161.284 294.317 161.539 294.81 161.835 295.41C162.635 297 163.311 298.649 163.859 300.342C164.398 302.03 164.81 303.756 165.093 305.505C165.2 306.179 165.274 306.721 165.315 307.099C165.349 307.295 165.363 307.493 165.356 307.691Z" fill="#263238"/>
<path d="M164.887 292.163C164.674 289.569 163.918 287.048 162.666 284.765C160.981 281.636 158.631 278.914 155.779 276.791C152.928 274.668 149.646 273.195 146.163 272.477L161.44 295.221L163.415 299.282C164.654 297.127 165.17 294.633 164.887 292.163Z" fill="#455A64"/>
<path d="M186.795 336.995H151.28V343.284H186.795V336.995Z" fill="#0080FF"/>
<path d="M153.929 342.034L156.957 361.548H180.534L184.146 342.034H153.929Z" fill="#0080FF"/>
<path d="M186.745 343.292C186.745 343.358 178.733 343.415 168.852 343.415C158.972 343.415 150.959 343.358 150.959 343.292C150.959 343.226 158.972 343.169 168.852 343.169C178.733 343.169 186.745 343.218 186.745 343.292Z" fill="#263238"/>
<path d="M421.625 321.443L429.596 360.529H498.75C499.115 360.527 499.464 360.381 499.722 360.122C499.979 359.863 500.124 359.513 500.124 359.148C500.124 358.783 499.979 358.433 499.722 358.175C499.464 357.916 499.115 357.769 498.75 357.767H484.822L477.418 321.418C477.347 321.081 477.164 320.778 476.898 320.558C476.632 320.338 476.299 320.216 475.954 320.21L423.097 319.635C422.875 319.636 422.655 319.687 422.454 319.784C422.253 319.88 422.076 320.02 421.935 320.193C421.794 320.365 421.694 320.567 421.64 320.783C421.586 320.999 421.581 321.225 421.625 321.443Z" fill="#E0E0E0"/>
<path d="M421.625 321.443C421.622 321.405 421.622 321.366 421.625 321.328C421.607 321.211 421.607 321.092 421.625 320.975C421.648 320.74 421.727 320.514 421.854 320.316C421.981 320.117 422.154 319.951 422.357 319.832C422.498 319.749 422.65 319.688 422.809 319.651C422.993 319.631 423.178 319.631 423.361 319.651H424.603H427.713L447.695 319.84L461.631 319.98L469.43 320.062L473.543 320.103H475.633C475.814 320.103 475.978 320.103 476.168 320.103C476.353 320.125 476.534 320.177 476.702 320.259C477.046 320.433 477.315 320.725 477.459 321.081C477.53 321.25 477.58 321.427 477.607 321.608L477.714 322.134C477.788 322.487 477.854 322.841 477.928 323.194C478.076 323.901 478.216 324.608 478.364 325.323C478.649 326.764 478.943 328.214 479.244 329.671C479.848 332.603 480.459 335.603 481.079 338.672C482.329 344.796 483.621 351.175 484.962 357.734L484.863 357.66H498.536C498.716 357.64 498.898 357.64 499.079 357.66C499.443 357.738 499.765 357.951 499.979 358.256C500.193 358.561 500.283 358.936 500.231 359.304C500.194 359.529 500.107 359.743 499.976 359.929C499.844 360.116 499.673 360.27 499.474 360.381C499.271 360.483 499.05 360.542 498.824 360.554H462.067H429.596H429.539V360.496C427.071 348.487 425.121 338.713 423.78 331.948C423.097 328.562 422.563 325.931 422.209 324.139C422.028 323.243 421.896 322.561 421.798 322.101C421.699 321.64 421.666 321.402 421.666 321.402C421.666 321.402 421.724 321.64 421.822 322.093L422.25 324.131C422.612 325.915 423.163 328.545 423.854 331.932C425.245 338.697 427.244 348.462 429.712 360.472L429.638 360.414H462.108H498.832C499.03 360.404 499.224 360.351 499.4 360.258C499.574 360.162 499.724 360.028 499.838 359.866C499.952 359.703 500.027 359.517 500.058 359.321C500.107 358.997 500.03 358.667 499.844 358.398C499.657 358.129 499.375 357.942 499.054 357.874C498.887 357.861 498.719 357.861 498.552 357.874H484.748V357.8L480.881 338.73C480.256 335.672 479.648 332.663 479.055 329.737C478.751 328.266 478.463 326.819 478.167 325.389C478.027 324.665 477.879 323.958 477.739 323.252C477.665 322.898 477.591 322.545 477.525 322.191L477.418 321.665C477.389 321.497 477.345 321.332 477.286 321.172C477.15 320.861 476.908 320.608 476.604 320.457C476.454 320.382 476.293 320.335 476.127 320.317H475.608H473.51L469.397 320.268L461.59 320.177L447.662 320.013L427.68 319.766L424.57 319.725H423.328C423.147 319.704 422.965 319.704 422.785 319.725C422.627 319.755 422.477 319.814 422.341 319.898C422.142 320.014 421.972 320.175 421.845 320.367C421.718 320.56 421.637 320.779 421.608 321.007C421.601 321.153 421.607 321.299 421.625 321.443Z" fill="#263238"/>
<path d="M453.495 339.33C453.495 339.782 453.361 340.224 453.11 340.599C452.858 340.975 452.501 341.268 452.083 341.441C451.665 341.614 451.205 341.659 450.762 341.571C450.318 341.483 449.911 341.265 449.591 340.946C449.271 340.626 449.053 340.219 448.965 339.776C448.877 339.332 448.922 338.873 449.095 338.455C449.268 338.038 449.561 337.681 449.937 337.43C450.313 337.179 450.756 337.045 451.208 337.045C451.814 337.045 452.396 337.285 452.825 337.714C453.254 338.143 453.495 338.724 453.495 339.33Z" fill="white"/>
<path d="M421.691 321.764H425.319L435.191 321.813L467.809 322.043H472.531H473.683C473.881 322.037 474.08 322.05 474.276 322.084C474.575 322.143 474.852 322.285 475.076 322.492C475.3 322.7 475.461 322.966 475.542 323.26C475.625 323.638 475.69 324 475.765 324.378C476.349 327.32 476.916 330.132 477.41 332.861C478.479 338.269 479.45 343.144 480.256 347.237C481.063 351.331 481.704 354.635 482.157 356.929C482.379 358.071 482.543 358.959 482.667 359.567L482.79 360.258C482.79 360.414 482.831 360.496 482.831 360.496C482.831 360.496 482.831 360.414 482.774 360.258L482.626 359.576C482.502 358.967 482.321 358.088 482.083 356.945C481.622 354.652 480.947 351.347 480.125 347.262C479.302 343.177 478.323 338.302 477.237 332.894C476.702 330.189 476.135 327.353 475.542 324.411C475.468 324.049 475.403 323.662 475.32 323.309C475.222 322.967 474.999 322.674 474.695 322.487C474.544 322.39 474.377 322.321 474.201 322.282C474.015 322.264 473.828 322.264 473.642 322.282H472.54H467.826L435.191 321.936L425.319 321.829H422.628H421.929L421.691 321.764Z" fill="#263238"/>
<path d="M539.554 185.887L545.922 183.692C550.539 186.371 555.992 187.227 561.209 186.093C566.426 184.959 571.03 181.916 574.116 177.563C577.202 173.21 578.547 167.861 577.887 162.567C577.226 157.273 574.609 152.417 570.548 148.954C566.487 145.491 561.276 143.67 555.94 143.85C550.604 144.03 545.528 146.197 541.71 149.927C537.892 153.656 535.608 158.677 535.306 164.003C535.005 169.329 536.708 174.576 540.081 178.711L539.554 185.887Z" fill="white"/>
<path d="M539.554 185.887L539.603 185.402C539.603 185.082 539.669 184.58 539.719 184.021C539.817 182.805 539.965 181.021 540.155 178.711L540.023 178.769C540.041 178.783 540.062 178.79 540.085 178.79C540.107 178.79 540.129 178.783 540.146 178.769C540.157 178.753 540.162 178.734 540.162 178.715C540.162 178.696 540.157 178.678 540.146 178.662C537.92 175.897 536.413 172.624 535.762 169.135C534.895 164.321 535.693 159.355 538.024 155.054C539.526 152.302 541.62 149.917 544.156 148.071C546.691 146.225 549.605 144.963 552.687 144.378C555.768 143.792 558.942 143.896 561.979 144.684C565.015 145.471 567.84 146.921 570.248 148.93C572.907 151.132 574.981 153.955 576.286 157.15C577.529 160.193 578.061 163.48 577.841 166.759C577.617 169.726 576.774 172.614 575.365 175.236C573.957 177.858 572.015 180.156 569.664 181.983C566.322 184.575 562.284 186.116 558.064 186.408C553.843 186.701 549.631 185.733 545.963 183.627C545.953 183.621 545.941 183.618 545.93 183.618C545.918 183.618 545.907 183.621 545.897 183.627L541.199 185.271L539.974 185.714L539.554 185.871L539.949 185.747L541.167 185.353L545.954 183.758H545.88C549.576 185.923 553.835 186.934 558.11 186.66C562.386 186.386 566.481 184.84 569.869 182.221C572.169 180.441 574.088 178.219 575.513 175.686C577.058 172.944 577.982 169.897 578.219 166.759C578.447 163.421 577.907 160.075 576.64 156.977C575.312 153.73 573.204 150.859 570.503 148.618C568.052 146.575 565.178 145.101 562.087 144.302C558.997 143.504 555.768 143.401 552.633 144.001C549.498 144.601 546.536 145.889 543.96 147.772C541.383 149.655 539.258 152.086 537.736 154.889C536.488 157.187 535.674 159.695 535.334 162.287C535.012 164.577 535.071 166.905 535.507 169.176C536.181 172.698 537.731 175.994 540.015 178.76L540.13 178.637C540.115 178.622 540.094 178.614 540.072 178.614C540.051 178.614 540.03 178.622 540.015 178.637C539.867 180.98 539.752 182.747 539.678 184.021C539.678 184.605 539.612 185.057 539.595 185.386C539.579 185.714 539.554 185.887 539.554 185.887Z" fill="#263238"/>
<path d="M561.19 166.718H564.267V169.332H560.878L560.4 173.13H557.768L558.237 169.332H554.757L554.28 173.13H551.623L552.1 169.332H548.99V166.751H552.404L552.906 162.912H549.796V160.29H553.21L553.688 156.492H556.345L555.868 160.29H559.356L559.833 156.492H562.482L562.013 160.29H565.098V162.871H561.676L561.19 166.718ZM558.508 166.718L559.002 162.879H555.522L555.02 166.718H558.508Z" fill="#0080FF"/>
<path d="M185.923 226.05L183.693 221.118C185.23 216.63 185.032 211.729 183.136 207.379C181.241 203.03 177.786 199.546 173.45 197.612C169.115 195.678 164.212 195.435 159.706 196.929C155.2 198.424 151.416 201.548 149.098 205.688C146.78 209.828 146.096 214.685 147.179 219.304C148.263 223.923 151.037 227.97 154.955 230.649C158.873 233.329 163.652 234.447 168.353 233.785C173.055 233.122 177.338 230.727 180.362 227.069L185.923 226.05Z" fill="white"/>
<path d="M185.919 226.051L185.577 226.124L184.524 226.338L180.378 227.158L180.394 227.168C178.42 229.591 175.876 231.488 172.99 232.692C172.08 233.064 171.142 233.366 170.185 233.596C169.691 233.727 169.173 233.785 168.655 233.884C168.392 233.925 168.128 233.991 167.832 234.015L167.01 234.073C162.088 234.442 157.217 232.876 153.436 229.708C151.302 227.932 149.576 225.717 148.376 223.214C147.081 220.478 146.454 217.474 146.547 214.449C146.64 211.424 147.45 208.464 148.911 205.812L149.495 204.785L150.178 203.815L150.515 203.33C150.63 203.182 150.77 203.034 150.894 202.886L151.65 201.99C151.914 201.702 152.21 201.448 152.473 201.168C152.734 200.894 153.008 200.633 153.296 200.387C153.884 199.894 154.502 199.439 155.147 199.023C157.56 197.433 160.305 196.416 163.172 196.047C166.039 195.678 168.953 195.967 171.691 196.894C176.405 198.452 180.328 201.779 182.632 206.174C183.123 207.114 183.536 208.093 183.866 209.1C184.157 210.041 184.387 210.999 184.557 211.969C185.044 215.046 184.765 218.196 183.744 221.14C184.447 222.732 184.995 223.958 185.38 224.801C185.561 225.212 185.701 225.524 185.791 225.746C185.867 225.931 185.908 226.025 185.919 226.051C185.922 226.056 185.923 226.058 185.923 226.058L185.919 226.051Z" fill="#263238"/>
<path d="M173.945 213.909C173.812 212.92 173.379 211.996 172.702 211.262C172.064 210.506 171.199 209.975 170.234 209.75C169.424 209.566 168.576 209.654 167.82 210C167.065 210.347 166.445 210.932 166.055 211.665C165.777 211.182 165.395 210.766 164.936 210.448C164.51 210.154 164.029 209.949 163.521 209.846C163.014 209.743 162.49 209.744 161.983 209.848C161.024 210.076 160.16 210.599 159.515 211.344C158.829 212.071 158.386 212.993 158.248 213.983C158.089 215.245 158.34 216.524 158.964 217.633C159.694 218.755 160.681 219.687 161.843 220.354C163.727 221.496 166.212 222.935 166.212 222.935C166.212 222.935 168.318 221.373 170.218 220.247C171.387 219.596 172.383 218.674 173.122 217.559C173.78 216.461 174.068 215.182 173.945 213.909Z" fill="#0080FF"/>
<path d="M112.582 136.921L109.291 131.331C110.947 126.456 110.719 121.138 108.65 116.422C106.581 111.707 102.822 107.935 98.1119 105.848C93.4014 103.761 88.08 103.51 83.1938 105.145C78.3075 106.779 74.2097 110.18 71.7059 114.68C69.202 119.18 68.4732 124.453 69.6626 129.463C70.852 134.472 73.8736 138.856 78.1335 141.752C82.3935 144.649 87.5837 145.849 92.684 145.116C97.7843 144.383 102.426 141.771 105.696 137.792L112.582 136.921Z" fill="white"/>
<path d="M112.582 136.921L112.121 136.97L110.789 137.118L105.688 137.718L105.77 137.833C105.779 137.813 105.779 137.791 105.771 137.771C105.764 137.751 105.749 137.735 105.729 137.726C105.715 137.715 105.698 137.71 105.68 137.71C105.662 137.71 105.645 137.715 105.63 137.726C103.445 140.354 100.641 142.399 97.4695 143.677C95.4312 144.498 93.2717 144.979 91.0774 145.099C86.5953 145.382 82.1449 144.181 78.4143 141.683C74.6837 139.184 71.8807 135.528 70.4386 131.278C68.9966 127.028 68.9957 122.422 70.4363 118.172C71.8769 113.922 74.6786 110.264 78.4083 107.764C81.0445 106.013 84.0473 104.888 87.1862 104.476C90.0305 104.123 92.9173 104.367 95.6614 105.194C98.4056 106.021 100.947 107.411 103.121 109.277C106.211 111.929 108.441 115.441 109.527 119.364C110.612 123.287 110.505 127.444 109.217 131.306C109.209 131.327 109.209 131.351 109.217 131.372L111.685 135.482L112.335 136.551L112.565 136.921L112.376 136.567L111.767 135.498L109.349 131.29V131.356C110.471 128.103 110.754 124.62 110.172 121.229C109.27 115.965 106.374 111.25 102.084 108.064C97.7945 104.879 92.4412 103.467 87.1368 104.123C83.9422 104.542 80.886 105.686 78.2027 107.468C75.3859 109.343 73.077 111.884 71.4815 114.866C69.7122 118.125 68.8506 121.799 68.9866 125.503C69.1226 129.208 70.2513 132.809 72.2549 135.929C74.2584 139.05 77.0634 141.576 80.3771 143.244C83.6908 144.912 87.3918 145.66 91.0939 145.412C93.3192 145.281 95.5073 144.781 97.5683 143.932C100.778 142.627 103.607 140.535 105.795 137.849L105.655 137.767C105.647 137.787 105.646 137.809 105.654 137.829C105.662 137.849 105.677 137.865 105.696 137.874H105.746L110.887 137.167L112.187 136.978L112.582 136.921Z" fill="#263238"/>
<path d="M95.2566 124.73C95.2566 125.117 95.3714 125.495 95.5866 125.817C95.8017 126.139 96.1075 126.39 96.4653 126.538C96.823 126.686 97.2167 126.725 97.5965 126.649C97.9763 126.574 98.3252 126.387 98.599 126.114C98.8728 125.84 99.0593 125.491 99.1349 125.112C99.2104 124.732 99.1716 124.339 99.0234 123.982C98.8753 123.624 98.6243 123.319 98.3023 123.104C97.9803 122.889 97.6018 122.774 97.2145 122.774C96.6953 122.774 96.1972 122.98 95.8301 123.347C95.4629 123.714 95.2566 124.211 95.2566 124.73Z" fill="#263238"/>
<path d="M87.4165 124.73C87.4165 125.117 87.5313 125.495 87.7465 125.817C87.9616 126.139 88.2674 126.39 88.6252 126.538C88.9829 126.686 89.3766 126.725 89.7564 126.649C90.1362 126.574 90.4851 126.387 90.7589 126.114C91.0328 125.84 91.2192 125.491 91.2948 125.112C91.3703 124.732 91.3316 124.339 91.1834 123.982C91.0352 123.624 90.7842 123.319 90.4622 123.104C90.1402 122.889 89.7617 122.774 89.3744 122.774C88.8558 122.776 88.3591 122.983 87.9924 123.349C87.6256 123.716 87.4187 124.212 87.4165 124.73Z" fill="#263238"/>
<path d="M79.5929 123.752C79.4013 124.088 79.3134 124.473 79.3403 124.858C79.3673 125.243 79.5079 125.612 79.7443 125.918C79.9808 126.224 80.3026 126.453 80.6691 126.576C81.0356 126.699 81.4304 126.711 81.8038 126.61C82.1771 126.51 82.5123 126.301 82.7669 126.01C83.0216 125.719 83.1844 125.36 83.2348 124.977C83.2852 124.593 83.2209 124.204 83.05 123.857C82.8792 123.511 82.6095 123.222 82.2748 123.029C81.8231 122.77 81.287 122.701 80.7842 122.836C80.2813 122.972 79.8529 123.301 79.5929 123.752Z" fill="#263238"/>
<path d="M477.723 255.987L503.299 265.925L512.628 258.248L519.111 265.153L502.106 275.452L476.489 262.095L477.723 255.987Z" fill="#7D4336"/>
<path d="M523.578 244.504C522.818 245.675 521.971 246.788 521.044 247.833C519.67 249.411 509.979 259.3 509.979 259.3L513.591 264.043L521.579 261.708L523.578 244.504Z" fill="#E0E0E0"/>
<path d="M513.583 264.068L509.963 259.316C510.053 259.218 519.662 249.411 521.02 247.849C521.942 246.816 522.789 245.717 523.553 244.561L523.603 244.487V244.578L521.571 261.725L513.583 264.068ZM510.012 259.3L513.599 264.018L521.562 261.692L523.545 244.594C522.798 245.732 521.974 246.817 521.077 247.841C519.72 249.378 510.407 258.93 510.053 259.3H510.012Z" fill="#263238"/>
<path d="M531.574 200.321C533.285 197.962 538.156 197.732 539.431 199.014C540.237 198.516 541.204 198.346 542.132 198.54C543.06 198.735 543.878 199.278 544.416 200.058L549.665 200.593C550.566 200.618 551.447 200.863 552.231 201.308C552.614 201.544 552.897 201.911 553.028 202.341C553.158 202.771 553.126 203.234 552.939 203.642C553.381 203.75 553.79 203.963 554.131 204.264C554.472 204.564 554.735 204.943 554.897 205.368C555.059 205.793 555.115 206.25 555.06 206.701C555.006 207.153 554.843 207.584 554.584 207.958C554.777 208.141 554.93 208.361 555.035 208.604C555.139 208.848 555.193 209.111 555.193 209.376C555.193 209.641 555.139 209.904 555.035 210.147C554.93 210.391 554.777 210.611 554.584 210.794C556.193 212.33 557.528 214.128 558.533 216.112C559.024 216.908 559.222 217.85 559.092 218.775C558.87 219.68 557.801 220.419 556.986 219.951C557.285 220.279 557.481 220.688 557.55 221.126C557.618 221.564 557.557 222.013 557.373 222.417C558.245 222.335 558.656 223.642 558.13 224.34C557.825 224.651 557.46 224.897 557.057 225.061C556.653 225.225 556.221 225.304 555.785 225.294C554.907 225.263 554.043 225.513 553.317 226.009C553.36 226.22 553.484 226.406 553.663 226.527C554.455 226.995 555.036 227.749 555.286 228.634C555.535 229.519 555.434 230.466 555.004 231.278C554.922 231.434 554.839 231.582 554.765 231.705C554.141 232.539 553.355 233.238 552.454 233.76C550.611 235.002 549.426 234.944 547.279 235.511C548.036 236.851 544.811 240.369 540.426 237.772C533.423 240.662 526.039 242.528 518.502 243.312C517.301 243.452 515.845 243.452 515.211 242.441C514.728 242.594 514.213 242.62 513.716 242.518C513.219 242.416 512.757 242.188 512.373 241.857C511.609 241.192 510.966 240.399 510.473 239.514C509.406 239.331 508.421 238.823 507.654 238.059C506.887 237.296 506.374 236.314 506.187 235.248C505.423 234.774 504.766 234.146 504.258 233.404C503.749 232.663 503.401 231.824 503.233 230.941C502.723 230.821 502.242 230.596 501.822 230.282C501.403 229.967 501.052 229.569 500.794 229.113C500.535 228.657 500.373 228.153 500.319 227.631C500.264 227.11 500.318 226.583 500.477 226.083C500.619 223.563 501.175 221.083 502.123 218.742C500.716 218.603 499.984 216.811 500.403 215.454C500.823 214.098 501.975 213.136 503.077 212.249C502.082 212.635 501.037 211.427 501.169 210.391C501.418 209.341 502.071 208.432 502.987 207.859C504.235 206.909 505.591 206.109 507.026 205.475C507.314 203.618 509.387 201.3 510.983 200.305C517.441 196.302 522.13 194.937 531.55 200.305" fill="#263238"/>
<path d="M514.06 215.487C514.06 210.728 516.849 204.719 521.604 204.933L536.593 207.752C537.288 207.785 537.947 208.076 538.439 208.569C538.93 209.061 539.22 209.72 539.25 210.416L540.689 242.038C540.779 244.04 540.173 246.012 538.973 247.618C537.773 249.224 536.055 250.366 534.108 250.85C532.901 251.149 531.643 251.186 530.42 250.958C529.197 250.73 528.037 250.242 527.02 249.528C526.002 248.813 525.149 247.888 524.52 246.816C523.891 245.743 523.499 244.549 523.372 243.312C523.15 241.15 522.969 239.531 522.969 239.539C522.969 239.547 516.849 238.906 515.113 231.089C514.249 227.217 514.051 220.773 514.06 215.487Z" fill="#C27461"/>
<path d="M516.47 222.129C516.483 222.393 516.599 222.641 516.792 222.821C516.986 223.001 517.242 223.098 517.507 223.091C517.636 223.093 517.765 223.069 517.885 223.021C518.005 222.973 518.115 222.901 518.207 222.81C518.299 222.719 518.372 222.61 518.421 222.49C518.47 222.37 518.495 222.242 518.494 222.113C518.492 221.979 518.463 221.847 518.41 221.725C518.356 221.603 518.279 221.492 518.183 221.4C518.087 221.307 517.973 221.235 517.848 221.186C517.724 221.138 517.591 221.115 517.457 221.118C517.325 221.116 517.193 221.14 517.071 221.191C516.949 221.241 516.838 221.316 516.745 221.411C516.653 221.505 516.581 221.618 516.533 221.741C516.486 221.865 516.464 221.997 516.47 222.129Z" fill="#263238"/>
<path d="M515.664 218.751C515.796 218.874 516.487 218.257 517.622 218.192C518.757 218.126 519.547 218.627 519.654 218.488C519.761 218.348 519.563 218.192 519.201 217.962C518.707 217.662 518.132 217.524 517.556 217.567C516.99 217.597 516.448 217.808 516.009 218.167C515.697 218.447 515.598 218.693 515.664 218.751Z" fill="#263238"/>
<path d="M526.342 221.348C526.357 221.611 526.473 221.858 526.666 222.038C526.86 222.217 527.115 222.315 527.379 222.31C527.508 222.311 527.637 222.287 527.757 222.238C527.877 222.189 527.987 222.118 528.079 222.027C528.172 221.936 528.245 221.828 528.296 221.709C528.346 221.589 528.373 221.461 528.374 221.332C528.359 221.067 528.242 220.819 528.047 220.639C527.852 220.46 527.594 220.363 527.329 220.37C527.2 220.368 527.071 220.392 526.951 220.44C526.831 220.488 526.721 220.56 526.629 220.651C526.537 220.742 526.464 220.851 526.415 220.971C526.366 221.09 526.341 221.219 526.342 221.348Z" fill="#263238"/>
<path d="M526.4 218.299C526.531 218.422 527.222 217.805 528.358 217.74C529.493 217.674 530.283 218.175 530.39 218.036C530.497 217.896 530.299 217.74 529.937 217.509C529.443 217.21 528.869 217.07 528.292 217.107C527.725 217.143 527.184 217.356 526.745 217.715C526.433 217.994 526.334 218.241 526.4 218.299Z" fill="#263238"/>
<path d="M522.936 226.617C522.348 226.48 521.747 226.411 521.143 226.412C520.863 226.412 520.592 226.362 520.534 226.173C520.5 225.892 520.549 225.606 520.674 225.351L521.365 223.181C522.022 221.34 522.528 219.449 522.879 217.526C522.747 217.485 521.875 219.992 520.913 223.05C520.682 223.806 520.46 224.538 520.254 225.228C520.103 225.576 520.077 225.965 520.18 226.33C520.224 226.426 520.29 226.51 520.373 226.576C520.456 226.642 520.554 226.687 520.658 226.708C520.814 226.74 520.975 226.753 521.135 226.749C521.738 226.786 522.344 226.742 522.936 226.617Z" fill="#263238"/>
<path d="M522.969 239.564C526.695 239.392 530.3 238.191 533.384 236.095C533.384 236.095 531.147 241.668 523.216 241.421L522.969 239.564Z" fill="#7D4336"/>
<path d="M525.684 213.835C525.808 214.131 526.885 213.917 528.152 213.999C529.419 214.082 530.497 214.353 530.62 214.082C530.686 213.95 530.488 213.679 530.052 213.416C529.47 213.092 528.818 212.914 528.152 212.898C527.495 212.854 526.836 212.973 526.235 213.243C525.807 213.449 525.585 213.72 525.684 213.835Z" fill="#263238"/>
<path d="M515.812 214.978C516.026 215.208 516.758 214.904 517.663 214.838C518.568 214.772 519.308 214.904 519.498 214.632C519.572 214.501 519.432 214.263 519.086 214.049C518.62 213.796 518.089 213.687 517.56 213.736C517.032 213.784 516.529 213.987 516.116 214.32C515.812 214.6 515.722 214.863 515.812 214.978Z" fill="#263238"/>
<path d="M510.925 219.638C510.824 218.389 511.159 217.143 511.872 216.112C512.334 215.614 512.771 215.093 513.18 214.55C513.936 213.293 513.64 211.698 513.871 210.243C514.027 209.301 514.408 208.411 514.981 207.648C515.553 206.884 516.301 206.268 517.161 205.853C518.576 205.171 520.263 205.031 521.563 204.209C522.533 203.56 523.208 202.565 524.212 201.941C526.169 200.782 528.662 201.587 530.719 202.533C531.27 204.029 530.439 205.467 529.633 206.84C529.227 207.529 528.677 208.122 528.019 208.578C527.361 209.034 526.612 209.341 525.824 209.478C524.598 209.684 523.134 209.552 522.361 210.522C521.587 211.492 522.081 213.128 521.439 214.263C520.534 215.907 518.042 215.57 516.544 216.679C515.393 217.501 515.031 219.055 514.545 220.411C514.06 221.767 513.13 223.222 511.691 223.305C511.295 222.116 511.038 220.886 510.925 219.638Z" fill="#263238"/>
<path d="M527.922 205.632C531.506 205.217 535.137 205.496 538.616 206.454C539.683 206.653 540.66 207.185 541.405 207.974C541.926 208.766 542.211 209.69 542.228 210.638C542.508 213.589 541.701 217.32 540.87 220.165L537.423 222.754C534.519 222.384 535.301 217.353 535.178 214.887C534.142 214.544 533.224 213.916 532.529 213.076C531.833 212.236 531.389 211.217 531.245 210.136C530.387 209.685 529.642 209.045 529.066 208.265C528.491 207.485 528.099 206.584 527.922 205.632Z" fill="#263238"/>
<path d="M537.415 221.652C537.349 219.951 539.39 219.408 540.928 220.123C541.751 220.51 542.475 221.389 542.573 223.189C542.812 227.99 537.942 227.234 537.925 227.094C537.909 226.954 537.498 223.633 537.415 221.652Z" fill="#C27461"/>
<path d="M539.291 225.228C539.291 225.228 539.373 225.286 539.521 225.343C539.722 225.425 539.946 225.425 540.146 225.343C540.437 225.125 540.665 224.836 540.81 224.503C540.954 224.17 541.009 223.805 540.969 223.444C540.965 223.03 540.866 222.623 540.681 222.252C540.627 222.105 540.538 221.973 540.422 221.867C540.306 221.761 540.167 221.685 540.015 221.644C539.918 221.622 539.816 221.635 539.728 221.682C539.641 221.729 539.573 221.806 539.538 221.899C539.48 222.039 539.538 222.129 539.488 222.137C539.439 222.146 539.381 222.063 539.406 221.866C539.431 221.745 539.494 221.635 539.587 221.554C539.712 221.447 539.875 221.393 540.04 221.406C540.239 221.437 540.428 221.518 540.587 221.641C540.747 221.765 540.873 221.927 540.953 222.113C541.176 222.519 541.298 222.973 541.306 223.436C541.35 223.861 541.267 224.29 541.068 224.669C540.869 225.047 540.563 225.359 540.188 225.565C540.06 225.61 539.924 225.625 539.791 225.609C539.657 225.593 539.528 225.547 539.414 225.475C539.299 225.318 539.274 225.228 539.291 225.228Z" fill="#7D4336"/>
<path d="M541.948 227.949C542.204 227.931 542.458 227.887 542.705 227.817C542.994 227.746 543.272 227.633 543.528 227.48H543.462C543.571 227.877 543.781 228.24 544.071 228.531C544.362 228.823 544.723 229.035 545.12 229.146C545.517 229.257 545.936 229.263 546.336 229.164C546.736 229.065 547.103 228.865 547.402 228.582H547.32C547.404 228.682 547.506 228.764 547.622 228.823C547.738 228.882 547.865 228.918 547.995 228.927C548.258 228.955 548.523 228.906 548.76 228.787C549.006 228.662 549.205 228.46 549.327 228.212C549.452 227.957 549.506 227.673 549.484 227.39C549.443 226.813 549.202 226.269 548.801 225.853C548.384 225.433 547.917 225.066 547.411 224.759V224.875C547.596 224.728 547.749 224.543 547.86 224.334C547.97 224.124 548.036 223.894 548.052 223.658C548.095 223.177 547.995 222.694 547.764 222.269C547.517 221.844 547.19 221.47 546.802 221.167C546.411 220.867 546.002 220.593 545.576 220.345V220.452C545.727 220.25 545.834 220.018 545.89 219.771C545.945 219.525 545.947 219.269 545.897 219.022C545.81 218.51 545.569 218.037 545.206 217.666C544.499 217.023 543.655 216.551 542.738 216.285L542.787 216.367C542.858 215.857 542.804 215.337 542.63 214.852C542.456 214.367 542.167 213.931 541.788 213.582C541.409 213.233 540.951 212.981 540.453 212.848C539.955 212.714 539.432 212.703 538.929 212.816L539.011 212.89C539.044 212.472 538.981 212.051 538.827 211.661C538.673 211.271 538.432 210.921 538.123 210.638C537.845 210.365 537.511 210.155 537.145 210.022C536.779 209.888 536.389 209.835 536 209.865L536.066 209.914C536.011 209.536 535.878 209.174 535.676 208.849C535.474 208.525 535.207 208.246 534.891 208.03C534.576 207.814 534.22 207.665 533.844 207.593C533.469 207.522 533.082 207.528 532.71 207.613L532.767 207.654C532.694 207.223 532.516 206.816 532.249 206.47C532.026 206.149 531.747 205.871 531.426 205.648C530.931 205.286 530.328 205.101 529.715 205.122H529.534H529.37C529.27 205.138 529.171 205.16 529.073 205.188C528.921 205.236 528.772 205.297 528.629 205.369L528.374 205.508L528.292 205.558L528.382 205.516L528.646 205.393C528.787 205.328 528.932 205.273 529.082 205.229C529.178 205.2 529.277 205.181 529.378 205.171H529.542H529.723C530.317 205.166 530.895 205.357 531.369 205.714C531.69 205.936 531.969 206.214 532.191 206.536C532.447 206.87 532.617 207.263 532.685 207.678V207.736H532.734C533.092 207.659 533.463 207.656 533.822 207.728C534.181 207.8 534.522 207.945 534.822 208.154C535.123 208.363 535.378 208.631 535.571 208.942C535.763 209.254 535.89 209.601 535.943 209.963V210.021H536.008C536.392 210.004 536.774 210.068 537.131 210.208C537.488 210.348 537.812 210.561 538.082 210.834C538.351 211.106 538.561 211.432 538.697 211.791C538.833 212.149 538.892 212.532 538.871 212.914V213.013H538.962C539.43 212.916 539.914 212.927 540.378 213.045C540.841 213.164 541.271 213.386 541.636 213.695C542.012 214.031 542.302 214.454 542.478 214.926C542.654 215.399 542.712 215.908 542.647 216.408V216.466H542.697C543.61 216.721 544.453 217.179 545.165 217.805C545.507 218.158 545.736 218.604 545.823 219.088C545.869 219.315 545.867 219.55 545.816 219.777C545.765 220.004 545.666 220.217 545.527 220.403L545.477 220.469L545.543 220.51C546.409 220.943 547.148 221.591 547.69 222.392C547.909 222.794 548.004 223.252 547.962 223.707C547.948 223.923 547.889 224.133 547.788 224.324C547.688 224.516 547.548 224.683 547.378 224.817L547.304 224.875L547.386 224.932C547.882 225.233 548.34 225.592 548.752 226.001C549.137 226.389 549.371 226.902 549.41 227.447C549.438 227.701 549.391 227.957 549.274 228.184C549.157 228.411 548.975 228.598 548.752 228.722C548.548 228.84 548.31 228.888 548.076 228.857C547.842 228.825 547.625 228.717 547.46 228.549V228.5L547.419 228.549C547.104 228.838 546.716 229.036 546.297 229.12C545.878 229.204 545.443 229.171 545.041 229.026C544.703 228.899 544.4 228.694 544.156 228.429C543.911 228.163 543.733 227.844 543.635 227.497V227.447H543.585C543.331 227.604 543.053 227.718 542.763 227.784C542.518 227.853 542.267 227.899 542.014 227.924C541.616 227.97 541.213 227.934 540.829 227.817C540.588 227.757 540.376 227.614 540.229 227.415C540.138 227.275 540.114 227.184 540.105 227.184C540.097 227.184 540.105 227.184 540.105 227.25C540.127 227.312 540.158 227.37 540.196 227.423C540.337 227.636 540.55 227.791 540.796 227.858" fill="#455A64"/>
<path d="M557.669 220.115C557.728 220.019 557.778 219.917 557.817 219.811C557.935 219.502 557.989 219.172 557.974 218.841C557.957 218.308 557.763 217.796 557.423 217.386C557.195 217.113 556.913 216.89 556.594 216.731C556.275 216.573 555.927 216.482 555.572 216.465L555.621 216.523C555.694 215.695 555.45 214.869 554.938 214.213C554.661 213.844 554.307 213.538 553.902 213.317C553.458 213.12 552.998 212.961 552.528 212.84C552.292 212.771 552.068 212.669 551.861 212.536C551.656 212.4 551.487 212.217 551.368 212.002C551.104 211.566 550.981 211.032 550.66 210.572C550.32 210.101 549.848 209.741 549.303 209.539C548.758 209.337 548.165 209.302 547.6 209.437L547.69 209.511C547.706 208.936 547.594 208.364 547.362 207.837C547.13 207.309 546.784 206.84 546.349 206.462C545.892 206.074 545.351 205.798 544.768 205.655C544.186 205.513 543.578 205.507 542.993 205.64L543.075 205.706C543.077 205.062 542.894 204.431 542.549 203.888C542.203 203.345 541.709 202.912 541.125 202.64C540.541 202.369 539.891 202.27 539.253 202.356C538.614 202.442 538.014 202.708 537.522 203.124H537.605C537.077 202.729 536.471 202.448 535.828 202.302C535.252 202.157 534.661 202.086 534.067 202.089C533.11 202.088 532.161 202.254 531.262 202.582C530.683 202.786 530.141 203.083 529.658 203.461C529.531 203.562 529.41 203.669 529.296 203.782L529.18 203.905C529.18 203.905 529.345 203.749 529.674 203.486C530.179 203.133 530.734 202.856 531.319 202.664C532.212 202.35 533.153 202.194 534.1 202.204C534.683 202.207 535.263 202.282 535.828 202.426C536.456 202.572 537.045 202.852 537.555 203.248H537.596C538.051 202.88 538.593 202.637 539.171 202.544C539.748 202.45 540.339 202.508 540.887 202.713C541.487 202.96 542 203.377 542.363 203.914C542.726 204.451 542.922 205.082 542.927 205.73V205.821H543.018C543.57 205.694 544.144 205.696 544.695 205.827C545.246 205.958 545.76 206.213 546.197 206.574C546.633 206.935 546.981 207.391 547.213 207.907C547.445 208.424 547.555 208.987 547.534 209.552V209.61H547.625C548.161 209.478 548.725 209.509 549.244 209.699C549.763 209.89 550.213 210.231 550.537 210.679C550.841 211.114 550.965 211.64 551.244 212.101C551.378 212.332 551.56 212.531 551.779 212.684C551.997 212.818 552.233 212.923 552.478 212.997C552.944 213.109 553.398 213.263 553.836 213.457C554.375 213.761 554.817 214.212 555.109 214.758C555.4 215.304 555.529 215.922 555.481 216.539V216.597H555.53C555.873 216.609 556.209 216.691 556.518 216.84C556.827 216.988 557.101 217.2 557.324 217.46C557.656 217.859 557.85 218.355 557.875 218.874C557.893 219.199 557.851 219.525 557.752 219.836C557.719 220.008 557.661 220.115 557.669 220.115Z" fill="#455A64"/>
<path d="M512.159 226.28C512.189 226.219 512.204 226.151 512.204 226.083C512.204 226.015 512.189 225.947 512.159 225.886C512.09 225.734 511.979 225.606 511.838 225.516C511.65 225.398 511.441 225.32 511.221 225.286C510.952 225.245 510.689 225.167 510.44 225.055C510.164 224.892 509.947 224.644 509.823 224.349C509.677 224.005 509.596 223.637 509.584 223.263C509.584 222.869 509.584 222.441 509.527 222.006C509.333 221.056 509.029 220.132 508.622 219.252C508.442 218.752 508.363 218.221 508.392 217.69C508.399 217.412 508.468 217.139 508.593 216.891C508.718 216.642 508.897 216.424 509.115 216.252C509.63 215.936 510.183 215.688 510.761 215.512C511.061 215.395 511.339 215.229 511.583 215.019C511.827 214.795 512.008 214.512 512.11 214.197C512.273 213.564 512.375 212.917 512.414 212.265C512.44 211.94 512.518 211.621 512.645 211.32C512.776 211.025 513.002 210.782 513.286 210.629C513.705 210.471 514.142 210.363 514.586 210.309C514.814 210.265 515.034 210.185 515.236 210.07C515.437 209.948 515.601 209.775 515.713 209.569C515.902 209.166 516.026 208.736 516.083 208.295C516.201 207.696 516.502 207.149 516.944 206.728C517.386 206.307 517.947 206.033 518.551 205.944C519.294 205.844 520.046 206.029 520.658 206.462L520.723 206.511V206.429C520.924 205.824 521.25 205.268 521.679 204.796C522.109 204.325 522.632 203.949 523.216 203.692C523.717 203.485 524.254 203.378 524.795 203.379C525.255 203.374 525.713 203.452 526.145 203.609C526.753 203.829 527.284 204.22 527.675 204.736C527.78 204.872 527.876 205.014 527.963 205.163L528.029 205.27V205.311V205.27C528.029 205.27 528.029 205.196 527.963 205.155C527.889 205 527.798 204.854 527.691 204.719C527.307 204.181 526.772 203.769 526.153 203.535C525.713 203.375 525.248 203.294 524.779 203.297C524.216 203.284 523.657 203.384 523.134 203.593C522.518 203.845 521.963 204.225 521.506 204.709C521.049 205.192 520.701 205.767 520.485 206.396H520.583C519.947 205.943 519.162 205.749 518.387 205.854C517.972 205.909 517.574 206.05 517.217 206.268C516.86 206.486 516.552 206.776 516.314 207.119C516.061 207.476 515.888 207.882 515.804 208.311C515.742 208.734 515.623 209.146 515.45 209.536C515.341 209.72 515.19 209.877 515.01 209.994C514.831 210.111 514.626 210.185 514.413 210.21C513.954 210.262 513.504 210.373 513.072 210.539C512.763 210.712 512.518 210.98 512.373 211.303C512.243 211.615 512.16 211.945 512.126 212.282C512.096 212.925 511.999 213.564 511.838 214.189C511.74 214.476 511.574 214.736 511.353 214.945C511.123 215.143 510.862 215.301 510.58 215.413C510.002 215.599 509.449 215.856 508.935 216.178C508.698 216.364 508.509 216.603 508.383 216.877C508.265 217.136 508.193 217.414 508.169 217.699C508.14 218.258 508.224 218.817 508.416 219.343C508.825 220.215 509.134 221.13 509.338 222.072C509.387 222.507 509.338 222.894 509.403 223.329C509.416 223.712 509.503 224.089 509.658 224.439C509.793 224.748 510.024 225.004 510.317 225.171C510.577 225.289 510.855 225.367 511.139 225.401C511.355 225.427 511.563 225.5 511.748 225.614C511.882 225.698 511.992 225.814 512.069 225.951C512.131 226.05 512.162 226.164 512.159 226.28Z" fill="#455A64"/>
<path d="M502.106 219.877C502.109 219.847 502.109 219.816 502.106 219.786L502.205 219.507L502.592 218.414C502.756 217.945 502.937 217.362 503.225 216.712C503.508 215.963 503.999 215.31 504.64 214.83C505.002 214.583 505.463 214.394 505.858 214.147C506.079 214.024 506.284 213.872 506.466 213.695C506.661 213.508 506.807 213.277 506.894 213.021C507.067 212.503 507.009 211.945 507.133 211.377C507.191 211.11 507.329 210.866 507.528 210.679C507.742 210.493 507.987 210.346 508.252 210.243C508.539 210.13 508.814 209.99 509.074 209.824C509.34 209.644 509.541 209.385 509.65 209.084C509.812 208.464 509.884 207.825 509.864 207.185C509.874 206.872 509.95 206.564 510.086 206.281C510.16 206.142 510.26 206.019 510.382 205.918C510.503 205.818 510.643 205.743 510.794 205.697C511.403 205.5 512.102 205.648 512.793 205.467C513.119 205.358 513.405 205.155 513.615 204.884C513.818 204.608 513.989 204.31 514.126 203.996C514.256 203.695 514.401 203.402 514.562 203.116C514.714 202.843 514.932 202.612 515.195 202.442C515.763 202.187 516.399 202.127 517.005 202.27C517.609 202.393 518.233 202.379 518.831 202.228C519.379 202.028 519.887 201.73 520.328 201.349C520.737 200.995 521.181 200.684 521.653 200.42C522.534 200.014 523.516 199.877 524.475 200.026C525.265 200.129 526.022 200.41 526.688 200.848C527.184 201.193 527.625 201.611 527.996 202.089C528.223 202.397 528.424 202.724 528.596 203.067L528.736 203.33L528.785 203.42C528.785 203.42 528.785 203.42 528.785 203.322L528.654 203.05C528.491 202.701 528.296 202.368 528.07 202.056C527.708 201.564 527.269 201.133 526.77 200.782C526.099 200.317 525.331 200.011 524.524 199.886C523.542 199.73 522.535 199.864 521.628 200.272C521.152 200.541 520.703 200.855 520.287 201.209C519.852 201.567 519.356 201.846 518.823 202.031C518.24 202.159 517.637 202.159 517.054 202.031C516.738 201.988 516.419 201.966 516.1 201.965C515.762 201.959 515.429 202.048 515.138 202.221C514.847 202.393 514.611 202.644 514.455 202.944C514.29 203.234 514.142 203.533 514.01 203.84C513.878 204.132 513.712 204.407 513.517 204.662C513.308 204.924 513.019 205.112 512.694 205.196C512.052 205.369 511.353 205.196 510.687 205.434C510.513 205.481 510.35 205.563 510.209 205.675C510.067 205.786 509.95 205.925 509.864 206.084C509.718 206.384 509.636 206.712 509.626 207.045C509.642 207.671 509.575 208.295 509.428 208.903C509.326 209.181 509.139 209.42 508.893 209.585C508.632 209.745 508.357 209.879 508.071 209.988C507.793 210.1 507.534 210.255 507.306 210.448C507.088 210.653 506.938 210.92 506.878 211.213C506.754 211.78 506.804 212.331 506.647 212.857C506.468 213.324 506.118 213.706 505.668 213.926C505.257 214.172 504.846 214.361 504.443 214.624C503.793 215.121 503.297 215.79 503.011 216.556C502.74 217.214 502.567 217.805 502.403 218.274C502.238 218.742 502.131 219.096 502.049 219.367C502.008 219.49 501.983 219.589 501.958 219.655L502.106 219.877Z" fill="#455A64"/>
<path d="M506.656 214.345H506.565C506.478 214.351 506.393 214.38 506.319 214.427C506.179 214.537 506.071 214.681 506.005 214.845C505.939 215.01 505.916 215.188 505.94 215.364C505.964 215.605 506.025 215.84 506.121 216.063C506.227 216.326 506.296 216.603 506.327 216.885C506.332 217.208 506.249 217.526 506.088 217.805C505.932 218.11 505.726 218.414 505.57 218.775C505.476 218.964 505.428 219.173 505.428 219.384C505.428 219.595 505.476 219.803 505.57 219.992C505.759 220.378 506.096 220.691 506.286 221.085C506.454 221.513 506.454 221.989 506.286 222.417C506.146 222.869 505.924 223.321 505.792 223.822C505.716 224.089 505.694 224.369 505.726 224.644C505.756 224.918 505.846 225.182 505.989 225.417C506.301 225.87 506.654 226.294 507.042 226.683C507.439 227.067 507.677 227.587 507.709 228.138C507.634 228.7 507.496 229.251 507.297 229.782C507.217 230.073 507.189 230.377 507.215 230.678C507.261 230.971 507.367 231.251 507.528 231.5C507.873 231.953 508.267 232.367 508.704 232.733C509.115 233.083 509.448 233.514 509.683 233.999C509.869 234.49 510.089 234.968 510.341 235.429C510.476 235.653 510.662 235.842 510.884 235.98C511.106 236.107 511.348 236.193 511.6 236.235C511.831 236.275 512.059 236.33 512.283 236.399C512.493 236.477 512.692 236.582 512.875 236.711C513.21 236.984 513.509 237.299 513.764 237.648C514.027 237.985 514.265 238.314 514.529 238.602C514.998 239.134 515.627 239.5 516.322 239.646C516.839 239.767 517.377 239.767 517.893 239.646C518.219 239.569 518.53 239.442 518.815 239.268C518.913 239.206 519.006 239.137 519.095 239.062C518.726 239.313 518.313 239.492 517.877 239.588C517.371 239.704 516.845 239.704 516.339 239.588C515.662 239.442 515.052 239.079 514.603 238.553C514.348 238.273 514.109 237.944 513.854 237.607C513.599 237.246 513.294 236.922 512.949 236.646C512.759 236.503 512.548 236.389 512.324 236.309C512.095 236.236 511.861 236.178 511.625 236.136C511.39 236.092 511.165 236.009 510.958 235.889C510.753 235.759 510.578 235.585 510.448 235.38C510.205 234.922 509.991 234.45 509.807 233.966C509.576 233.455 509.239 232.998 508.819 232.626C508.392 232.264 508.006 231.856 507.668 231.409C507.514 231.177 507.416 230.913 507.38 230.637C507.356 230.36 507.384 230.081 507.462 229.815C507.667 229.264 507.802 228.689 507.865 228.105C507.862 227.819 507.792 227.537 507.659 227.283C507.522 227.032 507.356 226.798 507.166 226.584C506.781 226.203 506.432 225.787 506.121 225.343C505.992 225.127 505.908 224.886 505.874 224.636C505.851 224.385 505.873 224.132 505.94 223.888C506.063 223.403 506.277 222.951 506.425 222.483C506.607 222.029 506.607 221.523 506.425 221.069C506.22 220.641 505.883 220.337 505.702 219.975C505.615 219.8 505.569 219.608 505.569 219.412C505.569 219.217 505.615 219.024 505.702 218.849C505.85 218.504 506.047 218.192 506.203 217.879C506.367 217.583 506.449 217.248 506.442 216.909C506.406 216.626 506.332 216.35 506.22 216.087C506.126 215.87 506.062 215.64 506.031 215.405C506.013 215.244 506.036 215.081 506.096 214.931C506.156 214.78 506.253 214.647 506.376 214.542C506.452 214.455 506.548 214.387 506.656 214.345Z" fill="#455A64"/>
<path d="M557.529 219.975C557.658 219.962 557.785 219.934 557.908 219.893C558.37 219.752 558.785 219.487 559.105 219.126C559.426 218.765 559.641 218.322 559.726 217.846C559.791 217.455 559.769 217.053 559.661 216.671C559.553 216.289 559.362 215.935 559.101 215.635C558.777 215.308 558.421 215.013 558.04 214.756C557.626 214.494 557.28 214.139 557.028 213.72C556.808 213.242 556.775 212.7 556.937 212.199C557.069 211.673 557.299 211.139 557.414 210.555C557.54 209.913 557.53 209.251 557.385 208.612C557.24 207.974 556.963 207.372 556.572 206.847C556.181 206.322 555.684 205.884 555.114 205.561C554.543 205.238 553.912 205.039 553.26 204.974L553.309 205.081C553.499 204.75 553.604 204.377 553.614 203.996C553.625 203.609 553.561 203.224 553.424 202.861C553.287 202.497 553.087 202.161 552.832 201.867C552.574 201.57 552.272 201.314 551.935 201.111C550.926 200.547 549.799 200.227 548.645 200.173C547.566 200.085 546.48 200.151 545.42 200.371L545.502 200.437C545.442 199.985 545.292 199.551 545.06 199.16C544.827 198.768 544.518 198.428 544.151 198.159C543.783 197.89 543.365 197.698 542.922 197.595C542.478 197.492 542.018 197.48 541.57 197.56C541.036 197.671 540.522 197.865 540.048 198.135C539.816 198.244 539.574 198.327 539.324 198.382C539.085 198.427 538.839 198.427 538.6 198.382C538.137 198.277 537.689 198.114 537.267 197.897C536.868 197.701 536.445 197.56 536.008 197.477C535.602 197.416 535.189 197.416 534.783 197.477C534.087 197.555 533.423 197.813 532.858 198.225C532.439 198.531 532.081 198.913 531.805 199.351C531.631 199.625 531.491 199.917 531.385 200.223C531.35 200.33 531.323 200.44 531.303 200.552C531.303 200.552 531.303 200.437 531.41 200.231C531.52 199.942 531.664 199.666 531.838 199.409C532.122 198.981 532.481 198.607 532.899 198.308C533.459 197.913 534.11 197.667 534.791 197.592C535.191 197.549 535.596 197.563 535.992 197.634C536.42 197.724 536.834 197.868 537.226 198.061C537.655 198.279 538.108 198.448 538.575 198.562C538.831 198.608 539.093 198.608 539.349 198.562C539.607 198.505 539.858 198.419 540.097 198.308C540.562 198.047 541.064 197.858 541.586 197.749C542.017 197.674 542.459 197.687 542.885 197.787C543.31 197.887 543.712 198.072 544.064 198.331C544.417 198.589 544.714 198.916 544.937 199.292C545.16 199.668 545.304 200.085 545.362 200.519V200.593H545.436C546.483 200.38 547.555 200.316 548.62 200.404C549.745 200.458 550.843 200.77 551.828 201.316C552.136 201.52 552.413 201.766 552.651 202.048C552.896 202.329 553.088 202.652 553.219 203.001C553.344 203.343 553.405 203.706 553.4 204.07C553.385 204.427 553.286 204.777 553.112 205.089L553.062 205.188H553.169C553.802 205.252 554.415 205.447 554.968 205.76C555.522 206.073 556.004 206.498 556.385 207.007C556.766 207.516 557.036 208.099 557.179 208.719C557.322 209.338 557.335 209.98 557.217 210.605C557.102 211.172 556.88 211.706 556.748 212.249C556.584 212.778 556.622 213.349 556.855 213.852C557.116 214.286 557.477 214.653 557.908 214.92C558.284 215.173 558.634 215.462 558.953 215.783C559.207 216.07 559.395 216.41 559.503 216.778C559.611 217.146 559.637 217.533 559.578 217.912C559.485 218.489 559.194 219.015 558.755 219.4C558.482 219.643 558.163 219.831 557.817 219.951C557.661 219.951 557.529 219.967 557.529 219.975Z" fill="#263238"/>
<path d="M504.624 211.254C504.627 211.224 504.627 211.194 504.624 211.164V210.892C504.624 210.646 504.624 210.292 504.624 209.848C504.624 209.405 504.624 208.846 504.681 208.204C504.734 207.481 504.872 206.766 505.093 206.075C505.361 205.241 505.805 204.474 506.392 203.823C506.726 203.473 507.112 203.176 507.536 202.944C508.003 202.718 508.484 202.523 508.976 202.36C509.503 202.178 509.991 201.899 510.415 201.538C510.832 201.141 511.197 200.694 511.501 200.206C511.822 199.721 512.126 199.212 512.488 198.743C512.85 198.26 513.299 197.85 513.813 197.535C514.848 196.937 515.997 196.562 517.186 196.433C518.29 196.279 519.403 196.208 520.518 196.22C522.411 196.222 524.29 196.539 526.079 197.157C527.28 197.578 528.407 198.186 529.419 198.957C529.592 199.105 529.756 199.22 529.888 199.335L530.209 199.631L530.414 199.812L530.48 199.869C530.48 199.869 530.48 199.869 530.423 199.804L530.233 199.615L529.913 199.302C529.789 199.187 529.625 199.064 529.452 198.916C528.448 198.118 527.32 197.49 526.112 197.058C524.315 196.421 522.424 196.09 520.518 196.08C519.395 196.068 518.273 196.139 517.161 196.294C515.954 196.42 514.787 196.801 513.739 197.412C513.21 197.734 512.749 198.155 512.382 198.653C512.003 199.13 511.699 199.639 511.386 200.124C511.086 200.606 510.727 201.048 510.317 201.439C509.91 201.8 509.438 202.079 508.926 202.261C508.432 202.43 507.949 202.628 507.478 202.853C507.041 203.095 506.645 203.403 506.302 203.766C505.709 204.432 505.263 205.217 504.994 206.067C504.779 206.767 504.647 207.49 504.599 208.221C504.55 208.862 504.558 209.413 504.599 209.865C504.64 210.317 504.599 210.687 504.599 210.909V211.18C504.605 211.205 504.613 211.23 504.624 211.254Z" fill="#263238"/>
<path d="M528.242 228.952C528.184 228.632 528.038 228.334 527.822 228.09C527.606 227.847 527.328 227.667 527.017 227.571C526.705 227.482 526.374 227.491 526.068 227.597C525.762 227.703 525.496 227.901 525.306 228.163C525.139 228.421 525.061 228.727 525.084 229.034C525.106 229.341 525.227 229.632 525.429 229.864C525.62 230.109 525.881 230.289 526.178 230.382C526.558 230.501 526.966 230.501 527.346 230.382C527.681 230.312 527.976 230.115 528.168 229.831C528.297 229.556 528.323 229.244 528.242 228.952Z" fill="#7D4336"/>
<path d="M527.329 226.708C527.157 226.708 527.395 227.916 526.564 228.96C525.733 230.004 524.45 230.144 524.475 230.308C524.499 230.472 524.804 230.481 525.297 230.382C525.991 230.247 526.615 229.872 527.058 229.322C527.484 228.794 527.691 228.123 527.634 227.447C527.617 226.946 527.428 226.683 527.329 226.708Z" fill="#263238"/>
<path d="M558.007 281.946V281.124L550.734 253.661C548.933 246.871 544.153 242.424 537.308 240.953C536.642 240.813 523.594 243.945 523.471 243.961L519.103 256.834C519.103 256.834 514.989 268.301 515.639 274.096C516.067 277.688 526.178 293.002 526.178 293.002L523.487 297.112C547.073 308.817 569.145 307.428 569.145 307.428C566.965 296.134 558.007 281.946 558.007 281.946Z" fill="#EBEBEB"/>
<path d="M542.088 286.056C541.525 286.533 540.919 286.956 540.278 287.322C539.126 288.062 537.498 289.015 535.638 289.977C533.779 290.939 532.06 291.703 530.793 292.221C530.123 292.537 529.423 292.785 528.703 292.961C529.342 292.594 530.004 292.27 530.686 291.991C531.928 291.415 533.623 290.61 535.474 289.656C537.325 288.703 538.962 287.782 540.147 287.108C540.768 286.711 541.416 286.36 542.088 286.056Z" fill="#263238"/>
<path d="M536.033 265.153C536.033 265.153 510.761 286.401 506.532 286.056C502.304 285.711 470.565 265.506 470.565 265.506L475.098 257.763L505.43 271.046L528.374 250.348L536.033 265.153Z" fill="#C27461"/>
<path d="M477.254 259.431C477.352 259.193 478.142 252.551 478.142 252.551C478.142 252.551 478.66 245.211 478.693 245.153C478.726 245.096 478.521 243.567 476.925 245.523C475.329 247.48 475.617 250.529 475.617 250.529L469.488 247.422C469.488 247.422 467.127 245.975 466.699 247.57C466.55 247.454 466.379 247.369 466.197 247.322C466.014 247.275 465.823 247.266 465.637 247.296C465.451 247.326 465.273 247.395 465.114 247.497C464.956 247.599 464.82 247.733 464.716 247.891C464.504 248.224 464.385 248.607 464.37 249.001C464.356 249.396 464.447 249.787 464.634 250.135C464.634 250.135 463.326 251.59 464.198 252.683C464.198 252.683 463.112 253.151 463.992 255.042L467.357 258.585C467.357 258.585 468.023 263.303 469.002 264.487C469.981 265.67 473.116 266.682 473.116 266.682L478.405 260.599L477.254 259.431Z" fill="#C27461"/>
<path d="M477.723 255.987C477.256 257.477 476.931 259.007 476.752 260.558C476.349 263.098 475.872 265.111 475.97 265.144C476.069 265.177 476.793 263.18 477.171 260.632C477.49 259.102 477.674 257.548 477.723 255.987Z" fill="#7D4336"/>
<path d="M466.921 247.817C469.166 249.511 471.581 250.968 474.127 252.165C473.043 251.265 471.872 250.474 470.631 249.806C469.464 249.02 468.221 248.353 466.921 247.817Z" fill="#7D4336"/>
<path d="M464.535 249.798C466.753 251.553 469.21 252.984 471.832 254.047C470.7 253.207 469.5 252.462 468.245 251.82C467.065 251.047 465.825 250.37 464.535 249.798Z" fill="#7D4336"/>
<path d="M464.198 252.675C464.82 253.394 465.567 253.996 466.403 254.45C467.158 255.025 468.015 255.451 468.928 255.708C468.227 255.076 467.457 254.525 466.633 254.064C465.882 253.502 465.064 253.035 464.198 252.675Z" fill="#7D4336"/>
<path d="M470.113 258.108C470.304 258.2 470.512 258.252 470.724 258.262C470.936 258.272 471.148 258.239 471.347 258.166C471.811 258.048 472.232 257.803 472.564 257.459C472.981 257.026 473.244 256.469 473.313 255.872L473.05 256.053C473.32 256.123 473.603 256.123 473.873 256.053C474.094 255.989 474.298 255.878 474.474 255.73C474.65 255.581 474.792 255.397 474.893 255.19C475.066 254.813 475.095 254.386 474.975 253.99L474.687 254.204C474.862 254.317 475.059 254.389 475.266 254.416C475.472 254.443 475.682 254.424 475.88 254.36C476.181 254.253 476.433 254.039 476.587 253.76C476.818 253.291 476.702 252.987 476.678 252.995C476.653 253.003 476.678 253.283 476.39 253.645C476.247 253.85 476.033 253.996 475.789 254.056C475.638 254.095 475.48 254.1 475.327 254.072C475.173 254.043 475.028 253.982 474.901 253.891L474.44 253.554L474.613 254.097C474.701 254.411 474.665 254.746 474.512 255.034C474.359 255.322 474.1 255.54 473.79 255.642C473.58 255.699 473.359 255.699 473.149 255.642L472.918 255.585V255.823C472.871 256.29 472.69 256.734 472.399 257.102C472.108 257.471 471.717 257.748 471.273 257.903C470.892 258.002 470.504 258.071 470.113 258.108Z" fill="#7D4336"/>
<path d="M543.676 243.427C539.283 239.991 531.451 244.898 526.03 248.951C521.094 252.625 513.591 259.933 513.591 259.933L527.403 275.452L541.71 263.862C545.231 261.125 548.381 256.25 548.118 251.811C548.028 250.176 547.585 248.58 546.818 247.132C546.051 245.685 544.979 244.421 543.676 243.427Z" fill="#E0E0E0"/>
<path d="M543.676 243.427C543.676 243.427 543.742 243.427 543.848 243.542C543.955 243.657 544.136 243.756 544.342 243.937C544.954 244.46 545.506 245.05 545.987 245.696C546.767 246.722 547.36 247.876 547.74 249.107C548.271 250.755 548.39 252.508 548.085 254.212C547.402 258.001 544.679 262.078 540.525 265.07L527.543 275.617L527.387 275.74L527.247 275.592L522.393 270.117L513.459 260.073L513.328 259.925L513.467 259.785C517.252 256.16 520.871 252.872 524.277 250.11C527.242 247.67 530.47 245.569 533.902 243.846C536.815 242.465 539.472 241.923 541.232 242.309L541.849 242.441C542.024 242.494 542.195 242.56 542.359 242.638C542.631 242.727 542.889 242.854 543.125 243.016L543.552 243.312L543.692 243.427C542.943 242.939 542.104 242.607 541.224 242.449C539.497 242.112 536.905 242.679 534.034 244.093C530.643 245.846 527.452 247.96 524.516 250.398C521.135 253.168 517.54 256.472 513.772 260.097V259.818L522.722 269.854L527.593 275.329H527.296L540.327 264.816C544.441 261.873 547.131 257.894 547.847 254.204C548.154 252.542 548.058 250.831 547.567 249.214C547.215 248 546.659 246.855 545.922 245.827C545.456 245.179 544.927 244.579 544.342 244.035L543.873 243.616C543.803 243.558 543.737 243.495 543.676 243.427Z" fill="#263238"/>
<path d="M528.777 356.863L547.435 350.493C547.435 350.493 560.178 367.294 563.741 366.448L552.676 329.869L523.216 338.606L528.777 356.863Z" fill="#455A64"/>
<path d="M542.425 339.659C542.425 339.275 542.567 338.905 542.824 338.62C543.081 338.334 543.434 338.154 543.816 338.113C544.199 338.099 544.574 338.233 544.862 338.487C545.15 338.741 545.329 339.096 545.362 339.478C545.364 339.887 545.214 340.282 544.94 340.586C544.666 340.89 544.289 341.081 543.881 341.122C543.116 341.122 542.236 340.3 542.425 339.527" fill="#E0E0E0"/>
<path d="M553.433 329.622L550.578 330.444L561.445 365.56C561.445 365.56 562.655 366.974 563.741 366.439L553.433 329.622Z" fill="#E0E0E0"/>
<path d="M547.427 351.142C547.6 351.076 547.427 350.164 547.723 349.112C548.019 348.059 548.645 347.361 548.546 347.221C548.447 347.081 547.476 347.657 547.123 348.931C546.769 350.205 547.271 351.224 547.427 351.142Z" fill="#263238"/>
<path d="M550.175 354.496C550.364 354.496 550.43 353.616 550.998 352.786C551.565 351.956 552.314 351.528 552.256 351.356C552.199 351.183 551.146 351.356 550.455 352.424C549.764 353.493 550.002 354.545 550.175 354.496Z" fill="#263238"/>
<path d="M555.432 355.285C555.432 355.112 554.453 355.137 553.614 355.885C552.774 356.633 552.635 357.595 552.791 357.628C552.947 357.66 553.326 356.978 554.025 356.37C554.724 355.762 555.465 355.466 555.432 355.285Z" fill="#263238"/>
<path d="M543.018 352.12C543.157 351.997 542.664 351.249 542.425 350.221C542.187 349.194 542.269 348.306 542.088 348.257C541.907 348.207 541.496 349.161 541.792 350.369C542.088 351.578 542.902 352.252 543.018 352.12Z" fill="#263238"/>
<path d="M526.507 307.173C525.791 306.968 494.201 340.826 493.485 346.424C492.769 352.022 493.913 356.896 497.648 360.052C501.382 363.209 543.881 352.885 543.881 352.885L539.859 335.088L555.218 329.926L541.488 304.822L526.507 307.173Z" fill="#263238"/>
<g opacity="0.3">
<path d="M519.037 314.67L518.025 315.763C518.025 315.763 536.124 334.735 541.693 334.48L550.578 331.472L520.501 313.026L519.037 314.67Z" fill="black"/>
</g>
<path d="M539.974 335.557C539.974 335.664 533.392 337.702 525.256 340.094C517.12 342.486 510.448 344.344 510.448 344.204C510.448 344.065 517.03 342.067 525.166 339.667C533.302 337.267 539.941 335.442 539.974 335.557Z" fill="#263238"/>
<path d="M500.519 337.513L506.664 356.97C506.664 356.97 488.927 369.744 489.709 373.451L527.905 362.913L519.58 332.195L500.519 337.513Z" fill="#455A64"/>
<path d="M518.017 352.063C518.413 352.079 518.791 352.237 519.079 352.509C519.368 352.781 519.549 353.148 519.588 353.542C519.591 353.94 519.442 354.324 519.171 354.616C518.901 354.907 518.529 355.085 518.132 355.112C517.711 355.099 517.31 354.931 517.006 354.639C516.702 354.348 516.517 353.954 516.487 353.534C516.52 353.117 516.717 352.729 517.034 352.456C517.351 352.182 517.763 352.044 518.181 352.071" fill="#E0E0E0"/>
<path d="M528.152 363.71L527.329 360.735L490.663 371.1C490.663 371.1 489.166 372.309 489.692 373.451L528.152 363.71Z" fill="#E0E0E0"/>
<path d="M505.989 356.954C506.047 357.134 507.001 356.954 508.087 357.307C509.173 357.66 509.872 358.302 510.029 358.178C510.185 358.055 509.601 357.06 508.285 356.666C506.968 356.271 505.94 356.789 505.989 356.954Z" fill="#263238"/>
<path d="M502.444 359.707C502.444 359.905 503.34 359.995 504.196 360.611C505.052 361.228 505.463 362.009 505.644 361.951C505.825 361.894 505.644 360.8 504.583 360.061C503.521 359.321 502.394 359.535 502.444 359.707Z" fill="#263238"/>
<path d="M501.489 365.132C501.67 365.132 501.67 364.121 500.914 363.234C500.157 362.346 499.169 362.173 499.128 362.354C499.087 362.535 499.786 362.929 500.395 363.669C501.004 364.409 501.3 365.165 501.489 365.132Z" fill="#263238"/>
<path d="M505.117 352.359C505.241 352.507 506.022 352.013 507.1 351.791C508.178 351.569 509.083 351.685 509.14 351.495C509.198 351.306 508.219 350.863 506.96 351.134C505.701 351.405 504.953 352.235 505.117 352.359Z" fill="#263238"/>
<g opacity="0.3">
<path d="M528.177 356.419L525.824 347.196L527.576 346.383L516.898 317.317L514.858 319.092L523.249 345.709L526.252 356.822L528.177 356.419Z" fill="black"/>
</g>
<path d="M502.962 284.478C500.89 284.033 498.748 284.032 496.676 284.476C494.604 284.919 492.65 285.797 490.943 287.051C489.217 288.266 487.876 289.95 487.08 291.904C486.284 293.858 486.066 295.999 486.451 298.074C488.179 310.124 503.587 351.265 503.587 351.265L524.919 344.862C525.034 344.821 525.158 344.467 525.092 344.574C524.919 344.862 514.274 310.593 514.537 310.996C514.8 311.398 536.058 328.545 544.885 331.693C548.835 333.127 553.141 333.253 557.168 332.052C561.194 330.852 564.727 328.389 567.245 325.027C569.31 322.134 574.715 309.22 565.263 296.619L546.975 297.564C546.975 297.564 505.167 285.094 504.541 284.864C504.025 284.698 503.497 284.569 502.962 284.478Z" fill="#263238"/>
<path d="M568.084 324.6C568.084 324.6 568.002 324.739 567.821 325.011C567.555 325.402 567.266 325.778 566.957 326.137C565.733 327.502 564.32 328.687 562.762 329.655C560.28 331.237 557.499 332.295 554.593 332.762C552.766 333.056 550.906 333.081 549.072 332.836C546.999 332.585 544.984 331.979 543.116 331.044C542.104 330.617 541.142 330.033 540.114 329.515C539.085 328.997 538.098 328.356 537.078 327.715C535.038 326.449 532.965 325.076 530.801 323.605C526.512 320.635 522.037 317.297 517.375 313.593L515.631 312.179L514.759 311.456L514.529 311.242L514.414 311.135C514.488 311.135 514.216 311.037 514.57 311.176C514.85 310.889 514.652 311.037 514.71 311.004V311.061L514.866 311.604C515.316 313.056 515.771 314.533 516.232 316.034L519.136 325.2L525.371 344.73L525.429 344.928L525.232 344.985L503.637 351.479L503.447 351.537L503.382 351.356C502 347.665 500.568 343.736 499.145 339.749C496.052 331.093 493.106 322.61 490.515 314.333C489.215 310.223 487.998 306.113 487.035 302.044C486.92 301.534 486.78 301.033 486.681 300.523C486.583 300.014 486.492 299.496 486.402 298.986C486.189 297.97 486.087 296.934 486.097 295.895C486.101 293.828 486.698 291.806 487.817 290.067C488.945 288.449 490.401 287.085 492.09 286.064C493.78 285.043 495.664 284.388 497.623 284.141C499.493 283.884 501.394 283.967 503.234 284.387L504.583 284.724L505.882 285.111L508.449 285.875L527.371 291.514L554.716 299.734L562.12 301.978L564.053 302.578C564.481 302.71 564.703 302.792 564.703 302.792C564.703 302.792 564.473 302.743 564.037 302.619L562.095 302.06L554.642 299.89L527.255 291.81L508.334 286.22L505.767 285.456L504.468 285.078L503.159 284.749C501.362 284.341 499.505 284.266 497.681 284.527C495.777 284.766 493.945 285.402 492.302 286.393C490.66 287.384 489.244 288.709 488.146 290.281C487.074 291.961 486.503 293.911 486.5 295.904C486.493 296.917 486.592 297.928 486.797 298.92C486.895 299.422 486.986 299.931 487.085 300.441C487.183 300.951 487.315 301.444 487.43 301.953C488.401 305.998 489.61 310.083 490.91 314.209C493.51 322.479 496.455 330.954 499.548 339.609C500.971 343.588 502.403 347.525 503.776 351.208L503.521 351.084L525.125 344.599L524.993 344.854L518.782 325.315C517.795 322.191 516.832 319.125 515.894 316.141C515.434 314.645 514.978 313.168 514.529 311.711L514.372 311.152V311.069C514.43 311.02 514.224 311.135 514.504 310.831C514.882 310.987 514.627 310.889 514.718 310.93L514.808 311.012L515.006 311.185L515.829 311.908L517.564 313.322C522.196 317.021 526.68 320.383 530.941 323.35C533.072 324.846 535.161 326.219 537.193 327.46C538.205 328.101 539.233 328.668 540.212 329.26C541.191 329.852 542.195 330.362 543.19 330.797C545.034 331.727 547.024 332.333 549.072 332.589C550.886 332.842 552.727 332.825 554.535 332.54C557.42 332.098 560.184 331.069 562.655 329.515C564.215 328.568 565.635 327.409 566.875 326.071C567.191 325.72 567.488 325.353 567.763 324.969C567.977 324.731 568.084 324.6 568.084 324.6Z" fill="#455A64"/>
<path d="M504.797 301.559C505.428 301.795 506.024 302.119 506.565 302.521C507.933 303.399 509.214 304.407 510.391 305.529C511.573 306.648 512.634 307.888 513.558 309.228C513.97 309.766 514.3 310.361 514.537 310.996C514.096 310.493 513.686 309.963 513.311 309.409C512.338 308.135 511.265 306.939 510.103 305.833C508.932 304.734 507.696 303.708 506.401 302.759C505.835 302.402 505.299 302 504.797 301.559Z" fill="#263238"/>
<path d="M512.077 299.208C512.411 299.702 512.671 300.242 512.85 300.811C513.369 302.148 513.787 303.522 514.101 304.921C514.411 306.32 514.615 307.741 514.71 309.171C514.798 309.762 514.798 310.363 514.71 310.954C514.578 310.954 514.446 308.258 513.714 305.02C512.982 301.781 511.954 299.208 512.077 299.208Z" fill="#263238"/>
<path d="M216.263 155.268L217.636 146.316L223.765 137.274L224.152 138.581L225.501 136.83C225.501 136.83 226.941 138.145 226.595 139.477C225.833 141.443 224.959 143.364 223.979 145.231L229.845 138.655C229.845 138.655 230.668 139.896 229.499 141.885C228.331 143.875 225.205 148.601 225.205 148.601C225.205 148.601 223.428 158.317 223.025 160.175C222.622 162.033 220.861 162.69 219.068 163.66C217.274 164.63 212.487 165.592 212.487 165.592L212.133 155.851L216.263 155.268Z" fill="#FFBF9D"/>
<path d="M118.226 172.077C118.226 172.077 115.247 186.052 129.8 184.703C144.353 183.355 179.506 175.086 179.506 175.086L213.548 164.4L212.495 154.158L170.218 160.002C170.218 160.002 129.842 161.753 123.918 163.101C117.329 164.556 118.226 172.077 118.226 172.077Z" fill="#455A64"/>
<path d="M25.9634 329.49L11.0485 351.315L39.7431 371.043C41.3884 368.338 30.1014 352.959 30.1014 352.959L40.3107 339.363L25.9634 329.49Z" fill="#455A64"/>
<g opacity="0.6">
<path d="M22.0392 345.667C21.7261 345.56 21.3842 345.573 21.08 345.704C20.7759 345.834 20.5313 346.073 20.3939 346.374C20.297 346.696 20.3233 347.043 20.4677 347.347C20.6121 347.651 20.8644 347.89 21.1754 348.018C21.5113 348.143 21.8821 348.135 22.2124 347.996C22.5426 347.857 22.8073 347.598 22.9524 347.27C23.0158 346.92 22.9476 346.558 22.7609 346.255C22.5742 345.952 22.2821 345.728 21.9405 345.626" fill="white"/>
</g>
<g opacity="0.6">
<path d="M11.0485 351.315L12.6362 349.177L39.5621 368.856C39.5621 368.856 40.4753 370.262 39.7431 371.01L11.0485 351.315Z" fill="white"/>
</g>
<path d="M30.6609 353.115C30.5704 353.246 29.8382 352.819 28.8428 352.77C27.8473 352.72 27.1069 353.024 27.0164 352.885C26.9259 352.745 27.6581 352.128 28.851 352.202C30.0439 352.276 30.776 353.016 30.6609 353.115Z" fill="#263238"/>
<path d="M32.9068 356.353C32.8492 356.501 32.0841 356.353 31.2203 356.543C30.3565 356.732 29.8135 357.274 29.6737 357.167C29.5338 357.06 29.9698 356.263 31.0475 355.992C32.1252 355.721 32.9479 356.222 32.9068 356.353Z" fill="#263238"/>
<path d="M32.2239 360.924C32.0758 360.866 32.3391 360.102 33.1947 359.592C34.0502 359.082 34.914 359.28 34.8976 359.428C34.8811 359.576 34.2065 359.691 33.5073 360.094C32.808 360.496 32.372 361.006 32.2239 360.924Z" fill="#263238"/>
<path d="M32.6187 349.753C32.4707 349.835 31.9524 349.21 31.1297 348.717C30.307 348.224 29.4844 348.035 29.4844 347.895C29.4844 347.755 30.414 347.665 31.3765 348.265C32.339 348.865 32.7586 349.695 32.6187 349.753Z" fill="#263238"/>
<path d="M34.149 346.062C34.149 346.12 33.5073 345.824 32.7175 345.076C32.2633 344.629 31.8604 344.132 31.5165 343.596C31.3157 343.281 31.1344 342.955 30.9735 342.618C30.8752 342.423 30.8032 342.215 30.7596 342.001C30.7323 341.846 30.7601 341.687 30.8383 341.55C30.9164 341.414 31.0399 341.309 31.1874 341.253C31.3249 341.21 31.4704 341.199 31.6129 341.221C31.7553 341.242 31.8911 341.295 32.01 341.377C32.1915 341.498 32.3549 341.645 32.4954 341.812C32.7533 342.094 32.9872 342.396 33.1947 342.716C33.5348 343.249 33.7902 343.832 33.9515 344.443C34.1558 344.982 34.1846 345.571 34.0338 346.128C33.9433 346.128 33.9022 345.487 33.5567 344.541C33.3495 343.991 33.073 343.469 32.734 342.988C32.5394 342.695 32.3191 342.42 32.0759 342.166C31.8291 341.886 31.5658 341.705 31.4013 341.779C31.2367 341.853 31.3272 341.829 31.3272 341.952C31.3596 342.11 31.415 342.262 31.4918 342.404C31.6298 342.723 31.7864 343.033 31.9607 343.333C32.2641 343.849 32.6138 344.336 33.0055 344.788C33.7294 345.594 34.2066 346.004 34.149 346.062Z" fill="#263238"/>
<path d="M33.8364 346.136C33.7706 346.136 33.8364 345.462 34.3629 344.566C34.6892 344.048 35.1041 343.592 35.5886 343.218C35.8785 342.998 36.19 342.808 36.5183 342.651C36.7257 342.523 36.9625 342.451 37.2059 342.441C37.4493 342.431 37.6913 342.483 37.9086 342.593C38.0377 342.684 38.1381 342.809 38.1979 342.955C38.2577 343.1 38.2744 343.26 38.2459 343.415C38.2152 343.624 38.1513 343.827 38.0566 344.015C37.8949 344.351 37.6811 344.659 37.4232 344.928C36.9904 345.385 36.4461 345.722 35.8437 345.906C35.5718 346.021 35.2794 346.081 34.984 346.081C34.6886 346.081 34.3962 346.021 34.1243 345.906C34.6498 345.805 35.169 345.673 35.6791 345.511C36.1958 345.293 36.6548 344.958 37.0201 344.533C37.235 344.288 37.4099 344.011 37.5384 343.711C37.6947 343.391 37.7358 343.078 37.6042 343.029C37.4681 342.985 37.324 342.971 37.182 342.988C37.0399 343.005 36.9033 343.052 36.7815 343.127C36.4932 343.267 36.2179 343.432 35.9588 343.621C35.4984 343.945 35.0882 344.336 34.7413 344.78C34.1243 345.569 33.9269 346.169 33.8364 346.136Z" fill="#263238"/>
<path d="M101.813 333.255L97.9468 359.559L132.754 360.455C132.639 357.307 114.82 350.542 114.82 350.542L118.406 333.732L101.813 333.255Z" fill="#455A64"/>
<g opacity="0.6">
<path d="M104.092 348.865C103.764 348.942 103.477 349.139 103.288 349.418C103.099 349.697 103.022 350.036 103.072 350.369C103.163 350.7 103.375 350.984 103.666 351.165C103.958 351.346 104.306 351.411 104.643 351.347C104.992 351.265 105.296 351.054 105.496 350.757C105.696 350.46 105.776 350.098 105.721 349.745C105.583 349.413 105.326 349.144 105 348.992C104.675 348.84 104.304 348.815 103.96 348.923" fill="white"/>
</g>
<g opacity="0.6">
<path d="M97.9468 359.584L98.1195 356.921L131.429 358.778C131.429 358.778 132.959 359.452 132.754 360.48L97.9468 359.584Z" fill="white"/>
</g>
<path d="M115.387 350.41C115.387 350.575 114.565 350.624 113.668 351.117C112.771 351.611 112.36 352.276 112.204 352.211C112.047 352.145 112.327 351.216 113.372 350.641C114.416 350.065 115.428 350.262 115.387 350.41Z" fill="#263238"/>
<path d="M118.991 351.931C119.032 352.087 118.283 352.342 117.691 353.008C117.098 353.674 116.868 354.381 116.736 354.372C116.605 354.364 116.481 353.452 117.247 352.638C118.012 351.824 118.999 351.816 118.991 351.931Z" fill="#263238"/>
<path d="M120.932 356.115C120.776 356.115 120.562 355.293 121.023 354.471C121.483 353.649 122.289 353.279 122.363 353.411C122.437 353.542 121.919 354.003 121.541 354.726C121.162 355.449 121.121 356.099 120.932 356.115Z" fill="#263238"/>
<path d="M115.173 346.531C115.099 346.679 114.351 346.432 113.364 346.473C112.376 346.514 111.644 346.777 111.554 346.637C111.463 346.498 112.212 345.939 113.347 345.914C114.482 345.889 115.28 346.407 115.173 346.531Z" fill="#263238"/>
<path d="M132.655 286.664C130.936 280.138 107.103 239.597 107.103 239.597L105.869 236.004L106.832 234.212L70.6342 215.052C70.6342 215.052 61.3463 227.694 59.3472 233.711C57.3481 239.728 49.6809 291.596 49.6809 291.596C49.6809 291.596 36.4277 310.502 34.1571 314.662C33.6306 315.615 17.4817 339.198 17.4817 339.198L34.914 349.925L73.3161 299.076L87.902 256.809L109.472 293.191L98.9997 346.884L117.814 347.813C117.814 347.813 134.366 293.191 132.655 286.664Z" fill="#263238"/>
<path d="M96.252 247.299C96.3425 247.43 93.4632 248.943 91.0692 252.017C89.6685 253.897 88.5797 255.989 87.8444 258.215C87.8735 257.515 88.0238 256.825 88.2886 256.176C88.8475 254.565 89.6826 253.063 90.7566 251.738C91.806 250.409 93.0515 249.248 94.4504 248.293C94.9987 247.875 95.6058 247.54 96.252 247.299Z" fill="#455A64"/>
<path d="M77.3307 228.36C77.4046 228.65 77.4351 228.949 77.4212 229.248C77.4383 230.074 77.375 230.9 77.2319 231.714C76.7555 234.392 75.5872 236.9 73.8426 238.988C72.0885 241.055 69.9005 242.711 67.434 243.838C66.6925 244.167 65.9282 244.442 65.147 244.66C64.8647 244.767 64.5679 244.83 64.2667 244.849C64.2667 244.775 65.4678 244.43 67.2941 243.518C69.6683 242.336 71.7784 240.686 73.497 238.668C75.189 236.629 76.3631 234.213 76.9193 231.623C77.3307 229.634 77.2649 228.352 77.3307 228.36Z" fill="#455A64"/>
<path d="M98.2429 246.518C98.591 244.596 99.0833 242.703 99.7155 240.854C100.207 238.965 100.842 237.115 101.616 235.322C101.276 237.246 100.784 239.14 100.143 240.986C99.6546 242.876 99.0192 244.726 98.2429 246.518Z" fill="#455A64"/>
<path d="M136.67 134.364L125.268 163.134C123.334 168.066 121.483 175.612 129.381 178.325C136.398 180.158 140.618 174.47 142.428 169.899C143.251 167.737 144 165.929 144.074 165.715C144.074 165.715 151.683 167.926 155.081 160.882C156.726 157.479 159.54 150.196 162.008 143.579C163.286 140.15 163.226 136.366 161.839 132.98C160.452 129.594 157.839 126.854 154.522 125.306L153.839 124.993C146.27 121.977 139.475 126.72 136.67 134.364Z" fill="#FFBF9D"/>
<path d="M144.082 165.715C140.813 164.178 138.055 161.736 136.135 158.679C136.135 158.679 135.962 164.901 143.333 167.565L144.082 165.715Z" fill="#FF9A6C"/>
<path d="M148.426 141.811C148.228 141.91 147.644 140.907 146.435 140.414C145.225 139.921 144.09 140.167 144.024 139.962C143.958 139.756 144.238 139.658 144.74 139.526C145.414 139.37 146.12 139.433 146.756 139.707C147.384 139.967 147.912 140.423 148.261 141.006C148.508 141.45 148.524 141.779 148.426 141.811Z" fill="#263238"/>
<path d="M147.504 144.672C147.389 144.924 147.18 145.12 146.922 145.22C146.664 145.32 146.377 145.315 146.122 145.206C145.996 145.159 145.88 145.087 145.783 144.994C145.685 144.902 145.607 144.79 145.553 144.667C145.499 144.543 145.471 144.41 145.47 144.275C145.469 144.141 145.495 144.007 145.546 143.883C145.661 143.633 145.869 143.438 146.125 143.338C146.381 143.239 146.666 143.242 146.92 143.349C147.046 143.397 147.161 143.469 147.258 143.562C147.355 143.655 147.433 143.766 147.488 143.889C147.542 144.012 147.571 144.144 147.574 144.279C147.577 144.413 147.553 144.547 147.504 144.672Z" fill="#263238"/>
<path d="M148.245 151.462C148.903 151.547 149.548 151.718 150.161 151.971C150.458 152.07 150.746 152.136 150.877 151.971C151.039 151.696 151.111 151.377 151.083 151.059C151.132 150.237 151.19 149.415 151.247 148.593C151.511 145.05 151.848 142.181 151.988 142.198C152.128 142.214 152.029 145.091 151.766 148.634C151.692 149.505 151.626 150.344 151.552 151.1C151.573 151.517 151.444 151.928 151.19 152.259C151.102 152.336 150.998 152.394 150.886 152.428C150.774 152.462 150.656 152.472 150.54 152.456C150.368 152.421 150.2 152.369 150.038 152.3C149.408 152.097 148.805 151.815 148.245 151.462Z" fill="#263238"/>
<path d="M149.659 137.036C149.437 137.258 148.541 136.682 147.348 136.296C146.155 135.91 145.094 135.803 145.061 135.474C145.061 135.326 145.324 135.145 145.809 135.055C146.448 134.957 147.1 135.016 147.71 135.227C148.318 135.426 148.869 135.77 149.314 136.23C149.651 136.616 149.725 136.921 149.659 137.036Z" fill="#263238"/>
<path d="M161.012 142.954C160.79 143.118 159.959 142.477 158.841 141.959C157.722 141.442 156.71 141.187 156.685 140.907C156.685 140.776 156.948 140.661 157.417 140.661C158.042 140.674 158.657 140.823 159.219 141.096C159.791 141.364 160.301 141.747 160.716 142.222C161.021 142.592 161.111 142.88 161.012 142.954Z" fill="#263238"/>
<path d="M134.794 139.88C134.703 139.773 130.598 136.164 128.492 141.08C126.386 145.995 131.783 147.097 131.783 146.957C131.783 146.817 134.794 139.88 134.794 139.88Z" fill="#FFBF9D"/>
<path d="M131.117 144.45C131.117 144.45 131.01 144.45 130.837 144.45C130.595 144.448 130.362 144.354 130.187 144.187C129.957 143.85 129.821 143.457 129.792 143.05C129.763 142.643 129.842 142.235 130.022 141.869C130.191 141.442 130.452 141.057 130.788 140.743C130.9 140.609 131.044 140.505 131.206 140.439C131.368 140.373 131.543 140.348 131.717 140.365C131.827 140.38 131.928 140.434 132.002 140.517C132.075 140.6 132.117 140.706 132.12 140.817C132.12 140.981 132.054 141.063 132.12 141.08C132.186 141.096 132.26 141.08 132.309 140.825C132.33 140.693 132.307 140.557 132.244 140.439C132.199 140.359 132.139 140.289 132.067 140.232C131.995 140.176 131.912 140.134 131.824 140.11C131.606 140.062 131.379 140.072 131.165 140.138C130.952 140.205 130.759 140.325 130.607 140.488C130.209 140.819 129.904 141.247 129.718 141.729C129.505 142.156 129.424 142.635 129.484 143.108C129.544 143.581 129.743 144.025 130.055 144.384C130.168 144.478 130.301 144.545 130.443 144.581C130.586 144.616 130.734 144.619 130.878 144.59C131.059 144.565 131.133 144.467 131.117 144.45Z" fill="#FF9A6C"/>
<path d="M145.875 154.939C145.941 154.807 144.905 154.446 144.23 153.435C143.941 152.994 143.714 152.515 143.555 152.012C143.416 151.618 143.309 151.371 143.243 151.388C143.177 151.404 143.193 151.667 143.243 152.086C143.333 152.657 143.547 153.201 143.868 153.681C144.202 154.161 144.66 154.542 145.192 154.783C145.612 154.963 145.859 154.98 145.875 154.939Z" fill="#263238"/>
<path d="M168.482 138.844C168.855 138.713 169.215 138.551 169.56 138.359C169.938 138.121 170.498 136.937 170.234 136.584C169.829 136.577 169.425 136.538 169.025 136.468C168.509 136.26 168.055 135.925 167.703 135.494C167.352 135.063 167.117 134.55 167.018 134.002C166.723 132.988 166.369 131.991 165.957 131.019C164.624 127.895 163.398 125.659 161.843 124.188C159.342 122.01 156.287 120.565 153.016 120.012C150.227 119.708 147.167 120.892 145.826 123.349C144.863 121.607 142.725 120.809 140.725 120.842C138.537 120.793 136.661 122.412 135.345 124.13C134.029 125.848 132.976 127.887 131.232 129.251C130.87 129.539 130.45 129.876 130.491 130.336C130.519 130.513 130.602 130.675 130.73 130.8C130.857 130.924 131.022 131.004 131.199 131.027C131.551 131.083 131.91 131.06 132.252 130.961L131.018 132.26C131.672 132.644 132.408 132.869 133.165 132.917C132.852 134.805 132.651 136.71 132.565 138.622C133.315 138.81 133.971 139.266 134.407 139.904C134.852 140.768 134.72 142.025 136.003 142.017C136.661 142.017 137.649 141.014 138.052 140.513C140.797 137.12 142.784 133.179 143.876 128.955C145.003 128.411 146.223 128.085 147.471 127.994L147.356 128.043C149.66 128.109 152.235 128.298 153.798 129.983C155.015 131.298 155.303 133.189 155.945 134.849C156.541 136.388 157.443 137.791 158.597 138.972C159.751 140.153 161.132 141.088 162.658 141.721C161.983 143.809 159.112 150.886 158.437 152.974L163.011 146.111C163.25 145.921 163.456 145.724 163.661 145.527L165.883 143.579C166.055 143.579 166.236 143.579 166.409 143.579C167.581 143.539 168.723 143.193 169.719 142.574C170.715 141.955 171.531 141.085 172.085 140.052C170.629 140.069 169.42 139.954 168.482 138.844Z" fill="#263238"/>
<path d="M167.635 140.768H167.561L167.33 140.833C167.203 140.867 167.074 140.891 166.944 140.907C166.767 140.94 166.589 140.962 166.409 140.973C165.264 141.043 164.119 140.829 163.077 140.348C161.527 139.641 160.215 138.499 159.301 137.06C158.215 135.305 157.496 133.347 157.187 131.306C156.99 130.221 156.907 129.153 156.751 128.142C156.623 127.162 156.36 126.205 155.969 125.297C155.601 124.481 155.036 123.77 154.324 123.226C154 122.99 153.642 122.804 153.263 122.675C152.916 122.565 152.557 122.498 152.193 122.478C151.554 122.453 150.916 122.568 150.326 122.815C149.878 122.998 149.461 123.251 149.092 123.563C148.781 123.847 148.505 124.167 148.269 124.517C148.269 124.517 148.269 124.517 148.269 124.443L148.393 124.229C148.556 123.966 148.752 123.726 148.977 123.514C149.343 123.174 149.763 122.896 150.219 122.692C151.176 122.268 152.254 122.204 153.255 122.511C153.649 122.639 154.021 122.827 154.357 123.07C155.075 123.631 155.641 124.363 156.002 125.199C156.413 126.114 156.69 127.082 156.825 128.076C156.99 129.103 157.072 130.172 157.269 131.241C157.564 133.279 158.269 135.236 159.342 136.995C160.232 138.423 161.514 139.564 163.036 140.283C164.061 140.775 165.191 141.01 166.327 140.965C167.207 140.883 167.635 140.735 167.635 140.768Z" fill="#455A64"/>
<path d="M159.375 146.513C159.178 146.612 158.594 145.609 157.384 145.116C156.175 144.623 155.04 144.869 154.966 144.664C154.892 144.458 155.188 144.351 155.69 144.228C156.363 144.073 157.068 144.133 157.705 144.401C158.334 144.664 158.862 145.122 159.211 145.708C159.458 146.152 159.474 146.48 159.375 146.513Z" fill="#263238"/>
<path d="M157.664 148.535C157.552 148.788 157.345 148.986 157.088 149.086C156.83 149.186 156.543 149.18 156.29 149.07C156.165 149.022 156.05 148.949 155.952 148.856C155.855 148.764 155.777 148.652 155.723 148.529C155.668 148.406 155.639 148.274 155.636 148.139C155.633 148.005 155.657 147.871 155.706 147.746C155.821 147.497 156.029 147.302 156.285 147.202C156.541 147.102 156.826 147.106 157.08 147.212C157.207 147.258 157.323 147.33 157.422 147.422C157.521 147.514 157.6 147.626 157.654 147.749C157.709 147.873 157.738 148.006 157.739 148.141C157.741 148.276 157.716 148.41 157.664 148.535Z" fill="#263238"/>
<path d="M147.8 125.084C147.465 125.191 147.138 125.323 146.821 125.478C145.979 125.951 145.275 126.637 144.781 127.468C144.422 128.027 144.121 128.622 143.884 129.243C143.629 129.917 143.407 130.657 143.169 131.43C142.943 132.248 142.668 133.052 142.346 133.838C142.157 134.252 141.94 134.653 141.696 135.038C141.466 135.459 141.128 135.811 140.717 136.057C140.537 136.151 140.335 136.196 140.132 136.189C139.929 136.181 139.731 136.122 139.557 136.016C139.225 135.811 138.97 135.502 138.833 135.137C138.644 134.445 138.644 133.716 138.833 133.024L138.981 133.098C138.553 133.561 138.059 133.96 137.517 134.282C136.998 134.578 136.384 134.661 135.806 134.512C135.536 134.443 135.291 134.301 135.098 134.101C134.928 133.904 134.82 133.661 134.786 133.402C134.748 133.163 134.78 132.918 134.876 132.695C134.962 132.489 135.12 132.319 135.32 132.219L135.378 132.317C134.755 132.651 134.068 132.847 133.363 132.893C133.116 132.893 132.935 132.893 132.803 132.893H132.614C132.677 132.884 132.74 132.884 132.803 132.893C132.935 132.893 133.116 132.893 133.354 132.893C134.044 132.821 134.713 132.611 135.32 132.276L135.37 132.375C135.194 132.483 135.055 132.643 134.973 132.833C134.89 133.022 134.868 133.233 134.909 133.435C134.946 133.668 135.049 133.884 135.205 134.06C135.379 134.239 135.598 134.367 135.839 134.43C136.381 134.562 136.952 134.479 137.435 134.2C137.962 133.88 138.442 133.487 138.858 133.032L139.055 132.835L139.006 133.106C138.829 133.769 138.829 134.466 139.006 135.129C139.127 135.466 139.355 135.755 139.656 135.951C139.803 136.042 139.971 136.094 140.144 136.101C140.317 136.108 140.489 136.07 140.643 135.992C141.023 135.752 141.337 135.421 141.556 135.03C141.798 134.655 142.01 134.262 142.19 133.854C142.514 133.078 142.789 132.282 143.012 131.471C143.259 130.698 143.481 129.958 143.753 129.284C143.996 128.654 144.305 128.05 144.674 127.484C145.194 126.648 145.927 125.965 146.797 125.503C147.106 125.309 147.445 125.167 147.8 125.084Z" fill="#455A64"/>
<path d="M67.4587 217.09C67.4587 217.09 108.526 169.102 114.902 163.43C123.277 155.983 135.543 160.816 135.543 160.816L151.675 179.837L144.411 189.561L126.979 213.473L111.883 238.643C111.883 238.643 100.917 239.975 94.7384 236.605C88.5601 233.234 67.4587 217.09 67.4587 217.09Z" fill="#455A64"/>
<path d="M119.978 168.559C119.978 168.559 115.206 182.024 129.809 182.583C144.411 183.142 180.345 179.5 180.345 179.5L215.498 173.335L213.77 160.907L173.114 163.323C173.114 163.323 132.852 159.797 126.798 160.356C120.109 160.98 119.978 168.559 119.978 168.559Z" fill="#455A64"/>
<path d="M119.287 176.73C119.112 176.546 118.973 176.331 118.875 176.097C118.542 175.489 118.266 174.85 118.053 174.19C117.371 172 117.314 169.662 117.888 167.441C118.54 165.244 119.764 163.258 121.434 161.687C121.94 161.216 122.518 160.828 123.145 160.537C123.371 160.412 123.62 160.336 123.877 160.315C123.063 160.759 122.313 161.312 121.648 161.959C120.109 163.546 118.979 165.485 118.357 167.606C117.806 169.765 117.82 172.03 118.398 174.182C118.834 175.76 119.369 176.73 119.287 176.73Z" fill="#263238"/>
<path d="M215.539 173.335C215.513 173.266 215.496 173.195 215.489 173.121C215.489 172.957 215.424 172.752 215.382 172.497C215.292 171.905 215.16 171.091 215.004 170.031C214.683 167.869 214.231 164.77 213.663 160.907L213.828 161.038L177.564 163.29L174.323 163.479L141.951 161.112L132.268 160.348L129.652 160.117L128.969 160.052C128.893 160.062 128.816 160.062 128.739 160.052C128.818 160.043 128.898 160.043 128.978 160.052H129.661L132.285 160.2L141.968 160.824L174.29 163.077L177.531 162.879L213.795 160.783H213.893V160.915C214.395 164.786 214.807 167.894 215.094 170.064C215.218 171.108 215.317 171.921 215.391 172.53C215.391 172.793 215.44 172.998 215.456 173.163C215.492 173.216 215.52 173.274 215.539 173.335Z" fill="#263238"/>
<path d="M179.522 179.582C179.369 179.64 179.208 179.678 179.045 179.697C178.733 179.763 178.223 179.854 177.655 179.952C176.437 180.133 174.669 180.363 172.489 180.593C168.12 181.045 162.065 181.53 155.377 181.941C148.689 182.352 142.626 182.616 138.233 182.722C136.036 182.78 134.259 182.796 133.033 182.78L131.618 182.739C131.453 182.738 131.288 182.724 131.125 182.698C131.287 182.661 131.453 182.644 131.618 182.648H133.033L138.224 182.443C142.609 182.254 148.664 181.941 155.352 181.53C162.041 181.119 168.087 180.708 172.456 180.314C174.644 180.125 176.413 179.944 177.63 179.821L179.029 179.648C179.19 179.604 179.356 179.582 179.522 179.582Z" fill="#263238"/>
<g opacity="0.3">
<path d="M126.617 182.64C126.617 182.64 130.541 187.696 138.587 187.145C146.632 186.594 149.725 182.089 149.725 182.089L126.617 182.64Z" fill="black"/>
</g>
<path d="M230.7 146.316L224.02 152.07C225.238 150.354 226.356 148.57 227.369 146.727C227.887 145.453 226.628 143.965 226.628 143.965L225.065 145.527L224.851 144.179L217.579 152.349L215.053 161.013L213.786 161.071L215.234 170.935C217.143 170.212 220.45 168.543 221.1 166.759C221.75 164.975 224.785 155.564 224.785 155.564C224.785 155.564 228.52 151.289 229.927 149.472C231.334 147.656 230.7 146.316 230.7 146.316Z" fill="#FFBF9D"/>
<path d="M226.628 143.949C225.599 145.484 224.479 146.955 223.272 148.355C222.172 149.841 220.973 151.253 219.685 152.58C220.617 150.979 221.699 149.47 222.918 148.075C224.014 146.579 225.256 145.197 226.628 143.949Z" fill="#FF9A6C"/>
<path d="M224.851 144.162C224.303 144.97 223.692 145.734 223.025 146.448C221.849 147.82 220.211 149.736 218.377 151.758L217.743 152.473L217.785 152.391C217.069 154.857 216.411 156.986 215.925 158.531C215.696 159.373 215.405 160.198 215.053 160.997C215.18 160.133 215.378 159.28 215.646 158.449C216.065 156.879 216.674 154.709 217.381 152.267V152.226V152.185L218.015 151.478C219.849 149.415 221.528 147.574 222.753 146.25C223.403 145.506 224.104 144.808 224.851 144.162Z" fill="#FF9A6C"/>
</svg>
