<svg width="148" height="34" viewBox="0 0 148 34" fill="none" xmlns="http://www.w3.org/2000/svg">
<path d="M18.3672 29.9336V33H3.30859V29.9336H18.3672ZM4.07031 4.5625V33H0.300781V4.5625H4.07031ZM16.375 16.7891V19.8555H3.30859V16.7891H16.375ZM18.1719 4.5625V7.64844H3.30859V4.5625H18.1719ZM35.418 28.8984V3H39.0508V33H35.7305L35.418 28.8984ZM21.1992 22.668V22.2578C21.1992 20.6432 21.3945 19.1784 21.7852 17.8633C22.1888 16.5352 22.7552 15.3958 23.4844 14.4453C24.2266 13.4948 25.1055 12.7656 26.1211 12.2578C27.1497 11.737 28.2956 11.4766 29.5586 11.4766C30.8867 11.4766 32.0456 11.7109 33.0352 12.1797C34.0378 12.6354 34.8841 13.306 35.5742 14.1914C36.2773 15.0638 36.8307 16.1185 37.2344 17.3555C37.638 18.5924 37.918 19.9922 38.0742 21.5547V23.3516C37.931 24.901 37.651 26.2943 37.2344 27.5312C36.8307 28.7682 36.2773 29.8229 35.5742 30.6953C34.8841 31.5677 34.0378 32.2383 33.0352 32.707C32.0326 33.1628 30.8607 33.3906 29.5195 33.3906C28.2826 33.3906 27.1497 33.1237 26.1211 32.5898C25.1055 32.056 24.2266 31.3073 23.4844 30.3438C22.7552 29.3802 22.1888 28.2474 21.7852 26.9453C21.3945 25.6302 21.1992 24.2044 21.1992 22.668ZM24.832 22.2578V22.668C24.832 23.7227 24.9362 24.7122 25.1445 25.6367C25.3659 26.5612 25.7044 27.375 26.1602 28.0781C26.6159 28.7812 27.1953 29.3346 27.8984 29.7383C28.6016 30.1289 29.4414 30.3242 30.418 30.3242C31.6159 30.3242 32.599 30.0703 33.3672 29.5625C34.1484 29.0547 34.7734 28.3841 35.2422 27.5508C35.7109 26.7174 36.0755 25.8125 36.3359 24.8359V20.1289C36.1797 19.4128 35.9518 18.7227 35.6523 18.0586C35.3659 17.3815 34.9883 16.7826 34.5195 16.2617C34.0638 15.7279 33.4974 15.3047 32.8203 14.9922C32.1562 14.6797 31.3685 14.5234 30.457 14.5234C29.4674 14.5234 28.6146 14.7318 27.8984 15.1484C27.1953 15.5521 26.6159 16.112 26.1602 16.8281C25.7044 17.5312 25.3659 18.3516 25.1445 19.2891C24.9362 20.2135 24.832 21.2031 24.832 22.2578ZM57.6055 28.1172V11.8672H61.2383V33H57.7812L57.6055 28.1172ZM58.2891 23.6641L59.793 23.625C59.793 25.0312 59.6432 26.3333 59.3438 27.5312C59.0573 28.7161 58.5885 29.7448 57.9375 30.6172C57.2865 31.4896 56.4336 32.1732 55.3789 32.668C54.3242 33.1497 53.0417 33.3906 51.5312 33.3906C50.5026 33.3906 49.5586 33.2409 48.6992 32.9414C47.8529 32.6419 47.1237 32.1797 46.5117 31.5547C45.8997 30.9297 45.4245 30.1159 45.0859 29.1133C44.7604 28.1107 44.5977 26.9062 44.5977 25.5V11.8672H48.2109V25.5391C48.2109 26.4896 48.3151 27.2773 48.5234 27.9023C48.7448 28.5143 49.0378 29.0026 49.4023 29.3672C49.7799 29.7188 50.1966 29.9661 50.6523 30.1094C51.1211 30.2526 51.6029 30.3242 52.0977 30.3242C53.6341 30.3242 54.8516 30.0312 55.75 29.4453C56.6484 28.8464 57.293 28.0456 57.6836 27.043C58.0872 26.0273 58.2891 24.901 58.2891 23.6641Z" fill="#FBFBFB"/>
<path d="M67.2782 33.848C67.2075 33.848 67.1545 33.8303 67.1192 33.795L66.9072 33.689C66.8012 33.689 66.6599 33.689 66.4832 33.689C66.3419 33.689 66.1829 33.6713 66.0062 33.636C65.9709 33.6007 65.9532 33.5123 65.9532 33.371C65.9532 33.4417 65.9709 33.3887 66.0062 33.212C66.0415 33.0353 66.0945 32.735 66.1652 32.311V32.099C66.1652 31.9223 66.1475 31.781 66.1122 31.675L65.9532 31.198C65.9532 31.198 65.9885 31.1273 66.0592 30.986L66.1652 30.721C66.1299 30.6503 66.1122 30.4913 66.1122 30.244L66.2182 29.979V29.555L66.3772 29.025L66.0062 28.813L66.2712 28.23L66.1122 27.912C66.1829 27.7353 66.2889 27.5763 66.4302 27.435V27.382C66.2535 27.2407 66.0592 27.0287 65.8472 26.746L65.9002 26.11C66.0062 26.004 66.0769 25.9157 66.1122 25.845C66.1122 25.633 66.0945 25.4917 66.0592 25.421L65.9002 25.103C65.9002 25.0323 65.9532 24.891 66.0592 24.679C66.1652 24.5023 66.2182 24.361 66.2182 24.255L65.9532 23.831C65.8472 23.725 65.7765 23.619 65.7412 23.513V22.612C65.8119 22.5767 65.9002 22.506 66.0062 22.4C65.9355 22.2587 65.8119 22.1173 65.6352 21.976C65.7059 21.9053 65.7412 21.7993 65.7412 21.658C65.7412 21.552 65.7235 21.4283 65.6882 21.287C65.6529 21.1457 65.5999 21.0043 65.5292 20.863C65.8825 20.651 66.1299 20.5803 66.2712 20.651L66.4302 20.598C66.4655 20.5273 66.4832 20.492 66.4832 20.492C66.4832 20.4567 66.4832 20.439 66.4832 20.439C66.4832 20.2977 66.3772 20.1563 66.1652 20.015H65.6882C65.6882 19.9797 65.6705 19.962 65.6352 19.962C65.6352 19.9267 65.6352 19.8913 65.6352 19.856C65.6352 19.7147 65.6882 19.538 65.7942 19.326L65.7412 18.955C65.7059 18.9197 65.6882 18.6547 65.6882 18.16C65.6882 17.9833 65.6882 17.789 65.6882 17.577C65.6882 17.365 65.6705 17.1353 65.6352 16.888C65.8472 16.888 65.9885 16.8527 66.0592 16.782C65.9885 16.7467 65.9179 16.6053 65.8472 16.358V16.252C65.8472 16.146 65.7765 16.0047 65.6352 15.828V14.98H65.7412C65.8472 14.98 65.9709 14.9447 66.1122 14.874C66.2889 14.768 66.3772 14.6973 66.3772 14.662C66.3772 14.4853 66.0592 14.4323 65.4232 14.503C65.5999 14.2203 65.6529 14.0083 65.5822 13.867L65.4232 13.549C65.4232 13.443 65.4939 13.337 65.6352 13.231L65.7412 12.966V12.754L65.3702 11.323C65.3702 11.111 65.5292 10.8283 65.8472 10.475C65.8472 10.4043 65.8119 10.3337 65.7412 10.263C65.9179 10.1923 66.0415 10.1217 66.1122 10.051V9.945C65.9709 9.87433 65.8472 9.839 65.7412 9.839C65.5292 9.521 65.4232 9.29133 65.4232 9.15C65.4232 9.07933 65.4585 9.00867 65.5292 8.938C65.5645 8.90267 65.5822 8.832 65.5822 8.726L65.5292 7.401C65.4232 7.33033 65.3349 7.189 65.2642 6.977C65.2642 6.977 65.3525 6.765 65.5292 6.341C65.4585 5.42233 65.3879 4.71566 65.3172 4.221C65.2819 3.691 65.2642 3.373 65.2642 3.267C65.2642 3.161 65.2289 2.96667 65.1582 2.684C65.0875 2.40133 65.0522 2.26 65.0522 2.26L65.1052 1.889C65.1759 1.81833 65.2819 1.76533 65.4232 1.73H65.7942C65.7942 1.69467 65.8649 1.65933 66.0062 1.624C66.0769 1.624 66.1475 1.81833 66.2182 2.207C66.2182 2.38366 66.3065 2.472 66.4832 2.472C66.6952 2.472 66.7659 2.26 66.6952 1.836L67.4372 1.677C67.5432 1.783 67.7022 1.889 67.9142 1.995C68.0909 1.995 68.1792 1.90666 68.1792 1.73V1.571L68.6032 1.518L68.9212 1.624C69.3805 1.624 69.6279 1.624 69.6632 1.624V1.571C69.6632 1.571 69.6632 1.58866 69.6632 1.624V1.677C69.6632 1.889 69.7869 2.048 70.0342 2.154H70.2992C70.3699 2.26 70.4582 2.34833 70.5642 2.419H70.7232C70.7585 2.419 70.7762 2.38366 70.7762 2.313C70.6349 2.101 70.5465 1.889 70.5112 1.677V1.465L70.6172 1.359C70.7585 1.42967 70.8469 1.518 70.8822 1.624L71.4122 1.412C71.5182 1.412 71.6419 1.42967 71.7832 1.465L72.3132 1.518L72.4722 2.101C72.6489 2.24233 72.8432 2.45433 73.0552 2.737C73.0199 2.70167 72.9845 2.843 72.9492 3.161C72.8432 3.19633 72.7902 3.28466 72.7902 3.426C72.7902 3.49666 72.8079 3.62033 72.8432 3.797C72.8785 3.97367 72.9315 4.18567 73.0022 4.433L73.2672 4.963V5.228C73.4439 5.68733 73.5322 6.288 73.5322 7.03C73.5322 7.63067 73.6559 8.037 73.9032 8.249C73.9032 8.53167 74.0269 9.11467 74.2742 9.998L74.5392 10.528C74.3979 10.74 74.2742 11.058 74.1682 11.482C74.2035 11.5527 74.2212 11.641 74.2212 11.747C74.2212 11.853 74.2212 11.9413 74.2212 12.012C74.2565 12.1533 74.2742 12.2947 74.2742 12.436C74.3095 12.542 74.3272 12.648 74.3272 12.754C74.3272 12.86 74.3272 12.966 74.3272 13.072C74.3625 13.178 74.4332 13.284 74.5392 13.39C74.7159 13.602 74.8219 14.2027 74.8572 15.192C75.0339 15.2627 75.1399 15.351 75.1752 15.457C75.1399 15.5983 75.1752 15.722 75.2812 15.828C75.4932 15.934 75.5992 16.0047 75.5992 16.04V16.411C75.7405 16.6583 75.8289 16.8527 75.8642 16.994C75.9349 17.1 75.9702 17.153 75.9702 17.153C76.1822 17.153 76.3059 16.994 76.3412 16.676C76.4119 16.358 76.4649 16.199 76.5002 16.199C76.6062 16.2697 76.7299 16.3403 76.8712 16.411C77.0125 16.411 77.0832 16.2873 77.0832 16.04C77.0832 15.934 77.0125 15.7927 76.8712 15.616C76.7652 15.51 76.7122 15.298 76.7122 14.98C76.7122 14.9093 76.7122 14.821 76.7122 14.715C76.7475 14.609 76.7829 14.4853 76.8182 14.344C76.8889 14.2027 76.9242 14.079 76.9242 13.973C76.9595 13.8317 76.9949 13.708 77.0302 13.602L77.1892 13.39C77.1892 13.3193 77.1892 13.231 77.1892 13.125C77.1892 13.019 77.1715 12.8953 77.1362 12.754L77.0832 12.065C77.1892 12.065 77.3305 11.9943 77.5072 11.853C77.5072 11.8177 77.4895 11.8 77.4542 11.8C77.3835 11.7293 77.3129 11.694 77.2422 11.694C77.1362 11.5173 77.0832 11.3937 77.0832 11.323C77.0832 11.2523 77.1362 11.111 77.2422 10.899L77.4012 10.422C77.6132 10.2453 77.7192 10.1217 77.7192 10.051C77.6485 9.98033 77.5425 9.839 77.4012 9.627C77.4012 9.48567 77.4542 9.362 77.5602 9.256C77.6662 9.07933 77.7192 8.991 77.7192 8.991C77.6839 8.885 77.6839 8.70833 77.7192 8.461C77.7192 8.39033 77.8252 8.23133 78.0372 7.984L77.7192 7.666L77.9312 7.295C78.3905 6.83567 78.6202 6.51767 78.6202 6.341C78.6202 6.235 78.5495 6.09366 78.4082 5.917C78.2315 5.74033 78.1432 5.493 78.1432 5.175V4.857C78.3199 4.57433 78.4789 4.30933 78.6202 4.062C78.7969 3.81467 78.9205 3.56733 78.9912 3.32C79.0265 3.17867 79.0442 3.09033 79.0442 3.055C79.0795 3.01967 79.0972 3.01967 79.0972 3.055C79.0972 2.91367 79.0619 2.843 78.9912 2.843C78.9559 2.843 78.8675 2.91367 78.7262 3.055C78.5849 2.98433 78.4789 2.77233 78.4082 2.419V1.995C78.4435 1.85366 78.4789 1.73 78.5142 1.624C78.5849 1.518 78.6379 1.412 78.6732 1.306L79.1502 1.2C79.4329 1.2 79.6449 1.253 79.7862 1.359L79.9982 1.518C80.1042 1.48266 80.2632 1.39433 80.4752 1.253L80.8462 1.147L81.6942 1.412V1.995C81.7649 2.207 81.8709 2.313 82.0122 2.313C82.2242 2.24233 82.3302 2.13633 82.3302 1.995L82.2772 1.73C82.2419 1.65933 82.2242 1.571 82.2242 1.465C82.2242 1.39433 82.2419 1.34133 82.2772 1.306L82.7012 1.147C82.7719 1.00567 82.8779 0.917333 83.0192 0.882L83.8672 1.094C83.9379 1.094 83.9909 1.11166 84.0262 1.147L84.1852 1.253C84.2559 1.18233 84.3619 1.12933 84.5032 1.094L85.8812 1.041C85.9165 1.11167 85.9519 1.2 85.9872 1.306C86.0579 1.37667 86.1109 1.465 86.1462 1.571C86.1462 1.571 86.0932 1.65933 85.9872 1.836C85.9519 1.97733 85.9165 2.101 85.8812 2.207C85.8812 2.313 85.8812 2.419 85.8812 2.525C85.8812 2.631 85.9519 2.75467 86.0932 2.896C86.0579 2.93133 86.0225 2.96666 85.9872 3.002C85.9872 3.03733 85.9519 3.09033 85.8812 3.161L85.7752 3.479V4.062L85.8282 4.115L85.7752 4.433C85.8105 4.50367 85.8282 4.645 85.8282 4.857C85.8635 5.069 85.8812 5.24566 85.8812 5.387C85.8812 5.42233 85.8812 5.493 85.8812 5.599C85.9165 5.705 85.9519 5.82867 85.9872 5.97L86.0932 6.447L85.9342 7.03C85.8282 7.27733 85.7575 7.48933 85.7222 7.666C85.7929 7.772 85.8635 7.878 85.9342 7.984C86.0049 8.09 86.0932 8.21367 86.1992 8.355C86.0932 8.21367 86.0049 8.09 85.9342 7.984C85.8635 7.878 85.7929 7.78967 85.7222 7.719C85.7222 7.719 85.7222 7.70133 85.7222 7.666C85.1922 6.85333 84.7152 6.16433 84.2912 5.599C83.8672 4.99833 83.4962 4.50366 83.1782 4.115L83.1252 4.221C83.4079 4.68033 83.7965 5.26333 84.2912 5.97C84.8212 6.67667 85.4219 7.48933 86.0932 8.408C85.9519 8.33733 85.8635 8.249 85.8282 8.143C85.5809 8.17833 85.4749 8.28433 85.5102 8.461L85.7222 8.779C85.6869 8.81433 85.6869 8.92033 85.7222 9.097C85.7929 9.13233 85.8459 9.18533 85.8812 9.256C85.9519 9.32667 86.0225 9.39733 86.0932 9.468L85.8812 9.733C85.8459 9.80367 85.8105 9.85667 85.7752 9.892C85.7752 9.92733 85.7752 9.96267 85.7752 9.998C85.7752 10.1393 85.8989 10.21 86.1462 10.21C86.0402 10.74 85.9695 10.9697 85.9342 10.899C85.9342 10.899 86.0755 11.0403 86.3582 11.323C86.3582 11.3937 86.3405 11.482 86.3052 11.588C86.3052 11.694 86.2875 11.8177 86.2522 11.959C86.1815 12.0297 86.0932 12.1357 85.9872 12.277C85.8812 12.383 85.7575 12.5243 85.6162 12.701L85.4042 13.125C85.4042 13.4077 85.4572 13.5843 85.5632 13.655C85.6692 13.6903 85.7752 13.7257 85.8812 13.761C85.9519 13.655 86.0225 13.602 86.0932 13.602C86.2345 13.602 86.3229 13.708 86.3582 13.92C86.3582 13.9907 86.2345 14.1497 85.9872 14.397C86.0579 14.5737 86.1992 14.8033 86.4112 15.086L85.9872 15.457C85.7752 15.5983 85.6692 15.7397 85.6692 15.881L85.7752 16.093H85.9342C86.0755 16.093 86.2169 15.9693 86.3582 15.722H86.5702L86.6232 15.881C86.6232 15.881 86.6055 15.934 86.5702 16.04C86.5702 16.146 86.5525 16.305 86.5172 16.517C86.4819 16.7643 86.4465 16.9763 86.4112 17.153C86.4112 17.2943 86.4112 17.4003 86.4112 17.471C86.2345 17.7183 86.1462 17.895 86.1462 18.001C86.0755 17.9303 86.0225 17.895 85.9872 17.895C85.9165 17.895 85.8812 17.9833 85.8812 18.16C85.8812 18.372 85.9695 18.8667 86.1462 19.644C86.2169 19.8207 86.2699 19.9973 86.3052 20.174C86.3405 20.3507 86.3759 20.5273 86.4112 20.704C86.4465 21.3047 86.4642 21.605 86.4642 21.605C86.3935 21.7817 86.3582 21.9053 86.3582 21.976V22.347C86.3582 23.0537 86.2699 23.407 86.0932 23.407C86.0932 23.3717 86.0755 23.354 86.0402 23.354L86.2522 23.672C86.2875 23.7073 86.3052 23.7603 86.3052 23.831V23.99C86.4112 24.0607 86.4995 24.1843 86.5702 24.361L86.6762 25.156V25.474L86.6232 26.004C86.5525 26.0747 86.4642 26.1277 86.3582 26.163C86.2169 26.1983 86.1462 26.2867 86.1462 26.428L86.1992 27.011L86.4112 26.958C86.5879 26.958 86.6939 27.0287 86.7292 27.17C86.7999 27.2407 86.7999 27.382 86.7292 27.594L86.6232 27.965C86.6585 28.0003 86.7115 28.0887 86.7822 28.23C86.7822 28.336 86.7645 28.4067 86.7292 28.442V28.654C86.6939 28.76 86.6762 28.8483 86.6762 28.919L86.7292 30.35C86.8352 30.456 86.9059 30.562 86.9412 30.668L86.7822 31.092C86.8175 31.3747 86.8352 31.5867 86.8352 31.728C86.8352 31.834 86.8529 31.8517 86.8882 31.781C86.8175 32.099 86.7645 32.2757 86.7292 32.311L86.8352 32.47C86.8705 32.5407 86.8882 32.5937 86.8882 32.629C86.9235 32.6643 86.9412 32.6997 86.9412 32.735C86.9412 33.0177 86.8882 33.1767 86.7822 33.212C86.7822 33.212 86.7645 33.212 86.7292 33.212H86.7822C86.7822 33.1767 86.7822 33.159 86.7822 33.159L86.3582 33H85.8812C85.8105 33 85.7222 33.0177 85.6162 33.053H85.1922L84.9802 33C84.9095 33 84.8389 33.0177 84.7682 33.053L84.5562 33.106L83.6022 32.894C83.5669 32.894 83.4962 32.947 83.3902 33.053C83.2842 33.159 83.1782 33.212 83.0722 33.212C82.9309 33.212 82.6835 33.0883 82.3302 32.841C82.2949 32.9117 82.1182 33.053 81.8002 33.265C81.5529 33.265 81.4292 33.1237 81.4292 32.841L81.6412 30.562V30.297C81.5352 30.2617 81.4115 30.2617 81.2702 30.297C81.4469 30.1557 81.5175 29.979 81.4822 29.767L81.3762 29.343V29.29C81.3762 29.184 81.4822 29.078 81.6942 28.972C81.6235 28.866 81.5529 28.7423 81.4822 28.601C81.4469 28.495 81.4115 28.4067 81.3762 28.336C81.3762 28.23 81.3762 28.1417 81.3762 28.071C81.4115 28.0003 81.4292 27.8413 81.4292 27.594L81.2702 27.276C81.4822 27.2407 81.6412 27.0993 81.7472 26.852C81.7119 26.7813 81.6059 26.7107 81.4292 26.64C81.4645 26.4633 81.4822 26.322 81.4822 26.216C81.5175 26.0747 81.5175 25.9687 81.4822 25.898L81.2702 25.209L81.3762 24.679L81.4822 24.255L81.1642 23.195C81.1642 23.089 81.2525 22.9477 81.4292 22.771C81.3585 22.7357 81.2879 22.6827 81.2172 22.612C81.1465 22.5413 81.0759 22.4707 81.0052 22.4C81.0759 22.188 81.1112 21.87 81.1112 21.446C81.1112 21.34 81.1289 21.2693 81.1642 21.234L81.0052 20.81C81.0052 20.4567 81.0582 20.227 81.1642 20.121C81.2702 20.015 81.3232 19.8737 81.3232 19.697C81.3232 19.4143 81.2172 19.1493 81.0052 18.902C81.1112 18.9727 81.1819 18.9903 81.2172 18.955C81.3585 18.955 81.4469 18.902 81.4822 18.796L81.0052 18.637C80.9699 18.6017 80.9345 18.5663 80.8992 18.531C80.8639 18.4603 80.8109 18.4073 80.7402 18.372C80.8109 18.266 80.9345 18.16 81.1112 18.054C81.1112 18.1247 81.1465 18.1953 81.2172 18.266C81.2172 18.2307 81.2525 18.1777 81.3232 18.107C80.8285 17.8243 80.6165 17.683 80.6872 17.683C80.5459 17.683 80.4399 17.7713 80.3692 17.948V18.584C80.2279 18.6193 80.1572 18.7253 80.1572 18.902V19.22C80.1219 19.2553 80.0689 19.3613 79.9982 19.538L80.0512 20.28C80.0159 20.3153 79.9629 20.386 79.8922 20.492C79.8215 20.5627 79.7155 20.6687 79.5742 20.81C79.7509 20.9513 79.8745 21.234 79.9452 21.658C79.9452 21.7993 79.9275 21.8877 79.8922 21.923C79.6802 22.135 79.5565 22.4 79.5212 22.718C79.4859 22.8947 79.4505 23.0713 79.4152 23.248C79.3799 23.3893 79.3269 23.5483 79.2562 23.725L79.5212 23.778V24.573L79.2562 24.997C79.2915 25.0323 79.3269 25.156 79.3622 25.368C79.3975 25.474 79.4152 25.58 79.4152 25.686C79.4505 25.792 79.4505 25.898 79.4152 26.004L79.2562 26.322H79.0972L78.7792 26.163C78.4965 26.905 78.3552 27.2053 78.3552 27.064L78.7792 27.488C78.8499 27.7 78.8852 27.9297 78.8852 28.177V28.707C78.8499 28.7423 78.7792 28.813 78.6732 28.919C78.6025 28.9897 78.5319 29.0957 78.4612 29.237C78.3905 29.3783 78.3552 29.5727 78.3552 29.82L78.4612 29.926C78.4965 29.9613 78.5142 30.0143 78.5142 30.085L78.3552 31.251C78.3552 31.357 78.2845 31.4807 78.1432 31.622V31.781C78.1432 31.9223 78.0725 32.0107 77.9312 32.046C78.1079 32.364 78.2139 32.629 78.2492 32.841C78.2492 32.9117 78.2139 33.0177 78.1432 33.159C78.0019 33.1943 77.8429 33.2297 77.6662 33.265C77.4895 33.3357 77.3129 33.4063 77.1362 33.477L76.5002 33.424L75.8642 33.318L75.1222 33.53C75.0162 33.53 74.9455 33.5123 74.9102 33.477C74.9102 33.4417 74.8749 33.3003 74.8042 33.053C74.6629 32.9117 74.5745 32.788 74.5392 32.682L74.3272 31.834C74.3979 31.728 74.4862 31.675 74.5922 31.675V31.304C74.8749 31.2333 75.0339 31.145 75.0692 31.039C75.0339 30.8977 74.9632 30.827 74.8572 30.827C74.6452 30.8623 74.5392 31.0213 74.5392 31.304H74.2212L74.3272 30.138L74.2212 29.714L74.0622 29.29C74.0622 29.0427 74.2389 28.919 74.5922 28.919L74.8042 29.025C74.9455 29.025 75.0339 28.9543 75.0692 28.813C74.7512 28.6717 74.5039 28.601 74.3272 28.601L74.1682 28.654C74.1682 28.6187 74.2035 28.5303 74.2742 28.389C74.1682 28.283 74.0975 28.23 74.0622 28.23L73.6912 28.283C73.6559 28.2477 73.6382 28.1063 73.6382 27.859C73.6382 27.647 73.6912 27.4703 73.7972 27.329L73.9032 27.064C73.8325 26.9933 73.7442 26.9227 73.6382 26.852C73.5675 26.7813 73.4615 26.693 73.3202 26.587C73.2849 26.5517 73.2672 26.4987 73.2672 26.428C73.2672 26.322 73.2495 26.1983 73.2142 26.057L73.4262 25.103C73.3909 25.0677 73.3555 25.0323 73.3202 24.997C73.2849 24.9617 73.2319 24.9087 73.1612 24.838L73.0552 24.255C73.0199 24.2197 72.9669 24.1843 72.8962 24.149C72.8609 24.0783 72.8079 23.99 72.7372 23.884C72.7725 23.8487 72.7902 23.7957 72.7902 23.725C72.7902 23.5837 72.7372 23.4423 72.6312 23.301V23.089L72.7902 23.036C73.1435 23.0007 73.3202 22.8947 73.3202 22.718C73.3202 22.5767 73.0905 22.4883 72.6312 22.453C72.5252 22.1703 72.4722 21.923 72.4722 21.711L72.5782 21.552V21.446C72.4722 21.1987 72.3485 21.0397 72.2072 20.969L72.1542 20.863C72.1542 20.8277 72.1719 20.7923 72.2072 20.757L71.9952 20.598C72.2779 20.1387 72.4192 19.909 72.4192 19.909C72.4192 19.7323 72.3132 19.5733 72.1012 19.432C72.1012 19.3967 72.1895 19.2907 72.3662 19.114L71.6772 19.008C71.5712 18.8313 71.5005 18.743 71.4652 18.743C71.2885 18.8137 71.1825 18.8843 71.1472 18.955V19.22L70.9882 19.379V19.591C71.0235 19.6617 71.0589 19.75 71.0942 19.856C71.1295 19.962 71.1649 20.0857 71.2002 20.227C71.2002 20.4037 71.1472 20.545 71.0412 20.651C70.8999 20.757 70.8292 20.8277 70.8292 20.863L71.3062 21.658C71.3415 21.6933 71.3592 21.764 71.3592 21.87C71.3592 21.9407 71.3769 22.0113 71.4122 22.082C71.3769 22.0467 71.3415 22.0997 71.3062 22.241C71.1649 22.2763 71.0765 22.3647 71.0412 22.506L70.9882 22.771C71.1295 22.9123 71.2532 22.983 71.3592 22.983L71.4652 26.11L71.3592 26.269C71.3945 26.375 71.4122 26.5517 71.4122 26.799C71.4122 26.905 71.3592 27.064 71.2532 27.276L71.1472 27.594C71.1472 27.6293 71.1472 27.6647 71.1472 27.7C71.1825 27.7353 71.2179 27.7883 71.2532 27.859C71.3239 27.965 71.3239 28.1593 71.2532 28.442C71.3945 28.6187 71.4299 28.9013 71.3592 29.29C71.3945 29.6787 71.4122 29.9967 71.4122 30.244C71.4475 30.4913 71.4475 30.6857 71.4122 30.827C71.4829 30.933 71.5359 31.039 71.5712 31.145C71.6065 31.2157 71.6419 31.2863 71.6772 31.357C71.6065 31.569 71.5359 31.7987 71.4652 32.046C71.4299 32.258 71.3769 32.5053 71.3062 32.788L71.5712 33.159V33.371C71.5005 33.4417 71.3945 33.5123 71.2532 33.583C71.1472 33.6537 71.0235 33.7243 70.8822 33.795C70.6702 33.795 70.4405 33.7243 70.1932 33.583L69.6632 33.318C69.5572 33.424 69.4512 33.5123 69.3452 33.583C69.2039 33.6183 69.0625 33.636 68.9212 33.636C68.8152 33.6713 68.7269 33.689 68.6562 33.689L67.9142 33.583C67.8789 33.583 67.7729 33.636 67.5962 33.742L67.2782 33.848ZM80.8992 2.154C80.8992 2.01267 80.8639 1.90667 80.7932 1.836L80.6872 2.154H80.8992ZM69.8222 4.115L70.0342 4.009L69.9282 3.85C69.8929 3.88533 69.8752 3.92067 69.8752 3.956C69.8752 3.99133 69.8575 4.04433 69.8222 4.115ZM81.8532 4.539L82.0652 4.38C82.0652 4.34467 81.9945 4.34467 81.8532 4.38C81.8179 4.41533 81.8179 4.46833 81.8532 4.539ZM82.5422 4.91C82.6482 4.98067 82.7365 4.91 82.8072 4.698C82.7719 4.66267 82.7189 4.645 82.6482 4.645C82.5069 4.645 82.4715 4.73333 82.5422 4.91ZM67.8082 5.864C67.9142 5.89933 68.0025 5.88167 68.0732 5.811C68.1439 5.74033 68.1085 5.652 67.9672 5.546C67.8612 5.58133 67.8082 5.68733 67.8082 5.864ZM71.6242 6.977C71.7655 6.90633 71.8539 6.85333 71.8892 6.818C71.7479 6.53533 71.6949 6.32333 71.7302 6.182C71.8009 6.11133 71.8715 6.04067 71.9422 5.97C72.0129 5.864 72.0835 5.758 72.1542 5.652C71.8715 5.58133 71.6772 5.56367 71.5712 5.599C71.3592 5.599 71.2355 5.61667 71.2002 5.652C71.0235 5.758 70.9352 5.88167 70.9352 6.023C70.9352 6.659 71.1649 6.977 71.6242 6.977ZM70.5112 9.097C70.5465 9.02633 70.5289 8.95567 70.4582 8.885C70.4229 8.84967 70.3345 8.86733 70.1932 8.938C70.2639 9.044 70.3699 9.097 70.5112 9.097ZM68.1792 10.581C68.1792 10.5103 68.1439 10.4397 68.0732 10.369C68.0379 10.2983 67.9672 10.316 67.8612 10.422C67.8612 10.528 67.9672 10.581 68.1792 10.581ZM83.0722 11.27C83.0722 11.2347 83.0192 11.164 82.9132 11.058L82.8072 11.164C82.8425 11.1993 82.8779 11.217 82.9132 11.217C82.9839 11.217 83.0369 11.2347 83.0722 11.27ZM66.1652 11.535C66.2712 11.6057 66.3595 11.5527 66.4302 11.376C66.3949 11.3407 66.3419 11.323 66.2712 11.323C66.1652 11.323 66.1299 11.3937 66.1652 11.535ZM84.4502 11.8C84.4149 11.7293 84.3619 11.7293 84.2912 11.8L84.4502 12.012V11.8ZM83.1782 12.118C83.1782 12.012 83.1429 11.9237 83.0722 11.853C83.0015 11.853 82.9309 11.8883 82.8602 11.959C82.8602 12.065 82.9662 12.118 83.1782 12.118ZM71.9952 14.503C72.0659 14.4323 72.1012 14.344 72.1012 14.238C71.9245 14.2733 71.8009 14.3617 71.7302 14.503H71.9952ZM72.2602 15.033L72.1542 14.874L71.7832 15.033H72.2602ZM74.2742 15.351C74.2742 15.2803 74.2035 15.245 74.0622 15.245C74.1682 15.351 74.2389 15.3863 74.2742 15.351ZM69.8222 18.955C69.8575 18.955 69.8929 18.9373 69.9282 18.902L69.7162 18.743C69.6809 18.743 69.6455 18.7607 69.6102 18.796L69.8222 18.955ZM74.5922 19.803V19.432C74.4155 19.6087 74.2919 19.697 74.2212 19.697C74.2565 19.697 74.2742 19.7323 74.2742 19.803H74.5922ZM69.9812 20.015L70.3522 19.962C70.3169 19.7853 70.2109 19.6793 70.0342 19.644L69.9812 20.015ZM83.2842 21.658C83.4609 21.4813 83.5492 21.3047 83.5492 21.128V20.969C83.5139 20.8983 83.4432 20.8277 83.3372 20.757C83.2665 20.6863 83.1782 20.5803 83.0722 20.439L82.9662 21.022C82.9662 21.1633 83.0722 21.3753 83.2842 21.658ZM77.5072 22.082C77.9665 22.0113 78.2139 21.9937 78.2492 22.029L78.1962 21.605C78.0195 21.4283 77.8605 21.3577 77.7192 21.393C77.6485 21.4637 77.5779 21.6933 77.5072 22.082ZM86.5172 21.552C86.5172 21.552 86.4995 21.5697 86.4642 21.605C86.4995 21.605 86.5172 21.605 86.5172 21.605C86.5172 21.5697 86.5172 21.552 86.5172 21.552ZM76.4472 23.513L76.3412 23.354H76.2882L76.3412 23.513H76.4472ZM69.8222 24.838C69.9282 24.8733 70.0342 24.8203 70.1402 24.679C70.0342 24.573 69.9459 24.5553 69.8752 24.626C69.8045 24.6967 69.7869 24.7673 69.8222 24.838ZM68.1262 25.898C68.1615 25.8627 68.1792 25.8097 68.1792 25.739C68.1792 25.633 68.1085 25.58 67.9672 25.58C67.9319 25.686 67.9849 25.792 68.1262 25.898ZM84.9802 28.707C85.1215 28.707 85.2275 28.6717 85.2982 28.601C85.1215 28.3183 85.0862 28.0887 85.1922 27.912C85.2629 27.8413 85.3335 27.7707 85.4042 27.7C85.4749 27.6293 85.5455 27.541 85.6162 27.435C85.4749 27.3997 85.3512 27.382 85.2452 27.382C85.1392 27.3467 85.0509 27.329 84.9802 27.329C84.8742 27.329 84.7505 27.3643 84.6092 27.435C84.4325 27.541 84.3442 27.7 84.3442 27.912C84.4149 28.442 84.6269 28.707 84.9802 28.707ZM69.9812 28.336C70.0165 28.2653 69.9812 28.1947 69.8752 28.124C69.8399 28.0533 69.7692 28.071 69.6632 28.177C69.7339 28.283 69.8399 28.336 69.9812 28.336ZM68.4972 32.576C68.5679 32.5053 68.7445 32.4523 69.0272 32.417C69.2745 32.417 69.3805 32.2933 69.3452 32.046L69.2922 31.887L69.0802 31.834L68.6032 31.993C68.5679 31.993 68.5502 31.9753 68.5502 31.94H68.4442C68.3029 31.94 68.2322 31.993 68.2322 32.099C68.2322 32.311 68.3205 32.47 68.4972 32.576ZM94.0275 33.212L93.3385 33H93.1265C93.0205 33 92.8968 33 92.7555 33C92.6141 32.9647 92.4551 32.9293 92.2785 32.894L91.1655 31.94C90.8828 31.6573 90.6708 31.3217 90.5295 30.933C90.4941 30.7917 90.4588 30.615 90.4235 30.403C90.3881 30.191 90.3351 29.9437 90.2645 29.661L90.3175 29.396C90.3175 29.29 90.2998 29.2017 90.2645 29.131C90.1938 28.919 90.1585 28.813 90.1585 28.813C90.1938 28.7423 90.2115 28.6363 90.2115 28.495C90.2115 28.3183 90.2115 28.1417 90.2115 27.965L89.8935 26.905V26.746C89.8935 26.6753 89.8935 26.587 89.8935 26.481C89.8935 26.375 89.9111 26.269 89.9465 26.163L90.2115 25.527V25.156C90.3528 24.944 90.4941 24.679 90.6355 24.361C90.7768 24.0077 90.9181 23.6013 91.0595 23.142L91.4835 22.93C91.5188 22.8593 91.5541 22.7887 91.5895 22.718C91.6248 22.6473 91.6778 22.5767 91.7485 22.506L92.4905 21.764C92.5258 21.6933 92.5611 21.6227 92.5965 21.552C92.6318 21.446 92.6848 21.3223 92.7555 21.181L94.6635 20.015C94.8401 19.909 95.0168 19.803 95.1935 19.697C95.3701 19.591 95.5468 19.4673 95.7235 19.326C95.7235 19.326 95.8295 19.3613 96.0415 19.432C96.0768 19.3967 96.1121 19.3613 96.1475 19.326C96.1828 19.2553 96.2358 19.2023 96.3065 19.167L96.8365 18.955C96.8365 18.7783 96.9071 18.6017 97.0485 18.425C97.1545 18.3543 97.2781 18.2483 97.4195 18.107C97.5961 17.9657 97.7905 17.789 98.0025 17.577C98.0378 17.5417 98.0378 17.365 98.0025 17.047C98.0731 17.1177 98.1085 17.1 98.1085 16.994C98.1085 16.676 98.0908 16.5523 98.0555 16.623C98.0201 16.4817 97.9671 16.3403 97.8965 16.199C97.8611 16.0223 97.8258 15.8457 97.7905 15.669C97.7551 15.6337 97.7728 15.5277 97.8435 15.351L97.9495 15.086C97.9495 15.086 97.8611 14.9623 97.6845 14.715L97.1545 14.026C96.9778 13.8493 96.7481 13.7787 96.4655 13.814L96.2005 13.867C95.9885 13.9377 95.8825 13.973 95.8825 13.973H95.4055L95.2995 14.079C95.3348 14.1143 95.3701 14.1497 95.4055 14.185C95.4408 14.2203 95.4761 14.2733 95.5115 14.344C95.5115 14.4147 95.4938 14.4677 95.4585 14.503V14.662C95.3171 14.6973 95.1581 14.8387 94.9815 15.086C94.9108 15.298 94.8755 15.4923 94.8755 15.669C94.9461 15.8103 95.0521 15.9517 95.1935 16.093C95.1581 16.1283 95.1051 16.146 95.0345 16.146C94.9638 16.4287 94.9638 16.623 95.0345 16.729L95.1935 16.941V17.206C95.1935 17.2413 95.1405 17.2943 95.0345 17.365L94.3985 17.206C94.3631 17.0647 94.2748 17.0293 94.1335 17.1C94.0275 17.1707 93.9391 17.153 93.8685 17.047H93.7625C93.6565 17.047 93.5858 17.0117 93.5505 16.941C93.5151 16.835 93.4445 16.8527 93.3385 16.994L93.0205 17.365C92.8438 17.365 92.7025 17.3827 92.5965 17.418L92.3315 17.312C92.2255 17.2413 92.1548 17.2237 92.1195 17.259C92.0841 17.259 92.0488 17.259 92.0135 17.259L90.9005 17.577C90.8298 17.577 90.7415 17.577 90.6355 17.577C90.5295 17.577 90.4058 17.5593 90.2645 17.524L89.9995 16.729C89.9995 16.6937 90.0171 16.676 90.0525 16.676C90.0878 16.6407 90.1055 16.6053 90.1055 16.57L90.1585 16.411C90.1231 16.305 90.1055 16.1813 90.1055 16.04C90.1055 15.8633 90.1055 15.6867 90.1055 15.51C90.2115 15.404 90.2821 15.298 90.3175 15.192C90.3528 15.086 90.3705 14.8563 90.3705 14.503V14.185C90.3705 13.2663 91.1478 12.118 92.7025 10.74C92.7378 10.634 92.8615 10.475 93.0735 10.263C93.1088 10.2277 93.3385 10.1217 93.7625 9.945C93.8331 9.87433 93.8508 9.82133 93.8155 9.786L93.8685 9.521C94.0098 9.55633 94.1511 9.59167 94.2925 9.627C94.4691 9.627 94.6281 9.627 94.7695 9.627L95.1405 9.468C95.2111 9.43267 95.2818 9.39733 95.3525 9.362C95.4231 9.32667 95.4761 9.309 95.5115 9.309H95.8825C95.9178 9.27367 96.0415 9.22067 96.2535 9.15C96.4655 9.11467 96.6421 9.097 96.7835 9.097C96.9601 9.06167 97.1191 9.044 97.2605 9.044C97.4371 9.044 97.8081 9.097 98.3735 9.203C99.0095 9.309 99.3628 9.415 99.4335 9.521L99.3805 9.892L99.5395 10.104L99.8575 9.945C99.9635 9.945 100.087 10.051 100.228 10.263L100.652 10.316C100.723 10.316 100.794 10.3337 100.864 10.369C100.97 10.369 101.041 10.369 101.076 10.369C101.112 10.4043 101.147 10.4397 101.182 10.475C101.218 10.475 101.253 10.5103 101.288 10.581V11.005L100.864 11.217C100.9 11.3583 101.041 11.4467 101.288 11.482C101.571 11.5173 101.73 11.5703 101.765 11.641L102.295 13.602C102.295 13.708 102.401 13.8493 102.613 14.026C102.649 14.2733 102.666 14.556 102.666 14.874C102.666 15.192 102.666 15.5277 102.666 15.881L102.825 16.146C102.861 16.1813 102.878 16.3757 102.878 16.729L102.825 17.63C102.79 17.948 102.772 18.2307 102.772 18.478C102.772 18.69 102.772 18.8667 102.772 19.008L102.878 19.167C102.914 19.5203 102.931 19.803 102.931 20.015C102.967 20.1917 102.984 20.2623 102.984 20.227L102.772 20.757C102.737 20.8983 102.702 21.0043 102.666 21.075C102.666 21.1103 102.666 21.1457 102.666 21.181C102.666 21.287 102.666 21.393 102.666 21.499C102.702 21.605 102.737 21.711 102.772 21.817C102.843 21.8877 102.896 21.9937 102.931 22.135C103.002 22.241 103.055 22.3647 103.09 22.506L103.037 23.195C103.002 23.2303 102.967 23.301 102.931 23.407C102.896 23.4777 102.861 23.566 102.825 23.672C102.825 23.672 102.896 24.149 103.037 25.103L102.825 25.845C102.861 25.8803 102.914 26.004 102.984 26.216C103.055 26.3927 103.09 26.4987 103.09 26.534V26.799C103.09 27.011 103.073 27.17 103.037 27.276C103.355 27.3113 103.514 27.5763 103.514 28.071L103.408 28.389C103.338 28.601 103.302 28.707 103.302 28.707L103.461 29.29C103.497 29.4313 103.514 29.5903 103.514 29.767C103.55 29.9437 103.567 30.1733 103.567 30.456V30.986C103.673 31.1273 103.779 31.3747 103.885 31.728V31.781C103.885 32.1697 103.408 32.3993 102.454 32.47L101.447 32.311C101.412 32.311 101.306 32.311 101.129 32.311C100.953 32.311 100.688 32.3287 100.334 32.364C100.299 32.364 100.246 32.3993 100.175 32.47C100.105 32.5407 100.034 32.576 99.9635 32.576H99.4865C99.4865 32.576 99.2745 32.5053 98.8505 32.364L98.9565 31.887C98.9565 31.675 98.8505 31.516 98.6385 31.41C98.6385 31.3747 98.6561 31.2333 98.6915 30.986L98.7975 30.615C98.5501 30.6503 97.9141 31.1803 96.8895 32.205C96.6421 32.4523 96.4655 32.5583 96.3595 32.523L96.1475 32.47C96.0415 32.576 95.9355 32.6643 95.8295 32.735C95.6175 32.841 95.4231 32.894 95.2465 32.894C95.2111 32.9293 95.1935 32.9293 95.1935 32.894C95.1581 32.8587 95.1228 32.841 95.0875 32.841C95.0521 32.8763 94.8755 32.947 94.5575 33.053C94.2748 33.159 94.0981 33.212 94.0275 33.212ZM94.2925 10.369C94.2925 10.263 94.2218 10.1923 94.0805 10.157C94.0098 10.2277 93.9745 10.2807 93.9745 10.316C94.0098 10.528 94.1158 10.5457 94.2925 10.369ZM100.864 13.072L101.023 12.86C101.059 12.7893 101.023 12.7187 100.917 12.648C100.811 12.6127 100.688 12.6127 100.546 12.648C100.582 12.754 100.688 12.8953 100.864 13.072ZM93.3385 14.98L93.9745 14.927C94.2571 14.927 94.3985 14.8033 94.3985 14.556L94.2925 14.291L93.6035 14.238C93.3208 14.238 93.1971 14.344 93.2325 14.556L93.2855 14.768C93.3208 14.8387 93.3385 14.9093 93.3385 14.98ZM98.1615 18.849C98.1968 18.8843 98.2851 18.8843 98.4265 18.849L98.3735 18.637C98.2321 18.6723 98.1615 18.743 98.1615 18.849ZM94.6635 21.976L94.7165 21.711L94.3985 21.658L94.6635 21.976ZM95.9355 28.548H96.2005C96.2711 28.548 96.3418 28.5127 96.4125 28.442C96.4831 28.3713 96.5361 28.336 96.5715 28.336C96.6421 28.3713 96.7481 28.4243 96.8895 28.495C97.0308 28.495 97.1898 28.4067 97.3665 28.23C97.4371 28.0533 97.5431 27.8413 97.6845 27.594C97.8611 27.5233 98.0555 27.382 98.2675 27.17C98.2321 27.0993 98.2145 26.958 98.2145 26.746C98.2145 26.5693 98.2145 26.375 98.2145 26.163C98.2498 25.951 98.2851 25.7213 98.3205 25.474C98.2851 25.2973 98.2498 25.103 98.2145 24.891C98.1791 24.6437 98.1438 24.361 98.1085 24.043C98.1085 23.831 98.2145 23.7073 98.4265 23.672C98.3205 23.3187 98.0908 22.824 97.7375 22.188H96.8895C96.7835 22.612 96.6245 22.983 96.4125 23.301L96.0415 23.566L95.8295 23.937L95.4585 24.149C95.4231 24.2903 95.3525 24.4493 95.2465 24.626C95.1758 24.8027 95.1051 25.0147 95.0345 25.262C95.0345 25.474 94.9108 25.8273 94.6635 26.322L94.7165 26.534C94.4691 26.8167 94.3455 26.9933 94.3455 27.064C94.4161 27.0287 94.4868 27.064 94.5575 27.17L94.8755 28.018C94.9461 28.0533 95.0168 28.0887 95.0875 28.124C95.1581 28.124 95.2288 28.1593 95.2995 28.23C95.3348 28.2653 95.3701 28.3007 95.4055 28.336C95.4408 28.3713 95.4761 28.4243 95.5115 28.495L95.9355 28.548ZM101.341 25.845C101.412 25.845 101.5 25.792 101.606 25.686C101.748 25.5447 101.818 25.4387 101.818 25.368L101.712 25.156C101.677 25.1207 101.624 25.103 101.553 25.103C101.483 25.103 101.412 25.0853 101.341 25.05L100.97 25.315C101.006 25.3503 101.059 25.474 101.129 25.686C101.2 25.792 101.271 25.845 101.341 25.845ZM99.1685 27.329L99.4865 27.223C99.4511 27.1877 99.4335 27.0993 99.4335 26.958L99.1155 27.011C99.1155 27.1877 99.1331 27.2937 99.1685 27.329ZM96.3595 31.834C96.4301 31.5513 96.4125 31.41 96.3065 31.41L96.2005 31.516C96.1651 31.5513 96.1475 31.6397 96.1475 31.781L96.3595 31.834ZM113.734 33.795L112.833 33.742C112.551 33.7067 112.321 33.689 112.144 33.689C112.003 33.689 111.915 33.689 111.879 33.689C111.349 33.689 111.031 33.6713 110.925 33.636L110.024 33.159C109.954 33.1237 109.865 33.0883 109.759 33.053C109.653 33.0177 109.53 32.9823 109.388 32.947C109.176 32.841 109.07 32.6643 109.07 32.417C109 32.3817 108.929 32.364 108.858 32.364C108.788 32.3287 108.717 32.311 108.646 32.311C108.646 31.993 108.576 31.781 108.434 31.675L108.063 31.516C107.993 31.4453 107.904 31.251 107.798 30.933L107.586 30.403V30.244C107.586 30.1733 107.569 30.085 107.533 29.979C107.533 29.8377 107.516 29.6963 107.48 29.555C107.48 29.2723 107.48 29.025 107.48 28.813C107.516 28.601 107.551 28.4243 107.586 28.283C107.445 28.2123 107.339 28.1063 107.268 27.965C107.233 27.8943 107.251 27.753 107.321 27.541L107.374 27.064C107.41 26.8873 107.427 26.7283 107.427 26.587C107.427 26.4457 107.445 26.3043 107.48 26.163C107.48 25.9863 107.533 25.7743 107.639 25.527C107.781 25.2797 107.851 25.1207 107.851 25.05C107.851 25.0147 107.816 24.9617 107.745 24.891C107.675 24.8203 107.639 24.785 107.639 24.785C107.639 24.7143 107.622 24.6613 107.586 24.626C107.586 24.5907 107.586 24.5553 107.586 24.52C107.586 24.308 107.639 24.096 107.745 23.884C107.604 23.6367 107.533 23.3363 107.533 22.983C107.533 22.7003 107.622 22.4353 107.798 22.188C107.692 22.0467 107.604 21.9053 107.533 21.764V20.386C107.533 20.386 107.498 20.3153 107.427 20.174C107.357 20.1033 107.321 20.0327 107.321 19.962C107.321 19.856 107.516 19.4673 107.904 18.796C107.622 18.6193 107.48 18.5133 107.48 18.478L107.745 17.524C107.745 17.4533 107.728 17.3473 107.692 17.206C107.692 17.0647 107.692 16.9057 107.692 16.729L107.639 15.881C107.604 15.4923 107.604 15.1743 107.639 14.927C107.675 14.6797 107.675 14.4853 107.639 14.344C107.533 14.1673 107.41 14.079 107.268 14.079V13.814L107.745 13.602C107.745 13.5313 107.728 13.4783 107.692 13.443H106.791V13.602C106.791 13.7433 106.862 13.867 107.003 13.973C107.145 14.079 107.215 14.1673 107.215 14.238L106.579 14.185C106.438 14.1497 106.314 14.132 106.208 14.132C106.138 14.132 106.085 14.132 106.049 14.132L105.731 14.238C105.519 14.3087 105.413 14.344 105.413 14.344C105.272 14.344 105.06 14.2733 104.777 14.132C104.742 14.0613 104.742 13.9553 104.777 13.814L104.883 13.496C104.848 13.39 104.83 13.284 104.83 13.178C104.83 13.072 104.83 12.9837 104.83 12.913C104.901 12.701 105.025 12.5773 105.201 12.542C105.06 12.4007 104.972 12.2593 104.936 12.118C104.936 11.9413 104.936 11.7647 104.936 11.588L104.883 11.323C104.954 11.005 104.972 10.8107 104.936 10.74L104.777 10.475C104.707 10.3337 104.671 10.2453 104.671 10.21L104.883 9.733C104.919 9.69767 104.972 9.68 105.042 9.68C105.113 9.68 105.201 9.66233 105.307 9.627C105.413 9.59167 105.484 9.521 105.519 9.415H105.625L106.155 9.574L106.844 9.786C106.88 9.82133 106.915 9.87433 106.95 9.945C106.986 10.0157 107.021 10.104 107.056 10.21C107.198 10.104 107.339 9.96267 107.48 9.786C107.622 9.60933 107.763 9.39733 107.904 9.15C108.116 9.00867 108.134 8.90267 107.957 8.832C107.851 8.76133 107.798 8.65533 107.798 8.514L107.851 6.818C107.675 6.182 107.586 5.74033 107.586 5.493L107.745 5.069L107.851 4.645C107.851 4.539 107.798 4.45066 107.692 4.38C107.586 4.30933 107.533 4.168 107.533 3.956L107.639 3.426C107.71 3.39067 107.781 3.33767 107.851 3.267C107.922 3.19633 108.028 3.108 108.169 3.002C108.381 2.79 108.505 2.684 108.54 2.684L109.017 2.896C109.159 2.93133 109.265 2.98433 109.335 3.055C109.406 3.12567 109.459 3.161 109.494 3.161L109.653 3.108H110.819C111.067 3.108 111.261 3.12567 111.402 3.161C111.579 3.161 111.72 3.161 111.826 3.161L112.197 3.055C112.409 2.98433 112.515 2.949 112.515 2.949C112.763 2.949 112.886 3.12566 112.886 3.479C112.886 3.585 112.869 3.72633 112.833 3.903C112.833 4.04433 112.816 4.221 112.78 4.433L112.568 4.38C112.427 4.38 112.25 4.45067 112.038 4.592C111.72 4.76867 111.597 4.99833 111.667 5.281C111.738 5.35167 111.773 5.387 111.773 5.387C111.809 5.387 111.879 5.334 111.985 5.228C112.127 5.15733 112.215 5.122 112.25 5.122C112.427 5.122 112.604 5.26333 112.78 5.546C112.922 5.79333 112.992 5.95233 112.992 6.023C112.992 6.09367 112.957 6.182 112.886 6.288C112.851 6.35867 112.816 6.41166 112.78 6.447C112.745 7.04766 112.71 7.47167 112.674 7.719C112.674 7.96633 112.674 8.01933 112.674 7.878C112.427 7.91333 112.303 8.01933 112.303 8.196C112.303 8.37267 112.409 8.49633 112.621 8.567V8.885C112.621 9.097 112.71 9.468 112.886 9.998C112.922 10.0687 113.045 10.1747 113.257 10.316H113.416V9.945C113.452 9.80367 113.558 9.733 113.734 9.733C114.441 9.627 114.741 9.574 114.635 9.574L114.9 9.627C115.006 9.66233 115.112 9.68 115.218 9.68L115.748 10.051C115.713 10.1923 115.695 10.3337 115.695 10.475C115.695 10.581 115.695 10.7223 115.695 10.899C115.978 11.1817 116.119 11.3053 116.119 11.27C116.119 11.376 116.049 11.4997 115.907 11.641C115.943 11.6763 115.978 11.7117 116.013 11.747C115.943 11.7823 115.89 11.9237 115.854 12.171L115.907 12.33C115.943 12.4007 115.96 12.4713 115.96 12.542C115.96 12.8247 115.943 13.1073 115.907 13.39C115.907 13.6373 115.89 13.867 115.854 14.079C115.784 14.291 115.678 14.397 115.536 14.397H115.483H115.536C115.536 14.3617 115.377 14.291 115.059 14.185C114.918 14.1497 114.635 14.132 114.211 14.132C114.035 14.132 113.681 14.185 113.151 14.291L112.939 14.45C112.798 14.5207 112.727 14.556 112.727 14.556L112.674 15.033C112.639 15.3863 112.586 15.563 112.515 15.563C112.727 16.0577 112.833 16.517 112.833 16.941C112.798 16.941 112.71 17.153 112.568 17.577C112.604 17.5063 112.621 17.7007 112.621 18.16L112.515 18.425C112.445 18.637 112.409 18.743 112.409 18.743L112.568 19.379C112.639 19.5557 112.674 19.7147 112.674 19.856C112.674 19.962 112.674 20.0327 112.674 20.068C112.674 20.068 112.604 20.1563 112.462 20.333C112.427 20.333 112.409 20.4213 112.409 20.598C112.409 20.81 112.498 20.9513 112.674 21.022V22.771C112.674 22.8063 112.639 22.8593 112.568 22.93C112.498 23.0713 112.462 23.1597 112.462 23.195C112.427 23.4423 112.427 23.6543 112.462 23.831C112.533 24.1137 112.586 24.2373 112.621 24.202C112.515 24.308 112.427 24.414 112.356 24.52C112.427 24.5907 112.515 24.838 112.621 25.262C112.197 25.5093 111.985 25.7213 111.985 25.898C111.985 25.8273 112.127 26.0393 112.409 26.534C112.409 26.534 112.445 26.8167 112.515 27.382L112.621 27.541C112.621 27.6823 112.621 27.8413 112.621 28.018C112.621 28.1593 112.639 28.336 112.674 28.548C112.674 28.548 112.886 28.6893 113.31 28.972C113.31 29.1133 113.399 29.237 113.575 29.343H113.681C113.752 29.343 113.876 29.2723 114.052 29.131C114.194 28.9897 114.317 28.919 114.423 28.919C114.423 28.919 114.494 28.9543 114.635 29.025C114.706 29.0957 114.759 29.131 114.794 29.131C114.865 29.131 114.971 29.0957 115.112 29.025C115.183 28.9543 115.254 28.9013 115.324 28.866C115.395 28.7953 115.483 28.7247 115.589 28.654L115.801 28.813V31.039C115.801 31.0743 115.784 31.1097 115.748 31.145C115.678 31.2157 115.642 31.2687 115.642 31.304V31.834C115.572 31.9047 115.501 31.9577 115.43 31.993C115.466 32.2403 115.536 32.4347 115.642 32.576C115.748 32.682 115.801 32.841 115.801 33.053C115.801 33.4063 115.607 33.583 115.218 33.583H115.059C115.024 33.583 114.989 33.5653 114.953 33.53C114.953 33.53 114.936 33.53 114.9 33.53L114.317 33.689C114.141 33.7243 113.999 33.742 113.893 33.742C113.823 33.7773 113.77 33.795 113.734 33.795ZM109.441 11.27C109.653 11.27 109.759 11.164 109.759 10.952L109.653 10.634H109.388C109.282 10.74 109.194 10.8283 109.123 10.899C109.088 10.9697 109.053 11.0227 109.017 11.058C109.053 11.0933 109.07 11.1463 109.07 11.217H109.282C109.318 11.217 109.335 11.2347 109.335 11.27C109.371 11.27 109.406 11.27 109.441 11.27ZM114.635 11.164L114.847 11.058L114.582 10.899C114.547 10.9343 114.512 10.952 114.476 10.952L114.635 11.164ZM116.013 11.747V11.853C116.013 11.8177 116.013 11.7823 116.013 11.747ZM110.501 12.489C110.537 12.4537 110.501 12.383 110.395 12.277L110.236 12.383C110.272 12.4183 110.307 12.436 110.342 12.436C110.413 12.436 110.466 12.4537 110.501 12.489ZM110.554 13.337C110.59 13.2663 110.572 13.1957 110.501 13.125C110.431 13.0543 110.342 13.0543 110.236 13.125C110.272 13.1957 110.378 13.2663 110.554 13.337ZM112.833 16.941V16.994V16.941ZM111.296 22.347L111.402 22.294C111.438 22.2587 111.473 22.241 111.508 22.241L111.402 22.082C111.367 22.1173 111.349 22.1527 111.349 22.188C111.349 22.2233 111.332 22.2763 111.296 22.347ZM109.229 24.043C109.3 24.0783 109.371 24.0607 109.441 23.99C109.512 23.9193 109.494 23.831 109.388 23.725C109.282 23.7603 109.229 23.8663 109.229 24.043ZM108.805 30.721L109.07 30.986C109.141 30.986 109.265 30.9683 109.441 30.933L109.706 30.615L109.335 30.297C109.3 30.3323 109.123 30.403 108.805 30.509V30.721ZM107.427 32.205C107.357 32.205 107.268 32.152 107.162 32.046C107.198 32.0107 107.251 31.993 107.321 31.993C107.427 31.993 107.463 32.0637 107.427 32.205ZM123.415 33.689C123.344 33.689 123.327 33.689 123.362 33.689C123.327 33.689 123.256 33.6537 123.15 33.583L122.885 33.477C122.814 33.5123 122.726 33.53 122.62 33.53C122.549 33.53 122.461 33.5477 122.355 33.583L121.613 33.159C121.507 32.9117 121.366 32.788 121.189 32.788C121.154 32.7527 121.118 32.7527 121.083 32.788C121.048 32.8233 120.977 32.841 120.871 32.841C120.871 32.841 120.694 32.6997 120.341 32.417L119.917 32.258C119.811 32.152 119.687 32.0283 119.546 31.887C119.44 31.7457 119.299 31.5867 119.122 31.41L118.698 31.092V30.986C118.698 30.8447 118.61 30.6327 118.433 30.35C118.256 30.1733 118.115 30.032 118.009 29.926C117.938 29.7847 117.885 29.6963 117.85 29.661V29.025C118.027 29.131 118.133 29.1133 118.168 28.972C118.239 28.866 118.168 28.76 117.956 28.654C117.815 28.548 117.744 28.4597 117.744 28.389V27.753C117.744 27.647 117.744 27.541 117.744 27.435C117.744 27.329 117.726 27.223 117.691 27.117C117.656 26.9403 117.62 26.7813 117.585 26.64C117.585 26.4633 117.603 26.3043 117.638 26.163L117.744 25.633C117.709 25.421 117.691 25.209 117.691 24.997C117.691 24.7497 117.691 24.5023 117.691 24.255C117.691 24.1137 117.744 23.937 117.85 23.725L118.009 23.301C117.974 23.0183 117.938 22.718 117.903 22.4C117.868 22.0467 117.832 21.6933 117.797 21.34C117.797 21.234 117.938 20.8983 118.221 20.333C118.292 20.2977 118.362 20.2623 118.433 20.227C118.504 20.1917 118.574 20.1387 118.645 20.068C118.645 20.0327 118.486 19.909 118.168 19.697L118.009 18.584C118.009 18.4073 118.08 18.3013 118.221 18.266C118.327 18.1953 118.362 18.0717 118.327 17.895L119.016 17.418C118.981 17.2767 118.857 17.1883 118.645 17.153C118.61 17.153 118.486 17.1883 118.274 17.259C118.168 17.1883 118.115 17.1177 118.115 17.047C118.115 16.835 118.221 16.6583 118.433 16.517C118.645 16.3403 118.751 16.2343 118.751 16.199L118.486 15.298C118.486 15.298 118.627 15.0507 118.91 14.556C119.157 14.5207 119.281 14.45 119.281 14.344C119.281 14.2733 119.228 14.185 119.122 14.079C118.981 13.973 118.91 13.8847 118.91 13.814C118.91 13.7787 118.945 13.7257 119.016 13.655C119.122 13.443 119.228 13.0543 119.334 12.489L119.652 12.171L119.811 11.641C120.023 11.5703 120.27 11.4643 120.553 11.323L121.242 10.475C121.595 10.0157 121.896 9.80367 122.143 9.839L122.302 9.892C122.302 9.85667 122.443 9.80367 122.726 9.733C123.574 9.45033 124.051 9.32667 124.157 9.362L124.422 9.415C124.634 9.27367 124.793 9.15 124.899 9.044L125.164 9.097C125.235 9.097 125.288 9.11467 125.323 9.15C125.358 9.18533 125.394 9.203 125.429 9.203L125.853 9.15L126.33 9.574C126.33 9.574 126.436 9.53866 126.648 9.468L126.913 9.362C127.054 9.43267 127.213 9.50333 127.39 9.574C127.567 9.64467 127.743 9.71533 127.92 9.786C128.097 9.71533 128.344 9.71533 128.662 9.786L128.609 10.051V10.104C128.609 10.316 128.803 10.422 129.192 10.422H129.616C129.616 10.422 129.846 10.846 130.305 11.694L130.623 11.588C130.764 11.588 130.853 11.641 130.888 11.747L131.471 13.761C131.436 13.8317 131.418 13.9553 131.418 14.132C131.418 14.2733 131.418 14.4323 131.418 14.609L131.577 14.98C131.648 15.192 131.683 15.298 131.683 15.298L131.577 15.457C131.542 15.4923 131.524 15.5453 131.524 15.616V16.411C131.489 16.4463 131.453 16.517 131.418 16.623C131.383 16.6937 131.347 16.7997 131.312 16.941C131.1 16.9763 130.994 17.047 130.994 17.153C130.994 17.259 131.153 17.4533 131.471 17.736C131.754 18.0187 131.895 18.1953 131.895 18.266C131.895 18.3367 131.807 18.372 131.63 18.372L131.471 19.114C131.436 19.1493 131.383 19.2553 131.312 19.432C131.312 19.644 131.418 20.1033 131.63 20.81C131.489 20.8807 131.383 20.969 131.312 21.075C131.312 21.075 131.312 21.2163 131.312 21.499L131.365 22.029C131.365 22.0643 131.365 22.135 131.365 22.241C131.365 22.3117 131.347 22.4177 131.312 22.559L131.259 23.089H130.994C130.711 23.089 130.482 22.9477 130.305 22.665C130.164 22.4177 130.04 22.294 129.934 22.294C129.899 22.294 129.793 22.4 129.616 22.612C129.404 22.824 129.263 22.93 129.192 22.93L128.609 22.877C128.432 22.8417 128.291 22.8417 128.185 22.877C128.079 22.877 128.008 22.877 127.973 22.877L126.86 22.4C126.613 22.612 126.33 22.718 126.012 22.718C125.623 22.718 125.288 22.5943 125.005 22.347C124.934 22.4177 124.899 22.4707 124.899 22.506H124.104C124.069 22.506 124.051 22.506 124.051 22.506C124.051 22.4707 124.033 22.453 123.998 22.453H123.786C123.468 22.453 123.203 22.6473 122.991 23.036V23.248C122.956 23.3187 122.903 23.4247 122.832 23.566C122.797 23.672 122.744 23.7957 122.673 23.937C122.673 23.9723 122.708 24.0253 122.779 24.096L122.885 24.308V24.414C122.885 24.4493 122.885 24.52 122.885 24.626C122.885 24.6967 122.867 24.8027 122.832 24.944C122.867 25.05 122.885 25.2267 122.885 25.474C122.885 25.6153 122.797 25.739 122.62 25.845L122.514 27.594C122.726 27.7707 122.814 28.071 122.779 28.495H123.415C123.627 28.495 123.786 28.5657 123.892 28.707C123.998 28.8483 124.069 28.919 124.104 28.919L124.475 28.76L124.846 29.025C124.952 29.025 125.023 28.972 125.058 28.866L125.376 28.124V27.329L125.429 26.534C125.464 26.428 125.482 26.3397 125.482 26.269C125.517 26.163 125.535 26.0923 125.535 26.057L125.482 25.898C125.553 25.7567 125.588 25.6507 125.588 25.58C125.588 25.474 125.588 25.4033 125.588 25.368L125.482 24.891C125.623 24.5377 125.8 24.361 126.012 24.361C126.295 24.5023 126.683 24.626 127.178 24.732L127.443 24.626C127.549 24.5907 127.637 24.573 127.708 24.573C127.779 24.573 127.902 24.7143 128.079 24.997C128.468 24.8557 128.662 24.785 128.662 24.785L129.086 25.05H129.192C129.616 25.05 130.022 24.8733 130.411 24.52L131.312 25.368C131.135 25.686 130.941 26.0923 130.729 26.587C130.694 26.7637 130.641 26.9757 130.57 27.223C130.535 27.4703 130.464 27.7353 130.358 28.018C130.111 28.124 129.987 28.2653 129.987 28.442C129.987 28.5127 130.04 28.6363 130.146 28.813C130.252 29.025 130.305 29.1663 130.305 29.237L130.199 29.396C130.27 29.5727 130.252 29.7317 130.146 29.873L129.987 30.138C130.022 30.1733 130.04 30.244 130.04 30.35C130.04 30.668 129.81 30.933 129.351 31.145L129.245 31.251C129.28 31.2863 129.298 31.3393 129.298 31.41C129.298 31.6573 129.157 31.8163 128.874 31.887C128.485 31.993 128.256 32.0813 128.185 32.152C128.114 32.258 128.008 32.3817 127.867 32.523C127.726 32.6643 127.567 32.8233 127.39 33C126.683 33.4593 126.189 33.6537 125.906 33.583L125.27 33.424C125.093 33.424 124.917 33.477 124.74 33.583C124.563 33.689 124.422 33.7243 124.316 33.689L124.104 33.636H123.839C123.698 33.636 123.592 33.636 123.521 33.636C123.45 33.6713 123.397 33.689 123.362 33.689C123.397 33.689 123.415 33.689 123.415 33.689ZM124.475 11.376L124.581 11.164L124.422 11.058C124.422 11.164 124.44 11.27 124.475 11.376ZM128.185 13.178C128.362 13.178 128.468 13.072 128.503 12.86L128.45 12.171H128.344C128.238 12.171 128.185 12.0827 128.185 11.906C128.114 11.7293 128.026 11.641 127.92 11.641C127.779 11.5703 127.673 11.6233 127.602 11.8C127.567 11.8353 127.549 11.8883 127.549 11.959C127.584 12.0297 127.602 12.1003 127.602 12.171L127.655 12.542L127.496 12.701L128.185 13.178ZM123.521 13.867C123.804 13.761 123.804 13.6373 123.521 13.496C123.45 13.5667 123.45 13.6903 123.521 13.867ZM130.411 13.814L130.305 13.602L130.146 13.708L130.411 13.814ZM123.362 18.637L123.892 18.478L124.634 18.266C124.881 18.266 125.146 18.2483 125.429 18.213C125.712 18.1423 126.03 18.0717 126.383 18.001L126.542 17.365C126.577 17.3297 126.666 17.2767 126.807 17.206C126.666 17.0647 126.542 16.9233 126.436 16.782C126.365 16.6407 126.348 16.4993 126.383 16.358L126.436 15.987V15.669C126.436 15.351 126.295 15.086 126.012 14.874C126.047 14.768 126.065 14.6267 126.065 14.45C126.065 14.1673 125.747 14.0083 125.111 13.973C125.005 13.973 124.811 14.079 124.528 14.291L123.68 14.874C123.821 14.98 123.839 15.1213 123.733 15.298C123.698 15.4393 123.574 15.51 123.362 15.51V15.669C123.468 15.5983 123.574 15.6513 123.68 15.828C123.751 15.9693 123.768 16.0577 123.733 16.093L123.627 17.683C123.627 17.789 123.627 17.8773 123.627 17.948C123.662 18.0187 123.68 18.054 123.68 18.054C123.68 18.16 123.627 18.213 123.521 18.213C123.415 18.1423 123.327 18.054 123.256 17.948L123.097 18.054L123.044 18.372L123.362 18.637ZM127.072 15.404C127.143 15.51 127.249 15.51 127.39 15.404C127.284 15.086 127.178 15.086 127.072 15.404ZM123.68 18.001C123.68 18.0717 123.68 18.0893 123.68 18.054C123.68 18.054 123.68 18.0363 123.68 18.001ZM119.016 22.188C119.122 22.1173 119.263 21.923 119.44 21.605L119.387 21.446H119.281C119.104 21.446 118.875 21.5343 118.592 21.711C118.698 21.8877 118.839 22.0467 119.016 22.188ZM129.192 21.817C129.227 21.711 129.21 21.6227 129.139 21.552C129.104 21.5167 129.015 21.5343 128.874 21.605C128.874 21.6757 128.98 21.7463 129.192 21.817ZM120.023 28.919L120.447 28.707L120.394 28.495L120.129 28.442L120.023 28.548V28.495L119.97 28.283L119.811 28.23L119.705 28.813L120.023 28.919ZM124.051 29.767C124.086 29.6963 124.069 29.6257 123.998 29.555C123.927 29.4843 123.857 29.4843 123.786 29.555C123.786 29.6257 123.874 29.6963 124.051 29.767ZM140.413 33.795L140.042 33.689C139.83 33.583 139.688 33.53 139.618 33.53L139.247 33.583H139.088C139.123 33.583 139.052 33.5653 138.876 33.53C138.699 33.53 138.363 33.477 137.869 33.371C137.727 33.1237 137.586 33 137.445 33L137.18 33.053C137.144 33.053 137.109 33.053 137.074 33.053C137.038 33.0883 137.003 33.106 136.968 33.106C136.826 33.106 136.667 33.0177 136.491 32.841C136.42 32.7703 136.332 32.682 136.226 32.576C136.12 32.4347 135.978 32.2933 135.802 32.152C135.236 32.0107 134.865 31.7633 134.689 31.41C134.689 31.198 134.636 31.0743 134.53 31.039C134.388 31.0037 134.318 30.8977 134.318 30.721C134.318 30.509 134.388 30.191 134.53 29.767L133.735 29.449L133.47 28.389C133.399 28.2123 133.293 28.018 133.152 27.806C133.046 27.5587 132.904 27.2937 132.728 27.011V26.693C132.728 26.481 132.763 26.3397 132.834 26.269C132.869 26.2337 132.975 26.216 133.152 26.216H133.311C133.346 26.216 133.364 26.2337 133.364 26.269C133.364 26.269 133.381 26.269 133.417 26.269L133.682 26.11C133.717 26.0747 133.858 26.057 134.106 26.057L134.318 26.11C134.353 26.11 134.371 26.1277 134.371 26.163C134.406 26.163 134.441 26.163 134.477 26.163L135.113 25.951L135.272 25.792C135.413 25.7213 135.59 25.6683 135.802 25.633C136.014 25.5977 136.296 25.5623 136.65 25.527L136.809 25.58C136.773 25.58 136.756 25.7037 136.756 25.951C136.756 26.1277 136.862 26.216 137.074 26.216C137.109 26.216 137.303 26.004 137.657 25.58C137.727 25.792 137.763 26.1453 137.763 26.64C137.763 26.8873 137.833 27.064 137.975 27.17C138.081 27.3467 138.116 27.5233 138.081 27.7C138.081 27.7707 138.116 27.806 138.187 27.806C137.904 27.806 137.763 27.8767 137.763 28.018C137.763 28.2653 137.886 28.389 138.134 28.389C138.204 28.389 138.328 28.2477 138.505 27.965C138.54 28.0357 138.646 28.23 138.823 28.548C138.929 28.654 139.3 28.866 139.936 29.184C140.218 29.29 140.589 29.343 141.049 29.343C141.19 29.343 141.349 29.2017 141.526 28.919C141.773 28.919 142.003 28.7423 142.215 28.389C142.179 28.4243 142.144 28.442 142.109 28.442C142.109 28.4067 142.091 28.389 142.056 28.389C142.056 28.3537 142.056 28.3183 142.056 28.283C142.056 28.177 142.073 28.071 142.109 27.965C142.179 27.8237 142.232 27.6823 142.268 27.541C142.197 27.4703 142.109 27.3643 142.003 27.223C141.932 27.0463 141.844 26.852 141.738 26.64C141.914 26.4633 141.879 26.269 141.632 26.057L141.102 25.686L141.208 25.103C141.102 24.9263 140.678 24.785 139.936 24.679L139.724 24.255C139.547 24.0783 139.3 23.884 138.982 23.672C138.876 23.672 138.717 23.619 138.505 23.513C138.469 23.4777 138.434 23.4423 138.399 23.407C138.363 23.3363 138.31 23.2833 138.24 23.248C138.204 23.2127 138.098 23.195 137.922 23.195C137.816 23.1243 137.657 22.9653 137.445 22.718L137.392 22.294C137.286 22.294 137.091 22.2587 136.809 22.188C136.526 22.082 136.314 21.9583 136.173 21.817L135.802 21.181C135.484 20.8983 135.183 20.598 134.901 20.28C134.441 19.8207 134.194 19.4497 134.159 19.167L134.477 18.796C134.441 18.796 134.353 18.796 134.212 18.796C134.106 18.796 133.982 18.6723 133.841 18.425V18.054C133.77 17.8067 133.699 17.6653 133.629 17.63C133.593 17.5593 133.576 17.5063 133.576 17.471L133.629 17.259V16.358C133.664 16.3933 133.717 16.411 133.788 16.411C133.964 16.411 134.053 16.305 134.053 16.093C134.053 15.8457 133.876 15.722 133.523 15.722C133.911 15.4393 134.106 15.1743 134.106 14.927C134.106 14.6797 133.929 14.45 133.576 14.238C133.54 14.0613 133.593 13.9023 133.735 13.761L134.159 13.549C134.194 13.4783 134.229 13.4077 134.265 13.337C134.335 13.231 134.424 13.1073 134.53 12.966C134.494 12.8953 134.459 12.807 134.424 12.701C134.424 12.595 134.424 12.5067 134.424 12.436C134.424 12.224 134.459 12.065 134.53 11.959C134.565 11.9237 134.618 11.906 134.689 11.906C134.759 11.906 134.848 11.8883 134.954 11.853L135.166 11.429C135.696 11.429 135.872 11.2347 135.696 10.846H135.749C135.855 10.846 135.978 10.687 136.12 10.369C136.19 10.369 136.385 10.263 136.703 10.051C136.844 9.90967 137.038 9.839 137.286 9.839H137.445C137.48 9.839 137.498 9.85667 137.498 9.892C137.533 9.892 137.568 9.892 137.604 9.892L137.816 9.839C137.816 9.76833 137.869 9.68 137.975 9.574C138.257 9.362 138.469 9.256 138.611 9.256L139.035 9.362L139.194 9.309H139.353C139.883 9.309 140.271 9.43267 140.519 9.68L140.466 9.945H140.572C140.607 9.945 140.713 9.85667 140.89 9.68C141.031 9.53866 141.172 9.468 141.314 9.468C141.526 9.468 141.702 9.521 141.844 9.627C142.02 9.733 142.126 9.786 142.162 9.786L142.586 9.68C142.727 9.64467 142.815 9.627 142.851 9.627C142.921 9.627 142.974 9.627 143.01 9.627C143.116 9.627 143.222 9.64467 143.328 9.68L143.54 9.786C143.575 9.85667 143.699 9.998 143.911 10.21H143.964C144.176 10.21 144.511 10.316 144.971 10.528C145.218 10.7047 145.412 10.9697 145.554 11.323L146.031 12.277C146.031 12.5597 146.084 12.9483 146.19 13.443C146.26 13.5137 146.349 13.6197 146.455 13.761C146.561 13.867 146.684 14.0083 146.826 14.185C146.826 14.2203 146.808 14.291 146.773 14.397C146.773 14.4677 146.755 14.556 146.72 14.662C146.826 14.768 146.914 14.9447 146.985 15.192C147.02 15.298 147.055 15.3863 147.091 15.457C147.126 15.5277 147.161 15.5983 147.197 15.669V15.934L146.243 16.305C145.713 16.4463 145.253 16.5523 144.865 16.623C144.511 16.6937 144.211 16.729 143.964 16.729L143.805 16.676C143.769 16.676 143.734 16.676 143.699 16.676C143.699 16.6407 143.681 16.623 143.646 16.623C143.575 16.623 143.487 16.676 143.381 16.782L143.169 16.994C142.851 17.1 142.603 17.153 142.427 17.153C142.285 17.153 142.126 16.994 141.95 16.676C141.808 16.4287 141.738 16.252 141.738 16.146C141.738 14.9447 141.702 14.3793 141.632 14.45C141.278 14.238 141.031 14.185 140.89 14.291H140.837L140.36 14.079C140.218 14.0083 140.095 13.973 139.989 13.973C139.918 13.9377 139.865 13.92 139.83 13.92L139.565 13.973C139.459 14.0083 139.37 14.026 139.3 14.026C139.229 14.026 139.158 14.026 139.088 14.026L138.982 14.503C138.911 14.5383 138.77 14.662 138.558 14.874L138.399 15.563C138.575 15.5983 138.699 15.722 138.77 15.934C138.84 16.252 138.876 16.411 138.876 16.411C138.84 16.4463 138.628 16.4993 138.24 16.57C138.169 16.57 138.098 16.6053 138.028 16.676C138.063 16.782 138.31 16.8703 138.77 16.941C138.876 17.047 138.946 17.2237 138.982 17.471L139.565 17.577C139.565 17.7183 139.635 17.8773 139.777 18.054C139.812 18.054 139.9 18.0893 140.042 18.16C140.112 18.3013 140.218 18.4427 140.36 18.584C140.536 18.584 140.695 18.637 140.837 18.743C141.013 18.9197 141.102 19.0787 141.102 19.22H140.996C140.89 19.22 140.748 19.273 140.572 19.379V19.591C140.642 19.6617 140.731 19.7323 140.837 19.803C140.978 19.8383 141.137 19.8383 141.314 19.803L141.473 19.75H141.632L141.844 19.909C142.056 19.9443 142.215 19.962 142.321 19.962C142.427 19.962 142.497 19.962 142.533 19.962C142.815 20.0327 143.01 20.1387 143.116 20.28C143.222 20.5627 143.398 20.8453 143.646 21.128L144.176 21.287C144.352 21.393 144.476 21.552 144.547 21.764C145.077 22.2233 145.342 22.559 145.342 22.771V22.877L145.978 23.513C145.978 23.5837 145.978 23.672 145.978 23.778C146.013 23.884 146.048 24.0077 146.084 24.149C146.154 24.1843 146.225 24.2197 146.296 24.255C146.366 24.2903 146.437 24.3433 146.508 24.414C146.72 24.6613 146.826 24.8557 146.826 24.997L146.72 25.262C146.684 25.3327 146.649 25.3857 146.614 25.421C146.614 25.4563 146.614 25.4917 146.614 25.527C146.614 25.633 146.737 25.8803 146.985 26.269C146.985 26.269 146.949 26.3573 146.879 26.534L146.985 27.011L147.091 27.382L146.932 27.912C146.967 27.9827 146.985 28.1593 146.985 28.442C146.949 28.4773 146.914 28.5127 146.879 28.548C146.843 28.548 146.808 28.5833 146.773 28.654L146.349 29.979C146.349 30.0497 146.349 30.1557 146.349 30.297C146.349 30.403 146.331 30.5267 146.296 30.668C146.225 30.9507 145.942 31.092 145.448 31.092L145.077 31.993L144.282 32.523C144.176 32.629 143.928 32.8233 143.54 33.106H143.116L142.268 33.477C141.172 33.689 140.554 33.795 140.413 33.795ZM139.459 10.528C139.494 10.4573 139.476 10.3867 139.406 10.316C139.37 10.2807 139.282 10.2983 139.141 10.369C139.211 10.475 139.317 10.528 139.459 10.528ZM146.243 15.51C146.243 15.2627 146.225 15.139 146.19 15.139L145.925 15.086C145.889 15.086 145.854 15.086 145.819 15.086C145.783 15.0507 145.748 15.033 145.713 15.033C145.642 15.1037 145.607 15.2273 145.607 15.404L146.243 15.51ZM134.954 15.828C134.954 15.6867 134.936 15.5983 134.901 15.563C134.795 15.5277 134.706 15.5453 134.636 15.616C134.636 15.6867 134.742 15.7573 134.954 15.828ZM138.452 19.591C138.628 19.5203 138.717 19.4497 138.717 19.379C138.717 19.3083 138.628 19.2377 138.452 19.167V19.591ZM134.848 28.177C134.848 28.1063 134.812 28.0003 134.742 27.859L134.583 27.912C134.406 27.912 134.353 27.8237 134.424 27.647L134.318 27.859C134.353 27.965 134.424 28.071 134.53 28.177H134.848ZM144.706 29.608C144.67 29.608 144.9 29.4313 145.395 29.078V28.866C145.183 28.6187 144.988 28.495 144.812 28.495H144.653C144.653 28.5657 144.635 28.654 144.6 28.76C144.6 28.8307 144.582 28.919 144.547 29.025C144.37 29.3077 144.282 29.449 144.282 29.449C144.388 29.555 144.529 29.608 144.706 29.608ZM139.247 31.834L138.929 31.463H138.717L138.664 31.622L139.247 31.834Z" fill="#0080FF"/>
</svg>
