<svg width="148" height="34" viewBox="0 0 148 34" fill="none" xmlns="http://www.w3.org/2000/svg">
<path d="M18.6681 29.9336V33H3.6095V29.9336H18.6681ZM4.37122 4.5625V33H0.601685V4.5625H4.37122ZM16.6759 16.7891V19.8555H3.6095V16.7891H16.6759ZM18.4728 4.5625V7.64844H3.6095V4.5625H18.4728ZM35.7189 28.8984V3H39.3517V33H36.0314L35.7189 28.8984ZM21.5001 22.668V22.2578C21.5001 20.6432 21.6954 19.1784 22.0861 17.8633C22.4897 16.5352 23.0561 15.3958 23.7853 14.4453C24.5275 13.4948 25.4064 12.7656 26.422 12.2578C27.4506 11.737 28.5965 11.4766 29.8595 11.4766C31.1876 11.4766 32.3465 11.7109 33.3361 12.1797C34.3387 12.6354 35.185 13.306 35.8751 14.1914C36.5782 15.0638 37.1316 16.1185 37.5353 17.3555C37.9389 18.5924 38.2189 19.9922 38.3751 21.5547V23.3516C38.2319 24.901 37.9519 26.2943 37.5353 27.5312C37.1316 28.7682 36.5782 29.8229 35.8751 30.6953C35.185 31.5677 34.3387 32.2383 33.3361 32.707C32.3335 33.1628 31.1616 33.3906 29.8204 33.3906C28.5835 33.3906 27.4506 33.1237 26.422 32.5898C25.4064 32.056 24.5275 31.3073 23.7853 30.3438C23.0561 29.3802 22.4897 28.2474 22.0861 26.9453C21.6954 25.6302 21.5001 24.2044 21.5001 22.668ZM25.1329 22.2578V22.668C25.1329 23.7227 25.2371 24.7122 25.4454 25.6367C25.6668 26.5612 26.0053 27.375 26.4611 28.0781C26.9168 28.7812 27.4962 29.3346 28.1993 29.7383C28.9025 30.1289 29.7423 30.3242 30.7189 30.3242C31.9168 30.3242 32.8999 30.0703 33.6681 29.5625C34.4493 29.0547 35.0743 28.3841 35.5431 27.5508C36.0118 26.7174 36.3764 25.8125 36.6368 24.8359V20.1289C36.4806 19.4128 36.2527 18.7227 35.9532 18.0586C35.6668 17.3815 35.2892 16.7826 34.8204 16.2617C34.3647 15.7279 33.7983 15.3047 33.1212 14.9922C32.4572 14.6797 31.6694 14.5234 30.7579 14.5234C29.7684 14.5234 28.9155 14.7318 28.1993 15.1484C27.4962 15.5521 26.9168 16.112 26.4611 16.8281C26.0053 17.5312 25.6668 18.3516 25.4454 19.2891C25.2371 20.2135 25.1329 21.2031 25.1329 22.2578ZM57.9064 28.1172V11.8672H61.5392V33H58.0822L57.9064 28.1172ZM58.59 23.6641L60.0939 23.625C60.0939 25.0312 59.9441 26.3333 59.6447 27.5312C59.3582 28.7161 58.8894 29.7448 58.2384 30.6172C57.5874 31.4896 56.7345 32.1732 55.6798 32.668C54.6251 33.1497 53.3426 33.3906 51.8322 33.3906C50.8035 33.3906 49.8595 33.2409 49.0001 32.9414C48.1538 32.6419 47.4246 32.1797 46.8126 31.5547C46.2006 30.9297 45.7254 30.1159 45.3868 29.1133C45.0613 28.1107 44.8986 26.9062 44.8986 25.5V11.8672H48.5118V25.5391C48.5118 26.4896 48.616 27.2773 48.8243 27.9023C49.0457 28.5143 49.3387 29.0026 49.7032 29.3672C50.0809 29.7188 50.4975 29.9661 50.9532 30.1094C51.422 30.2526 51.9038 30.3242 52.3986 30.3242C53.935 30.3242 55.1525 30.0312 56.0509 29.4453C56.9493 28.8464 57.5939 28.0456 57.9845 27.043C58.3881 26.0273 58.59 24.901 58.59 23.6641Z" fill="#FBFBFB"/>
<path d="M67.5791 33.848C67.5084 33.848 67.4554 33.8303 67.4201 33.795L67.2081 33.689C67.1021 33.689 66.9608 33.689 66.7841 33.689C66.6428 33.689 66.4838 33.6713 66.3071 33.636C66.2718 33.6007 66.2541 33.5123 66.2541 33.371C66.2541 33.4417 66.2718 33.3887 66.3071 33.212C66.3424 33.0353 66.3954 32.735 66.4661 32.311V32.099C66.4661 31.9223 66.4484 31.781 66.4131 31.675L66.2541 31.198C66.2541 31.198 66.2894 31.1273 66.3601 30.986L66.4661 30.721C66.4308 30.6503 66.4131 30.4913 66.4131 30.244L66.5191 29.979V29.555L66.6781 29.025L66.3071 28.813L66.5721 28.23L66.4131 27.912C66.4838 27.7353 66.5898 27.5763 66.7311 27.435V27.382C66.5544 27.2407 66.3601 27.0287 66.1481 26.746L66.2011 26.11C66.3071 26.004 66.3778 25.9157 66.4131 25.845C66.4131 25.633 66.3954 25.4917 66.3601 25.421L66.2011 25.103C66.2011 25.0323 66.2541 24.891 66.3601 24.679C66.4661 24.5023 66.5191 24.361 66.5191 24.255L66.2541 23.831C66.1481 23.725 66.0774 23.619 66.0421 23.513V22.612C66.1128 22.5767 66.2011 22.506 66.3071 22.4C66.2364 22.2587 66.1128 22.1173 65.9361 21.976C66.0068 21.9053 66.0421 21.7993 66.0421 21.658C66.0421 21.552 66.0244 21.4283 65.9891 21.287C65.9538 21.1457 65.9008 21.0043 65.8301 20.863C66.1834 20.651 66.4308 20.5803 66.5721 20.651L66.7311 20.598C66.7664 20.5273 66.7841 20.492 66.7841 20.492C66.7841 20.4567 66.7841 20.439 66.7841 20.439C66.7841 20.2977 66.6781 20.1563 66.4661 20.015H65.9891C65.9891 19.9797 65.9714 19.962 65.9361 19.962C65.9361 19.9267 65.9361 19.8913 65.9361 19.856C65.9361 19.7147 65.9891 19.538 66.0951 19.326L66.0421 18.955C66.0068 18.9197 65.9891 18.6547 65.9891 18.16C65.9891 17.9833 65.9891 17.789 65.9891 17.577C65.9891 17.365 65.9714 17.1353 65.9361 16.888C66.1481 16.888 66.2894 16.8527 66.3601 16.782C66.2894 16.7467 66.2188 16.6053 66.1481 16.358V16.252C66.1481 16.146 66.0774 16.0047 65.9361 15.828V14.98H66.0421C66.1481 14.98 66.2718 14.9447 66.4131 14.874C66.5898 14.768 66.6781 14.6973 66.6781 14.662C66.6781 14.4853 66.3601 14.4323 65.7241 14.503C65.9008 14.2203 65.9538 14.0083 65.8831 13.867L65.7241 13.549C65.7241 13.443 65.7948 13.337 65.9361 13.231L66.0421 12.966V12.754L65.6711 11.323C65.6711 11.111 65.8301 10.8283 66.1481 10.475C66.1481 10.4043 66.1128 10.3337 66.0421 10.263C66.2188 10.1923 66.3424 10.1217 66.4131 10.051V9.945C66.2718 9.87433 66.1481 9.839 66.0421 9.839C65.8301 9.521 65.7241 9.29133 65.7241 9.15C65.7241 9.07933 65.7594 9.00867 65.8301 8.938C65.8654 8.90267 65.8831 8.832 65.8831 8.726L65.8301 7.401C65.7241 7.33033 65.6358 7.189 65.5651 6.977C65.5651 6.977 65.6534 6.765 65.8301 6.341C65.7594 5.42233 65.6888 4.71566 65.6181 4.221C65.5828 3.691 65.5651 3.373 65.5651 3.267C65.5651 3.161 65.5298 2.96667 65.4591 2.684C65.3884 2.40133 65.3531 2.26 65.3531 2.26L65.4061 1.889C65.4768 1.81833 65.5828 1.76533 65.7241 1.73H66.0951C66.0951 1.69467 66.1658 1.65933 66.3071 1.624C66.3778 1.624 66.4484 1.81833 66.5191 2.207C66.5191 2.38366 66.6074 2.472 66.7841 2.472C66.9961 2.472 67.0668 2.26 66.9961 1.836L67.7381 1.677C67.8441 1.783 68.0031 1.889 68.2151 1.995C68.3918 1.995 68.4801 1.90666 68.4801 1.73V1.571L68.9041 1.518L69.2221 1.624C69.6814 1.624 69.9288 1.624 69.9641 1.624V1.571C69.9641 1.571 69.9641 1.58866 69.9641 1.624V1.677C69.9641 1.889 70.0878 2.048 70.3351 2.154H70.6001C70.6708 2.26 70.7591 2.34833 70.8651 2.419H71.0241C71.0594 2.419 71.0771 2.38366 71.0771 2.313C70.9358 2.101 70.8474 1.889 70.8121 1.677V1.465L70.9181 1.359C71.0594 1.42967 71.1478 1.518 71.1831 1.624L71.7131 1.412C71.8191 1.412 71.9428 1.42967 72.0841 1.465L72.6141 1.518L72.7731 2.101C72.9498 2.24233 73.1441 2.45433 73.3561 2.737C73.3208 2.70167 73.2854 2.843 73.2501 3.161C73.1441 3.19633 73.0911 3.28466 73.0911 3.426C73.0911 3.49666 73.1088 3.62033 73.1441 3.797C73.1794 3.97367 73.2324 4.18567 73.3031 4.433L73.5681 4.963V5.228C73.7448 5.68733 73.8331 6.288 73.8331 7.03C73.8331 7.63067 73.9568 8.037 74.2041 8.249C74.2041 8.53167 74.3278 9.11467 74.5751 9.998L74.8401 10.528C74.6988 10.74 74.5751 11.058 74.4691 11.482C74.5044 11.5527 74.5221 11.641 74.5221 11.747C74.5221 11.853 74.5221 11.9413 74.5221 12.012C74.5574 12.1533 74.5751 12.2947 74.5751 12.436C74.6104 12.542 74.6281 12.648 74.6281 12.754C74.6281 12.86 74.6281 12.966 74.6281 13.072C74.6634 13.178 74.7341 13.284 74.8401 13.39C75.0168 13.602 75.1228 14.2027 75.1581 15.192C75.3348 15.2627 75.4408 15.351 75.4761 15.457C75.4408 15.5983 75.4761 15.722 75.5821 15.828C75.7941 15.934 75.9001 16.0047 75.9001 16.04V16.411C76.0414 16.6583 76.1298 16.8527 76.1651 16.994C76.2358 17.1 76.2711 17.153 76.2711 17.153C76.4831 17.153 76.6068 16.994 76.6421 16.676C76.7128 16.358 76.7658 16.199 76.8011 16.199C76.9071 16.2697 77.0308 16.3403 77.1721 16.411C77.3134 16.411 77.3841 16.2873 77.3841 16.04C77.3841 15.934 77.3134 15.7927 77.1721 15.616C77.0661 15.51 77.0131 15.298 77.0131 14.98C77.0131 14.9093 77.0131 14.821 77.0131 14.715C77.0484 14.609 77.0838 14.4853 77.1191 14.344C77.1898 14.2027 77.2251 14.079 77.2251 13.973C77.2604 13.8317 77.2958 13.708 77.3311 13.602L77.4901 13.39C77.4901 13.3193 77.4901 13.231 77.4901 13.125C77.4901 13.019 77.4724 12.8953 77.4371 12.754L77.3841 12.065C77.4901 12.065 77.6314 11.9943 77.8081 11.853C77.8081 11.8177 77.7904 11.8 77.7551 11.8C77.6844 11.7293 77.6138 11.694 77.5431 11.694C77.4371 11.5173 77.3841 11.3937 77.3841 11.323C77.3841 11.2523 77.4371 11.111 77.5431 10.899L77.7021 10.422C77.9141 10.2453 78.0201 10.1217 78.0201 10.051C77.9494 9.98033 77.8434 9.839 77.7021 9.627C77.7021 9.48567 77.7551 9.362 77.8611 9.256C77.9671 9.07933 78.0201 8.991 78.0201 8.991C77.9848 8.885 77.9848 8.70833 78.0201 8.461C78.0201 8.39033 78.1261 8.23133 78.3381 7.984L78.0201 7.666L78.2321 7.295C78.6914 6.83567 78.9211 6.51767 78.9211 6.341C78.9211 6.235 78.8504 6.09366 78.7091 5.917C78.5324 5.74033 78.4441 5.493 78.4441 5.175V4.857C78.6208 4.57433 78.7798 4.30933 78.9211 4.062C79.0978 3.81467 79.2214 3.56733 79.2921 3.32C79.3274 3.17867 79.3451 3.09033 79.3451 3.055C79.3804 3.01967 79.3981 3.01967 79.3981 3.055C79.3981 2.91367 79.3628 2.843 79.2921 2.843C79.2568 2.843 79.1684 2.91367 79.0271 3.055C78.8858 2.98433 78.7798 2.77233 78.7091 2.419V1.995C78.7444 1.85366 78.7798 1.73 78.8151 1.624C78.8858 1.518 78.9388 1.412 78.9741 1.306L79.4511 1.2C79.7338 1.2 79.9458 1.253 80.0871 1.359L80.2991 1.518C80.4051 1.48266 80.5641 1.39433 80.7761 1.253L81.1471 1.147L81.9951 1.412V1.995C82.0658 2.207 82.1718 2.313 82.3131 2.313C82.5251 2.24233 82.6311 2.13633 82.6311 1.995L82.5781 1.73C82.5428 1.65933 82.5251 1.571 82.5251 1.465C82.5251 1.39433 82.5428 1.34133 82.5781 1.306L83.0021 1.147C83.0728 1.00567 83.1788 0.917333 83.3201 0.882L84.1681 1.094C84.2388 1.094 84.2918 1.11166 84.3271 1.147L84.4861 1.253C84.5568 1.18233 84.6628 1.12933 84.8041 1.094L86.1821 1.041C86.2174 1.11167 86.2528 1.2 86.2881 1.306C86.3588 1.37667 86.4118 1.465 86.4471 1.571C86.4471 1.571 86.3941 1.65933 86.2881 1.836C86.2528 1.97733 86.2174 2.101 86.1821 2.207C86.1821 2.313 86.1821 2.419 86.1821 2.525C86.1821 2.631 86.2528 2.75467 86.3941 2.896C86.3588 2.93133 86.3234 2.96666 86.2881 3.002C86.2881 3.03733 86.2528 3.09033 86.1821 3.161L86.0761 3.479V4.062L86.1291 4.115L86.0761 4.433C86.1114 4.50367 86.1291 4.645 86.1291 4.857C86.1644 5.069 86.1821 5.24566 86.1821 5.387C86.1821 5.42233 86.1821 5.493 86.1821 5.599C86.2174 5.705 86.2528 5.82867 86.2881 5.97L86.3941 6.447L86.2351 7.03C86.1291 7.27733 86.0584 7.48933 86.0231 7.666C86.0938 7.772 86.1644 7.878 86.2351 7.984C86.3058 8.09 86.3941 8.21367 86.5001 8.355C86.3941 8.21367 86.3058 8.09 86.2351 7.984C86.1644 7.878 86.0938 7.78967 86.0231 7.719C86.0231 7.719 86.0231 7.70133 86.0231 7.666C85.4931 6.85333 85.0161 6.16433 84.5921 5.599C84.1681 4.99833 83.7971 4.50366 83.4791 4.115L83.4261 4.221C83.7088 4.68033 84.0974 5.26333 84.5921 5.97C85.1221 6.67667 85.7228 7.48933 86.3941 8.408C86.2528 8.33733 86.1644 8.249 86.1291 8.143C85.8818 8.17833 85.7758 8.28433 85.8111 8.461L86.0231 8.779C85.9878 8.81433 85.9878 8.92033 86.0231 9.097C86.0938 9.13233 86.1468 9.18533 86.1821 9.256C86.2528 9.32667 86.3234 9.39733 86.3941 9.468L86.1821 9.733C86.1468 9.80367 86.1114 9.85667 86.0761 9.892C86.0761 9.92733 86.0761 9.96267 86.0761 9.998C86.0761 10.1393 86.1998 10.21 86.4471 10.21C86.3411 10.74 86.2704 10.9697 86.2351 10.899C86.2351 10.899 86.3764 11.0403 86.6591 11.323C86.6591 11.3937 86.6414 11.482 86.6061 11.588C86.6061 11.694 86.5884 11.8177 86.5531 11.959C86.4824 12.0297 86.3941 12.1357 86.2881 12.277C86.1821 12.383 86.0584 12.5243 85.9171 12.701L85.7051 13.125C85.7051 13.4077 85.7581 13.5843 85.8641 13.655C85.9701 13.6903 86.0761 13.7257 86.1821 13.761C86.2528 13.655 86.3234 13.602 86.3941 13.602C86.5354 13.602 86.6238 13.708 86.6591 13.92C86.6591 13.9907 86.5354 14.1497 86.2881 14.397C86.3588 14.5737 86.5001 14.8033 86.7121 15.086L86.2881 15.457C86.0761 15.5983 85.9701 15.7397 85.9701 15.881L86.0761 16.093H86.2351C86.3764 16.093 86.5178 15.9693 86.6591 15.722H86.8711L86.9241 15.881C86.9241 15.881 86.9064 15.934 86.8711 16.04C86.8711 16.146 86.8534 16.305 86.8181 16.517C86.7828 16.7643 86.7474 16.9763 86.7121 17.153C86.7121 17.2943 86.7121 17.4003 86.7121 17.471C86.5354 17.7183 86.4471 17.895 86.4471 18.001C86.3764 17.9303 86.3234 17.895 86.2881 17.895C86.2174 17.895 86.1821 17.9833 86.1821 18.16C86.1821 18.372 86.2704 18.8667 86.4471 19.644C86.5178 19.8207 86.5708 19.9973 86.6061 20.174C86.6414 20.3507 86.6768 20.5273 86.7121 20.704C86.7474 21.3047 86.7651 21.605 86.7651 21.605C86.6944 21.7817 86.6591 21.9053 86.6591 21.976V22.347C86.6591 23.0537 86.5708 23.407 86.3941 23.407C86.3941 23.3717 86.3764 23.354 86.3411 23.354L86.5531 23.672C86.5884 23.7073 86.6061 23.7603 86.6061 23.831V23.99C86.7121 24.0607 86.8004 24.1843 86.8711 24.361L86.9771 25.156V25.474L86.9241 26.004C86.8534 26.0747 86.7651 26.1277 86.6591 26.163C86.5178 26.1983 86.4471 26.2867 86.4471 26.428L86.5001 27.011L86.7121 26.958C86.8888 26.958 86.9948 27.0287 87.0301 27.17C87.1008 27.2407 87.1008 27.382 87.0301 27.594L86.9241 27.965C86.9594 28.0003 87.0124 28.0887 87.0831 28.23C87.0831 28.336 87.0654 28.4067 87.0301 28.442V28.654C86.9948 28.76 86.9771 28.8483 86.9771 28.919L87.0301 30.35C87.1361 30.456 87.2068 30.562 87.2421 30.668L87.0831 31.092C87.1184 31.3747 87.1361 31.5867 87.1361 31.728C87.1361 31.834 87.1538 31.8517 87.1891 31.781C87.1184 32.099 87.0654 32.2757 87.0301 32.311L87.1361 32.47C87.1714 32.5407 87.1891 32.5937 87.1891 32.629C87.2244 32.6643 87.2421 32.6997 87.2421 32.735C87.2421 33.0177 87.1891 33.1767 87.0831 33.212C87.0831 33.212 87.0654 33.212 87.0301 33.212H87.0831C87.0831 33.1767 87.0831 33.159 87.0831 33.159L86.6591 33H86.1821C86.1114 33 86.0231 33.0177 85.9171 33.053H85.4931L85.2811 33C85.2104 33 85.1398 33.0177 85.0691 33.053L84.8571 33.106L83.9031 32.894C83.8678 32.894 83.7971 32.947 83.6911 33.053C83.5851 33.159 83.4791 33.212 83.3731 33.212C83.2318 33.212 82.9844 33.0883 82.6311 32.841C82.5958 32.9117 82.4191 33.053 82.1011 33.265C81.8538 33.265 81.7301 33.1237 81.7301 32.841L81.9421 30.562V30.297C81.8361 30.2617 81.7124 30.2617 81.5711 30.297C81.7478 30.1557 81.8184 29.979 81.7831 29.767L81.6771 29.343V29.29C81.6771 29.184 81.7831 29.078 81.9951 28.972C81.9244 28.866 81.8538 28.7423 81.7831 28.601C81.7478 28.495 81.7124 28.4067 81.6771 28.336C81.6771 28.23 81.6771 28.1417 81.6771 28.071C81.7124 28.0003 81.7301 27.8413 81.7301 27.594L81.5711 27.276C81.7831 27.2407 81.9421 27.0993 82.0481 26.852C82.0128 26.7813 81.9068 26.7107 81.7301 26.64C81.7654 26.4633 81.7831 26.322 81.7831 26.216C81.8184 26.0747 81.8184 25.9687 81.7831 25.898L81.5711 25.209L81.6771 24.679L81.7831 24.255L81.4651 23.195C81.4651 23.089 81.5534 22.9477 81.7301 22.771C81.6594 22.7357 81.5888 22.6827 81.5181 22.612C81.4474 22.5413 81.3768 22.4707 81.3061 22.4C81.3768 22.188 81.4121 21.87 81.4121 21.446C81.4121 21.34 81.4298 21.2693 81.4651 21.234L81.3061 20.81C81.3061 20.4567 81.3591 20.227 81.4651 20.121C81.5711 20.015 81.6241 19.8737 81.6241 19.697C81.6241 19.4143 81.5181 19.1493 81.3061 18.902C81.4121 18.9727 81.4828 18.9903 81.5181 18.955C81.6594 18.955 81.7478 18.902 81.7831 18.796L81.3061 18.637C81.2708 18.6017 81.2354 18.5663 81.2001 18.531C81.1648 18.4603 81.1118 18.4073 81.0411 18.372C81.1118 18.266 81.2354 18.16 81.4121 18.054C81.4121 18.1247 81.4474 18.1953 81.5181 18.266C81.5181 18.2307 81.5534 18.1777 81.6241 18.107C81.1294 17.8243 80.9174 17.683 80.9881 17.683C80.8468 17.683 80.7408 17.7713 80.6701 17.948V18.584C80.5288 18.6193 80.4581 18.7253 80.4581 18.902V19.22C80.4228 19.2553 80.3698 19.3613 80.2991 19.538L80.3521 20.28C80.3168 20.3153 80.2638 20.386 80.1931 20.492C80.1224 20.5627 80.0164 20.6687 79.8751 20.81C80.0518 20.9513 80.1754 21.234 80.2461 21.658C80.2461 21.7993 80.2284 21.8877 80.1931 21.923C79.9811 22.135 79.8574 22.4 79.8221 22.718C79.7868 22.8947 79.7514 23.0713 79.7161 23.248C79.6808 23.3893 79.6278 23.5483 79.5571 23.725L79.8221 23.778V24.573L79.5571 24.997C79.5924 25.0323 79.6278 25.156 79.6631 25.368C79.6984 25.474 79.7161 25.58 79.7161 25.686C79.7514 25.792 79.7514 25.898 79.7161 26.004L79.5571 26.322H79.3981L79.0801 26.163C78.7974 26.905 78.6561 27.2053 78.6561 27.064L79.0801 27.488C79.1508 27.7 79.1861 27.9297 79.1861 28.177V28.707C79.1508 28.7423 79.0801 28.813 78.9741 28.919C78.9034 28.9897 78.8328 29.0957 78.7621 29.237C78.6914 29.3783 78.6561 29.5727 78.6561 29.82L78.7621 29.926C78.7974 29.9613 78.8151 30.0143 78.8151 30.085L78.6561 31.251C78.6561 31.357 78.5854 31.4807 78.4441 31.622V31.781C78.4441 31.9223 78.3734 32.0107 78.2321 32.046C78.4088 32.364 78.5148 32.629 78.5501 32.841C78.5501 32.9117 78.5148 33.0177 78.4441 33.159C78.3028 33.1943 78.1438 33.2297 77.9671 33.265C77.7904 33.3357 77.6138 33.4063 77.4371 33.477L76.8011 33.424L76.1651 33.318L75.4231 33.53C75.3171 33.53 75.2464 33.5123 75.2111 33.477C75.2111 33.4417 75.1758 33.3003 75.1051 33.053C74.9638 32.9117 74.8754 32.788 74.8401 32.682L74.6281 31.834C74.6988 31.728 74.7871 31.675 74.8931 31.675V31.304C75.1758 31.2333 75.3348 31.145 75.3701 31.039C75.3348 30.8977 75.2641 30.827 75.1581 30.827C74.9461 30.8623 74.8401 31.0213 74.8401 31.304H74.5221L74.6281 30.138L74.5221 29.714L74.3631 29.29C74.3631 29.0427 74.5398 28.919 74.8931 28.919L75.1051 29.025C75.2464 29.025 75.3348 28.9543 75.3701 28.813C75.0521 28.6717 74.8048 28.601 74.6281 28.601L74.4691 28.654C74.4691 28.6187 74.5044 28.5303 74.5751 28.389C74.4691 28.283 74.3984 28.23 74.3631 28.23L73.9921 28.283C73.9568 28.2477 73.9391 28.1063 73.9391 27.859C73.9391 27.647 73.9921 27.4703 74.0981 27.329L74.2041 27.064C74.1334 26.9933 74.0451 26.9227 73.9391 26.852C73.8684 26.7813 73.7624 26.693 73.6211 26.587C73.5858 26.5517 73.5681 26.4987 73.5681 26.428C73.5681 26.322 73.5504 26.1983 73.5151 26.057L73.7271 25.103C73.6918 25.0677 73.6564 25.0323 73.6211 24.997C73.5858 24.9617 73.5328 24.9087 73.4621 24.838L73.3561 24.255C73.3208 24.2197 73.2678 24.1843 73.1971 24.149C73.1618 24.0783 73.1088 23.99 73.0381 23.884C73.0734 23.8487 73.0911 23.7957 73.0911 23.725C73.0911 23.5837 73.0381 23.4423 72.9321 23.301V23.089L73.0911 23.036C73.4444 23.0007 73.6211 22.8947 73.6211 22.718C73.6211 22.5767 73.3914 22.4883 72.9321 22.453C72.8261 22.1703 72.7731 21.923 72.7731 21.711L72.8791 21.552V21.446C72.7731 21.1987 72.6494 21.0397 72.5081 20.969L72.4551 20.863C72.4551 20.8277 72.4728 20.7923 72.5081 20.757L72.2961 20.598C72.5788 20.1387 72.7201 19.909 72.7201 19.909C72.7201 19.7323 72.6141 19.5733 72.4021 19.432C72.4021 19.3967 72.4904 19.2907 72.6671 19.114L71.9781 19.008C71.8721 18.8313 71.8014 18.743 71.7661 18.743C71.5894 18.8137 71.4834 18.8843 71.4481 18.955V19.22L71.2891 19.379V19.591C71.3244 19.6617 71.3598 19.75 71.3951 19.856C71.4304 19.962 71.4658 20.0857 71.5011 20.227C71.5011 20.4037 71.4481 20.545 71.3421 20.651C71.2008 20.757 71.1301 20.8277 71.1301 20.863L71.6071 21.658C71.6424 21.6933 71.6601 21.764 71.6601 21.87C71.6601 21.9407 71.6778 22.0113 71.7131 22.082C71.6778 22.0467 71.6424 22.0997 71.6071 22.241C71.4658 22.2763 71.3774 22.3647 71.3421 22.506L71.2891 22.771C71.4304 22.9123 71.5541 22.983 71.6601 22.983L71.7661 26.11L71.6601 26.269C71.6954 26.375 71.7131 26.5517 71.7131 26.799C71.7131 26.905 71.6601 27.064 71.5541 27.276L71.4481 27.594C71.4481 27.6293 71.4481 27.6647 71.4481 27.7C71.4834 27.7353 71.5188 27.7883 71.5541 27.859C71.6248 27.965 71.6248 28.1593 71.5541 28.442C71.6954 28.6187 71.7308 28.9013 71.6601 29.29C71.6954 29.6787 71.7131 29.9967 71.7131 30.244C71.7484 30.4913 71.7484 30.6857 71.7131 30.827C71.7838 30.933 71.8368 31.039 71.8721 31.145C71.9074 31.2157 71.9428 31.2863 71.9781 31.357C71.9074 31.569 71.8368 31.7987 71.7661 32.046C71.7308 32.258 71.6778 32.5053 71.6071 32.788L71.8721 33.159V33.371C71.8014 33.4417 71.6954 33.5123 71.5541 33.583C71.4481 33.6537 71.3244 33.7243 71.1831 33.795C70.9711 33.795 70.7414 33.7243 70.4941 33.583L69.9641 33.318C69.8581 33.424 69.7521 33.5123 69.6461 33.583C69.5048 33.6183 69.3634 33.636 69.2221 33.636C69.1161 33.6713 69.0278 33.689 68.9571 33.689L68.2151 33.583C68.1798 33.583 68.0738 33.636 67.8971 33.742L67.5791 33.848ZM81.2001 2.154C81.2001 2.01267 81.1648 1.90667 81.0941 1.836L80.9881 2.154H81.2001ZM70.1231 4.115L70.3351 4.009L70.2291 3.85C70.1938 3.88533 70.1761 3.92067 70.1761 3.956C70.1761 3.99133 70.1584 4.04433 70.1231 4.115ZM82.1541 4.539L82.3661 4.38C82.3661 4.34467 82.2954 4.34467 82.1541 4.38C82.1188 4.41533 82.1188 4.46833 82.1541 4.539ZM82.8431 4.91C82.9491 4.98067 83.0374 4.91 83.1081 4.698C83.0728 4.66267 83.0198 4.645 82.9491 4.645C82.8078 4.645 82.7724 4.73333 82.8431 4.91ZM68.1091 5.864C68.2151 5.89933 68.3034 5.88167 68.3741 5.811C68.4448 5.74033 68.4094 5.652 68.2681 5.546C68.1621 5.58133 68.1091 5.68733 68.1091 5.864ZM71.9251 6.977C72.0664 6.90633 72.1548 6.85333 72.1901 6.818C72.0488 6.53533 71.9958 6.32333 72.0311 6.182C72.1018 6.11133 72.1724 6.04067 72.2431 5.97C72.3138 5.864 72.3844 5.758 72.4551 5.652C72.1724 5.58133 71.9781 5.56367 71.8721 5.599C71.6601 5.599 71.5364 5.61667 71.5011 5.652C71.3244 5.758 71.2361 5.88167 71.2361 6.023C71.2361 6.659 71.4658 6.977 71.9251 6.977ZM70.8121 9.097C70.8474 9.02633 70.8298 8.95567 70.7591 8.885C70.7238 8.84967 70.6354 8.86733 70.4941 8.938C70.5648 9.044 70.6708 9.097 70.8121 9.097ZM68.4801 10.581C68.4801 10.5103 68.4448 10.4397 68.3741 10.369C68.3388 10.2983 68.2681 10.316 68.1621 10.422C68.1621 10.528 68.2681 10.581 68.4801 10.581ZM83.3731 11.27C83.3731 11.2347 83.3201 11.164 83.2141 11.058L83.1081 11.164C83.1434 11.1993 83.1788 11.217 83.2141 11.217C83.2848 11.217 83.3378 11.2347 83.3731 11.27ZM66.4661 11.535C66.5721 11.6057 66.6604 11.5527 66.7311 11.376C66.6958 11.3407 66.6428 11.323 66.5721 11.323C66.4661 11.323 66.4308 11.3937 66.4661 11.535ZM84.7511 11.8C84.7158 11.7293 84.6628 11.7293 84.5921 11.8L84.7511 12.012V11.8ZM83.4791 12.118C83.4791 12.012 83.4438 11.9237 83.3731 11.853C83.3024 11.853 83.2318 11.8883 83.1611 11.959C83.1611 12.065 83.2671 12.118 83.4791 12.118ZM72.2961 14.503C72.3668 14.4323 72.4021 14.344 72.4021 14.238C72.2254 14.2733 72.1018 14.3617 72.0311 14.503H72.2961ZM72.5611 15.033L72.4551 14.874L72.0841 15.033H72.5611ZM74.5751 15.351C74.5751 15.2803 74.5044 15.245 74.3631 15.245C74.4691 15.351 74.5398 15.3863 74.5751 15.351ZM70.1231 18.955C70.1584 18.955 70.1938 18.9373 70.2291 18.902L70.0171 18.743C69.9818 18.743 69.9464 18.7607 69.9111 18.796L70.1231 18.955ZM74.8931 19.803V19.432C74.7164 19.6087 74.5928 19.697 74.5221 19.697C74.5574 19.697 74.5751 19.7323 74.5751 19.803H74.8931ZM70.2821 20.015L70.6531 19.962C70.6178 19.7853 70.5118 19.6793 70.3351 19.644L70.2821 20.015ZM83.5851 21.658C83.7618 21.4813 83.8501 21.3047 83.8501 21.128V20.969C83.8148 20.8983 83.7441 20.8277 83.6381 20.757C83.5674 20.6863 83.4791 20.5803 83.3731 20.439L83.2671 21.022C83.2671 21.1633 83.3731 21.3753 83.5851 21.658ZM77.8081 22.082C78.2674 22.0113 78.5148 21.9937 78.5501 22.029L78.4971 21.605C78.3204 21.4283 78.1614 21.3577 78.0201 21.393C77.9494 21.4637 77.8788 21.6933 77.8081 22.082ZM86.8181 21.552C86.8181 21.552 86.8004 21.5697 86.7651 21.605C86.8004 21.605 86.8181 21.605 86.8181 21.605C86.8181 21.5697 86.8181 21.552 86.8181 21.552ZM76.7481 23.513L76.6421 23.354H76.5891L76.6421 23.513H76.7481ZM70.1231 24.838C70.2291 24.8733 70.3351 24.8203 70.4411 24.679C70.3351 24.573 70.2468 24.5553 70.1761 24.626C70.1054 24.6967 70.0878 24.7673 70.1231 24.838ZM68.4271 25.898C68.4624 25.8627 68.4801 25.8097 68.4801 25.739C68.4801 25.633 68.4094 25.58 68.2681 25.58C68.2328 25.686 68.2858 25.792 68.4271 25.898ZM85.2811 28.707C85.4224 28.707 85.5284 28.6717 85.5991 28.601C85.4224 28.3183 85.3871 28.0887 85.4931 27.912C85.5638 27.8413 85.6344 27.7707 85.7051 27.7C85.7758 27.6293 85.8464 27.541 85.9171 27.435C85.7758 27.3997 85.6521 27.382 85.5461 27.382C85.4401 27.3467 85.3518 27.329 85.2811 27.329C85.1751 27.329 85.0514 27.3643 84.9101 27.435C84.7334 27.541 84.6451 27.7 84.6451 27.912C84.7158 28.442 84.9278 28.707 85.2811 28.707ZM70.2821 28.336C70.3174 28.2653 70.2821 28.1947 70.1761 28.124C70.1408 28.0533 70.0701 28.071 69.9641 28.177C70.0348 28.283 70.1408 28.336 70.2821 28.336ZM68.7981 32.576C68.8688 32.5053 69.0454 32.4523 69.3281 32.417C69.5754 32.417 69.6814 32.2933 69.6461 32.046L69.5931 31.887L69.3811 31.834L68.9041 31.993C68.8688 31.993 68.8511 31.9753 68.8511 31.94H68.7451C68.6038 31.94 68.5331 31.993 68.5331 32.099C68.5331 32.311 68.6214 32.47 68.7981 32.576ZM94.3284 33.212L93.6394 33H93.4274C93.3214 33 93.1977 33 93.0564 33C92.915 32.9647 92.756 32.9293 92.5794 32.894L91.4664 31.94C91.1837 31.6573 90.9717 31.3217 90.8304 30.933C90.795 30.7917 90.7597 30.615 90.7244 30.403C90.689 30.191 90.636 29.9437 90.5654 29.661L90.6184 29.396C90.6184 29.29 90.6007 29.2017 90.5654 29.131C90.4947 28.919 90.4594 28.813 90.4594 28.813C90.4947 28.7423 90.5124 28.6363 90.5124 28.495C90.5124 28.3183 90.5124 28.1417 90.5124 27.965L90.1944 26.905V26.746C90.1944 26.6753 90.1944 26.587 90.1944 26.481C90.1944 26.375 90.212 26.269 90.2474 26.163L90.5124 25.527V25.156C90.6537 24.944 90.795 24.679 90.9364 24.361C91.0777 24.0077 91.219 23.6013 91.3604 23.142L91.7844 22.93C91.8197 22.8593 91.855 22.7887 91.8904 22.718C91.9257 22.6473 91.9787 22.5767 92.0494 22.506L92.7914 21.764C92.8267 21.6933 92.862 21.6227 92.8974 21.552C92.9327 21.446 92.9857 21.3223 93.0564 21.181L94.9644 20.015C95.141 19.909 95.3177 19.803 95.4944 19.697C95.671 19.591 95.8477 19.4673 96.0244 19.326C96.0244 19.326 96.1304 19.3613 96.3424 19.432C96.3777 19.3967 96.413 19.3613 96.4484 19.326C96.4837 19.2553 96.5367 19.2023 96.6074 19.167L97.1374 18.955C97.1374 18.7783 97.208 18.6017 97.3494 18.425C97.4554 18.3543 97.579 18.2483 97.7204 18.107C97.897 17.9657 98.0914 17.789 98.3034 17.577C98.3387 17.5417 98.3387 17.365 98.3034 17.047C98.374 17.1177 98.4094 17.1 98.4094 16.994C98.4094 16.676 98.3917 16.5523 98.3564 16.623C98.321 16.4817 98.268 16.3403 98.1974 16.199C98.162 16.0223 98.1267 15.8457 98.0914 15.669C98.056 15.6337 98.0737 15.5277 98.1444 15.351L98.2504 15.086C98.2504 15.086 98.162 14.9623 97.9854 14.715L97.4554 14.026C97.2787 13.8493 97.049 13.7787 96.7664 13.814L96.5014 13.867C96.2894 13.9377 96.1834 13.973 96.1834 13.973H95.7064L95.6004 14.079C95.6357 14.1143 95.671 14.1497 95.7064 14.185C95.7417 14.2203 95.777 14.2733 95.8124 14.344C95.8124 14.4147 95.7947 14.4677 95.7594 14.503V14.662C95.618 14.6973 95.459 14.8387 95.2824 15.086C95.2117 15.298 95.1764 15.4923 95.1764 15.669C95.247 15.8103 95.353 15.9517 95.4944 16.093C95.459 16.1283 95.406 16.146 95.3354 16.146C95.2647 16.4287 95.2647 16.623 95.3354 16.729L95.4944 16.941V17.206C95.4944 17.2413 95.4414 17.2943 95.3354 17.365L94.6994 17.206C94.664 17.0647 94.5757 17.0293 94.4344 17.1C94.3284 17.1707 94.24 17.153 94.1694 17.047H94.0634C93.9574 17.047 93.8867 17.0117 93.8514 16.941C93.816 16.835 93.7454 16.8527 93.6394 16.994L93.3214 17.365C93.1447 17.365 93.0034 17.3827 92.8974 17.418L92.6324 17.312C92.5264 17.2413 92.4557 17.2237 92.4204 17.259C92.385 17.259 92.3497 17.259 92.3144 17.259L91.2014 17.577C91.1307 17.577 91.0424 17.577 90.9364 17.577C90.8304 17.577 90.7067 17.5593 90.5654 17.524L90.3004 16.729C90.3004 16.6937 90.318 16.676 90.3534 16.676C90.3887 16.6407 90.4064 16.6053 90.4064 16.57L90.4594 16.411C90.424 16.305 90.4064 16.1813 90.4064 16.04C90.4064 15.8633 90.4064 15.6867 90.4064 15.51C90.5124 15.404 90.583 15.298 90.6184 15.192C90.6537 15.086 90.6714 14.8563 90.6714 14.503V14.185C90.6714 13.2663 91.4487 12.118 93.0034 10.74C93.0387 10.634 93.1624 10.475 93.3744 10.263C93.4097 10.2277 93.6394 10.1217 94.0634 9.945C94.134 9.87433 94.1517 9.82133 94.1164 9.786L94.1694 9.521C94.3107 9.55633 94.452 9.59167 94.5934 9.627C94.77 9.627 94.929 9.627 95.0704 9.627L95.4414 9.468C95.512 9.43267 95.5827 9.39733 95.6534 9.362C95.724 9.32667 95.777 9.309 95.8124 9.309H96.1834C96.2187 9.27367 96.3424 9.22067 96.5544 9.15C96.7664 9.11467 96.943 9.097 97.0844 9.097C97.261 9.06167 97.42 9.044 97.5614 9.044C97.738 9.044 98.109 9.097 98.6744 9.203C99.3104 9.309 99.6637 9.415 99.7344 9.521L99.6814 9.892L99.8404 10.104L100.158 9.945C100.264 9.945 100.388 10.051 100.529 10.263L100.953 10.316C101.024 10.316 101.095 10.3337 101.165 10.369C101.271 10.369 101.342 10.369 101.377 10.369C101.413 10.4043 101.448 10.4397 101.483 10.475C101.519 10.475 101.554 10.5103 101.589 10.581V11.005L101.165 11.217C101.201 11.3583 101.342 11.4467 101.589 11.482C101.872 11.5173 102.031 11.5703 102.066 11.641L102.596 13.602C102.596 13.708 102.702 13.8493 102.914 14.026C102.95 14.2733 102.967 14.556 102.967 14.874C102.967 15.192 102.967 15.5277 102.967 15.881L103.126 16.146C103.162 16.1813 103.179 16.3757 103.179 16.729L103.126 17.63C103.091 17.948 103.073 18.2307 103.073 18.478C103.073 18.69 103.073 18.8667 103.073 19.008L103.179 19.167C103.215 19.5203 103.232 19.803 103.232 20.015C103.268 20.1917 103.285 20.2623 103.285 20.227L103.073 20.757C103.038 20.8983 103.003 21.0043 102.967 21.075C102.967 21.1103 102.967 21.1457 102.967 21.181C102.967 21.287 102.967 21.393 102.967 21.499C103.003 21.605 103.038 21.711 103.073 21.817C103.144 21.8877 103.197 21.9937 103.232 22.135C103.303 22.241 103.356 22.3647 103.391 22.506L103.338 23.195C103.303 23.2303 103.268 23.301 103.232 23.407C103.197 23.4777 103.162 23.566 103.126 23.672C103.126 23.672 103.197 24.149 103.338 25.103L103.126 25.845C103.162 25.8803 103.215 26.004 103.285 26.216C103.356 26.3927 103.391 26.4987 103.391 26.534V26.799C103.391 27.011 103.374 27.17 103.338 27.276C103.656 27.3113 103.815 27.5763 103.815 28.071L103.709 28.389C103.639 28.601 103.603 28.707 103.603 28.707L103.762 29.29C103.798 29.4313 103.815 29.5903 103.815 29.767C103.851 29.9437 103.868 30.1733 103.868 30.456V30.986C103.974 31.1273 104.08 31.3747 104.186 31.728V31.781C104.186 32.1697 103.709 32.3993 102.755 32.47L101.748 32.311C101.713 32.311 101.607 32.311 101.43 32.311C101.254 32.311 100.989 32.3287 100.635 32.364C100.6 32.364 100.547 32.3993 100.476 32.47C100.406 32.5407 100.335 32.576 100.264 32.576H99.7874C99.7874 32.576 99.5754 32.5053 99.1514 32.364L99.2574 31.887C99.2574 31.675 99.1514 31.516 98.9394 31.41C98.9394 31.3747 98.957 31.2333 98.9924 30.986L99.0984 30.615C98.851 30.6503 98.215 31.1803 97.1904 32.205C96.943 32.4523 96.7664 32.5583 96.6604 32.523L96.4484 32.47C96.3424 32.576 96.2364 32.6643 96.1304 32.735C95.9184 32.841 95.724 32.894 95.5474 32.894C95.512 32.9293 95.4944 32.9293 95.4944 32.894C95.459 32.8587 95.4237 32.841 95.3884 32.841C95.353 32.8763 95.1764 32.947 94.8584 33.053C94.5757 33.159 94.399 33.212 94.3284 33.212ZM94.5934 10.369C94.5934 10.263 94.5227 10.1923 94.3814 10.157C94.3107 10.2277 94.2754 10.2807 94.2754 10.316C94.3107 10.528 94.4167 10.5457 94.5934 10.369ZM101.165 13.072L101.324 12.86C101.36 12.7893 101.324 12.7187 101.218 12.648C101.112 12.6127 100.989 12.6127 100.847 12.648C100.883 12.754 100.989 12.8953 101.165 13.072ZM93.6394 14.98L94.2754 14.927C94.558 14.927 94.6994 14.8033 94.6994 14.556L94.5934 14.291L93.9044 14.238C93.6217 14.238 93.498 14.344 93.5334 14.556L93.5864 14.768C93.6217 14.8387 93.6394 14.9093 93.6394 14.98ZM98.4624 18.849C98.4977 18.8843 98.586 18.8843 98.7274 18.849L98.6744 18.637C98.533 18.6723 98.4624 18.743 98.4624 18.849ZM94.9644 21.976L95.0174 21.711L94.6994 21.658L94.9644 21.976ZM96.2364 28.548H96.5014C96.572 28.548 96.6427 28.5127 96.7134 28.442C96.784 28.3713 96.837 28.336 96.8724 28.336C96.943 28.3713 97.049 28.4243 97.1904 28.495C97.3317 28.495 97.4907 28.4067 97.6674 28.23C97.738 28.0533 97.844 27.8413 97.9854 27.594C98.162 27.5233 98.3564 27.382 98.5684 27.17C98.533 27.0993 98.5154 26.958 98.5154 26.746C98.5154 26.5693 98.5154 26.375 98.5154 26.163C98.5507 25.951 98.586 25.7213 98.6214 25.474C98.586 25.2973 98.5507 25.103 98.5154 24.891C98.48 24.6437 98.4447 24.361 98.4094 24.043C98.4094 23.831 98.5154 23.7073 98.7274 23.672C98.6214 23.3187 98.3917 22.824 98.0384 22.188H97.1904C97.0844 22.612 96.9254 22.983 96.7134 23.301L96.3424 23.566L96.1304 23.937L95.7594 24.149C95.724 24.2903 95.6534 24.4493 95.5474 24.626C95.4767 24.8027 95.406 25.0147 95.3354 25.262C95.3354 25.474 95.2117 25.8273 94.9644 26.322L95.0174 26.534C94.77 26.8167 94.6464 26.9933 94.6464 27.064C94.717 27.0287 94.7877 27.064 94.8584 27.17L95.1764 28.018C95.247 28.0533 95.3177 28.0887 95.3884 28.124C95.459 28.124 95.5297 28.1593 95.6004 28.23C95.6357 28.2653 95.671 28.3007 95.7064 28.336C95.7417 28.3713 95.777 28.4243 95.8124 28.495L96.2364 28.548ZM101.642 25.845C101.713 25.845 101.801 25.792 101.907 25.686C102.049 25.5447 102.119 25.4387 102.119 25.368L102.013 25.156C101.978 25.1207 101.925 25.103 101.854 25.103C101.784 25.103 101.713 25.0853 101.642 25.05L101.271 25.315C101.307 25.3503 101.36 25.474 101.43 25.686C101.501 25.792 101.572 25.845 101.642 25.845ZM99.4694 27.329L99.7874 27.223C99.752 27.1877 99.7344 27.0993 99.7344 26.958L99.4164 27.011C99.4164 27.1877 99.434 27.2937 99.4694 27.329ZM96.6604 31.834C96.731 31.5513 96.7134 31.41 96.6074 31.41L96.5014 31.516C96.466 31.5513 96.4484 31.6397 96.4484 31.781L96.6604 31.834ZM114.035 33.795L113.134 33.742C112.852 33.7067 112.622 33.689 112.445 33.689C112.304 33.689 112.216 33.689 112.18 33.689C111.65 33.689 111.332 33.6713 111.226 33.636L110.325 33.159C110.255 33.1237 110.166 33.0883 110.06 33.053C109.954 33.0177 109.831 32.9823 109.689 32.947C109.477 32.841 109.371 32.6643 109.371 32.417C109.301 32.3817 109.23 32.364 109.159 32.364C109.089 32.3287 109.018 32.311 108.947 32.311C108.947 31.993 108.877 31.781 108.735 31.675L108.364 31.516C108.294 31.4453 108.205 31.251 108.099 30.933L107.887 30.403V30.244C107.887 30.1733 107.87 30.085 107.834 29.979C107.834 29.8377 107.817 29.6963 107.781 29.555C107.781 29.2723 107.781 29.025 107.781 28.813C107.817 28.601 107.852 28.4243 107.887 28.283C107.746 28.2123 107.64 28.1063 107.569 27.965C107.534 27.8943 107.552 27.753 107.622 27.541L107.675 27.064C107.711 26.8873 107.728 26.7283 107.728 26.587C107.728 26.4457 107.746 26.3043 107.781 26.163C107.781 25.9863 107.834 25.7743 107.94 25.527C108.082 25.2797 108.152 25.1207 108.152 25.05C108.152 25.0147 108.117 24.9617 108.046 24.891C107.976 24.8203 107.94 24.785 107.94 24.785C107.94 24.7143 107.923 24.6613 107.887 24.626C107.887 24.5907 107.887 24.5553 107.887 24.52C107.887 24.308 107.94 24.096 108.046 23.884C107.905 23.6367 107.834 23.3363 107.834 22.983C107.834 22.7003 107.923 22.4353 108.099 22.188C107.993 22.0467 107.905 21.9053 107.834 21.764V20.386C107.834 20.386 107.799 20.3153 107.728 20.174C107.658 20.1033 107.622 20.0327 107.622 19.962C107.622 19.856 107.817 19.4673 108.205 18.796C107.923 18.6193 107.781 18.5133 107.781 18.478L108.046 17.524C108.046 17.4533 108.029 17.3473 107.993 17.206C107.993 17.0647 107.993 16.9057 107.993 16.729L107.94 15.881C107.905 15.4923 107.905 15.1743 107.94 14.927C107.976 14.6797 107.976 14.4853 107.94 14.344C107.834 14.1673 107.711 14.079 107.569 14.079V13.814L108.046 13.602C108.046 13.5313 108.029 13.4783 107.993 13.443H107.092V13.602C107.092 13.7433 107.163 13.867 107.304 13.973C107.446 14.079 107.516 14.1673 107.516 14.238L106.88 14.185C106.739 14.1497 106.615 14.132 106.509 14.132C106.439 14.132 106.386 14.132 106.35 14.132L106.032 14.238C105.82 14.3087 105.714 14.344 105.714 14.344C105.573 14.344 105.361 14.2733 105.078 14.132C105.043 14.0613 105.043 13.9553 105.078 13.814L105.184 13.496C105.149 13.39 105.131 13.284 105.131 13.178C105.131 13.072 105.131 12.9837 105.131 12.913C105.202 12.701 105.326 12.5773 105.502 12.542C105.361 12.4007 105.273 12.2593 105.237 12.118C105.237 11.9413 105.237 11.7647 105.237 11.588L105.184 11.323C105.255 11.005 105.273 10.8107 105.237 10.74L105.078 10.475C105.008 10.3337 104.972 10.2453 104.972 10.21L105.184 9.733C105.22 9.69767 105.273 9.68 105.343 9.68C105.414 9.68 105.502 9.66233 105.608 9.627C105.714 9.59167 105.785 9.521 105.82 9.415H105.926L106.456 9.574L107.145 9.786C107.181 9.82133 107.216 9.87433 107.251 9.945C107.287 10.0157 107.322 10.104 107.357 10.21C107.499 10.104 107.64 9.96267 107.781 9.786C107.923 9.60933 108.064 9.39733 108.205 9.15C108.417 9.00867 108.435 8.90267 108.258 8.832C108.152 8.76133 108.099 8.65533 108.099 8.514L108.152 6.818C107.976 6.182 107.887 5.74033 107.887 5.493L108.046 5.069L108.152 4.645C108.152 4.539 108.099 4.45066 107.993 4.38C107.887 4.30933 107.834 4.168 107.834 3.956L107.94 3.426C108.011 3.39067 108.082 3.33767 108.152 3.267C108.223 3.19633 108.329 3.108 108.47 3.002C108.682 2.79 108.806 2.684 108.841 2.684L109.318 2.896C109.46 2.93133 109.566 2.98433 109.636 3.055C109.707 3.12567 109.76 3.161 109.795 3.161L109.954 3.108H111.12C111.368 3.108 111.562 3.12567 111.703 3.161C111.88 3.161 112.021 3.161 112.127 3.161L112.498 3.055C112.71 2.98433 112.816 2.949 112.816 2.949C113.064 2.949 113.187 3.12566 113.187 3.479C113.187 3.585 113.17 3.72633 113.134 3.903C113.134 4.04433 113.117 4.221 113.081 4.433L112.869 4.38C112.728 4.38 112.551 4.45067 112.339 4.592C112.021 4.76867 111.898 4.99833 111.968 5.281C112.039 5.35167 112.074 5.387 112.074 5.387C112.11 5.387 112.18 5.334 112.286 5.228C112.428 5.15733 112.516 5.122 112.551 5.122C112.728 5.122 112.905 5.26333 113.081 5.546C113.223 5.79333 113.293 5.95233 113.293 6.023C113.293 6.09367 113.258 6.182 113.187 6.288C113.152 6.35867 113.117 6.41166 113.081 6.447C113.046 7.04766 113.011 7.47167 112.975 7.719C112.975 7.96633 112.975 8.01933 112.975 7.878C112.728 7.91333 112.604 8.01933 112.604 8.196C112.604 8.37267 112.71 8.49633 112.922 8.567V8.885C112.922 9.097 113.011 9.468 113.187 9.998C113.223 10.0687 113.346 10.1747 113.558 10.316H113.717V9.945C113.753 9.80367 113.859 9.733 114.035 9.733C114.742 9.627 115.042 9.574 114.936 9.574L115.201 9.627C115.307 9.66233 115.413 9.68 115.519 9.68L116.049 10.051C116.014 10.1923 115.996 10.3337 115.996 10.475C115.996 10.581 115.996 10.7223 115.996 10.899C116.279 11.1817 116.42 11.3053 116.42 11.27C116.42 11.376 116.35 11.4997 116.208 11.641C116.244 11.6763 116.279 11.7117 116.314 11.747C116.244 11.7823 116.191 11.9237 116.155 12.171L116.208 12.33C116.244 12.4007 116.261 12.4713 116.261 12.542C116.261 12.8247 116.244 13.1073 116.208 13.39C116.208 13.6373 116.191 13.867 116.155 14.079C116.085 14.291 115.979 14.397 115.837 14.397H115.784H115.837C115.837 14.3617 115.678 14.291 115.36 14.185C115.219 14.1497 114.936 14.132 114.512 14.132C114.336 14.132 113.982 14.185 113.452 14.291L113.24 14.45C113.099 14.5207 113.028 14.556 113.028 14.556L112.975 15.033C112.94 15.3863 112.887 15.563 112.816 15.563C113.028 16.0577 113.134 16.517 113.134 16.941C113.099 16.941 113.011 17.153 112.869 17.577C112.905 17.5063 112.922 17.7007 112.922 18.16L112.816 18.425C112.746 18.637 112.71 18.743 112.71 18.743L112.869 19.379C112.94 19.5557 112.975 19.7147 112.975 19.856C112.975 19.962 112.975 20.0327 112.975 20.068C112.975 20.068 112.905 20.1563 112.763 20.333C112.728 20.333 112.71 20.4213 112.71 20.598C112.71 20.81 112.799 20.9513 112.975 21.022V22.771C112.975 22.8063 112.94 22.8593 112.869 22.93C112.799 23.0713 112.763 23.1597 112.763 23.195C112.728 23.4423 112.728 23.6543 112.763 23.831C112.834 24.1137 112.887 24.2373 112.922 24.202C112.816 24.308 112.728 24.414 112.657 24.52C112.728 24.5907 112.816 24.838 112.922 25.262C112.498 25.5093 112.286 25.7213 112.286 25.898C112.286 25.8273 112.428 26.0393 112.71 26.534C112.71 26.534 112.746 26.8167 112.816 27.382L112.922 27.541C112.922 27.6823 112.922 27.8413 112.922 28.018C112.922 28.1593 112.94 28.336 112.975 28.548C112.975 28.548 113.187 28.6893 113.611 28.972C113.611 29.1133 113.7 29.237 113.876 29.343H113.982C114.053 29.343 114.177 29.2723 114.353 29.131C114.495 28.9897 114.618 28.919 114.724 28.919C114.724 28.919 114.795 28.9543 114.936 29.025C115.007 29.0957 115.06 29.131 115.095 29.131C115.166 29.131 115.272 29.0957 115.413 29.025C115.484 28.9543 115.555 28.9013 115.625 28.866C115.696 28.7953 115.784 28.7247 115.89 28.654L116.102 28.813V31.039C116.102 31.0743 116.085 31.1097 116.049 31.145C115.979 31.2157 115.943 31.2687 115.943 31.304V31.834C115.873 31.9047 115.802 31.9577 115.731 31.993C115.767 32.2403 115.837 32.4347 115.943 32.576C116.049 32.682 116.102 32.841 116.102 33.053C116.102 33.4063 115.908 33.583 115.519 33.583H115.36C115.325 33.583 115.29 33.5653 115.254 33.53C115.254 33.53 115.237 33.53 115.201 33.53L114.618 33.689C114.442 33.7243 114.3 33.742 114.194 33.742C114.124 33.7773 114.071 33.795 114.035 33.795ZM109.742 11.27C109.954 11.27 110.06 11.164 110.06 10.952L109.954 10.634H109.689C109.583 10.74 109.495 10.8283 109.424 10.899C109.389 10.9697 109.354 11.0227 109.318 11.058C109.354 11.0933 109.371 11.1463 109.371 11.217H109.583C109.619 11.217 109.636 11.2347 109.636 11.27C109.672 11.27 109.707 11.27 109.742 11.27ZM114.936 11.164L115.148 11.058L114.883 10.899C114.848 10.9343 114.813 10.952 114.777 10.952L114.936 11.164ZM116.314 11.747V11.853C116.314 11.8177 116.314 11.7823 116.314 11.747ZM110.802 12.489C110.838 12.4537 110.802 12.383 110.696 12.277L110.537 12.383C110.573 12.4183 110.608 12.436 110.643 12.436C110.714 12.436 110.767 12.4537 110.802 12.489ZM110.855 13.337C110.891 13.2663 110.873 13.1957 110.802 13.125C110.732 13.0543 110.643 13.0543 110.537 13.125C110.573 13.1957 110.679 13.2663 110.855 13.337ZM113.134 16.941V16.994V16.941ZM111.597 22.347L111.703 22.294C111.739 22.2587 111.774 22.241 111.809 22.241L111.703 22.082C111.668 22.1173 111.65 22.1527 111.65 22.188C111.65 22.2233 111.633 22.2763 111.597 22.347ZM109.53 24.043C109.601 24.0783 109.672 24.0607 109.742 23.99C109.813 23.9193 109.795 23.831 109.689 23.725C109.583 23.7603 109.53 23.8663 109.53 24.043ZM109.106 30.721L109.371 30.986C109.442 30.986 109.566 30.9683 109.742 30.933L110.007 30.615L109.636 30.297C109.601 30.3323 109.424 30.403 109.106 30.509V30.721ZM107.728 32.205C107.658 32.205 107.569 32.152 107.463 32.046C107.499 32.0107 107.552 31.993 107.622 31.993C107.728 31.993 107.764 32.0637 107.728 32.205ZM123.716 33.689C123.645 33.689 123.628 33.689 123.663 33.689C123.628 33.689 123.557 33.6537 123.451 33.583L123.186 33.477C123.115 33.5123 123.027 33.53 122.921 33.53C122.85 33.53 122.762 33.5477 122.656 33.583L121.914 33.159C121.808 32.9117 121.667 32.788 121.49 32.788C121.455 32.7527 121.419 32.7527 121.384 32.788C121.349 32.8233 121.278 32.841 121.172 32.841C121.172 32.841 120.995 32.6997 120.642 32.417L120.218 32.258C120.112 32.152 119.988 32.0283 119.847 31.887C119.741 31.7457 119.6 31.5867 119.423 31.41L118.999 31.092V30.986C118.999 30.8447 118.911 30.6327 118.734 30.35C118.557 30.1733 118.416 30.032 118.31 29.926C118.239 29.7847 118.186 29.6963 118.151 29.661V29.025C118.328 29.131 118.434 29.1133 118.469 28.972C118.54 28.866 118.469 28.76 118.257 28.654C118.116 28.548 118.045 28.4597 118.045 28.389V27.753C118.045 27.647 118.045 27.541 118.045 27.435C118.045 27.329 118.027 27.223 117.992 27.117C117.957 26.9403 117.921 26.7813 117.886 26.64C117.886 26.4633 117.904 26.3043 117.939 26.163L118.045 25.633C118.01 25.421 117.992 25.209 117.992 24.997C117.992 24.7497 117.992 24.5023 117.992 24.255C117.992 24.1137 118.045 23.937 118.151 23.725L118.31 23.301C118.275 23.0183 118.239 22.718 118.204 22.4C118.169 22.0467 118.133 21.6933 118.098 21.34C118.098 21.234 118.239 20.8983 118.522 20.333C118.593 20.2977 118.663 20.2623 118.734 20.227C118.805 20.1917 118.875 20.1387 118.946 20.068C118.946 20.0327 118.787 19.909 118.469 19.697L118.31 18.584C118.31 18.4073 118.381 18.3013 118.522 18.266C118.628 18.1953 118.663 18.0717 118.628 17.895L119.317 17.418C119.282 17.2767 119.158 17.1883 118.946 17.153C118.911 17.153 118.787 17.1883 118.575 17.259C118.469 17.1883 118.416 17.1177 118.416 17.047C118.416 16.835 118.522 16.6583 118.734 16.517C118.946 16.3403 119.052 16.2343 119.052 16.199L118.787 15.298C118.787 15.298 118.928 15.0507 119.211 14.556C119.458 14.5207 119.582 14.45 119.582 14.344C119.582 14.2733 119.529 14.185 119.423 14.079C119.282 13.973 119.211 13.8847 119.211 13.814C119.211 13.7787 119.246 13.7257 119.317 13.655C119.423 13.443 119.529 13.0543 119.635 12.489L119.953 12.171L120.112 11.641C120.324 11.5703 120.571 11.4643 120.854 11.323L121.543 10.475C121.896 10.0157 122.197 9.80367 122.444 9.839L122.603 9.892C122.603 9.85667 122.744 9.80367 123.027 9.733C123.875 9.45033 124.352 9.32667 124.458 9.362L124.723 9.415C124.935 9.27367 125.094 9.15 125.2 9.044L125.465 9.097C125.536 9.097 125.589 9.11467 125.624 9.15C125.659 9.18533 125.695 9.203 125.73 9.203L126.154 9.15L126.631 9.574C126.631 9.574 126.737 9.53866 126.949 9.468L127.214 9.362C127.355 9.43267 127.514 9.50333 127.691 9.574C127.868 9.64467 128.044 9.71533 128.221 9.786C128.398 9.71533 128.645 9.71533 128.963 9.786L128.91 10.051V10.104C128.91 10.316 129.104 10.422 129.493 10.422H129.917C129.917 10.422 130.147 10.846 130.606 11.694L130.924 11.588C131.065 11.588 131.154 11.641 131.189 11.747L131.772 13.761C131.737 13.8317 131.719 13.9553 131.719 14.132C131.719 14.2733 131.719 14.4323 131.719 14.609L131.878 14.98C131.949 15.192 131.984 15.298 131.984 15.298L131.878 15.457C131.843 15.4923 131.825 15.5453 131.825 15.616V16.411C131.79 16.4463 131.754 16.517 131.719 16.623C131.684 16.6937 131.648 16.7997 131.613 16.941C131.401 16.9763 131.295 17.047 131.295 17.153C131.295 17.259 131.454 17.4533 131.772 17.736C132.055 18.0187 132.196 18.1953 132.196 18.266C132.196 18.3367 132.108 18.372 131.931 18.372L131.772 19.114C131.737 19.1493 131.684 19.2553 131.613 19.432C131.613 19.644 131.719 20.1033 131.931 20.81C131.79 20.8807 131.684 20.969 131.613 21.075C131.613 21.075 131.613 21.2163 131.613 21.499L131.666 22.029C131.666 22.0643 131.666 22.135 131.666 22.241C131.666 22.3117 131.648 22.4177 131.613 22.559L131.56 23.089H131.295C131.012 23.089 130.783 22.9477 130.606 22.665C130.465 22.4177 130.341 22.294 130.235 22.294C130.2 22.294 130.094 22.4 129.917 22.612C129.705 22.824 129.564 22.93 129.493 22.93L128.91 22.877C128.733 22.8417 128.592 22.8417 128.486 22.877C128.38 22.877 128.309 22.877 128.274 22.877L127.161 22.4C126.914 22.612 126.631 22.718 126.313 22.718C125.924 22.718 125.589 22.5943 125.306 22.347C125.235 22.4177 125.2 22.4707 125.2 22.506H124.405C124.37 22.506 124.352 22.506 124.352 22.506C124.352 22.4707 124.334 22.453 124.299 22.453H124.087C123.769 22.453 123.504 22.6473 123.292 23.036V23.248C123.257 23.3187 123.204 23.4247 123.133 23.566C123.098 23.672 123.045 23.7957 122.974 23.937C122.974 23.9723 123.009 24.0253 123.08 24.096L123.186 24.308V24.414C123.186 24.4493 123.186 24.52 123.186 24.626C123.186 24.6967 123.168 24.8027 123.133 24.944C123.168 25.05 123.186 25.2267 123.186 25.474C123.186 25.6153 123.098 25.739 122.921 25.845L122.815 27.594C123.027 27.7707 123.115 28.071 123.08 28.495H123.716C123.928 28.495 124.087 28.5657 124.193 28.707C124.299 28.8483 124.37 28.919 124.405 28.919L124.776 28.76L125.147 29.025C125.253 29.025 125.324 28.972 125.359 28.866L125.677 28.124V27.329L125.73 26.534C125.765 26.428 125.783 26.3397 125.783 26.269C125.818 26.163 125.836 26.0923 125.836 26.057L125.783 25.898C125.854 25.7567 125.889 25.6507 125.889 25.58C125.889 25.474 125.889 25.4033 125.889 25.368L125.783 24.891C125.924 24.5377 126.101 24.361 126.313 24.361C126.596 24.5023 126.984 24.626 127.479 24.732L127.744 24.626C127.85 24.5907 127.938 24.573 128.009 24.573C128.08 24.573 128.203 24.7143 128.38 24.997C128.769 24.8557 128.963 24.785 128.963 24.785L129.387 25.05H129.493C129.917 25.05 130.323 24.8733 130.712 24.52L131.613 25.368C131.436 25.686 131.242 26.0923 131.03 26.587C130.995 26.7637 130.942 26.9757 130.871 27.223C130.836 27.4703 130.765 27.7353 130.659 28.018C130.412 28.124 130.288 28.2653 130.288 28.442C130.288 28.5127 130.341 28.6363 130.447 28.813C130.553 29.025 130.606 29.1663 130.606 29.237L130.5 29.396C130.571 29.5727 130.553 29.7317 130.447 29.873L130.288 30.138C130.323 30.1733 130.341 30.244 130.341 30.35C130.341 30.668 130.111 30.933 129.652 31.145L129.546 31.251C129.581 31.2863 129.599 31.3393 129.599 31.41C129.599 31.6573 129.458 31.8163 129.175 31.887C128.786 31.993 128.557 32.0813 128.486 32.152C128.415 32.258 128.309 32.3817 128.168 32.523C128.027 32.6643 127.868 32.8233 127.691 33C126.984 33.4593 126.49 33.6537 126.207 33.583L125.571 33.424C125.394 33.424 125.218 33.477 125.041 33.583C124.864 33.689 124.723 33.7243 124.617 33.689L124.405 33.636H124.14C123.999 33.636 123.893 33.636 123.822 33.636C123.751 33.6713 123.698 33.689 123.663 33.689C123.698 33.689 123.716 33.689 123.716 33.689ZM124.776 11.376L124.882 11.164L124.723 11.058C124.723 11.164 124.741 11.27 124.776 11.376ZM128.486 13.178C128.663 13.178 128.769 13.072 128.804 12.86L128.751 12.171H128.645C128.539 12.171 128.486 12.0827 128.486 11.906C128.415 11.7293 128.327 11.641 128.221 11.641C128.08 11.5703 127.974 11.6233 127.903 11.8C127.868 11.8353 127.85 11.8883 127.85 11.959C127.885 12.0297 127.903 12.1003 127.903 12.171L127.956 12.542L127.797 12.701L128.486 13.178ZM123.822 13.867C124.105 13.761 124.105 13.6373 123.822 13.496C123.751 13.5667 123.751 13.6903 123.822 13.867ZM130.712 13.814L130.606 13.602L130.447 13.708L130.712 13.814ZM123.663 18.637L124.193 18.478L124.935 18.266C125.182 18.266 125.447 18.2483 125.73 18.213C126.013 18.1423 126.331 18.0717 126.684 18.001L126.843 17.365C126.878 17.3297 126.967 17.2767 127.108 17.206C126.967 17.0647 126.843 16.9233 126.737 16.782C126.666 16.6407 126.649 16.4993 126.684 16.358L126.737 15.987V15.669C126.737 15.351 126.596 15.086 126.313 14.874C126.348 14.768 126.366 14.6267 126.366 14.45C126.366 14.1673 126.048 14.0083 125.412 13.973C125.306 13.973 125.112 14.079 124.829 14.291L123.981 14.874C124.122 14.98 124.14 15.1213 124.034 15.298C123.999 15.4393 123.875 15.51 123.663 15.51V15.669C123.769 15.5983 123.875 15.6513 123.981 15.828C124.052 15.9693 124.069 16.0577 124.034 16.093L123.928 17.683C123.928 17.789 123.928 17.8773 123.928 17.948C123.963 18.0187 123.981 18.054 123.981 18.054C123.981 18.16 123.928 18.213 123.822 18.213C123.716 18.1423 123.628 18.054 123.557 17.948L123.398 18.054L123.345 18.372L123.663 18.637ZM127.373 15.404C127.444 15.51 127.55 15.51 127.691 15.404C127.585 15.086 127.479 15.086 127.373 15.404ZM123.981 18.001C123.981 18.0717 123.981 18.0893 123.981 18.054C123.981 18.054 123.981 18.0363 123.981 18.001ZM119.317 22.188C119.423 22.1173 119.564 21.923 119.741 21.605L119.688 21.446H119.582C119.405 21.446 119.176 21.5343 118.893 21.711C118.999 21.8877 119.14 22.0467 119.317 22.188ZM129.493 21.817C129.528 21.711 129.511 21.6227 129.44 21.552C129.405 21.5167 129.316 21.5343 129.175 21.605C129.175 21.6757 129.281 21.7463 129.493 21.817ZM120.324 28.919L120.748 28.707L120.695 28.495L120.43 28.442L120.324 28.548V28.495L120.271 28.283L120.112 28.23L120.006 28.813L120.324 28.919ZM124.352 29.767C124.387 29.6963 124.37 29.6257 124.299 29.555C124.228 29.4843 124.158 29.4843 124.087 29.555C124.087 29.6257 124.175 29.6963 124.352 29.767ZM140.714 33.795L140.343 33.689C140.131 33.583 139.989 33.53 139.919 33.53L139.548 33.583H139.389C139.424 33.583 139.353 33.5653 139.177 33.53C139 33.53 138.664 33.477 138.17 33.371C138.028 33.1237 137.887 33 137.746 33L137.481 33.053C137.445 33.053 137.41 33.053 137.375 33.053C137.339 33.0883 137.304 33.106 137.269 33.106C137.127 33.106 136.968 33.0177 136.792 32.841C136.721 32.7703 136.633 32.682 136.527 32.576C136.421 32.4347 136.279 32.2933 136.103 32.152C135.537 32.0107 135.166 31.7633 134.99 31.41C134.99 31.198 134.937 31.0743 134.831 31.039C134.689 31.0037 134.619 30.8977 134.619 30.721C134.619 30.509 134.689 30.191 134.831 29.767L134.036 29.449L133.771 28.389C133.7 28.2123 133.594 28.018 133.453 27.806C133.347 27.5587 133.205 27.2937 133.029 27.011V26.693C133.029 26.481 133.064 26.3397 133.135 26.269C133.17 26.2337 133.276 26.216 133.453 26.216H133.612C133.647 26.216 133.665 26.2337 133.665 26.269C133.665 26.269 133.682 26.269 133.718 26.269L133.983 26.11C134.018 26.0747 134.159 26.057 134.407 26.057L134.619 26.11C134.654 26.11 134.672 26.1277 134.672 26.163C134.707 26.163 134.742 26.163 134.778 26.163L135.414 25.951L135.573 25.792C135.714 25.7213 135.891 25.6683 136.103 25.633C136.315 25.5977 136.597 25.5623 136.951 25.527L137.11 25.58C137.074 25.58 137.057 25.7037 137.057 25.951C137.057 26.1277 137.163 26.216 137.375 26.216C137.41 26.216 137.604 26.004 137.958 25.58C138.028 25.792 138.064 26.1453 138.064 26.64C138.064 26.8873 138.134 27.064 138.276 27.17C138.382 27.3467 138.417 27.5233 138.382 27.7C138.382 27.7707 138.417 27.806 138.488 27.806C138.205 27.806 138.064 27.8767 138.064 28.018C138.064 28.2653 138.187 28.389 138.435 28.389C138.505 28.389 138.629 28.2477 138.806 27.965C138.841 28.0357 138.947 28.23 139.124 28.548C139.23 28.654 139.601 28.866 140.237 29.184C140.519 29.29 140.89 29.343 141.35 29.343C141.491 29.343 141.65 29.2017 141.827 28.919C142.074 28.919 142.304 28.7423 142.516 28.389C142.48 28.4243 142.445 28.442 142.41 28.442C142.41 28.4067 142.392 28.389 142.357 28.389C142.357 28.3537 142.357 28.3183 142.357 28.283C142.357 28.177 142.374 28.071 142.41 27.965C142.48 27.8237 142.533 27.6823 142.569 27.541C142.498 27.4703 142.41 27.3643 142.304 27.223C142.233 27.0463 142.145 26.852 142.039 26.64C142.215 26.4633 142.18 26.269 141.933 26.057L141.403 25.686L141.509 25.103C141.403 24.9263 140.979 24.785 140.237 24.679L140.025 24.255C139.848 24.0783 139.601 23.884 139.283 23.672C139.177 23.672 139.018 23.619 138.806 23.513C138.77 23.4777 138.735 23.4423 138.7 23.407C138.664 23.3363 138.611 23.2833 138.541 23.248C138.505 23.2127 138.399 23.195 138.223 23.195C138.117 23.1243 137.958 22.9653 137.746 22.718L137.693 22.294C137.587 22.294 137.392 22.2587 137.11 22.188C136.827 22.082 136.615 21.9583 136.474 21.817L136.103 21.181C135.785 20.8983 135.484 20.598 135.202 20.28C134.742 19.8207 134.495 19.4497 134.46 19.167L134.778 18.796C134.742 18.796 134.654 18.796 134.513 18.796C134.407 18.796 134.283 18.6723 134.142 18.425V18.054C134.071 17.8067 134 17.6653 133.93 17.63C133.894 17.5593 133.877 17.5063 133.877 17.471L133.93 17.259V16.358C133.965 16.3933 134.018 16.411 134.089 16.411C134.265 16.411 134.354 16.305 134.354 16.093C134.354 15.8457 134.177 15.722 133.824 15.722C134.212 15.4393 134.407 15.1743 134.407 14.927C134.407 14.6797 134.23 14.45 133.877 14.238C133.841 14.0613 133.894 13.9023 134.036 13.761L134.46 13.549C134.495 13.4783 134.53 13.4077 134.566 13.337C134.636 13.231 134.725 13.1073 134.831 12.966C134.795 12.8953 134.76 12.807 134.725 12.701C134.725 12.595 134.725 12.5067 134.725 12.436C134.725 12.224 134.76 12.065 134.831 11.959C134.866 11.9237 134.919 11.906 134.99 11.906C135.06 11.906 135.149 11.8883 135.255 11.853L135.467 11.429C135.997 11.429 136.173 11.2347 135.997 10.846H136.05C136.156 10.846 136.279 10.687 136.421 10.369C136.491 10.369 136.686 10.263 137.004 10.051C137.145 9.90967 137.339 9.839 137.587 9.839H137.746C137.781 9.839 137.799 9.85667 137.799 9.892C137.834 9.892 137.869 9.892 137.905 9.892L138.117 9.839C138.117 9.76833 138.17 9.68 138.276 9.574C138.558 9.362 138.77 9.256 138.912 9.256L139.336 9.362L139.495 9.309H139.654C140.184 9.309 140.572 9.43267 140.82 9.68L140.767 9.945H140.873C140.908 9.945 141.014 9.85667 141.191 9.68C141.332 9.53866 141.473 9.468 141.615 9.468C141.827 9.468 142.003 9.521 142.145 9.627C142.321 9.733 142.427 9.786 142.463 9.786L142.887 9.68C143.028 9.64467 143.116 9.627 143.152 9.627C143.222 9.627 143.275 9.627 143.311 9.627C143.417 9.627 143.523 9.64467 143.629 9.68L143.841 9.786C143.876 9.85667 144 9.998 144.212 10.21H144.265C144.477 10.21 144.812 10.316 145.272 10.528C145.519 10.7047 145.713 10.9697 145.855 11.323L146.332 12.277C146.332 12.5597 146.385 12.9483 146.491 13.443C146.561 13.5137 146.65 13.6197 146.756 13.761C146.862 13.867 146.985 14.0083 147.127 14.185C147.127 14.2203 147.109 14.291 147.074 14.397C147.074 14.4677 147.056 14.556 147.021 14.662C147.127 14.768 147.215 14.9447 147.286 15.192C147.321 15.298 147.356 15.3863 147.392 15.457C147.427 15.5277 147.462 15.5983 147.498 15.669V15.934L146.544 16.305C146.014 16.4463 145.554 16.5523 145.166 16.623C144.812 16.6937 144.512 16.729 144.265 16.729L144.106 16.676C144.07 16.676 144.035 16.676 144 16.676C144 16.6407 143.982 16.623 143.947 16.623C143.876 16.623 143.788 16.676 143.682 16.782L143.47 16.994C143.152 17.1 142.904 17.153 142.728 17.153C142.586 17.153 142.427 16.994 142.251 16.676C142.109 16.4287 142.039 16.252 142.039 16.146C142.039 14.9447 142.003 14.3793 141.933 14.45C141.579 14.238 141.332 14.185 141.191 14.291H141.138L140.661 14.079C140.519 14.0083 140.396 13.973 140.29 13.973C140.219 13.9377 140.166 13.92 140.131 13.92L139.866 13.973C139.76 14.0083 139.671 14.026 139.601 14.026C139.53 14.026 139.459 14.026 139.389 14.026L139.283 14.503C139.212 14.5383 139.071 14.662 138.859 14.874L138.7 15.563C138.876 15.5983 139 15.722 139.071 15.934C139.141 16.252 139.177 16.411 139.177 16.411C139.141 16.4463 138.929 16.4993 138.541 16.57C138.47 16.57 138.399 16.6053 138.329 16.676C138.364 16.782 138.611 16.8703 139.071 16.941C139.177 17.047 139.247 17.2237 139.283 17.471L139.866 17.577C139.866 17.7183 139.936 17.8773 140.078 18.054C140.113 18.054 140.201 18.0893 140.343 18.16C140.413 18.3013 140.519 18.4427 140.661 18.584C140.837 18.584 140.996 18.637 141.138 18.743C141.314 18.9197 141.403 19.0787 141.403 19.22H141.297C141.191 19.22 141.049 19.273 140.873 19.379V19.591C140.943 19.6617 141.032 19.7323 141.138 19.803C141.279 19.8383 141.438 19.8383 141.615 19.803L141.774 19.75H141.933L142.145 19.909C142.357 19.9443 142.516 19.962 142.622 19.962C142.728 19.962 142.798 19.962 142.834 19.962C143.116 20.0327 143.311 20.1387 143.417 20.28C143.523 20.5627 143.699 20.8453 143.947 21.128L144.477 21.287C144.653 21.393 144.777 21.552 144.848 21.764C145.378 22.2233 145.643 22.559 145.643 22.771V22.877L146.279 23.513C146.279 23.5837 146.279 23.672 146.279 23.778C146.314 23.884 146.349 24.0077 146.385 24.149C146.455 24.1843 146.526 24.2197 146.597 24.255C146.667 24.2903 146.738 24.3433 146.809 24.414C147.021 24.6613 147.127 24.8557 147.127 24.997L147.021 25.262C146.985 25.3327 146.95 25.3857 146.915 25.421C146.915 25.4563 146.915 25.4917 146.915 25.527C146.915 25.633 147.038 25.8803 147.286 26.269C147.286 26.269 147.25 26.3573 147.18 26.534L147.286 27.011L147.392 27.382L147.233 27.912C147.268 27.9827 147.286 28.1593 147.286 28.442C147.25 28.4773 147.215 28.5127 147.18 28.548C147.144 28.548 147.109 28.5833 147.074 28.654L146.65 29.979C146.65 30.0497 146.65 30.1557 146.65 30.297C146.65 30.403 146.632 30.5267 146.597 30.668C146.526 30.9507 146.243 31.092 145.749 31.092L145.378 31.993L144.583 32.523C144.477 32.629 144.229 32.8233 143.841 33.106H143.417L142.569 33.477C141.473 33.689 140.855 33.795 140.714 33.795ZM139.76 10.528C139.795 10.4573 139.777 10.3867 139.707 10.316C139.671 10.2807 139.583 10.2983 139.442 10.369C139.512 10.475 139.618 10.528 139.76 10.528ZM146.544 15.51C146.544 15.2627 146.526 15.139 146.491 15.139L146.226 15.086C146.19 15.086 146.155 15.086 146.12 15.086C146.084 15.0507 146.049 15.033 146.014 15.033C145.943 15.1037 145.908 15.2273 145.908 15.404L146.544 15.51ZM135.255 15.828C135.255 15.6867 135.237 15.5983 135.202 15.563C135.096 15.5277 135.007 15.5453 134.937 15.616C134.937 15.6867 135.043 15.7573 135.255 15.828ZM138.753 19.591C138.929 19.5203 139.018 19.4497 139.018 19.379C139.018 19.3083 138.929 19.2377 138.753 19.167V19.591ZM135.149 28.177C135.149 28.1063 135.113 28.0003 135.043 27.859L134.884 27.912C134.707 27.912 134.654 27.8237 134.725 27.647L134.619 27.859C134.654 27.965 134.725 28.071 134.831 28.177H135.149ZM145.007 29.608C144.971 29.608 145.201 29.4313 145.696 29.078V28.866C145.484 28.6187 145.289 28.495 145.113 28.495H144.954C144.954 28.5657 144.936 28.654 144.901 28.76C144.901 28.8307 144.883 28.919 144.848 29.025C144.671 29.3077 144.583 29.449 144.583 29.449C144.689 29.555 144.83 29.608 145.007 29.608ZM139.548 31.834L139.23 31.463H139.018L138.965 31.622L139.548 31.834Z" fill="#0080FF"/>
</svg>
