<svg width="83" height="34" viewBox="0 0 83 34" fill="none" xmlns="http://www.w3.org/2000/svg">
<path d="M2.286 33.848C2.21533 33.848 2.16233 33.8303 2.127 33.795L1.915 33.689C1.809 33.689 1.66767 33.689 1.491 33.689C1.34967 33.689 1.19067 33.6713 1.014 33.636C0.978667 33.6007 0.961 33.5123 0.961 33.371C0.961 33.4417 0.978667 33.3887 1.014 33.212C1.04933 33.0353 1.10233 32.735 1.173 32.311V32.099C1.173 31.9223 1.15533 31.781 1.12 31.675L0.961 31.198C0.961 31.198 0.996333 31.1273 1.067 30.986L1.173 30.721C1.13767 30.6503 1.12 30.4913 1.12 30.244L1.226 29.979V29.555L1.385 29.025L1.014 28.813L1.279 28.23L1.12 27.912C1.19067 27.7353 1.29667 27.5763 1.438 27.435V27.382C1.26133 27.2407 1.067 27.0287 0.855 26.746L0.908 26.11C1.014 26.004 1.08467 25.9157 1.12 25.845C1.12 25.633 1.10233 25.4917 1.067 25.421L0.908 25.103C0.908 25.0323 0.961 24.891 1.067 24.679C1.173 24.5023 1.226 24.361 1.226 24.255L0.961 23.831C0.855 23.725 0.784333 23.619 0.749 23.513V22.612C0.819667 22.5767 0.908 22.506 1.014 22.4C0.943333 22.2587 0.819667 22.1173 0.643 21.976C0.713667 21.9053 0.749 21.7993 0.749 21.658C0.749 21.552 0.731333 21.4283 0.696 21.287C0.660667 21.1457 0.607667 21.0043 0.537 20.863C0.890333 20.651 1.13767 20.5803 1.279 20.651L1.438 20.598C1.47333 20.5273 1.491 20.492 1.491 20.492C1.491 20.4567 1.491 20.439 1.491 20.439C1.491 20.2977 1.385 20.1563 1.173 20.015H0.696C0.696 19.9797 0.678333 19.962 0.643 19.962C0.643 19.9267 0.643 19.8913 0.643 19.856C0.643 19.7147 0.696 19.538 0.802 19.326L0.749 18.955C0.713667 18.9197 0.696 18.6547 0.696 18.16C0.696 17.9833 0.696 17.789 0.696 17.577C0.696 17.365 0.678333 17.1353 0.643 16.888C0.855 16.888 0.996333 16.8527 1.067 16.782C0.996333 16.7467 0.925667 16.6053 0.855 16.358V16.252C0.855 16.146 0.784333 16.0047 0.643 15.828V14.98H0.749C0.855 14.98 0.978667 14.9447 1.12 14.874C1.29667 14.768 1.385 14.6973 1.385 14.662C1.385 14.4853 1.067 14.4323 0.431 14.503C0.607667 14.2203 0.660667 14.0083 0.59 13.867L0.431 13.549C0.431 13.443 0.501667 13.337 0.643 13.231L0.749 12.966V12.754L0.378 11.323C0.378 11.111 0.537 10.8283 0.855 10.475C0.855 10.4043 0.819667 10.3337 0.749 10.263C0.925667 10.1923 1.04933 10.1217 1.12 10.051V9.945C0.978667 9.87433 0.855 9.839 0.749 9.839C0.537 9.521 0.431 9.29133 0.431 9.15C0.431 9.07933 0.466333 9.00867 0.537 8.938C0.572333 8.90267 0.59 8.832 0.59 8.726L0.537 7.401C0.431 7.33033 0.342667 7.189 0.272 6.977C0.272 6.977 0.360333 6.765 0.537 6.341C0.466333 5.42233 0.395667 4.71566 0.325 4.221C0.289667 3.691 0.272 3.373 0.272 3.267C0.272 3.161 0.236667 2.96667 0.166 2.684C0.0953334 2.40133 0.0600001 2.26 0.0600001 2.26L0.113 1.889C0.183667 1.81833 0.289667 1.76533 0.431 1.73H0.802C0.802 1.69467 0.872667 1.65933 1.014 1.624C1.08467 1.624 1.15533 1.81833 1.226 2.207C1.226 2.38366 1.31433 2.472 1.491 2.472C1.703 2.472 1.77367 2.26 1.703 1.836L2.445 1.677C2.551 1.783 2.71 1.889 2.922 1.995C3.09867 1.995 3.187 1.90666 3.187 1.73V1.571L3.611 1.518L3.929 1.624C4.38833 1.624 4.63567 1.624 4.671 1.624V1.571C4.671 1.571 4.671 1.58866 4.671 1.624V1.677C4.671 1.889 4.79467 2.048 5.042 2.154H5.307C5.37767 2.26 5.466 2.34833 5.572 2.419H5.731C5.76633 2.419 5.784 2.38366 5.784 2.313C5.64267 2.101 5.55433 1.889 5.519 1.677V1.465L5.625 1.359C5.76633 1.42967 5.85467 1.518 5.89 1.624L6.42 1.412C6.526 1.412 6.64967 1.42967 6.791 1.465L7.321 1.518L7.48 2.101C7.65667 2.24233 7.851 2.45433 8.063 2.737C8.02767 2.70167 7.99233 2.843 7.957 3.161C7.851 3.19633 7.798 3.28466 7.798 3.426C7.798 3.49666 7.81567 3.62033 7.851 3.797C7.88633 3.97367 7.93933 4.18567 8.01 4.433L8.275 4.963V5.228C8.45167 5.68733 8.54 6.288 8.54 7.03C8.54 7.63067 8.66367 8.037 8.911 8.249C8.911 8.53167 9.03467 9.11467 9.282 9.998L9.547 10.528C9.40567 10.74 9.282 11.058 9.176 11.482C9.21133 11.5527 9.229 11.641 9.229 11.747C9.229 11.853 9.229 11.9413 9.229 12.012C9.26433 12.1533 9.282 12.2947 9.282 12.436C9.31733 12.542 9.335 12.648 9.335 12.754C9.335 12.86 9.335 12.966 9.335 13.072C9.37033 13.178 9.441 13.284 9.547 13.39C9.72367 13.602 9.82967 14.2027 9.865 15.192C10.0417 15.2627 10.1477 15.351 10.183 15.457C10.1477 15.5983 10.183 15.722 10.289 15.828C10.501 15.934 10.607 16.0047 10.607 16.04V16.411C10.7483 16.6583 10.8367 16.8527 10.872 16.994C10.9427 17.1 10.978 17.153 10.978 17.153C11.19 17.153 11.3137 16.994 11.349 16.676C11.4197 16.358 11.4727 16.199 11.508 16.199C11.614 16.2697 11.7377 16.3403 11.879 16.411C12.0203 16.411 12.091 16.2873 12.091 16.04C12.091 15.934 12.0203 15.7927 11.879 15.616C11.773 15.51 11.72 15.298 11.72 14.98C11.72 14.9093 11.72 14.821 11.72 14.715C11.7553 14.609 11.7907 14.4853 11.826 14.344C11.8967 14.2027 11.932 14.079 11.932 13.973C11.9673 13.8317 12.0027 13.708 12.038 13.602L12.197 13.39C12.197 13.3193 12.197 13.231 12.197 13.125C12.197 13.019 12.1793 12.8953 12.144 12.754L12.091 12.065C12.197 12.065 12.3383 11.9943 12.515 11.853C12.515 11.8177 12.4973 11.8 12.462 11.8C12.3913 11.7293 12.3207 11.694 12.25 11.694C12.144 11.5173 12.091 11.3937 12.091 11.323C12.091 11.2523 12.144 11.111 12.25 10.899L12.409 10.422C12.621 10.2453 12.727 10.1217 12.727 10.051C12.6563 9.98033 12.5503 9.839 12.409 9.627C12.409 9.48567 12.462 9.362 12.568 9.256C12.674 9.07933 12.727 8.991 12.727 8.991C12.6917 8.885 12.6917 8.70833 12.727 8.461C12.727 8.39033 12.833 8.23133 13.045 7.984L12.727 7.666L12.939 7.295C13.3983 6.83567 13.628 6.51767 13.628 6.341C13.628 6.235 13.5573 6.09366 13.416 5.917C13.2393 5.74033 13.151 5.493 13.151 5.175V4.857C13.3277 4.57433 13.4867 4.30933 13.628 4.062C13.8047 3.81467 13.9283 3.56733 13.999 3.32C14.0343 3.17867 14.052 3.09033 14.052 3.055C14.0873 3.01967 14.105 3.01967 14.105 3.055C14.105 2.91367 14.0697 2.843 13.999 2.843C13.9637 2.843 13.8753 2.91367 13.734 3.055C13.5927 2.98433 13.4867 2.77233 13.416 2.419V1.995C13.4513 1.85366 13.4867 1.73 13.522 1.624C13.5927 1.518 13.6457 1.412 13.681 1.306L14.158 1.2C14.4407 1.2 14.6527 1.253 14.794 1.359L15.006 1.518C15.112 1.48266 15.271 1.39433 15.483 1.253L15.854 1.147L16.702 1.412V1.995C16.7727 2.207 16.8787 2.313 17.02 2.313C17.232 2.24233 17.338 2.13633 17.338 1.995L17.285 1.73C17.2497 1.65933 17.232 1.571 17.232 1.465C17.232 1.39433 17.2497 1.34133 17.285 1.306L17.709 1.147C17.7797 1.00567 17.8857 0.917333 18.027 0.882L18.875 1.094C18.9457 1.094 18.9987 1.11166 19.034 1.147L19.193 1.253C19.2637 1.18233 19.3697 1.12933 19.511 1.094L20.889 1.041C20.9243 1.11167 20.9597 1.2 20.995 1.306C21.0657 1.37667 21.1187 1.465 21.154 1.571C21.154 1.571 21.101 1.65933 20.995 1.836C20.9597 1.97733 20.9243 2.101 20.889 2.207C20.889 2.313 20.889 2.419 20.889 2.525C20.889 2.631 20.9597 2.75467 21.101 2.896C21.0657 2.93133 21.0303 2.96666 20.995 3.002C20.995 3.03733 20.9597 3.09033 20.889 3.161L20.783 3.479V4.062L20.836 4.115L20.783 4.433C20.8183 4.50367 20.836 4.645 20.836 4.857C20.8713 5.069 20.889 5.24566 20.889 5.387C20.889 5.42233 20.889 5.493 20.889 5.599C20.9243 5.705 20.9597 5.82867 20.995 5.97L21.101 6.447L20.942 7.03C20.836 7.27733 20.7653 7.48933 20.73 7.666C20.8007 7.772 20.8713 7.878 20.942 7.984C21.0127 8.09 21.101 8.21367 21.207 8.355C21.101 8.21367 21.0127 8.09 20.942 7.984C20.8713 7.878 20.8007 7.78967 20.73 7.719C20.73 7.719 20.73 7.70133 20.73 7.666C20.2 6.85333 19.723 6.16433 19.299 5.599C18.875 4.99833 18.504 4.50366 18.186 4.115L18.133 4.221C18.4157 4.68033 18.8043 5.26333 19.299 5.97C19.829 6.67667 20.4297 7.48933 21.101 8.408C20.9597 8.33733 20.8713 8.249 20.836 8.143C20.5887 8.17833 20.4827 8.28433 20.518 8.461L20.73 8.779C20.6947 8.81433 20.6947 8.92033 20.73 9.097C20.8007 9.13233 20.8537 9.18533 20.889 9.256C20.9597 9.32667 21.0303 9.39733 21.101 9.468L20.889 9.733C20.8537 9.80367 20.8183 9.85667 20.783 9.892C20.783 9.92733 20.783 9.96267 20.783 9.998C20.783 10.1393 20.9067 10.21 21.154 10.21C21.048 10.74 20.9773 10.9697 20.942 10.899C20.942 10.899 21.0833 11.0403 21.366 11.323C21.366 11.3937 21.3483 11.482 21.313 11.588C21.313 11.694 21.2953 11.8177 21.26 11.959C21.1893 12.0297 21.101 12.1357 20.995 12.277C20.889 12.383 20.7653 12.5243 20.624 12.701L20.412 13.125C20.412 13.4077 20.465 13.5843 20.571 13.655C20.677 13.6903 20.783 13.7257 20.889 13.761C20.9597 13.655 21.0303 13.602 21.101 13.602C21.2423 13.602 21.3307 13.708 21.366 13.92C21.366 13.9907 21.2423 14.1497 20.995 14.397C21.0657 14.5737 21.207 14.8033 21.419 15.086L20.995 15.457C20.783 15.5983 20.677 15.7397 20.677 15.881L20.783 16.093H20.942C21.0833 16.093 21.2247 15.9693 21.366 15.722H21.578L21.631 15.881C21.631 15.881 21.6133 15.934 21.578 16.04C21.578 16.146 21.5603 16.305 21.525 16.517C21.4897 16.7643 21.4543 16.9763 21.419 17.153C21.419 17.2943 21.419 17.4003 21.419 17.471C21.2423 17.7183 21.154 17.895 21.154 18.001C21.0833 17.9303 21.0303 17.895 20.995 17.895C20.9243 17.895 20.889 17.9833 20.889 18.16C20.889 18.372 20.9773 18.8667 21.154 19.644C21.2247 19.8207 21.2777 19.9973 21.313 20.174C21.3483 20.3507 21.3837 20.5273 21.419 20.704C21.4543 21.3047 21.472 21.605 21.472 21.605C21.4013 21.7817 21.366 21.9053 21.366 21.976V22.347C21.366 23.0537 21.2777 23.407 21.101 23.407C21.101 23.3717 21.0833 23.354 21.048 23.354L21.26 23.672C21.2953 23.7073 21.313 23.7603 21.313 23.831V23.99C21.419 24.0607 21.5073 24.1843 21.578 24.361L21.684 25.156V25.474L21.631 26.004C21.5603 26.0747 21.472 26.1277 21.366 26.163C21.2247 26.1983 21.154 26.2867 21.154 26.428L21.207 27.011L21.419 26.958C21.5957 26.958 21.7017 27.0287 21.737 27.17C21.8077 27.2407 21.8077 27.382 21.737 27.594L21.631 27.965C21.6663 28.0003 21.7193 28.0887 21.79 28.23C21.79 28.336 21.7723 28.4067 21.737 28.442V28.654C21.7017 28.76 21.684 28.8483 21.684 28.919L21.737 30.35C21.843 30.456 21.9137 30.562 21.949 30.668L21.79 31.092C21.8253 31.3747 21.843 31.5867 21.843 31.728C21.843 31.834 21.8607 31.8517 21.896 31.781C21.8253 32.099 21.7723 32.2757 21.737 32.311L21.843 32.47C21.8783 32.5407 21.896 32.5937 21.896 32.629C21.9313 32.6643 21.949 32.6997 21.949 32.735C21.949 33.0177 21.896 33.1767 21.79 33.212C21.79 33.212 21.7723 33.212 21.737 33.212H21.79C21.79 33.1767 21.79 33.159 21.79 33.159L21.366 33H20.889C20.8183 33 20.73 33.0177 20.624 33.053H20.2L19.988 33C19.9173 33 19.8467 33.0177 19.776 33.053L19.564 33.106L18.61 32.894C18.5747 32.894 18.504 32.947 18.398 33.053C18.292 33.159 18.186 33.212 18.08 33.212C17.9387 33.212 17.6913 33.0883 17.338 32.841C17.3027 32.9117 17.126 33.053 16.808 33.265C16.5607 33.265 16.437 33.1237 16.437 32.841L16.649 30.562V30.297C16.543 30.2617 16.4193 30.2617 16.278 30.297C16.4547 30.1557 16.5253 29.979 16.49 29.767L16.384 29.343V29.29C16.384 29.184 16.49 29.078 16.702 28.972C16.6313 28.866 16.5607 28.7423 16.49 28.601C16.4547 28.495 16.4193 28.4067 16.384 28.336C16.384 28.23 16.384 28.1417 16.384 28.071C16.4193 28.0003 16.437 27.8413 16.437 27.594L16.278 27.276C16.49 27.2407 16.649 27.0993 16.755 26.852C16.7197 26.7813 16.6137 26.7107 16.437 26.64C16.4723 26.4633 16.49 26.322 16.49 26.216C16.5253 26.0747 16.5253 25.9687 16.49 25.898L16.278 25.209L16.384 24.679L16.49 24.255L16.172 23.195C16.172 23.089 16.2603 22.9477 16.437 22.771C16.3663 22.7357 16.2957 22.6827 16.225 22.612C16.1543 22.5413 16.0837 22.4707 16.013 22.4C16.0837 22.188 16.119 21.87 16.119 21.446C16.119 21.34 16.1367 21.2693 16.172 21.234L16.013 20.81C16.013 20.4567 16.066 20.227 16.172 20.121C16.278 20.015 16.331 19.8737 16.331 19.697C16.331 19.4143 16.225 19.1493 16.013 18.902C16.119 18.9727 16.1897 18.9903 16.225 18.955C16.3663 18.955 16.4547 18.902 16.49 18.796L16.013 18.637C15.9777 18.6017 15.9423 18.5663 15.907 18.531C15.8717 18.4603 15.8187 18.4073 15.748 18.372C15.8187 18.266 15.9423 18.16 16.119 18.054C16.119 18.1247 16.1543 18.1953 16.225 18.266C16.225 18.2307 16.2603 18.1777 16.331 18.107C15.8363 17.8243 15.6243 17.683 15.695 17.683C15.5537 17.683 15.4477 17.7713 15.377 17.948V18.584C15.2357 18.6193 15.165 18.7253 15.165 18.902V19.22C15.1297 19.2553 15.0767 19.3613 15.006 19.538L15.059 20.28C15.0237 20.3153 14.9707 20.386 14.9 20.492C14.8293 20.5627 14.7233 20.6687 14.582 20.81C14.7587 20.9513 14.8823 21.234 14.953 21.658C14.953 21.7993 14.9353 21.8877 14.9 21.923C14.688 22.135 14.5643 22.4 14.529 22.718C14.4937 22.8947 14.4583 23.0713 14.423 23.248C14.3877 23.3893 14.3347 23.5483 14.264 23.725L14.529 23.778V24.573L14.264 24.997C14.2993 25.0323 14.3347 25.156 14.37 25.368C14.4053 25.474 14.423 25.58 14.423 25.686C14.4583 25.792 14.4583 25.898 14.423 26.004L14.264 26.322H14.105L13.787 26.163C13.5043 26.905 13.363 27.2053 13.363 27.064L13.787 27.488C13.8577 27.7 13.893 27.9297 13.893 28.177V28.707C13.8577 28.7423 13.787 28.813 13.681 28.919C13.6103 28.9897 13.5397 29.0957 13.469 29.237C13.3983 29.3783 13.363 29.5727 13.363 29.82L13.469 29.926C13.5043 29.9613 13.522 30.0143 13.522 30.085L13.363 31.251C13.363 31.357 13.2923 31.4807 13.151 31.622V31.781C13.151 31.9223 13.0803 32.0107 12.939 32.046C13.1157 32.364 13.2217 32.629 13.257 32.841C13.257 32.9117 13.2217 33.0177 13.151 33.159C13.0097 33.1943 12.8507 33.2297 12.674 33.265C12.4973 33.3357 12.3207 33.4063 12.144 33.477L11.508 33.424L10.872 33.318L10.13 33.53C10.024 33.53 9.95333 33.5123 9.918 33.477C9.918 33.4417 9.88267 33.3003 9.812 33.053C9.67067 32.9117 9.58233 32.788 9.547 32.682L9.335 31.834C9.40567 31.728 9.494 31.675 9.6 31.675V31.304C9.88267 31.2333 10.0417 31.145 10.077 31.039C10.0417 30.8977 9.971 30.827 9.865 30.827C9.653 30.8623 9.547 31.0213 9.547 31.304H9.229L9.335 30.138L9.229 29.714L9.07 29.29C9.07 29.0427 9.24667 28.919 9.6 28.919L9.812 29.025C9.95333 29.025 10.0417 28.9543 10.077 28.813C9.759 28.6717 9.51167 28.601 9.335 28.601L9.176 28.654C9.176 28.6187 9.21133 28.5303 9.282 28.389C9.176 28.283 9.10533 28.23 9.07 28.23L8.699 28.283C8.66367 28.2477 8.646 28.1063 8.646 27.859C8.646 27.647 8.699 27.4703 8.805 27.329L8.911 27.064C8.84033 26.9933 8.752 26.9227 8.646 26.852C8.57533 26.7813 8.46933 26.693 8.328 26.587C8.29267 26.5517 8.275 26.4987 8.275 26.428C8.275 26.322 8.25733 26.1983 8.222 26.057L8.434 25.103C8.39867 25.0677 8.36333 25.0323 8.328 24.997C8.29267 24.9617 8.23967 24.9087 8.169 24.838L8.063 24.255C8.02767 24.2197 7.97467 24.1843 7.904 24.149C7.86867 24.0783 7.81567 23.99 7.745 23.884C7.78033 23.8487 7.798 23.7957 7.798 23.725C7.798 23.5837 7.745 23.4423 7.639 23.301V23.089L7.798 23.036C8.15133 23.0007 8.328 22.8947 8.328 22.718C8.328 22.5767 8.09833 22.4883 7.639 22.453C7.533 22.1703 7.48 21.923 7.48 21.711L7.586 21.552V21.446C7.48 21.1987 7.35633 21.0397 7.215 20.969L7.162 20.863C7.162 20.8277 7.17967 20.7923 7.215 20.757L7.003 20.598C7.28567 20.1387 7.427 19.909 7.427 19.909C7.427 19.7323 7.321 19.5733 7.109 19.432C7.109 19.3967 7.19733 19.2907 7.374 19.114L6.685 19.008C6.579 18.8313 6.50833 18.743 6.473 18.743C6.29633 18.8137 6.19033 18.8843 6.155 18.955V19.22L5.996 19.379V19.591C6.03133 19.6617 6.06667 19.75 6.102 19.856C6.13733 19.962 6.17267 20.0857 6.208 20.227C6.208 20.4037 6.155 20.545 6.049 20.651C5.90767 20.757 5.837 20.8277 5.837 20.863L6.314 21.658C6.34933 21.6933 6.367 21.764 6.367 21.87C6.367 21.9407 6.38467 22.0113 6.42 22.082C6.38467 22.0467 6.34933 22.0997 6.314 22.241C6.17267 22.2763 6.08433 22.3647 6.049 22.506L5.996 22.771C6.13733 22.9123 6.261 22.983 6.367 22.983L6.473 26.11L6.367 26.269C6.40233 26.375 6.42 26.5517 6.42 26.799C6.42 26.905 6.367 27.064 6.261 27.276L6.155 27.594C6.155 27.6293 6.155 27.6647 6.155 27.7C6.19033 27.7353 6.22567 27.7883 6.261 27.859C6.33167 27.965 6.33167 28.1593 6.261 28.442C6.40233 28.6187 6.43767 28.9013 6.367 29.29C6.40233 29.6787 6.42 29.9967 6.42 30.244C6.45533 30.4913 6.45533 30.6857 6.42 30.827C6.49067 30.933 6.54367 31.039 6.579 31.145C6.61433 31.2157 6.64967 31.2863 6.685 31.357C6.61433 31.569 6.54367 31.7987 6.473 32.046C6.43767 32.258 6.38467 32.5053 6.314 32.788L6.579 33.159V33.371C6.50833 33.4417 6.40233 33.5123 6.261 33.583C6.155 33.6537 6.03133 33.7243 5.89 33.795C5.678 33.795 5.44833 33.7243 5.201 33.583L4.671 33.318C4.565 33.424 4.459 33.5123 4.353 33.583C4.21167 33.6183 4.07033 33.636 3.929 33.636C3.823 33.6713 3.73467 33.689 3.664 33.689L2.922 33.583C2.88667 33.583 2.78067 33.636 2.604 33.742L2.286 33.848ZM15.907 2.154C15.907 2.01267 15.8717 1.90667 15.801 1.836L15.695 2.154H15.907ZM4.83 4.115L5.042 4.009L4.936 3.85C4.90067 3.88533 4.883 3.92067 4.883 3.956C4.883 3.99133 4.86533 4.04433 4.83 4.115ZM16.861 4.539L17.073 4.38C17.073 4.34467 17.0023 4.34467 16.861 4.38C16.8257 4.41533 16.8257 4.46833 16.861 4.539ZM17.55 4.91C17.656 4.98067 17.7443 4.91 17.815 4.698C17.7797 4.66267 17.7267 4.645 17.656 4.645C17.5147 4.645 17.4793 4.73333 17.55 4.91ZM2.816 5.864C2.922 5.89933 3.01033 5.88167 3.081 5.811C3.15167 5.74033 3.11633 5.652 2.975 5.546C2.869 5.58133 2.816 5.68733 2.816 5.864ZM6.632 6.977C6.77333 6.90633 6.86167 6.85333 6.897 6.818C6.75567 6.53533 6.70267 6.32333 6.738 6.182C6.80867 6.11133 6.87933 6.04067 6.95 5.97C7.02067 5.864 7.09133 5.758 7.162 5.652C6.87933 5.58133 6.685 5.56367 6.579 5.599C6.367 5.599 6.24333 5.61667 6.208 5.652C6.03133 5.758 5.943 5.88167 5.943 6.023C5.943 6.659 6.17267 6.977 6.632 6.977ZM5.519 9.097C5.55433 9.02633 5.53667 8.95567 5.466 8.885C5.43067 8.84967 5.34233 8.86733 5.201 8.938C5.27167 9.044 5.37767 9.097 5.519 9.097ZM3.187 10.581C3.187 10.5103 3.15167 10.4397 3.081 10.369C3.04567 10.2983 2.975 10.316 2.869 10.422C2.869 10.528 2.975 10.581 3.187 10.581ZM18.08 11.27C18.08 11.2347 18.027 11.164 17.921 11.058L17.815 11.164C17.8503 11.1993 17.8857 11.217 17.921 11.217C17.9917 11.217 18.0447 11.2347 18.08 11.27ZM1.173 11.535C1.279 11.6057 1.36733 11.5527 1.438 11.376C1.40267 11.3407 1.34967 11.323 1.279 11.323C1.173 11.323 1.13767 11.3937 1.173 11.535ZM19.458 11.8C19.4227 11.7293 19.3697 11.7293 19.299 11.8L19.458 12.012V11.8ZM18.186 12.118C18.186 12.012 18.1507 11.9237 18.08 11.853C18.0093 11.853 17.9387 11.8883 17.868 11.959C17.868 12.065 17.974 12.118 18.186 12.118ZM7.003 14.503C7.07367 14.4323 7.109 14.344 7.109 14.238C6.93233 14.2733 6.80867 14.3617 6.738 14.503H7.003ZM7.268 15.033L7.162 14.874L6.791 15.033H7.268ZM9.282 15.351C9.282 15.2803 9.21133 15.245 9.07 15.245C9.176 15.351 9.24667 15.3863 9.282 15.351ZM4.83 18.955C4.86533 18.955 4.90067 18.9373 4.936 18.902L4.724 18.743C4.68867 18.743 4.65333 18.7607 4.618 18.796L4.83 18.955ZM9.6 19.803V19.432C9.42333 19.6087 9.29967 19.697 9.229 19.697C9.26433 19.697 9.282 19.7323 9.282 19.803H9.6ZM4.989 20.015L5.36 19.962C5.32467 19.7853 5.21867 19.6793 5.042 19.644L4.989 20.015ZM18.292 21.658C18.4687 21.4813 18.557 21.3047 18.557 21.128V20.969C18.5217 20.8983 18.451 20.8277 18.345 20.757C18.2743 20.6863 18.186 20.5803 18.08 20.439L17.974 21.022C17.974 21.1633 18.08 21.3753 18.292 21.658ZM12.515 22.082C12.9743 22.0113 13.2217 21.9937 13.257 22.029L13.204 21.605C13.0273 21.4283 12.8683 21.3577 12.727 21.393C12.6563 21.4637 12.5857 21.6933 12.515 22.082ZM21.525 21.552C21.525 21.552 21.5073 21.5697 21.472 21.605C21.5073 21.605 21.525 21.605 21.525 21.605C21.525 21.5697 21.525 21.552 21.525 21.552ZM11.455 23.513L11.349 23.354H11.296L11.349 23.513H11.455ZM4.83 24.838C4.936 24.8733 5.042 24.8203 5.148 24.679C5.042 24.573 4.95367 24.5553 4.883 24.626C4.81233 24.6967 4.79467 24.7673 4.83 24.838ZM3.134 25.898C3.16933 25.8627 3.187 25.8097 3.187 25.739C3.187 25.633 3.11633 25.58 2.975 25.58C2.93967 25.686 2.99267 25.792 3.134 25.898ZM19.988 28.707C20.1293 28.707 20.2353 28.6717 20.306 28.601C20.1293 28.3183 20.094 28.0887 20.2 27.912C20.2707 27.8413 20.3413 27.7707 20.412 27.7C20.4827 27.6293 20.5533 27.541 20.624 27.435C20.4827 27.3997 20.359 27.382 20.253 27.382C20.147 27.3467 20.0587 27.329 19.988 27.329C19.882 27.329 19.7583 27.3643 19.617 27.435C19.4403 27.541 19.352 27.7 19.352 27.912C19.4227 28.442 19.6347 28.707 19.988 28.707ZM4.989 28.336C5.02433 28.2653 4.989 28.1947 4.883 28.124C4.84767 28.0533 4.777 28.071 4.671 28.177C4.74167 28.283 4.84767 28.336 4.989 28.336ZM3.505 32.576C3.57567 32.5053 3.75233 32.4523 4.035 32.417C4.28233 32.417 4.38833 32.2933 4.353 32.046L4.3 31.887L4.088 31.834L3.611 31.993C3.57567 31.993 3.558 31.9753 3.558 31.94H3.452C3.31067 31.94 3.24 31.993 3.24 32.099C3.24 32.311 3.32833 32.47 3.505 32.576ZM29.0353 33.212L28.3463 33H28.1343C28.0283 33 27.9046 33 27.7633 33C27.6219 32.9647 27.4629 32.9293 27.2863 32.894L26.1733 31.94C25.8906 31.6573 25.6786 31.3217 25.5373 30.933C25.5019 30.7917 25.4666 30.615 25.4313 30.403C25.3959 30.191 25.3429 29.9437 25.2723 29.661L25.3253 29.396C25.3253 29.29 25.3076 29.2017 25.2723 29.131C25.2016 28.919 25.1663 28.813 25.1663 28.813C25.2016 28.7423 25.2193 28.6363 25.2193 28.495C25.2193 28.3183 25.2193 28.1417 25.2193 27.965L24.9013 26.905V26.746C24.9013 26.6753 24.9013 26.587 24.9013 26.481C24.9013 26.375 24.9189 26.269 24.9543 26.163L25.2193 25.527V25.156C25.3606 24.944 25.5019 24.679 25.6433 24.361C25.7846 24.0077 25.9259 23.6013 26.0673 23.142L26.4913 22.93C26.5266 22.8593 26.5619 22.7887 26.5973 22.718C26.6326 22.6473 26.6856 22.5767 26.7563 22.506L27.4983 21.764C27.5336 21.6933 27.5689 21.6227 27.6043 21.552C27.6396 21.446 27.6926 21.3223 27.7633 21.181L29.6713 20.015C29.8479 19.909 30.0246 19.803 30.2013 19.697C30.3779 19.591 30.5546 19.4673 30.7313 19.326C30.7313 19.326 30.8373 19.3613 31.0493 19.432C31.0846 19.3967 31.1199 19.3613 31.1553 19.326C31.1906 19.2553 31.2436 19.2023 31.3143 19.167L31.8443 18.955C31.8443 18.7783 31.9149 18.6017 32.0563 18.425C32.1623 18.3543 32.2859 18.2483 32.4273 18.107C32.6039 17.9657 32.7983 17.789 33.0103 17.577C33.0456 17.5417 33.0456 17.365 33.0103 17.047C33.0809 17.1177 33.1163 17.1 33.1163 16.994C33.1163 16.676 33.0986 16.5523 33.0633 16.623C33.0279 16.4817 32.9749 16.3403 32.9043 16.199C32.8689 16.0223 32.8336 15.8457 32.7983 15.669C32.7629 15.6337 32.7806 15.5277 32.8513 15.351L32.9573 15.086C32.9573 15.086 32.8689 14.9623 32.6923 14.715L32.1623 14.026C31.9856 13.8493 31.7559 13.7787 31.4733 13.814L31.2083 13.867C30.9963 13.9377 30.8903 13.973 30.8903 13.973H30.4133L30.3073 14.079C30.3426 14.1143 30.3779 14.1497 30.4133 14.185C30.4486 14.2203 30.4839 14.2733 30.5193 14.344C30.5193 14.4147 30.5016 14.4677 30.4663 14.503V14.662C30.3249 14.6973 30.1659 14.8387 29.9893 15.086C29.9186 15.298 29.8833 15.4923 29.8833 15.669C29.9539 15.8103 30.0599 15.9517 30.2013 16.093C30.1659 16.1283 30.1129 16.146 30.0423 16.146C29.9716 16.4287 29.9716 16.623 30.0423 16.729L30.2013 16.941V17.206C30.2013 17.2413 30.1483 17.2943 30.0423 17.365L29.4063 17.206C29.3709 17.0647 29.2826 17.0293 29.1413 17.1C29.0353 17.1707 28.9469 17.153 28.8763 17.047H28.7703C28.6643 17.047 28.5936 17.0117 28.5583 16.941C28.5229 16.835 28.4523 16.8527 28.3463 16.994L28.0283 17.365C27.8516 17.365 27.7103 17.3827 27.6043 17.418L27.3393 17.312C27.2333 17.2413 27.1626 17.2237 27.1273 17.259C27.0919 17.259 27.0566 17.259 27.0213 17.259L25.9083 17.577C25.8376 17.577 25.7493 17.577 25.6433 17.577C25.5373 17.577 25.4136 17.5593 25.2723 17.524L25.0073 16.729C25.0073 16.6937 25.0249 16.676 25.0603 16.676C25.0956 16.6407 25.1133 16.6053 25.1133 16.57L25.1663 16.411C25.1309 16.305 25.1133 16.1813 25.1133 16.04C25.1133 15.8633 25.1133 15.6867 25.1133 15.51C25.2193 15.404 25.2899 15.298 25.3253 15.192C25.3606 15.086 25.3783 14.8563 25.3783 14.503V14.185C25.3783 13.2663 26.1556 12.118 27.7103 10.74C27.7456 10.634 27.8693 10.475 28.0813 10.263C28.1166 10.2277 28.3463 10.1217 28.7703 9.945C28.8409 9.87433 28.8586 9.82133 28.8233 9.786L28.8763 9.521C29.0176 9.55633 29.1589 9.59167 29.3003 9.627C29.4769 9.627 29.6359 9.627 29.7773 9.627L30.1483 9.468C30.2189 9.43267 30.2896 9.39733 30.3603 9.362C30.4309 9.32667 30.4839 9.309 30.5193 9.309H30.8903C30.9256 9.27367 31.0493 9.22067 31.2613 9.15C31.4733 9.11467 31.6499 9.097 31.7913 9.097C31.9679 9.06167 32.1269 9.044 32.2683 9.044C32.4449 9.044 32.8159 9.097 33.3813 9.203C34.0173 9.309 34.3706 9.415 34.4413 9.521L34.3883 9.892L34.5473 10.104L34.8653 9.945C34.9713 9.945 35.0949 10.051 35.2363 10.263L35.6603 10.316C35.7309 10.316 35.8016 10.3337 35.8723 10.369C35.9783 10.369 36.0489 10.369 36.0843 10.369C36.1196 10.4043 36.1549 10.4397 36.1903 10.475C36.2256 10.475 36.2609 10.5103 36.2963 10.581V11.005L35.8723 11.217C35.9076 11.3583 36.0489 11.4467 36.2963 11.482C36.5789 11.5173 36.7379 11.5703 36.7733 11.641L37.3033 13.602C37.3033 13.708 37.4093 13.8493 37.6213 14.026C37.6566 14.2733 37.6743 14.556 37.6743 14.874C37.6743 15.192 37.6743 15.5277 37.6743 15.881L37.8333 16.146C37.8686 16.1813 37.8863 16.3757 37.8863 16.729L37.8333 17.63C37.7979 17.948 37.7803 18.2307 37.7803 18.478C37.7803 18.69 37.7803 18.8667 37.7803 19.008L37.8863 19.167C37.9216 19.5203 37.9393 19.803 37.9393 20.015C37.9746 20.1917 37.9923 20.2623 37.9923 20.227L37.7803 20.757C37.7449 20.8983 37.7096 21.0043 37.6743 21.075C37.6743 21.1103 37.6743 21.1457 37.6743 21.181C37.6743 21.287 37.6743 21.393 37.6743 21.499C37.7096 21.605 37.7449 21.711 37.7803 21.817C37.8509 21.8877 37.9039 21.9937 37.9393 22.135C38.0099 22.241 38.0629 22.3647 38.0983 22.506L38.0453 23.195C38.0099 23.2303 37.9746 23.301 37.9393 23.407C37.9039 23.4777 37.8686 23.566 37.8333 23.672C37.8333 23.672 37.9039 24.149 38.0453 25.103L37.8333 25.845C37.8686 25.8803 37.9216 26.004 37.9923 26.216C38.0629 26.3927 38.0983 26.4987 38.0983 26.534V26.799C38.0983 27.011 38.0806 27.17 38.0453 27.276C38.3633 27.3113 38.5223 27.5763 38.5223 28.071L38.4163 28.389C38.3456 28.601 38.3103 28.707 38.3103 28.707L38.4693 29.29C38.5046 29.4313 38.5223 29.5903 38.5223 29.767C38.5576 29.9437 38.5753 30.1733 38.5753 30.456V30.986C38.6813 31.1273 38.7873 31.3747 38.8933 31.728V31.781C38.8933 32.1697 38.4163 32.3993 37.4623 32.47L36.4553 32.311C36.4199 32.311 36.3139 32.311 36.1373 32.311C35.9606 32.311 35.6956 32.3287 35.3423 32.364C35.3069 32.364 35.2539 32.3993 35.1833 32.47C35.1126 32.5407 35.0419 32.576 34.9713 32.576H34.4943C34.4943 32.576 34.2823 32.5053 33.8583 32.364L33.9643 31.887C33.9643 31.675 33.8583 31.516 33.6463 31.41C33.6463 31.3747 33.6639 31.2333 33.6993 30.986L33.8053 30.615C33.5579 30.6503 32.9219 31.1803 31.8973 32.205C31.6499 32.4523 31.4733 32.5583 31.3673 32.523L31.1553 32.47C31.0493 32.576 30.9433 32.6643 30.8373 32.735C30.6253 32.841 30.4309 32.894 30.2543 32.894C30.2189 32.9293 30.2013 32.9293 30.2013 32.894C30.1659 32.8587 30.1306 32.841 30.0953 32.841C30.0599 32.8763 29.8833 32.947 29.5653 33.053C29.2826 33.159 29.1059 33.212 29.0353 33.212ZM29.3003 10.369C29.3003 10.263 29.2296 10.1923 29.0883 10.157C29.0176 10.2277 28.9823 10.2807 28.9823 10.316C29.0176 10.528 29.1236 10.5457 29.3003 10.369ZM35.8723 13.072L36.0313 12.86C36.0666 12.7893 36.0313 12.7187 35.9253 12.648C35.8193 12.6127 35.6956 12.6127 35.5543 12.648C35.5896 12.754 35.6956 12.8953 35.8723 13.072ZM28.3463 14.98L28.9823 14.927C29.2649 14.927 29.4063 14.8033 29.4063 14.556L29.3003 14.291L28.6113 14.238C28.3286 14.238 28.2049 14.344 28.2403 14.556L28.2933 14.768C28.3286 14.8387 28.3463 14.9093 28.3463 14.98ZM33.1693 18.849C33.2046 18.8843 33.2929 18.8843 33.4343 18.849L33.3813 18.637C33.2399 18.6723 33.1693 18.743 33.1693 18.849ZM29.6713 21.976L29.7243 21.711L29.4063 21.658L29.6713 21.976ZM30.9433 28.548H31.2083C31.2789 28.548 31.3496 28.5127 31.4203 28.442C31.4909 28.3713 31.5439 28.336 31.5793 28.336C31.6499 28.3713 31.7559 28.4243 31.8973 28.495C32.0386 28.495 32.1976 28.4067 32.3743 28.23C32.4449 28.0533 32.5509 27.8413 32.6923 27.594C32.8689 27.5233 33.0633 27.382 33.2753 27.17C33.2399 27.0993 33.2223 26.958 33.2223 26.746C33.2223 26.5693 33.2223 26.375 33.2223 26.163C33.2576 25.951 33.2929 25.7213 33.3283 25.474C33.2929 25.2973 33.2576 25.103 33.2223 24.891C33.1869 24.6437 33.1516 24.361 33.1163 24.043C33.1163 23.831 33.2223 23.7073 33.4343 23.672C33.3283 23.3187 33.0986 22.824 32.7453 22.188H31.8973C31.7913 22.612 31.6323 22.983 31.4203 23.301L31.0493 23.566L30.8373 23.937L30.4663 24.149C30.4309 24.2903 30.3603 24.4493 30.2543 24.626C30.1836 24.8027 30.1129 25.0147 30.0423 25.262C30.0423 25.474 29.9186 25.8273 29.6713 26.322L29.7243 26.534C29.4769 26.8167 29.3533 26.9933 29.3533 27.064C29.4239 27.0287 29.4946 27.064 29.5653 27.17L29.8833 28.018C29.9539 28.0533 30.0246 28.0887 30.0953 28.124C30.1659 28.124 30.2366 28.1593 30.3073 28.23C30.3426 28.2653 30.3779 28.3007 30.4133 28.336C30.4486 28.3713 30.4839 28.4243 30.5193 28.495L30.9433 28.548ZM36.3493 25.845C36.4199 25.845 36.5083 25.792 36.6143 25.686C36.7556 25.5447 36.8263 25.4387 36.8263 25.368L36.7203 25.156C36.6849 25.1207 36.6319 25.103 36.5613 25.103C36.4906 25.103 36.4199 25.0853 36.3493 25.05L35.9783 25.315C36.0136 25.3503 36.0666 25.474 36.1373 25.686C36.2079 25.792 36.2786 25.845 36.3493 25.845ZM34.1763 27.329L34.4943 27.223C34.4589 27.1877 34.4413 27.0993 34.4413 26.958L34.1233 27.011C34.1233 27.1877 34.1409 27.2937 34.1763 27.329ZM31.3673 31.834C31.4379 31.5513 31.4203 31.41 31.3143 31.41L31.2083 31.516C31.1729 31.5513 31.1553 31.6397 31.1553 31.781L31.3673 31.834ZM48.7422 33.795L47.8412 33.742C47.5585 33.7067 47.3288 33.689 47.1522 33.689C47.0108 33.689 46.9225 33.689 46.8872 33.689C46.3572 33.689 46.0392 33.6713 45.9332 33.636L45.0322 33.159C44.9615 33.1237 44.8732 33.0883 44.7672 33.053C44.6612 33.0177 44.5375 32.9823 44.3962 32.947C44.1842 32.841 44.0782 32.6643 44.0782 32.417C44.0075 32.3817 43.9368 32.364 43.8662 32.364C43.7955 32.3287 43.7248 32.311 43.6542 32.311C43.6542 31.993 43.5835 31.781 43.4422 31.675L43.0712 31.516C43.0005 31.4453 42.9122 31.251 42.8062 30.933L42.5942 30.403V30.244C42.5942 30.1733 42.5765 30.085 42.5412 29.979C42.5412 29.8377 42.5235 29.6963 42.4882 29.555C42.4882 29.2723 42.4882 29.025 42.4882 28.813C42.5235 28.601 42.5588 28.4243 42.5942 28.283C42.4528 28.2123 42.3468 28.1063 42.2762 27.965C42.2408 27.8943 42.2585 27.753 42.3292 27.541L42.3822 27.064C42.4175 26.8873 42.4352 26.7283 42.4352 26.587C42.4352 26.4457 42.4528 26.3043 42.4882 26.163C42.4882 25.9863 42.5412 25.7743 42.6472 25.527C42.7885 25.2797 42.8592 25.1207 42.8592 25.05C42.8592 25.0147 42.8238 24.9617 42.7532 24.891C42.6825 24.8203 42.6472 24.785 42.6472 24.785C42.6472 24.7143 42.6295 24.6613 42.5942 24.626C42.5942 24.5907 42.5942 24.5553 42.5942 24.52C42.5942 24.308 42.6472 24.096 42.7532 23.884C42.6118 23.6367 42.5412 23.3363 42.5412 22.983C42.5412 22.7003 42.6295 22.4353 42.8062 22.188C42.7002 22.0467 42.6118 21.9053 42.5412 21.764V20.386C42.5412 20.386 42.5058 20.3153 42.4352 20.174C42.3645 20.1033 42.3292 20.0327 42.3292 19.962C42.3292 19.856 42.5235 19.4673 42.9122 18.796C42.6295 18.6193 42.4882 18.5133 42.4882 18.478L42.7532 17.524C42.7532 17.4533 42.7355 17.3473 42.7002 17.206C42.7002 17.0647 42.7002 16.9057 42.7002 16.729L42.6472 15.881C42.6118 15.4923 42.6118 15.1743 42.6472 14.927C42.6825 14.6797 42.6825 14.4853 42.6472 14.344C42.5412 14.1673 42.4175 14.079 42.2762 14.079V13.814L42.7532 13.602C42.7532 13.5313 42.7355 13.4783 42.7002 13.443H41.7992V13.602C41.7992 13.7433 41.8698 13.867 42.0112 13.973C42.1525 14.079 42.2232 14.1673 42.2232 14.238L41.5872 14.185C41.4458 14.1497 41.3222 14.132 41.2162 14.132C41.1455 14.132 41.0925 14.132 41.0572 14.132L40.7392 14.238C40.5272 14.3087 40.4212 14.344 40.4212 14.344C40.2798 14.344 40.0678 14.2733 39.7852 14.132C39.7498 14.0613 39.7498 13.9553 39.7852 13.814L39.8912 13.496C39.8558 13.39 39.8382 13.284 39.8382 13.178C39.8382 13.072 39.8382 12.9837 39.8382 12.913C39.9088 12.701 40.0325 12.5773 40.2092 12.542C40.0678 12.4007 39.9795 12.2593 39.9442 12.118C39.9442 11.9413 39.9442 11.7647 39.9442 11.588L39.8912 11.323C39.9618 11.005 39.9795 10.8107 39.9442 10.74L39.7852 10.475C39.7145 10.3337 39.6792 10.2453 39.6792 10.21L39.8912 9.733C39.9265 9.69767 39.9795 9.68 40.0502 9.68C40.1208 9.68 40.2092 9.66233 40.3152 9.627C40.4212 9.59167 40.4918 9.521 40.5272 9.415H40.6332L41.1632 9.574L41.8522 9.786C41.8875 9.82133 41.9228 9.87433 41.9582 9.945C41.9935 10.0157 42.0288 10.104 42.0642 10.21C42.2055 10.104 42.3468 9.96267 42.4882 9.786C42.6295 9.60933 42.7708 9.39733 42.9122 9.15C43.1242 9.00867 43.1418 8.90267 42.9652 8.832C42.8592 8.76133 42.8062 8.65533 42.8062 8.514L42.8592 6.818C42.6825 6.182 42.5942 5.74033 42.5942 5.493L42.7532 5.069L42.8592 4.645C42.8592 4.539 42.8062 4.45066 42.7002 4.38C42.5942 4.30933 42.5412 4.168 42.5412 3.956L42.6472 3.426C42.7178 3.39067 42.7885 3.33767 42.8592 3.267C42.9298 3.19633 43.0358 3.108 43.1772 3.002C43.3892 2.79 43.5128 2.684 43.5482 2.684L44.0252 2.896C44.1665 2.93133 44.2725 2.98433 44.3432 3.055C44.4138 3.12567 44.4668 3.161 44.5022 3.161L44.6612 3.108H45.8272C46.0745 3.108 46.2688 3.12567 46.4102 3.161C46.5868 3.161 46.7282 3.161 46.8342 3.161L47.2052 3.055C47.4172 2.98433 47.5232 2.949 47.5232 2.949C47.7705 2.949 47.8942 3.12566 47.8942 3.479C47.8942 3.585 47.8765 3.72633 47.8412 3.903C47.8412 4.04433 47.8235 4.221 47.7882 4.433L47.5762 4.38C47.4348 4.38 47.2582 4.45067 47.0462 4.592C46.7282 4.76867 46.6045 4.99833 46.6752 5.281C46.7458 5.35167 46.7812 5.387 46.7812 5.387C46.8165 5.387 46.8872 5.334 46.9932 5.228C47.1345 5.15733 47.2228 5.122 47.2582 5.122C47.4348 5.122 47.6115 5.26333 47.7882 5.546C47.9295 5.79333 48.0002 5.95233 48.0002 6.023C48.0002 6.09367 47.9648 6.182 47.8942 6.288C47.8588 6.35867 47.8235 6.41166 47.7882 6.447C47.7528 7.04766 47.7175 7.47167 47.6822 7.719C47.6822 7.96633 47.6822 8.01933 47.6822 7.878C47.4348 7.91333 47.3112 8.01933 47.3112 8.196C47.3112 8.37267 47.4172 8.49633 47.6292 8.567V8.885C47.6292 9.097 47.7175 9.468 47.8942 9.998C47.9295 10.0687 48.0532 10.1747 48.2652 10.316H48.4242V9.945C48.4595 9.80367 48.5655 9.733 48.7422 9.733C49.4488 9.627 49.7492 9.574 49.6432 9.574L49.9082 9.627C50.0142 9.66233 50.1202 9.68 50.2262 9.68L50.7562 10.051C50.7208 10.1923 50.7032 10.3337 50.7032 10.475C50.7032 10.581 50.7032 10.7223 50.7032 10.899C50.9858 11.1817 51.1272 11.3053 51.1272 11.27C51.1272 11.376 51.0565 11.4997 50.9152 11.641C50.9505 11.6763 50.9858 11.7117 51.0212 11.747C50.9505 11.7823 50.8975 11.9237 50.8622 12.171L50.9152 12.33C50.9505 12.4007 50.9682 12.4713 50.9682 12.542C50.9682 12.8247 50.9505 13.1073 50.9152 13.39C50.9152 13.6373 50.8975 13.867 50.8622 14.079C50.7915 14.291 50.6855 14.397 50.5442 14.397H50.4912H50.5442C50.5442 14.3617 50.3852 14.291 50.0672 14.185C49.9258 14.1497 49.6432 14.132 49.2192 14.132C49.0425 14.132 48.6892 14.185 48.1592 14.291L47.9472 14.45C47.8058 14.5207 47.7352 14.556 47.7352 14.556L47.6822 15.033C47.6468 15.3863 47.5938 15.563 47.5232 15.563C47.7352 16.0577 47.8412 16.517 47.8412 16.941C47.8058 16.941 47.7175 17.153 47.5762 17.577C47.6115 17.5063 47.6292 17.7007 47.6292 18.16L47.5232 18.425C47.4525 18.637 47.4172 18.743 47.4172 18.743L47.5762 19.379C47.6468 19.5557 47.6822 19.7147 47.6822 19.856C47.6822 19.962 47.6822 20.0327 47.6822 20.068C47.6822 20.068 47.6115 20.1563 47.4702 20.333C47.4348 20.333 47.4172 20.4213 47.4172 20.598C47.4172 20.81 47.5055 20.9513 47.6822 21.022V22.771C47.6822 22.8063 47.6468 22.8593 47.5762 22.93C47.5055 23.0713 47.4702 23.1597 47.4702 23.195C47.4348 23.4423 47.4348 23.6543 47.4702 23.831C47.5408 24.1137 47.5938 24.2373 47.6292 24.202C47.5232 24.308 47.4348 24.414 47.3642 24.52C47.4348 24.5907 47.5232 24.838 47.6292 25.262C47.2052 25.5093 46.9932 25.7213 46.9932 25.898C46.9932 25.8273 47.1345 26.0393 47.4172 26.534C47.4172 26.534 47.4525 26.8167 47.5232 27.382L47.6292 27.541C47.6292 27.6823 47.6292 27.8413 47.6292 28.018C47.6292 28.1593 47.6468 28.336 47.6822 28.548C47.6822 28.548 47.8942 28.6893 48.3182 28.972C48.3182 29.1133 48.4065 29.237 48.5832 29.343H48.6892C48.7598 29.343 48.8835 29.2723 49.0602 29.131C49.2015 28.9897 49.3252 28.919 49.4312 28.919C49.4312 28.919 49.5018 28.9543 49.6432 29.025C49.7138 29.0957 49.7668 29.131 49.8022 29.131C49.8728 29.131 49.9788 29.0957 50.1202 29.025C50.1908 28.9543 50.2615 28.9013 50.3322 28.866C50.4028 28.7953 50.4912 28.7247 50.5972 28.654L50.8092 28.813V31.039C50.8092 31.0743 50.7915 31.1097 50.7562 31.145C50.6855 31.2157 50.6502 31.2687 50.6502 31.304V31.834C50.5795 31.9047 50.5088 31.9577 50.4382 31.993C50.4735 32.2403 50.5442 32.4347 50.6502 32.576C50.7562 32.682 50.8092 32.841 50.8092 33.053C50.8092 33.4063 50.6148 33.583 50.2262 33.583H50.0672C50.0318 33.583 49.9965 33.5653 49.9612 33.53C49.9612 33.53 49.9435 33.53 49.9082 33.53L49.3252 33.689C49.1485 33.7243 49.0072 33.742 48.9012 33.742C48.8305 33.7773 48.7775 33.795 48.7422 33.795ZM44.4492 11.27C44.6612 11.27 44.7672 11.164 44.7672 10.952L44.6612 10.634H44.3962C44.2902 10.74 44.2018 10.8283 44.1312 10.899C44.0958 10.9697 44.0605 11.0227 44.0252 11.058C44.0605 11.0933 44.0782 11.1463 44.0782 11.217H44.2902C44.3255 11.217 44.3432 11.2347 44.3432 11.27C44.3785 11.27 44.4138 11.27 44.4492 11.27ZM49.6432 11.164L49.8552 11.058L49.5902 10.899C49.5548 10.9343 49.5195 10.952 49.4842 10.952L49.6432 11.164ZM51.0212 11.747V11.853C51.0212 11.8177 51.0212 11.7823 51.0212 11.747ZM45.5092 12.489C45.5445 12.4537 45.5092 12.383 45.4032 12.277L45.2442 12.383C45.2795 12.4183 45.3148 12.436 45.3502 12.436C45.4208 12.436 45.4738 12.4537 45.5092 12.489ZM45.5622 13.337C45.5975 13.2663 45.5798 13.1957 45.5092 13.125C45.4385 13.0543 45.3502 13.0543 45.2442 13.125C45.2795 13.1957 45.3855 13.2663 45.5622 13.337ZM47.8412 16.941V16.994V16.941ZM46.3042 22.347L46.4102 22.294C46.4455 22.2587 46.4808 22.241 46.5162 22.241L46.4102 22.082C46.3748 22.1173 46.3572 22.1527 46.3572 22.188C46.3572 22.2233 46.3395 22.2763 46.3042 22.347ZM44.2372 24.043C44.3078 24.0783 44.3785 24.0607 44.4492 23.99C44.5198 23.9193 44.5022 23.831 44.3962 23.725C44.2902 23.7603 44.2372 23.8663 44.2372 24.043ZM43.8132 30.721L44.0782 30.986C44.1488 30.986 44.2725 30.9683 44.4492 30.933L44.7142 30.615L44.3432 30.297C44.3078 30.3323 44.1312 30.403 43.8132 30.509V30.721ZM42.4352 32.205C42.3645 32.205 42.2762 32.152 42.1702 32.046C42.2055 32.0107 42.2585 31.993 42.3292 31.993C42.4352 31.993 42.4705 32.0637 42.4352 32.205ZM58.4229 33.689C58.3523 33.689 58.3346 33.689 58.3699 33.689C58.3346 33.689 58.2639 33.6537 58.1579 33.583L57.8929 33.477C57.8223 33.5123 57.7339 33.53 57.6279 33.53C57.5573 33.53 57.4689 33.5477 57.3629 33.583L56.6209 33.159C56.5149 32.9117 56.3736 32.788 56.1969 32.788C56.1616 32.7527 56.1263 32.7527 56.0909 32.788C56.0556 32.8233 55.9849 32.841 55.8789 32.841C55.8789 32.841 55.7023 32.6997 55.3489 32.417L54.9249 32.258C54.8189 32.152 54.6953 32.0283 54.5539 31.887C54.4479 31.7457 54.3066 31.5867 54.1299 31.41L53.7059 31.092V30.986C53.7059 30.8447 53.6176 30.6327 53.4409 30.35C53.2643 30.1733 53.1229 30.032 53.0169 29.926C52.9463 29.7847 52.8933 29.6963 52.8579 29.661V29.025C53.0346 29.131 53.1406 29.1133 53.1759 28.972C53.2466 28.866 53.1759 28.76 52.9639 28.654C52.8226 28.548 52.7519 28.4597 52.7519 28.389V27.753C52.7519 27.647 52.7519 27.541 52.7519 27.435C52.7519 27.329 52.7343 27.223 52.6989 27.117C52.6636 26.9403 52.6283 26.7813 52.5929 26.64C52.5929 26.4633 52.6106 26.3043 52.6459 26.163L52.7519 25.633C52.7166 25.421 52.6989 25.209 52.6989 24.997C52.6989 24.7497 52.6989 24.5023 52.6989 24.255C52.6989 24.1137 52.7519 23.937 52.8579 23.725L53.0169 23.301C52.9816 23.0183 52.9463 22.718 52.9109 22.4C52.8756 22.0467 52.8403 21.6933 52.8049 21.34C52.8049 21.234 52.9463 20.8983 53.2289 20.333C53.2996 20.2977 53.3703 20.2623 53.4409 20.227C53.5116 20.1917 53.5823 20.1387 53.6529 20.068C53.6529 20.0327 53.4939 19.909 53.1759 19.697L53.0169 18.584C53.0169 18.4073 53.0876 18.3013 53.2289 18.266C53.3349 18.1953 53.3703 18.0717 53.3349 17.895L54.0239 17.418C53.9886 17.2767 53.8649 17.1883 53.6529 17.153C53.6176 17.153 53.4939 17.1883 53.2819 17.259C53.1759 17.1883 53.1229 17.1177 53.1229 17.047C53.1229 16.835 53.2289 16.6583 53.4409 16.517C53.6529 16.3403 53.7589 16.2343 53.7589 16.199L53.4939 15.298C53.4939 15.298 53.6353 15.0507 53.9179 14.556C54.1653 14.5207 54.2889 14.45 54.2889 14.344C54.2889 14.2733 54.2359 14.185 54.1299 14.079C53.9886 13.973 53.9179 13.8847 53.9179 13.814C53.9179 13.7787 53.9533 13.7257 54.0239 13.655C54.1299 13.443 54.2359 13.0543 54.3419 12.489L54.6599 12.171L54.8189 11.641C55.0309 11.5703 55.2783 11.4643 55.5609 11.323L56.2499 10.475C56.6033 10.0157 56.9036 9.80367 57.1509 9.839L57.3099 9.892C57.3099 9.85667 57.4513 9.80367 57.7339 9.733C58.5819 9.45033 59.0589 9.32667 59.1649 9.362L59.4299 9.415C59.6419 9.27367 59.8009 9.15 59.9069 9.044L60.1719 9.097C60.2426 9.097 60.2956 9.11467 60.3309 9.15C60.3663 9.18533 60.4016 9.203 60.4369 9.203L60.8609 9.15L61.3379 9.574C61.3379 9.574 61.4439 9.53866 61.6559 9.468L61.9209 9.362C62.0623 9.43267 62.2213 9.50333 62.3979 9.574C62.5746 9.64467 62.7513 9.71533 62.9279 9.786C63.1046 9.71533 63.3519 9.71533 63.6699 9.786L63.6169 10.051V10.104C63.6169 10.316 63.8113 10.422 64.1999 10.422H64.6239C64.6239 10.422 64.8536 10.846 65.3129 11.694L65.6309 11.588C65.7723 11.588 65.8606 11.641 65.8959 11.747L66.4789 13.761C66.4436 13.8317 66.4259 13.9553 66.4259 14.132C66.4259 14.2733 66.4259 14.4323 66.4259 14.609L66.5849 14.98C66.6556 15.192 66.6909 15.298 66.6909 15.298L66.5849 15.457C66.5496 15.4923 66.5319 15.5453 66.5319 15.616V16.411C66.4966 16.4463 66.4613 16.517 66.4259 16.623C66.3906 16.6937 66.3553 16.7997 66.3199 16.941C66.1079 16.9763 66.0019 17.047 66.0019 17.153C66.0019 17.259 66.1609 17.4533 66.4789 17.736C66.7616 18.0187 66.9029 18.1953 66.9029 18.266C66.9029 18.3367 66.8146 18.372 66.6379 18.372L66.4789 19.114C66.4436 19.1493 66.3906 19.2553 66.3199 19.432C66.3199 19.644 66.4259 20.1033 66.6379 20.81C66.4966 20.8807 66.3906 20.969 66.3199 21.075C66.3199 21.075 66.3199 21.2163 66.3199 21.499L66.3729 22.029C66.3729 22.0643 66.3729 22.135 66.3729 22.241C66.3729 22.3117 66.3553 22.4177 66.3199 22.559L66.2669 23.089H66.0019C65.7193 23.089 65.4896 22.9477 65.3129 22.665C65.1716 22.4177 65.0479 22.294 64.9419 22.294C64.9066 22.294 64.8006 22.4 64.6239 22.612C64.4119 22.824 64.2706 22.93 64.1999 22.93L63.6169 22.877C63.4403 22.8417 63.2989 22.8417 63.1929 22.877C63.0869 22.877 63.0163 22.877 62.9809 22.877L61.8679 22.4C61.6206 22.612 61.3379 22.718 61.0199 22.718C60.6313 22.718 60.2956 22.5943 60.0129 22.347C59.9423 22.4177 59.9069 22.4707 59.9069 22.506H59.1119C59.0766 22.506 59.0589 22.506 59.0589 22.506C59.0589 22.4707 59.0413 22.453 59.0059 22.453H58.7939C58.4759 22.453 58.2109 22.6473 57.9989 23.036V23.248C57.9636 23.3187 57.9106 23.4247 57.8399 23.566C57.8046 23.672 57.7516 23.7957 57.6809 23.937C57.6809 23.9723 57.7163 24.0253 57.7869 24.096L57.8929 24.308V24.414C57.8929 24.4493 57.8929 24.52 57.8929 24.626C57.8929 24.6967 57.8753 24.8027 57.8399 24.944C57.8753 25.05 57.8929 25.2267 57.8929 25.474C57.8929 25.6153 57.8046 25.739 57.6279 25.845L57.5219 27.594C57.7339 27.7707 57.8223 28.071 57.7869 28.495H58.4229C58.6349 28.495 58.7939 28.5657 58.8999 28.707C59.0059 28.8483 59.0766 28.919 59.1119 28.919L59.4829 28.76L59.8539 29.025C59.9599 29.025 60.0306 28.972 60.0659 28.866L60.3839 28.124V27.329L60.4369 26.534C60.4723 26.428 60.4899 26.3397 60.4899 26.269C60.5253 26.163 60.5429 26.0923 60.5429 26.057L60.4899 25.898C60.5606 25.7567 60.5959 25.6507 60.5959 25.58C60.5959 25.474 60.5959 25.4033 60.5959 25.368L60.4899 24.891C60.6313 24.5377 60.8079 24.361 61.0199 24.361C61.3026 24.5023 61.6913 24.626 62.1859 24.732L62.4509 24.626C62.5569 24.5907 62.6453 24.573 62.7159 24.573C62.7866 24.573 62.9103 24.7143 63.0869 24.997C63.4756 24.8557 63.6699 24.785 63.6699 24.785L64.0939 25.05H64.1999C64.6239 25.05 65.0303 24.8733 65.4189 24.52L66.3199 25.368C66.1433 25.686 65.9489 26.0923 65.7369 26.587C65.7016 26.7637 65.6486 26.9757 65.5779 27.223C65.5426 27.4703 65.4719 27.7353 65.3659 28.018C65.1186 28.124 64.9949 28.2653 64.9949 28.442C64.9949 28.5127 65.0479 28.6363 65.1539 28.813C65.2599 29.025 65.3129 29.1663 65.3129 29.237L65.2069 29.396C65.2776 29.5727 65.2599 29.7317 65.1539 29.873L64.9949 30.138C65.0303 30.1733 65.0479 30.244 65.0479 30.35C65.0479 30.668 64.8183 30.933 64.3589 31.145L64.2529 31.251C64.2883 31.2863 64.3059 31.3393 64.3059 31.41C64.3059 31.6573 64.1646 31.8163 63.8819 31.887C63.4933 31.993 63.2636 32.0813 63.1929 32.152C63.1223 32.258 63.0163 32.3817 62.8749 32.523C62.7336 32.6643 62.5746 32.8233 62.3979 33C61.6913 33.4593 61.1966 33.6537 60.9139 33.583L60.2779 33.424C60.1013 33.424 59.9246 33.477 59.7479 33.583C59.5713 33.689 59.4299 33.7243 59.3239 33.689L59.1119 33.636H58.8469C58.7056 33.636 58.5996 33.636 58.5289 33.636C58.4583 33.6713 58.4053 33.689 58.3699 33.689C58.4053 33.689 58.4229 33.689 58.4229 33.689ZM59.4829 11.376L59.5889 11.164L59.4299 11.058C59.4299 11.164 59.4476 11.27 59.4829 11.376ZM63.1929 13.178C63.3696 13.178 63.4756 13.072 63.5109 12.86L63.4579 12.171H63.3519C63.2459 12.171 63.1929 12.0827 63.1929 11.906C63.1223 11.7293 63.0339 11.641 62.9279 11.641C62.7866 11.5703 62.6806 11.6233 62.6099 11.8C62.5746 11.8353 62.5569 11.8883 62.5569 11.959C62.5923 12.0297 62.6099 12.1003 62.6099 12.171L62.6629 12.542L62.5039 12.701L63.1929 13.178ZM58.5289 13.867C58.8116 13.761 58.8116 13.6373 58.5289 13.496C58.4583 13.5667 58.4583 13.6903 58.5289 13.867ZM65.4189 13.814L65.3129 13.602L65.1539 13.708L65.4189 13.814ZM58.3699 18.637L58.8999 18.478L59.6419 18.266C59.8893 18.266 60.1543 18.2483 60.4369 18.213C60.7196 18.1423 61.0376 18.0717 61.3909 18.001L61.5499 17.365C61.5853 17.3297 61.6736 17.2767 61.8149 17.206C61.6736 17.0647 61.5499 16.9233 61.4439 16.782C61.3733 16.6407 61.3556 16.4993 61.3909 16.358L61.4439 15.987V15.669C61.4439 15.351 61.3026 15.086 61.0199 14.874C61.0553 14.768 61.0729 14.6267 61.0729 14.45C61.0729 14.1673 60.7549 14.0083 60.1189 13.973C60.0129 13.973 59.8186 14.079 59.5359 14.291L58.6879 14.874C58.8293 14.98 58.8469 15.1213 58.7409 15.298C58.7056 15.4393 58.5819 15.51 58.3699 15.51V15.669C58.4759 15.5983 58.5819 15.6513 58.6879 15.828C58.7586 15.9693 58.7763 16.0577 58.7409 16.093L58.6349 17.683C58.6349 17.789 58.6349 17.8773 58.6349 17.948C58.6703 18.0187 58.6879 18.054 58.6879 18.054C58.6879 18.16 58.6349 18.213 58.5289 18.213C58.4229 18.1423 58.3346 18.054 58.2639 17.948L58.1049 18.054L58.0519 18.372L58.3699 18.637ZM62.0799 15.404C62.1506 15.51 62.2566 15.51 62.3979 15.404C62.2919 15.086 62.1859 15.086 62.0799 15.404ZM58.6879 18.001C58.6879 18.0717 58.6879 18.0893 58.6879 18.054C58.6879 18.054 58.6879 18.0363 58.6879 18.001ZM54.0239 22.188C54.1299 22.1173 54.2713 21.923 54.4479 21.605L54.3949 21.446H54.2889C54.1123 21.446 53.8826 21.5343 53.5999 21.711C53.7059 21.8877 53.8473 22.0467 54.0239 22.188ZM64.1999 21.817C64.2353 21.711 64.2176 21.6227 64.1469 21.552C64.1116 21.5167 64.0233 21.5343 63.8819 21.605C63.8819 21.6757 63.9879 21.7463 64.1999 21.817ZM55.0309 28.919L55.4549 28.707L55.4019 28.495L55.1369 28.442L55.0309 28.548V28.495L54.9779 28.283L54.8189 28.23L54.7129 28.813L55.0309 28.919ZM59.0589 29.767C59.0943 29.6963 59.0766 29.6257 59.0059 29.555C58.9353 29.4843 58.8646 29.4843 58.7939 29.555C58.7939 29.6257 58.8823 29.6963 59.0589 29.767ZM75.4206 33.795L75.0496 33.689C74.8376 33.583 74.6963 33.53 74.6256 33.53L74.2546 33.583H74.0956C74.131 33.583 74.0603 33.5653 73.8836 33.53C73.707 33.53 73.3713 33.477 72.8766 33.371C72.7353 33.1237 72.594 33 72.4526 33L72.1876 33.053C72.1523 33.053 72.117 33.053 72.0816 33.053C72.0463 33.0883 72.011 33.106 71.9756 33.106C71.8343 33.106 71.6753 33.0177 71.4986 32.841C71.428 32.7703 71.3396 32.682 71.2336 32.576C71.1276 32.4347 70.9863 32.2933 70.8096 32.152C70.2443 32.0107 69.8733 31.7633 69.6966 31.41C69.6966 31.198 69.6436 31.0743 69.5376 31.039C69.3963 31.0037 69.3256 30.8977 69.3256 30.721C69.3256 30.509 69.3963 30.191 69.5376 29.767L68.7426 29.449L68.4776 28.389C68.407 28.2123 68.301 28.018 68.1596 27.806C68.0536 27.5587 67.9123 27.2937 67.7356 27.011V26.693C67.7356 26.481 67.771 26.3397 67.8416 26.269C67.877 26.2337 67.983 26.216 68.1596 26.216H68.3186C68.354 26.216 68.3716 26.2337 68.3716 26.269C68.3716 26.269 68.3893 26.269 68.4246 26.269L68.6896 26.11C68.725 26.0747 68.8663 26.057 69.1136 26.057L69.3256 26.11C69.361 26.11 69.3786 26.1277 69.3786 26.163C69.414 26.163 69.4493 26.163 69.4846 26.163L70.1206 25.951L70.2796 25.792C70.421 25.7213 70.5976 25.6683 70.8096 25.633C71.0216 25.5977 71.3043 25.5623 71.6576 25.527L71.8166 25.58C71.7813 25.58 71.7636 25.7037 71.7636 25.951C71.7636 26.1277 71.8696 26.216 72.0816 26.216C72.117 26.216 72.3113 26.004 72.6646 25.58C72.7353 25.792 72.7706 26.1453 72.7706 26.64C72.7706 26.8873 72.8413 27.064 72.9826 27.17C73.0886 27.3467 73.124 27.5233 73.0886 27.7C73.0886 27.7707 73.124 27.806 73.1946 27.806C72.912 27.806 72.7706 27.8767 72.7706 28.018C72.7706 28.2653 72.8943 28.389 73.1416 28.389C73.2123 28.389 73.336 28.2477 73.5126 27.965C73.548 28.0357 73.654 28.23 73.8306 28.548C73.9366 28.654 74.3076 28.866 74.9436 29.184C75.2263 29.29 75.5973 29.343 76.0566 29.343C76.198 29.343 76.357 29.2017 76.5336 28.919C76.781 28.919 77.0106 28.7423 77.2226 28.389C77.1873 28.4243 77.152 28.442 77.1166 28.442C77.1166 28.4067 77.099 28.389 77.0636 28.389C77.0636 28.3537 77.0636 28.3183 77.0636 28.283C77.0636 28.177 77.0813 28.071 77.1166 27.965C77.1873 27.8237 77.2403 27.6823 77.2756 27.541C77.205 27.4703 77.1166 27.3643 77.0106 27.223C76.94 27.0463 76.8516 26.852 76.7456 26.64C76.9223 26.4633 76.887 26.269 76.6396 26.057L76.1096 25.686L76.2156 25.103C76.1096 24.9263 75.6856 24.785 74.9436 24.679L74.7316 24.255C74.555 24.0783 74.3076 23.884 73.9896 23.672C73.8836 23.672 73.7246 23.619 73.5126 23.513C73.4773 23.4777 73.442 23.4423 73.4066 23.407C73.3713 23.3363 73.3183 23.2833 73.2476 23.248C73.2123 23.2127 73.1063 23.195 72.9296 23.195C72.8236 23.1243 72.6646 22.9653 72.4526 22.718L72.3996 22.294C72.2936 22.294 72.0993 22.2587 71.8166 22.188C71.534 22.082 71.322 21.9583 71.1806 21.817L70.8096 21.181C70.4916 20.8983 70.1913 20.598 69.9086 20.28C69.4493 19.8207 69.202 19.4497 69.1666 19.167L69.4846 18.796C69.4493 18.796 69.361 18.796 69.2196 18.796C69.1136 18.796 68.99 18.6723 68.8486 18.425V18.054C68.778 17.8067 68.7073 17.6653 68.6366 17.63C68.6013 17.5593 68.5836 17.5063 68.5836 17.471L68.6366 17.259V16.358C68.672 16.3933 68.725 16.411 68.7956 16.411C68.9723 16.411 69.0606 16.305 69.0606 16.093C69.0606 15.8457 68.884 15.722 68.5306 15.722C68.9193 15.4393 69.1136 15.1743 69.1136 14.927C69.1136 14.6797 68.937 14.45 68.5836 14.238C68.5483 14.0613 68.6013 13.9023 68.7426 13.761L69.1666 13.549C69.202 13.4783 69.2373 13.4077 69.2726 13.337C69.3433 13.231 69.4316 13.1073 69.5376 12.966C69.5023 12.8953 69.467 12.807 69.4316 12.701C69.4316 12.595 69.4316 12.5067 69.4316 12.436C69.4316 12.224 69.467 12.065 69.5376 11.959C69.573 11.9237 69.626 11.906 69.6966 11.906C69.7673 11.906 69.8556 11.8883 69.9616 11.853L70.1736 11.429C70.7036 11.429 70.8803 11.2347 70.7036 10.846H70.7566C70.8626 10.846 70.9863 10.687 71.1276 10.369C71.1983 10.369 71.3926 10.263 71.7106 10.051C71.852 9.90967 72.0463 9.839 72.2936 9.839H72.4526C72.488 9.839 72.5056 9.85667 72.5056 9.892C72.541 9.892 72.5763 9.892 72.6116 9.892L72.8236 9.839C72.8236 9.76833 72.8766 9.68 72.9826 9.574C73.2653 9.362 73.4773 9.256 73.6186 9.256L74.0426 9.362L74.2016 9.309H74.3606C74.8906 9.309 75.2793 9.43267 75.5266 9.68L75.4736 9.945H75.5796C75.615 9.945 75.721 9.85667 75.8976 9.68C76.039 9.53866 76.1803 9.468 76.3216 9.468C76.5336 9.468 76.7103 9.521 76.8516 9.627C77.0283 9.733 77.1343 9.786 77.1696 9.786L77.5936 9.68C77.735 9.64467 77.8233 9.627 77.8586 9.627C77.9293 9.627 77.9823 9.627 78.0176 9.627C78.1236 9.627 78.2296 9.64467 78.3356 9.68L78.5476 9.786C78.583 9.85667 78.7066 9.998 78.9186 10.21H78.9716C79.1836 10.21 79.5193 10.316 79.9786 10.528C80.226 10.7047 80.4203 10.9697 80.5616 11.323L81.0386 12.277C81.0386 12.5597 81.0916 12.9483 81.1976 13.443C81.2683 13.5137 81.3566 13.6197 81.4626 13.761C81.5686 13.867 81.6923 14.0083 81.8336 14.185C81.8336 14.2203 81.816 14.291 81.7806 14.397C81.7806 14.4677 81.763 14.556 81.7276 14.662C81.8336 14.768 81.922 14.9447 81.9926 15.192C82.028 15.298 82.0633 15.3863 82.0986 15.457C82.134 15.5277 82.1693 15.5983 82.2046 15.669V15.934L81.2506 16.305C80.7206 16.4463 80.2613 16.5523 79.8726 16.623C79.5193 16.6937 79.219 16.729 78.9716 16.729L78.8126 16.676C78.7773 16.676 78.742 16.676 78.7066 16.676C78.7066 16.6407 78.689 16.623 78.6536 16.623C78.583 16.623 78.4946 16.676 78.3886 16.782L78.1766 16.994C77.8586 17.1 77.6113 17.153 77.4346 17.153C77.2933 17.153 77.1343 16.994 76.9576 16.676C76.8163 16.4287 76.7456 16.252 76.7456 16.146C76.7456 14.9447 76.7103 14.3793 76.6396 14.45C76.2863 14.238 76.039 14.185 75.8976 14.291H75.8446L75.3676 14.079C75.2263 14.0083 75.1026 13.973 74.9966 13.973C74.926 13.9377 74.873 13.92 74.8376 13.92L74.5726 13.973C74.4666 14.0083 74.3783 14.026 74.3076 14.026C74.237 14.026 74.1663 14.026 74.0956 14.026L73.9896 14.503C73.919 14.5383 73.7776 14.662 73.5656 14.874L73.4066 15.563C73.5833 15.5983 73.707 15.722 73.7776 15.934C73.8483 16.252 73.8836 16.411 73.8836 16.411C73.8483 16.4463 73.6363 16.4993 73.2476 16.57C73.177 16.57 73.1063 16.6053 73.0356 16.676C73.071 16.782 73.3183 16.8703 73.7776 16.941C73.8836 17.047 73.9543 17.2237 73.9896 17.471L74.5726 17.577C74.5726 17.7183 74.6433 17.8773 74.7846 18.054C74.82 18.054 74.9083 18.0893 75.0496 18.16C75.1203 18.3013 75.2263 18.4427 75.3676 18.584C75.5443 18.584 75.7033 18.637 75.8446 18.743C76.0213 18.9197 76.1096 19.0787 76.1096 19.22H76.0036C75.8976 19.22 75.7563 19.273 75.5796 19.379V19.591C75.6503 19.6617 75.7386 19.7323 75.8446 19.803C75.986 19.8383 76.145 19.8383 76.3216 19.803L76.4806 19.75H76.6396L76.8516 19.909C77.0636 19.9443 77.2226 19.962 77.3286 19.962C77.4346 19.962 77.5053 19.962 77.5406 19.962C77.8233 20.0327 78.0176 20.1387 78.1236 20.28C78.2296 20.5627 78.4063 20.8453 78.6536 21.128L79.1836 21.287C79.3603 21.393 79.484 21.552 79.5546 21.764C80.0846 22.2233 80.3496 22.559 80.3496 22.771V22.877L80.9856 23.513C80.9856 23.5837 80.9856 23.672 80.9856 23.778C81.021 23.884 81.0563 24.0077 81.0916 24.149C81.1623 24.1843 81.233 24.2197 81.3036 24.255C81.3743 24.2903 81.445 24.3433 81.5156 24.414C81.7276 24.6613 81.8336 24.8557 81.8336 24.997L81.7276 25.262C81.6923 25.3327 81.657 25.3857 81.6216 25.421C81.6216 25.4563 81.6216 25.4917 81.6216 25.527C81.6216 25.633 81.7453 25.8803 81.9926 26.269C81.9926 26.269 81.9573 26.3573 81.8866 26.534L81.9926 27.011L82.0986 27.382L81.9396 27.912C81.975 27.9827 81.9926 28.1593 81.9926 28.442C81.9573 28.4773 81.922 28.5127 81.8866 28.548C81.8513 28.548 81.816 28.5833 81.7806 28.654L81.3566 29.979C81.3566 30.0497 81.3566 30.1557 81.3566 30.297C81.3566 30.403 81.339 30.5267 81.3036 30.668C81.233 30.9507 80.9503 31.092 80.4556 31.092L80.0846 31.993L79.2896 32.523C79.1836 32.629 78.9363 32.8233 78.5476 33.106H78.1236L77.2756 33.477C76.1803 33.689 75.562 33.795 75.4206 33.795ZM74.4666 10.528C74.502 10.4573 74.4843 10.3867 74.4136 10.316C74.3783 10.2807 74.29 10.2983 74.1486 10.369C74.2193 10.475 74.3253 10.528 74.4666 10.528ZM81.2506 15.51C81.2506 15.2627 81.233 15.139 81.1976 15.139L80.9326 15.086C80.8973 15.086 80.862 15.086 80.8266 15.086C80.7913 15.0507 80.756 15.033 80.7206 15.033C80.65 15.1037 80.6146 15.2273 80.6146 15.404L81.2506 15.51ZM69.9616 15.828C69.9616 15.6867 69.944 15.5983 69.9086 15.563C69.8026 15.5277 69.7143 15.5453 69.6436 15.616C69.6436 15.6867 69.7496 15.7573 69.9616 15.828ZM73.4596 19.591C73.6363 19.5203 73.7246 19.4497 73.7246 19.379C73.7246 19.3083 73.6363 19.2377 73.4596 19.167V19.591ZM69.8556 28.177C69.8556 28.1063 69.8203 28.0003 69.7496 27.859L69.5906 27.912C69.414 27.912 69.361 27.8237 69.4316 27.647L69.3256 27.859C69.361 27.965 69.4316 28.071 69.5376 28.177H69.8556ZM79.7136 29.608C79.6783 29.608 79.908 29.4313 80.4026 29.078V28.866C80.1906 28.6187 79.9963 28.495 79.8196 28.495H79.6606C79.6606 28.5657 79.643 28.654 79.6076 28.76C79.6076 28.8307 79.59 28.919 79.5546 29.025C79.378 29.3077 79.2896 29.449 79.2896 29.449C79.3956 29.555 79.537 29.608 79.7136 29.608ZM74.2546 31.834L73.9366 31.463H73.7246L73.6716 31.622L74.2546 31.834Z" fill="#0080FF"/>
</svg>
