<svg class="animated" id="freepik_stories-building-hashtag" xmlns="http://www.w3.org/2000/svg" viewBox="0 0 750 500" version="1.1" xmlnsXlink="http://www.w3.org/1999/xlink" xmlnsSvgjs="http://svgjs.com/svgjs"><style>svg#freepik_stories-building-hashtag:not(.animated) .animable {opacity: 0;}svg#freepik_stories-building-hashtag.animated #freepik--big-hashtag--inject-25 {animation: 1s 1 forwards cubic-bezier(.36,-0.01,.5,1.38) slideUp;animation-delay: 0s;}svg#freepik_stories-building-hashtag.animated #freepik--small-hashtags--inject-25 {animation: 1.5s Infinite  linear wind;animation-delay: 0s;}svg#freepik_stories-building-hashtag.animated #freepik--Plant--inject-25 {animation: 1s 1 forwards cubic-bezier(.36,-0.01,.5,1.38) fadeIn;animation-delay: 0s;}svg#freepik_stories-building-hashtag.animated #freepik--speech-bubble-3--inject-25 {animation: 1s 1 forwards cubic-bezier(.36,-0.01,.5,1.38) fadeIn,1.5s Infinite  linear floating;animation-delay: 0s,1s;}svg#freepik_stories-building-hashtag.animated #freepik--speech-bubble-2--inject-25 {animation: 1s 1 forwards cubic-bezier(.36,-0.01,.5,1.38) fadeIn,1.5s Infinite  linear floating;animation-delay: 0s,1s;}svg#freepik_stories-building-hashtag.animated #freepik--speech-bubble-1--inject-25 {animation: 1s 1 forwards cubic-bezier(.36,-0.01,.5,1.38) fadeIn,1.5s Infinite  linear floating;animation-delay: 0s,1s;}svg#freepik_stories-building-hashtag.animated #freepik--character-2--inject-25 {animation: 1s 1 forwards cubic-bezier(.36,-0.01,.5,1.38) slideRight;animation-delay: 0s;}svg#freepik_stories-building-hashtag.animated #freepik--character-1--inject-25 {animation: 1s 1 forwards cubic-bezier(.36,-0.01,.5,1.38) slideLeft;animation-delay: 0s;}            @keyframes slideUp {                0% {                    opacity: 0;                    transform: translateY(30px);                }                100% {                    opacity: 1;                    transform: inherit;                }            }                    @keyframes wind {                0% {                    transform: rotate( 0deg );                }                25% {                    transform: rotate( 1deg );                }                75% {                    transform: rotate( -1deg );                }            }                    @keyframes fadeIn {                0% {                    opacity: 0;                }                100% {                    opacity: 1;                }            }                    @keyframes floating {                0% {                    opacity: 1;                    transform: translateY(0px);                }                50% {                    transform: translateY(-10px);                }                100% {                    opacity: 1;                    transform: translateY(0px);                }            }                    @keyframes slideRight {                0% {                    opacity: 0;                    transform: translateX(30px);                }                100% {                    opacity: 1;                    transform: translateX(0);                }            }                    @keyframes slideLeft {                0% {                    opacity: 0;                    transform: translateX(-30px);                }                100% {                    opacity: 1;                    transform: translateX(0);                }            }        </style><g id="freepik--background-complete--inject-25" class="animable" style="transform-origin: 381.401px 181.929px;"><path d="M412.55,88.33h5l11-15.28V63s7.77-.48,6.86,12.66.07,9.8.07,9.8,16.5.06,17.87,1.49c1,1,1.45,17.43,1.62,26.32.09,4.47-2.65,8.63-6.82,9.69a7.18,7.18,0,0,1-1.77.24c-4.11,0-25.14-3.34-25.14-3.34h-8.68Z" style="fill: rgb(224, 224, 224); transform-origin: 433.761px 93.0989px;" id="ellfw8uhsjhr" class="animable"></path><polygon points="398.16 85.58 401.25 119.96 409.86 119.96 409.86 86.27 398.16 85.58" style="fill: rgb(224, 224, 224); transform-origin: 404.01px 102.77px;" id="elsf3gbk839" class="animable"></polygon><polygon points="264.26 252.74 253.42 286.11 261.17 286.11 271.92 252.74 264.26 252.74" style="fill: rgb(235, 235, 235); transform-origin: 262.67px 269.425px;" id="elv3dh4srvilo" class="animable"></polygon><polygon points="277.4 252.81 266.58 286.11 274.33 286.12 285.05 252.81 277.4 252.81" style="fill: rgb(235, 235, 235); transform-origin: 275.815px 269.465px;" id="ele50kqeg9rm" class="animable"></polygon><polygon points="251.74 265.46 254.36 258.02 289.33 258.02 287.04 265.46 251.74 265.46" style="fill: rgb(235, 235, 235); transform-origin: 270.535px 261.74px;" id="el7kdk1t3rdde" class="animable"></polygon><polygon points="248.5 279.19 251.12 271.75 286.09 271.75 283.8 279.19 248.5 279.19" style="fill: rgb(235, 235, 235); transform-origin: 267.295px 275.47px;" id="elvsdmwsplslo" class="animable"></polygon><path d="M78.78,220.68a13,13,0,0,0-3.28-7,12.36,12.36,0,0,0-6.44-4A10,10,0,0,0,58,214.73a10.09,10.09,0,0,0-3-3.24,10.21,10.21,0,0,0-7.82-1.58,12.44,12.44,0,0,0-6.48,4,12.91,12.91,0,0,0-3.35,7,15.73,15.73,0,0,0,1.9,9.68,22.4,22.4,0,0,0,7.62,7.21c5,3,11.56,6.84,11.56,6.84s5.58-4.13,10.6-7.12a22.14,22.14,0,0,0,7.7-7.13A15.67,15.67,0,0,0,78.78,220.68Z" style="fill: rgb(235, 235, 235); transform-origin: 58.0545px 227.034px;" id="ella0jk15gm7p" class="animable"></path><path d="M574.19,254a8.72,8.72,0,0,0-2.21-4.75,8.44,8.44,0,0,0-4.36-2.71,6.76,6.76,0,0,0-7.46,3.44,6.74,6.74,0,0,0-7.28-3.25,8.34,8.34,0,0,0-4.38,2.66,8.78,8.78,0,0,0-2.27,4.73,10.67,10.67,0,0,0,1.29,6.53,14.93,14.93,0,0,0,5.15,4.87c3.37,2.06,7.8,4.63,7.8,4.63s3.78-2.79,7.17-4.81a15,15,0,0,0,5.2-4.82A10.64,10.64,0,0,0,574.19,254Z" style="fill: rgb(235, 235, 235); transform-origin: 560.205px 258.263px;" id="eld50i1ruxcfs" class="animable"></path><path d="M675.31,130.75a15.25,15.25,0,0,0,9.08-14.09c0-8.42-6.34-15.26-14.23-15.3s-14.3,6.75-14.34,15.16a15.21,15.21,0,0,0,9.1,14.23c-22,3.31-21,27.19-21,27.19l52,.24S697.1,134,675.31,130.75Z" style="fill: rgb(235, 235, 235); transform-origin: 669.922px 129.77px;" id="elrcvemf1avwk" class="animable"></path><path d="M132.92,78.71a7.36,7.36,0,0,0,4.38-6.8,6.91,6.91,0,1,0-13.79-.07,7.34,7.34,0,0,0,4.39,6.87c-10.61,1.6-10.13,13.13-10.13,13.13l25.09.12S143.44,80.3,132.92,78.71Z" style="fill: rgb(235, 235, 235); transform-origin: 130.316px 78.2357px;" id="eloqzrfeko3u" class="animable"></path><path d="M715.62,287.61a7.35,7.35,0,0,0,4.39-6.8,6.91,6.91,0,1,0-13.8-.06,7.34,7.34,0,0,0,4.4,6.86c-10.62,1.6-10.13,13.14-10.13,13.14l25.09.11S726.14,289.2,715.62,287.61Z" style="fill: rgb(235, 235, 235); transform-origin: 713.026px 287.18px;" id="eloene3j3vgx" class="animable"></path></g><g id="freepik--Floor--inject-25" class="animable" style="transform-origin: 381px 439.525px;"><path d="M726.74,439.53c0,.14-154.81.26-345.72.26s-345.76-.12-345.76-.26S190,439.26,381,439.26,726.74,439.38,726.74,439.53Z" style="fill: rgb(38, 50, 56); transform-origin: 381px 439.525px;" id="elzb1sq3411ap" class="animable"></path></g><g id="freepik--big-hashtag--inject-25" class="animable" style="transform-origin: 415.285px 275.95px;"><polygon points="329.53 111.51 279.85 439.39 355.98 439.39 404.74 111.51 329.53 111.51" style="fill: rgb(0, 128, 255); transform-origin: 342.295px 275.45px;" id="elpmqsz6znnt" class="animable"></polygon><path d="M329.53,111.51l1.26,0h3.77l14.68,0,55.5-.08h.17l0,.17c-10.73,72.29-28.53,192.24-48.65,327.9l0,.22H279.55l.05-.3c14.19-93.4,26.66-175.39,35.57-234,4.47-29.29,8.05-52.75,10.51-68.9,1.24-8,2.19-14.28,2.84-18.51.33-2.1.58-3.7.74-4.78s.27-1.61.27-1.61l-.24,1.65c-.16,1.09-.39,2.7-.71,4.81-.63,4.24-1.57,10.49-2.77,18.57-2.44,16.17-6,39.65-10.38,69-8.85,58.61-21.23,140.55-35.33,233.91l-.25-.3H356l-.26.22c20.22-135.64,38.1-255.58,48.87-327.86l.15.17-55.41-.08-14.72,0h-3.79Z" style="fill: rgb(38, 50, 56); transform-origin: 342.23px 275.575px;" id="el9qpxgpfmu7" class="animable"></path><polygon points="468.4 113.75 417.51 440.15 492.93 439.36 543.62 113.75 468.4 113.75" style="fill: rgb(0, 128, 255); transform-origin: 480.565px 276.95px;" id="elul611h3cec8" class="animable"></polygon><path d="M468.4,113.75l1.27,0h3.77l14.68,0,55.5-.08h.17l0,.17c-11.17,71.87-29.67,191-50.59,325.63l0,.22h-.71l-74.93.78h-.3l0-.3c14.55-93,27.31-174.59,36.44-233,4.58-29.16,8.25-52.52,10.78-68.59,1.26-8,2.24-14.22,2.91-18.43.33-2.09.58-3.68.76-4.76s.26-1.6.26-1.6-.07.56-.23,1.64-.41,2.69-.73,4.79l-2.85,18.49L454,207.34c-9.07,58.35-21.76,139.93-36.2,232.85l-.26-.3,74.93-.79h.49l-.25.22c21-134.65,39.59-253.73,50.8-325.6l.15.18-55.42-.08-14.71,0-3.79,0Z" style="fill: rgb(38, 50, 56); transform-origin: 480.525px 277.07px;" id="elayqirenpgh5" class="animable"></path><polygon points="251.03 231.06 274.79 158.01 608.61 158.01 591.72 231.06 251.03 231.06" style="fill: rgb(0, 128, 255); transform-origin: 429.82px 194.535px;" id="elmcdv00yg6y" class="animable"></polygon><path d="M251,231.06l340.69-.26-.25.2c5.26-22.72,10.73-46.41,16.32-70.58.19-.84.38-1.67.57-2.47l.25.32-333.83-.11.15-.11-23.9,73c.35-1.07,8.69-26.91,23.61-73.1l0-.1h.1l333.83-.11h.33l-.07.32-.58,2.46c-5.59,24.18-11.06,47.86-16.32,70.59l0,.2h-.21Z" style="fill: rgb(38, 50, 56); transform-origin: 429.935px 194.525px;" id="el5zdvtw4ild8" class="animable"></path><polygon points="221.7 368.03 245.45 294.98 579.28 294.98 562.39 368.03 221.7 368.03" style="fill: rgb(0, 128, 255); transform-origin: 400.49px 331.505px;" id="elqkyh0p5qc3" class="animable"></polygon><path d="M221.7,368l340.69-.25-.25.19c5.25-22.72,10.73-46.4,16.31-70.58.2-.84.39-1.67.57-2.47l.26.32-333.83-.11.14-.1C230.5,341.16,222.05,367,221.7,368l23.61-73.1,0-.1h.11l333.83-.11h.33l-.08.32c-.18.8-.38,1.63-.57,2.47-5.59,24.18-11.06,47.85-16.32,70.58l0,.2h-.2Z" style="fill: rgb(38, 50, 56); transform-origin: 400.64px 331.475px;" id="elzwi6z1v8xqa" class="animable"></path><g id="elpwhj8l3tjbh"><g style="opacity: 0.3; transform-origin: 348.26px 240.07px;" class="animable"><polygon points="309.12 249.08 384.92 247.71 387.4 231.06 311.85 231.06 309.12 249.08" id="elhxm25kxda2h" class="animable" style="transform-origin: 348.26px 240.07px;"></polygon></g></g><g id="el55fq8hm50ih"><g style="opacity: 0.3; transform-origin: 486.18px 240.455px;" class="animable"><polygon points="446.95 249.85 522.2 249.85 525.41 231.06 449.85 231.06 446.95 249.85" id="el5xtr8t6paee" class="animable" style="transform-origin: 486.18px 240.455px;"></polygon></g></g><g id="elpwhm6ss67b"><g style="opacity: 0.3; transform-origin: 327.09px 376.755px;" class="animable"><polygon points="363.92 385.48 288.14 384.68 290.44 368.03 366.04 368.03 363.92 385.48" id="elkmehzpacs8f" class="animable" style="transform-origin: 327.09px 376.755px;"></polygon></g></g><g id="ell95qsxk91"><g style="opacity: 0.3; transform-origin: 465.51px 376.76px;" class="animable"><polygon points="501.18 385.48 426.56 384.69 428.86 368.04 504.46 368.04 501.18 385.48" id="elz0u5ssg813b" class="animable" style="transform-origin: 465.51px 376.76px;"></polygon></g></g></g><g id="freepik--small-hashtags--inject-25" class="animable" style="transform-origin: 413.22px 103.935px;"><polygon points="234.15 75.9 215.95 131.95 228.96 131.95 247.01 75.9 234.15 75.9" style="fill: rgb(0, 128, 255); transform-origin: 231.48px 103.925px;" id="ellgxu7yb2yfe" class="animable"></polygon><polygon points="256.21 76.03 238.05 131.95 251.06 131.97 269.07 76.03 256.21 76.03" style="fill: rgb(0, 128, 255); transform-origin: 253.56px 104px;" id="elh7q93ievoqt" class="animable"></polygon><polygon points="213.12 97.27 217.52 84.78 276.25 84.78 272.41 97.27 213.12 97.27" style="fill: rgb(0, 128, 255); transform-origin: 244.685px 91.025px;" id="eliko83jofrz" class="animable"></polygon><polygon points="207.68 120.33 212.07 107.84 270.81 107.84 266.97 120.33 207.68 120.33" style="fill: rgb(0, 128, 255); transform-origin: 239.245px 114.085px;" id="elxl1tpsxwklg" class="animable"></polygon><polygon points="589.88 89.27 577.39 127.73 586.32 127.73 598.7 89.27 589.88 89.27" style="fill: rgb(69, 90, 100); transform-origin: 588.045px 108.5px;" id="elf6qdrxjxowp" class="animable"></polygon><polygon points="605.01 89.36 592.55 127.73 601.48 127.74 613.83 89.36 605.01 89.36" style="fill: rgb(69, 90, 100); transform-origin: 603.19px 108.55px;" id="el7h4giugnr6" class="animable"></polygon><polygon points="575.45 103.94 578.47 95.37 618.76 95.37 616.12 103.94 575.45 103.94" style="fill: rgb(69, 90, 100); transform-origin: 597.105px 99.655px;" id="elkdedsia29gi" class="animable"></polygon><polygon points="571.72 119.75 574.73 111.19 615.03 111.19 612.39 119.75 571.72 119.75" style="fill: rgb(69, 90, 100); transform-origin: 593.375px 115.47px;" id="elfyi24qbk8uu" class="animable"></polygon></g><g id="freepik--Plant--inject-25" class="animable" style="transform-origin: 204.215px 372.443px;"><path d="M204.6,413.27S200.72,386.54,201,371s0-33.05,0-33.05h1.79s-1.21,30.87.11,49.49,4.8,25.84,4.8,25.84H204.6" style="fill: rgb(38, 50, 56); transform-origin: 204.343px 375.615px;" id="elkcqqk4phi9r" class="animable"></path><path d="M216.19,307.87a4.82,4.82,0,0,0-1.64-2.39c-1.13-.72-2.62-.42-3.89,0-5.42,1.91-10.21,12-12.4,17.31L205.44,347C218.42,335,220.66,319.22,216.19,307.87Z" style="fill: rgb(69, 90, 100); transform-origin: 208.277px 326.023px;" id="el9yu290018we" class="animable"></path><path d="M214.13,306.46a1.2,1.2,0,0,1-.1.32l-.35.88c-.32.76-.76,1.87-1.29,3.24-1.06,2.75-2.4,6.6-3.61,10.93s-2,8.32-2.54,11.22c-.25,1.45-.45,2.63-.57,3.45l-.15.93a1.3,1.3,0,0,1-.08.33,1.63,1.63,0,0,1,0-.33l.1-.95c.08-.82.25-2,.48-3.46a101.86,101.86,0,0,1,2.45-11.27,103.77,103.77,0,0,1,3.71-10.92c.55-1.37,1-2.47,1.37-3.22.17-.35.3-.63.4-.86A2.18,2.18,0,0,1,214.13,306.46Z" style="fill: rgb(38, 50, 56); transform-origin: 209.781px 322.11px;" id="el2uwa5pnc2p6" class="animable"></path><path d="M202.25,352.84a21.91,21.91,0,0,1-11.08-18.41c-.25-5.37,1.4-10.64,3.27-15.69a2,2,0,0,1,.76-1.14,1.93,1.93,0,0,1,1.83.29c4.9,2.79,7.86,8.1,9.44,13.51a27.2,27.2,0,0,1,1.11,11.11,18.42,18.42,0,0,1-5.33,10.33" style="fill: rgb(69, 90, 100); transform-origin: 199.44px 335.164px;" id="elj6imhx7mteo" class="animable"></path><path d="M202.25,352.84a1.34,1.34,0,0,1,0-.32v-.93c0-.81,0-2-.1-3.41A94.26,94.26,0,0,0,200.86,337c-.75-4.34-1.66-8.22-2.33-11-.33-1.37-.6-2.5-.79-3.32-.09-.37-.16-.67-.21-.91a1,1,0,0,1-.05-.32,2,2,0,0,1,.11.31c.07.23.15.53.26.89.22.78.52,1.9.89,3.3.72,2.8,1.66,6.68,2.41,11a81.53,81.53,0,0,1,1.16,11.23c0,1.44.05,2.61,0,3.42,0,.38,0,.68,0,.93A1.34,1.34,0,0,1,202.25,352.84Z" style="fill: rgb(38, 50, 56); transform-origin: 199.906px 337.145px;" id="elwxp9twiaaun" class="animable"></path><g id="el5bhqyssv80x"><g style="opacity: 0.3; transform-origin: 199.44px 335.164px;" class="animable"><path d="M202.25,352.84a21.91,21.91,0,0,1-11.08-18.41c-.25-5.37,1.4-10.64,3.27-15.69a2,2,0,0,1,.76-1.14,1.93,1.93,0,0,1,1.83.29c4.9,2.79,7.86,8.1,9.44,13.51a27.2,27.2,0,0,1,1.11,11.11,18.42,18.42,0,0,1-5.33,10.33" id="elj4amr994j5r" class="animable" style="transform-origin: 199.44px 335.164px;"></path></g></g><path d="M209.85,393.74c6.63,1.46,12.09,6.13,18.48,8.41,4.24,1.5,9,2,12.4,5-.81-2-2.73-3.41-4.6-4.57a82,82,0,0,0-16.75-8c-3-1-6.28-1.91-9.34-1.05" style="fill: rgb(69, 90, 100); transform-origin: 225.29px 400.169px;" id="elffdaresp3ts" class="animable"></path><path d="M200.27,399.65c-8.31-.14-17.05-7.21-25.31-7.63,8.64-2.79,21-.51,25.31,7.63" style="fill: rgb(69, 90, 100); transform-origin: 187.615px 395.267px;" id="el5i4ldahiii" class="animable"></path><path d="M203.51,379.73a27,27,0,0,1,13.27-.9,81.16,81.16,0,0,1,13,3.52c-.43-2.88-2.76-5.05-5-7a34.51,34.51,0,0,0-5.2-4,11.6,11.6,0,0,0-6.24-1.77,9.9,9.9,0,0,0-6.89,3.48,11.43,11.43,0,0,0-3,6.63" style="fill: rgb(69, 90, 100); transform-origin: 216.615px 375.965px;" id="elny5next4qh" class="animable"></path><path d="M186.47,370.56c-5.23-4.46-13.14-4-20-3.87a162.77,162.77,0,0,1,31,19.34C197.77,381.18,193.07,376.2,186.47,370.56Z" style="fill: rgb(69, 90, 100); transform-origin: 181.977px 376.321px;" id="els0c66a2v21f" class="animable"></path><g id="eludaifwhuwtj"><g style="opacity: 0.3; transform-origin: 181.977px 376.321px;" class="animable"><path d="M186.47,370.56c-5.23-4.46-13.14-4-20-3.87a162.77,162.77,0,0,1,31,19.34C197.77,381.18,193.07,376.2,186.47,370.56Z" id="el13h1imkdp4e" class="animable" style="transform-origin: 181.977px 376.321px;"></path></g></g><path d="M205.86,364.4a58.58,58.58,0,0,1,8-4.67c2.75-1.25,5.31-3.24,8-4.68,3.45-1.86,6.43-4.46,9.59-6.77s6.64-4.4,10.51-5a20.65,20.65,0,0,0-9.56.55,62.3,62.3,0,0,0-9,3.5c-4.08,1.84-8.22,3.72-11.56,6.7s-6.34,5.93-6,10.38" style="fill: rgb(69, 90, 100); transform-origin: 223.887px 353.685px;" id="el9m3y189tpvl" class="animable"></path><path d="M228.18,399.65a1,1,0,0,1-.26-.12l-.72-.37c-.63-.33-1.53-.83-2.66-1.4-.56-.29-1.18-.6-1.85-.92s-1.39-.65-2.16-1a31.48,31.48,0,0,0-5.11-1.79,11.08,11.08,0,0,0-5.32-.13,15.9,15.9,0,0,0-2.26.67,11.79,11.79,0,0,0-4.11,2.83c-.48.52-.72.83-.74.82a1.28,1.28,0,0,1,.15-.25c.1-.15.27-.37.5-.65a11.07,11.07,0,0,1,2.26-2,11.43,11.43,0,0,1,1.85-1,14.51,14.51,0,0,1,2.28-.71,11,11,0,0,1,5.46.11,29.26,29.26,0,0,1,5.15,1.82c.77.34,1.49.67,2.16,1s1.29.65,1.84,1c1.12.59,2,1.11,2.61,1.48l.7.42C228.11,399.58,228.19,399.64,228.18,399.65Z" style="fill: rgb(38, 50, 56); transform-origin: 215.585px 396.494px;" id="elmh2u84fxep" class="animable"></path><path d="M194.07,395.53a2.1,2.1,0,0,1,.52.15c.33.12.8.32,1.36.59a16.37,16.37,0,0,1,4,2.82,16,16,0,0,1,3,3.85,10,10,0,0,1,.64,1.33,2,2,0,0,1,.18.51s-.36-.68-1-1.74a18.33,18.33,0,0,0-6.85-6.58C194.77,395.86,194.05,395.58,194.07,395.53Z" style="fill: rgb(38, 50, 56); transform-origin: 198.92px 400.155px;" id="elct7q2jutdrp" class="animable"></path><path d="M175.7,370.15a1.3,1.3,0,0,1,.36.1l1,.36,1.57.57c.62.23,1.28.57,2,.9A47.9,47.9,0,0,1,191.46,379a51.67,51.67,0,0,1,5,5,55.76,55.76,0,0,1,3.58,4.53c.95,1.35,1.67,2.46,2.16,3.24l.57.89a1.21,1.21,0,0,1,.18.32s-.09-.09-.23-.29-.36-.48-.62-.86c-.52-.75-1.26-1.85-2.23-3.17s-2.18-2.86-3.61-4.48a56.24,56.24,0,0,0-5-4.92,50.72,50.72,0,0,0-10.71-6.92c-.74-.34-1.4-.69-2-.93l-1.55-.63-1-.4A2.17,2.17,0,0,1,175.7,370.15Z" style="fill: rgb(38, 50, 56); transform-origin: 189.325px 381.565px;" id="el1xjy85u0uw2" class="animable"></path><path d="M216,375.06a2.88,2.88,0,0,1-.66-.08l-.77-.14c-.29-.06-.64-.06-1-.1a10.33,10.33,0,0,0-5.7,1.13,10.45,10.45,0,0,0-2.6,1.92,11.57,11.57,0,0,0-1.67,2.07,17.45,17.45,0,0,0-1.14,2.17,2.25,2.25,0,0,1,.17-.64,9.31,9.31,0,0,1,.79-1.64A10.94,10.94,0,0,1,205,377.6a10.07,10.07,0,0,1,8.51-3.07c.38.05.73.07,1,.14l.76.2A2.69,2.69,0,0,1,216,375.06Z" style="fill: rgb(38, 50, 56); transform-origin: 209.23px 378.244px;" id="el2u35ocr0hv6" class="animable"></path><path d="M224.31,349.18a1.56,1.56,0,0,1-.31.19l-.93.5c-.8.44-2,1.08-3.37,1.91s-3,1.87-4.81,3.13a40.43,40.43,0,0,0-5.37,4.5,13.31,13.31,0,0,0-2.2,2.84c-.54,1-1.06,2.05-1.54,3a56.92,56.92,0,0,0-2.31,5.25,33.32,33.32,0,0,0-1.12,3.7c-.21.89-.29,1.39-.32,1.39a1.44,1.44,0,0,1,0-.37c0-.24.08-.59.17-1a27.11,27.11,0,0,1,1-3.75,50,50,0,0,1,2.26-5.3c.47-1,1-2,1.52-3a13.9,13.9,0,0,1,2.25-2.92,38.87,38.87,0,0,1,5.42-4.52c1.77-1.25,3.44-2.26,4.86-3.08s2.61-1.43,3.43-1.83l.95-.45Z" style="fill: rgb(38, 50, 56); transform-origin: 213.164px 362.385px;" id="el3w59ggscwjo" class="animable"></path><path d="M201,374.32a3.21,3.21,0,0,1-.16-.7c-.1-.52-.22-1.16-.37-1.92a52.87,52.87,0,0,0-1.57-6.23,54.71,54.71,0,0,0-2.37-6c-.32-.7-.59-1.3-.81-1.77a2.81,2.81,0,0,1-.26-.67,5,5,0,0,1,.37.62c.22.4.53,1,.89,1.73a42.37,42.37,0,0,1,2.46,6,43.43,43.43,0,0,1,1.5,6.28c.13.82.22,1.48.27,1.94A3.5,3.5,0,0,1,201,374.32Z" style="fill: rgb(38, 50, 56); transform-origin: 198.231px 365.675px;" id="el8bx4n5icgv" class="animable"></path><path d="M200.43,355.43a22.57,22.57,0,0,0-2.7-9,29.57,29.57,0,0,0-20.06-14.95l18.57,27.67,2.4,4.94A14.15,14.15,0,0,0,200.43,355.43Z" style="fill: rgb(69, 90, 100); transform-origin: 189.096px 347.785px;" id="elceczr3kfr56" class="animable"></path><rect x="183.89" y="409.97" width="43.17" height="7.65" style="fill: rgb(0, 128, 255); transform-origin: 205.475px 413.795px;" id="el1h7hghl3dfq" class="animable"></rect><polygon points="187.11 416.1 190.79 439.84 219.45 439.84 223.84 416.1 187.11 416.1" style="fill: rgb(0, 128, 255); transform-origin: 205.475px 427.97px;" id="el6qexn4qx73q" class="animable"></polygon><path d="M227,417.63c0,.08-9.74.15-21.75.15s-21.75-.07-21.75-.15,9.74-.15,21.75-.15S227,417.54,227,417.63Z" style="fill: rgb(38, 50, 56); transform-origin: 205.25px 417.63px;" id="eljal1108yf8b" class="animable"></path></g><g id="freepik--Device--inject-25" class="animable" style="transform-origin: 560.276px 413.74px;"><path d="M512.51,391.05l9.69,47.55h84.06a1.68,1.68,0,0,0,1.67-1.68h0a1.68,1.68,0,0,0-1.67-1.68H589.33l-9-44.22a1.85,1.85,0,0,0-1.78-1.47l-64.25-.7A1.84,1.84,0,0,0,512.51,391.05Z" style="fill: rgb(224, 224, 224); transform-origin: 560.202px 413.725px;" id="elg8up9gegmho" class="animable"></path><path d="M512.51,391.05a1.13,1.13,0,0,1,0-.14,1.42,1.42,0,0,1,0-.43,1.82,1.82,0,0,1,.89-1.39,1.92,1.92,0,0,1,.55-.22,3,3,0,0,1,.67,0h1.51l3.78,0,24.29.23,16.94.17,9.48.1,5,.05,2.54,0c.22,0,.42,0,.65,0a2,2,0,0,1,.65.19,1.93,1.93,0,0,1,.92,1,2.68,2.68,0,0,1,.18.64l.13.64c.09.43.17.86.26,1.29.18.86.35,1.72.53,2.59q.52,2.63,1.07,5.29,1.1,5.35,2.23,10.95c1.52,7.45,3.09,15.21,4.72,23.19l-.12-.09H606a3,3,0,0,1,.66,0,1.79,1.79,0,0,1,1.4,2,1.84,1.84,0,0,1-.92,1.31,2,2,0,0,1-.79.21H561.67l-39.47,0h-.07l0-.07c-3-14.61-5.37-26.5-7-34.73-.83-4.12-1.48-7.32-1.91-9.5-.22-1.09-.38-1.92-.5-2.48s-.16-.85-.16-.85.07.29.19.84l.52,2.48c.44,2.17,1.11,5.37,1.95,9.49,1.69,8.23,4.12,20.11,7.12,34.72l-.09-.07,39.47,0h44.64a1.66,1.66,0,0,0,.69-.19,1.58,1.58,0,0,0,.8-1.14,1.56,1.56,0,0,0-1.22-1.76,3.91,3.91,0,0,0-.61,0H589.24l0-.09-4.7-23.2c-.76-3.72-1.5-7.38-2.22-10.94-.37-1.79-.72-3.55-1.08-5.29-.17-.88-.35-1.74-.52-2.6-.09-.43-.18-.86-.26-1.29l-.13-.64a3.51,3.51,0,0,0-.16-.6,1.76,1.76,0,0,0-.83-.87,1.69,1.69,0,0,0-.58-.17h-.63l-2.55,0-5-.06-9.49-.11-16.93-.2-24.29-.3-3.78-.05-1.51,0a2.82,2.82,0,0,0-.66,0,1.6,1.6,0,0,0-.54.21,1.83,1.83,0,0,0-.89,1.35A3.06,3.06,0,0,0,512.51,391.05Z" style="fill: rgb(38, 50, 56); transform-origin: 560.282px 413.741px;" id="elkl35cm8g8eq" class="animable"></path><path d="M551.25,412.81a2.78,2.78,0,1,1-2.78-2.78A2.78,2.78,0,0,1,551.25,412.81Z" style="fill: rgb(255, 255, 255); transform-origin: 548.47px 412.81px;" id="el9biuz0k1e5f" class="animable"></path><path d="M512.59,391.44H517l12,.06,39.65.28,5.74,0h1.4a3.54,3.54,0,0,1,.72.05,2,2,0,0,1,1.54,1.43c.1.46.18.9.27,1.36.71,3.58,1.4,7,2,10.32,1.3,6.58,2.48,12.51,3.46,17.49s1.76,9,2.31,11.79c.27,1.39.47,2.47.62,3.21l.15.84c0,.19.05.29.05.29s0-.1-.07-.29l-.18-.83c-.15-.74-.37-1.81-.66-3.2-.56-2.79-1.38-6.81-2.38-11.78s-2.19-10.9-3.51-17.48c-.65-3.29-1.34-6.74-2.06-10.32-.09-.44-.17-.91-.27-1.34a1.74,1.74,0,0,0-.76-1,1.86,1.86,0,0,0-.6-.25,3.71,3.71,0,0,0-.68,0H574.4l-5.73,0L529,391.65l-12-.13-3.27,0-.85,0Z" style="fill: rgb(38, 50, 56); transform-origin: 549.75px 415px;" id="elldxo3c200bd" class="animable"></path></g><g id="freepik--speech-bubble-3--inject-25" class="animable" style="transform-origin: 676.702px 200.925px;"><path d="M655.86,226.14l7.74-2.67a26,26,0,1,0-7.1-6.06h0Z" style="fill: rgb(255, 255, 255); transform-origin: 676.655px 200.985px;" id="el95qsin95km" class="animable"></path><path d="M655.86,226.14l.06-.59c0-.39.08-1,.14-1.68.12-1.48.3-3.65.53-6.46l-.16.07h0a.12.12,0,0,0,.15,0,.12.12,0,0,0,0-.13,26.13,26.13,0,0,1-5.33-11.59A26.22,26.22,0,0,1,654,188.63a25.79,25.79,0,0,1,39.17-7.45,25.51,25.51,0,0,1,7.34,10,26.29,26.29,0,0,1,1.89,11.69,25.93,25.93,0,0,1-9.94,18.52,25.92,25.92,0,0,1-28.81,2,.08.08,0,0,0-.08,0l-5.71,2-1.49.54-.51.19.48-.15,1.48-.48,5.82-1.94h-.09a26.09,26.09,0,0,0,29.16-1.87,26.46,26.46,0,0,0,6.86-7.95,26.16,26.16,0,0,0,3.29-10.86,26.67,26.67,0,0,0-1.92-11.9,26,26,0,0,0-7.46-10.17,26.21,26.21,0,0,0-39.83,7.63,25.94,25.94,0,0,0-2.92,9,25.6,25.6,0,0,0,.21,8.38,26,26,0,0,0,5.48,11.66l.14-.15h0a.1.1,0,0,0-.14,0s0,0,0,0c-.18,2.85-.32,5-.41,6.55,0,.71-.08,1.26-.1,1.66S655.86,226.14,655.86,226.14Z" style="fill: rgb(38, 50, 56); transform-origin: 676.702px 200.925px;" id="el6zgkqy7sc36" class="animable"></path><path d="M682.16,202.82h3.74V206h-4.12l-.58,4.62H678l.57-4.62h-4.23l-.58,4.62h-3.23l.58-4.62h-3.78v-3.14h4.15l.61-4.67h-3.78V195h4.15l.58-4.62h3.23l-.58,4.62h4.24l.58-4.62h3.22l-.57,4.62h3.75l0,3.14h-4.16Zm-3.26,0,.6-4.67h-4.23l-.61,4.67Z" style="fill: rgb(0, 128, 255); transform-origin: 677.12px 200.5px;" id="elhgfi7dko7ei" class="animable"></path></g><g id="freepik--speech-bubble-2--inject-25" class="animable" style="transform-origin: 202.063px 261.568px;"><path d="M226,275l-2.71-6a23.12,23.12,0,1,0-4.05,7.24h0Z" style="fill: rgb(255, 255, 255); transform-origin: 202.147px 261.516px;" id="elc1rf26h0a1e" class="animable"></path><path d="M226,275l-.42.09-1.28.26-5.05,1a.08.08,0,0,1-.09-.06.06.06,0,0,1,0,0h0l.12.07a23.06,23.06,0,0,1-9,6.72,23.46,23.46,0,0,1-3.41,1.1c-.6.16-1.23.23-1.86.35-.32.05-.64.13-1,.16l-1,.07a23,23,0,0,1-16.5-5.31,23.49,23.49,0,0,1-6.15-7.9,23.27,23.27,0,0,1,.65-21.17l.71-1.25.83-1.18.41-.59c.14-.18.31-.36.46-.54l.92-1.09c.32-.35.68-.66,1-1a13.3,13.3,0,0,1,1-.95,22.47,22.47,0,0,1,2.25-1.66,23.09,23.09,0,0,1,20.11-2.59A23.26,23.26,0,0,1,222,250.82a23.5,23.5,0,0,1,1.5,3.56,28.42,28.42,0,0,1,.84,3.49,23.07,23.07,0,0,1-1,11.19V269c.86,1.95,1.53,3.45,2,4.48.22.5.39.88.5,1.15s.16.38.16.38l-.19-.4c-.13-.27-.3-.65-.54-1.15l-2-4.4a0,0,0,0,1,0-.05,23.05,23.05,0,0,0,.91-11.11,27.51,27.51,0,0,0-.85-3.45,23.32,23.32,0,0,0-6.64-10.08,23.08,23.08,0,0,0-17.86-5.63,23.29,23.29,0,0,0-9.94,3.63,21.67,21.67,0,0,0-2.21,1.63,11.24,11.24,0,0,0-1,.94c-.33.33-.68.63-1,1l-.92,1.06c-.15.18-.31.36-.45.54l-.4.58-.82,1.16-.7,1.24a22.95,22.95,0,0,0-.65,20.86A22.94,22.94,0,0,0,203,284.46l1-.07c.32,0,.63-.1,1-.14.62-.12,1.25-.19,1.84-.34a22.29,22.29,0,0,0,3.38-1.08,23.22,23.22,0,0,0,9-6.6.08.08,0,0,1,.1,0,.07.07,0,0,1,0,.09h0l-.08-.1,5-.9,1.31-.23Z" style="fill: rgb(38, 50, 56); transform-origin: 202.063px 261.568px;" id="elg1diu5vdcx7" class="animable"></path><path d="M211.44,260.23a5.91,5.91,0,0,0-1.51-3.22,5.59,5.59,0,0,0-3-1.84,4.6,4.6,0,0,0-5.08,2.33,4.59,4.59,0,0,0-1.36-1.48,4.66,4.66,0,0,0-3.59-.73,5.71,5.71,0,0,0-3,1.82,5.86,5.86,0,0,0-1.54,3.21,7.21,7.21,0,0,0,.87,4.44,10.28,10.28,0,0,0,3.5,3.31c2.29,1.39,5.31,3.14,5.31,3.14s2.56-1.9,4.87-3.27a10.16,10.16,0,0,0,3.53-3.27A7.28,7.28,0,0,0,211.44,260.23Z" style="fill: rgb(0, 128, 255); transform-origin: 201.888px 263.133px;" id="elnxkkw73u8o" class="animable"></path></g><g id="freepik--speech-bubble-1--inject-25" class="animable" style="transform-origin: 110.345px 151.718px;"><path d="M136.85,166.57l-4-6.8a25.09,25.09,0,1,0-4.37,7.86h0Z" style="fill: rgb(255, 255, 255); transform-origin: 110.426px 151.706px;" id="el26vsoa0na8q" class="animable"></path><path d="M136.85,166.57l-.56.06-1.62.18-6.2.73.1.14h0a.1.1,0,0,0-.05-.13.1.1,0,0,0-.12,0,25.13,25.13,0,0,1-9.92,7.24,24.38,24.38,0,0,1-7.77,1.73,24.84,24.84,0,0,1-15.4-45.42,25.19,25.19,0,0,1,10.67-4,25,25,0,0,1,19.37,5.84,24.94,24.94,0,0,1,7.41,26.8.11.11,0,0,0,0,.08l3,5,.79,1.3.28.45-.23-.43-.74-1.3-2.94-5.12v.08a24.9,24.9,0,0,0,1-12.32,25.26,25.26,0,0,0-28-20.81,25.65,25.65,0,0,0-10.86,4.07,24.94,24.94,0,0,0-8.17,9,25.2,25.2,0,0,0,23.84,37.16,24.41,24.41,0,0,0,7.87-1.8,25.1,25.1,0,0,0,10-7.4l-.17-.1h0a.1.1,0,0,0,.05.13h.06l6.25-.86,1.58-.23Z" style="fill: rgb(38, 50, 56); transform-origin: 110.345px 151.718px;" id="elqbeggu6rhmk" class="animable"></path><path d="M115.79,151.74a2.38,2.38,0,1,0,2.38-2.38A2.38,2.38,0,0,0,115.79,151.74Z" style="fill: rgb(38, 50, 56); transform-origin: 118.17px 151.74px;" id="el5zguvo4alwm" class="animable"></path><path d="M106.26,151.74a2.38,2.38,0,1,0,2.38-2.38A2.39,2.39,0,0,0,106.26,151.74Z" style="fill: rgb(38, 50, 56); transform-origin: 108.64px 151.74px;" id="elk8iy4q4sim" class="animable"></path><path d="M96.75,150.55a2.38,2.38,0,1,0,3.26-.88A2.39,2.39,0,0,0,96.75,150.55Z" style="fill: rgb(38, 50, 56); transform-origin: 98.8172px 151.731px;" id="el5xbax32egto" class="animable"></path></g><g id="freepik--character-2--inject-25" class="animable" style="transform-origin: 628.632px 346.429px;"><polygon points="580.7 311.42 611.79 323.51 623.13 314.17 631.01 322.57 610.34 335.1 579.2 318.85 580.7 311.42" style="fill: rgb(125, 67, 54); transform-origin: 605.105px 323.26px;" id="el8igb9r7dt45" class="animable"></polygon><path d="M636.44,297.45a34,34,0,0,1-3.08,4.05c-1.67,1.92-13.45,13.95-13.45,13.95l4.39,5.77,9.71-2.84Z" style="fill: rgb(224, 224, 224); transform-origin: 628.175px 309.335px;" id="el9ql1borlx1" class="animable"></path><path d="M624.29,321.25v0l-4.4-5.78,0,0c.11-.12,11.79-12.05,13.44-13.95a35.1,35.1,0,0,0,3.08-4l.06-.09v.11L634,318.4h0Zm-4.34-5.8,4.36,5.74,9.68-2.83,2.41-20.8a35.86,35.86,0,0,1-3,3.95C631.75,303.38,620.43,315,620,315.45Z" style="fill: rgb(38, 50, 56); transform-origin: 628.18px 309.34px;" id="elcixmkh6o8xl" class="animable"></path><path d="M646.16,243.7c2.08-2.87,8-3.15,9.55-1.59a4.49,4.49,0,0,1,6.06,1.27l6.38.65a6.7,6.7,0,0,1,3.12.87,2.24,2.24,0,0,1,.86,2.84,3.41,3.41,0,0,1,2,5.25,2.38,2.38,0,0,1,0,3.45,23.84,23.84,0,0,1,4.8,6.47,4.89,4.89,0,0,1,.68,3.24c-.27,1.1-1.57,2-2.56,1.43a2.76,2.76,0,0,1,.47,3c1.06-.1,1.56,1.49.92,2.34a3.86,3.86,0,0,1-2.85,1.16,5,5,0,0,0-3,.87,1,1,0,0,0,.42.63,4.35,4.35,0,0,1,1.63,5.78c-.1.19-.2.37-.29.52a9.4,9.4,0,0,1-2.81,2.5c-2.24,1.51-3.68,1.44-6.29,2.13.92,1.63-3,5.91-8.33,2.75A95.76,95.76,0,0,1,630.27,296c-1.46.17-3.23.17-4-1.06a3.61,3.61,0,0,1-3.45-.71,10.67,10.67,0,0,1-2.31-2.85,6.39,6.39,0,0,1-5.21-5.19,7.9,7.9,0,0,1-3.59-5.24,4.63,4.63,0,0,1-3.35-5.91,28,28,0,0,1,2-8.93c-1.71-.17-2.6-2.35-2.09-4s1.91-2.82,3.25-3.9c-1.21.47-2.48-1-2.32-2.26a5,5,0,0,1,2.21-3.08,24.3,24.3,0,0,1,4.91-2.9c.35-2.26,2.87-5.08,4.81-6.29,7.85-4.87,13.55-6.53,25,0" style="fill: rgb(38, 50, 56); transform-origin: 643.892px 267.731px;" id="eli5szt4eccxq" class="animable"></path><path d="M624.87,262.15c0-5.79,3.39-13.1,9.17-12.84l18.22,3.43a3.39,3.39,0,0,1,3.23,3.24l1.75,38.47a10.56,10.56,0,0,1-8,10.72h0A10.56,10.56,0,0,1,636.19,296c-.27-2.63-.49-4.6-.49-4.59s-7.44-.77-9.55-10.28C625.1,276.42,624.86,268.58,624.87,262.15Z" style="fill: rgb(194, 116, 97); transform-origin: 641.06px 277.392px;" id="el3xd4znafb0h" class="animable"></path><path d="M627.8,270.23a1.23,1.23,0,0,0,1.26,1.17,1.18,1.18,0,0,0,1.2-1.19A1.23,1.23,0,0,0,629,269,1.18,1.18,0,0,0,627.8,270.23Z" style="fill: rgb(38, 50, 56); transform-origin: 629.029px 270.2px;" id="elht0jkgllkr5" class="animable"></path><path d="M626.82,266.12c.16.15,1-.6,2.38-.68s2.34.53,2.47.36-.11-.36-.55-.64a3.37,3.37,0,0,0-2-.48,3.24,3.24,0,0,0-1.88.73C626.86,265.75,626.74,266.05,626.82,266.12Z" style="fill: rgb(38, 50, 56); transform-origin: 629.251px 265.405px;" id="eltzqbm0d2k7" class="animable"></path><path d="M639.8,269.28a1.24,1.24,0,0,0,1.26,1.17,1.2,1.2,0,0,0,1.21-1.19,1.24,1.24,0,0,0-1.27-1.17A1.18,1.18,0,0,0,639.8,269.28Z" style="fill: rgb(38, 50, 56); transform-origin: 641.035px 269.27px;" id="el60jj0z658m3" class="animable"></path><path d="M639.87,265.57c.16.15,1-.6,2.38-.68s2.34.53,2.47.36-.11-.36-.55-.64a3.44,3.44,0,0,0-2-.49,3.3,3.3,0,0,0-1.88.74C639.91,265.2,639.79,265.5,639.87,265.57Z" style="fill: rgb(38, 50, 56); transform-origin: 642.301px 264.851px;" id="ela4drde37c3d" class="animable"></path><path d="M635.66,275.69a9.49,9.49,0,0,0-2.18-.25c-.34,0-.67-.06-.74-.29a1.79,1.79,0,0,1,.17-1l.84-2.64a44,44,0,0,0,1.84-6.88c-.16-.05-1.22,3-2.39,6.72-.28.92-.55,1.81-.8,2.65a2,2,0,0,0-.09,1.34.81.81,0,0,0,.58.46,2.52,2.52,0,0,0,.58.05A8.17,8.17,0,0,0,635.66,275.69Z" style="fill: rgb(38, 50, 56); transform-origin: 633.947px 270.247px;" id="elc2vhigup2gj" class="animable"></path><path d="M635.7,291.44a24.51,24.51,0,0,0,12.66-4.22S645.64,294,636,293.7Z" style="fill: rgb(125, 67, 54); transform-origin: 642.03px 290.465px;" id="eld9vbz5f5q7" class="animable"></path><path d="M639,260.14c.15.36,1.46.1,3,.2s2.85.43,3,.1c.08-.16-.16-.49-.69-.81A5,5,0,0,0,642,259a4.89,4.89,0,0,0-2.33.42C639.15,259.67,638.88,260,639,260.14Z" style="fill: rgb(38, 50, 56); transform-origin: 641.993px 259.786px;" id="el0micbcjdxxw" class="animable"></path><path d="M627,261.53c.26.28,1.15-.09,2.25-.17s2,.08,2.23-.25c.09-.16-.08-.45-.5-.71a3.27,3.27,0,0,0-3.61.33C627,261.07,626.89,261.39,627,261.53Z" style="fill: rgb(38, 50, 56); transform-origin: 629.231px 260.819px;" id="elrppybkbiqec" class="animable"></path><path d="M621.06,267.2a6.61,6.61,0,0,1,1.15-4.29,23.87,23.87,0,0,0,1.59-1.9c.92-1.53.56-3.47.84-5.24a7.25,7.25,0,0,1,4-5.34c1.72-.83,3.77-1,5.35-2,1.18-.79,2-2,3.22-2.76,2.38-1.41,5.41-.43,7.91.72.67,1.82-.34,3.57-1.32,5.24a6.71,6.71,0,0,1-4.63,3.21c-1.49.25-3.27.09-4.21,1.27s-.34,3.17-1.12,4.55c-1.1,2-4.13,1.59-5.95,2.94-1.4,1-1.84,2.89-2.43,4.54s-1.72,3.42-3.47,3.52A19.78,19.78,0,0,1,621.06,267.2Z" style="fill: rgb(38, 50, 56); transform-origin: 633.188px 258.316px;" id="elu6r8ymst9fq" class="animable"></path><path d="M641.72,250.16a34.18,34.18,0,0,1,13,1,6.24,6.24,0,0,1,3.39,1.85,6.09,6.09,0,0,1,1,3.24c.34,3.59-.64,8.13-1.65,11.59l-4.19,3.15c-3.53-.45-2.58-6.57-2.73-9.57a7.07,7.07,0,0,1-4.78-5.78A7.81,7.81,0,0,1,641.72,250.16Z" style="fill: rgb(38, 50, 56); transform-origin: 650.449px 260.462px;" id="elt4vzynz3xq" class="animable"></path><path d="M653.26,269.65c-.08-2.07,2.4-2.73,4.27-1.86,1,.47,1.88,1.54,2,3.73.29,5.84-5.63,4.92-5.65,4.75S653.36,272.06,653.26,269.65Z" style="fill: rgb(194, 116, 97); transform-origin: 656.399px 271.92px;" id="eleryh2cubec4" class="animable"></path><path d="M655.54,274s.1.07.28.14a1,1,0,0,0,.76,0,2.54,2.54,0,0,0,1-2.31,3.33,3.33,0,0,0-.35-1.45,1.19,1.19,0,0,0-.81-.74.5.5,0,0,0-.58.31c-.07.17,0,.28-.06.29s-.13-.09-.1-.33a.69.69,0,0,1,.22-.38.76.76,0,0,1,.55-.18,1.45,1.45,0,0,1,1.11.86,3.47,3.47,0,0,1,.43,1.61,2.65,2.65,0,0,1-1.36,2.59,1.08,1.08,0,0,1-.94-.11C655.55,274.11,655.52,274,655.54,274Z" style="fill: rgb(125, 67, 54); transform-origin: 656.769px 271.909px;" id="el7ldi423td1p" class="animable"></path><path d="M658.77,277.31a4.56,4.56,0,0,0,.92-.16,3.65,3.65,0,0,0,1-.41l-.08,0a2.9,2.9,0,0,0,4.79,1.34h-.1a1.18,1.18,0,0,0,.82.42,1.68,1.68,0,0,0,.93-.17,1.56,1.56,0,0,0,.69-.7,1.94,1.94,0,0,0,.19-1,3,3,0,0,0-.83-1.87,8.77,8.77,0,0,0-1.69-1.33v.14a2.07,2.07,0,0,0,.78-1.48,3,3,0,0,0-.35-1.69,4.68,4.68,0,0,0-1.17-1.34,14,14,0,0,0-1.49-1l0,.13a2.18,2.18,0,0,0,.39-1.74,3.11,3.11,0,0,0-.84-1.65,7.61,7.61,0,0,0-3-1.68l.06.1a3.88,3.88,0,0,0-4.69-4.32l.1.09a3.36,3.36,0,0,0-1.08-2.74,3.32,3.32,0,0,0-2.58-.94l.08.06a3.37,3.37,0,0,0-4.08-2.8l.07.05a3.26,3.26,0,0,0-.63-1.44,4,4,0,0,0-1-1,3.33,3.33,0,0,0-2.08-.64h-.22l-.2,0a3.21,3.21,0,0,0-.36.08,3.73,3.73,0,0,0-.54.22l-.31.17-.1.06.11-.05.32-.15a3.76,3.76,0,0,1,.53-.2,1.91,1.91,0,0,1,.36-.07l.2,0h.22a3.27,3.27,0,0,1,2,.66,3.93,3.93,0,0,1,1,1,3.12,3.12,0,0,1,.6,1.39v.07l.06,0a3.25,3.25,0,0,1,3.9,2.71v.07h.08a3.34,3.34,0,0,1,3.48,3.52v.12l.11,0a3.82,3.82,0,0,1,3.25.83,3.77,3.77,0,0,1,1.23,3.3v.07l.06,0a7.66,7.66,0,0,1,3,1.63,3,3,0,0,1,.8,1.56,2,2,0,0,1-.36,1.6l-.06.08.08.05a6.86,6.86,0,0,1,2.61,2.29,2.81,2.81,0,0,1,.33,1.6,1.87,1.87,0,0,1-.71,1.35l-.09.07.1.07a8.92,8.92,0,0,1,1.66,1.3,2.78,2.78,0,0,1,.8,1.76,1.57,1.57,0,0,1-.8,1.55,1.29,1.29,0,0,1-1.57-.21l0-.06-.05.06a2.84,2.84,0,0,1-2.89.58,2.8,2.8,0,0,1-1.71-1.86l0-.06-.06,0a3.3,3.3,0,0,1-1,.41,5.35,5.35,0,0,1-.91.17,3.54,3.54,0,0,1-1.44-.13,1.3,1.3,0,0,1-.73-.49c-.11-.17-.14-.28-.15-.28s0,0,0,.08a.86.86,0,0,0,.11.21,1.28,1.28,0,0,0,.73.53" style="fill: rgb(69, 90, 100); transform-origin: 655.053px 264.206px;" id="elpgt4wq6rivf" class="animable"></path><path d="M677.88,267.78a2.21,2.21,0,0,0,.18-.37,2.94,2.94,0,0,0,.19-1.18,2.91,2.91,0,0,0-.67-1.77,3.12,3.12,0,0,0-2.25-1.12l.06.07a4,4,0,0,0-.83-2.81,3.93,3.93,0,0,0-1.26-1.09,10.63,10.63,0,0,0-1.67-.58,3.12,3.12,0,0,1-.81-.37,1.87,1.87,0,0,1-.6-.65c-.32-.53-.47-1.18-.86-1.74a3.56,3.56,0,0,0-3.72-1.38l.11.09a4.75,4.75,0,0,0-1.63-3.71,4.7,4.7,0,0,0-4.08-1l.1.08a4.1,4.1,0,0,0-6.75-3.14h.1a5.7,5.7,0,0,0-2.16-1,8.57,8.57,0,0,0-2.14-.26,9.92,9.92,0,0,0-3.41.6,6.86,6.86,0,0,0-1.95,1.07,5.45,5.45,0,0,0-.44.39l-.14.15s.2-.19.6-.51a7.67,7.67,0,0,1,2-1,9.89,9.89,0,0,1,3.38-.56,8.71,8.71,0,0,1,2.1.27,5.44,5.44,0,0,1,2.1,1l.05,0,0,0a4.08,4.08,0,0,1,4-.65,4,4,0,0,1,2.48,3.67v.11l.11,0a4.49,4.49,0,0,1,5.49,4.54V255l.11,0a3.37,3.37,0,0,1,3.54,1.3c.37.53.52,1.17.86,1.73a2.21,2.21,0,0,0,.65.71,3.57,3.57,0,0,0,.85.38,9.68,9.68,0,0,1,1.65.56,3.95,3.95,0,0,1,2,3.75v.07h.06a3,3,0,0,1,2.18,1.05,2.91,2.91,0,0,1,.67,1.72,3.25,3.25,0,0,1-.15,1.17C677.94,267.65,677.87,267.78,677.88,267.78Z" style="fill: rgb(69, 90, 100); transform-origin: 660.751px 256.815px;" id="el2m544ggqiju" class="animable"></path><path d="M622.56,275.28a.56.56,0,0,0,0-.48,1.06,1.06,0,0,0-.39-.45,2,2,0,0,0-.75-.28,3.63,3.63,0,0,1-.95-.28,1.82,1.82,0,0,1-.75-.86,3.65,3.65,0,0,1-.29-1.32c0-.48,0-1-.07-1.53a15.23,15.23,0,0,0-1.1-3.35,4.85,4.85,0,0,1-.28-1.9,2.31,2.31,0,0,1,.88-1.75,8.61,8.61,0,0,1,2-.9,3.45,3.45,0,0,0,1-.6,2.33,2.33,0,0,0,.64-1,12.5,12.5,0,0,0,.37-2.35,3.73,3.73,0,0,1,.28-1.15,1.77,1.77,0,0,1,.78-.84,6.77,6.77,0,0,1,1.58-.39,2.6,2.6,0,0,0,.79-.29,1.62,1.62,0,0,0,.58-.61,5.26,5.26,0,0,0,.45-1.55,3.59,3.59,0,0,1,3-2.86,3.6,3.6,0,0,1,2.56.63l.08.06,0-.1A5.55,5.55,0,0,1,636,247.8a5,5,0,0,1,1.92-.38,4.62,4.62,0,0,1,1.64.28,4.07,4.07,0,0,1,1.86,1.37,4.7,4.7,0,0,1,.35.52l.08.13s0,.05,0,.05l0-.05s0-.09-.08-.14a2.77,2.77,0,0,0-.33-.53,4.06,4.06,0,0,0-1.87-1.44,4.78,4.78,0,0,0-1.67-.29,5.06,5.06,0,0,0-2,.36,5.68,5.68,0,0,0-3.22,3.41l.12,0a3.74,3.74,0,0,0-2.67-.66,3.66,3.66,0,0,0-2.52,1.54,3.76,3.76,0,0,0-.62,1.45,5.69,5.69,0,0,1-.43,1.49,1.7,1.7,0,0,1-1.26.82,6.58,6.58,0,0,0-1.63.4,2,2,0,0,0-.85.93,4.16,4.16,0,0,0-.3,1.19,11.48,11.48,0,0,1-.35,2.32,2.28,2.28,0,0,1-.59.92,3.33,3.33,0,0,1-.94.57,8.89,8.89,0,0,0-2,.93,2.3,2.3,0,0,0-.67.85,3,3,0,0,0-.26,1,5.07,5.07,0,0,0,.3,2,15.65,15.65,0,0,1,1.12,3.32c.06.53,0,1,.08,1.53a3.62,3.62,0,0,0,.31,1.35,1.89,1.89,0,0,0,.8.89,3.36,3.36,0,0,0,1,.28,1.84,1.84,0,0,1,.74.26,1.14,1.14,0,0,1,.39.41A.72.72,0,0,1,622.56,275.28Z" style="fill: rgb(69, 90, 100); transform-origin: 629.777px 261.299px;" id="elpb9dfhs3rtl" class="animable"></path><path d="M610.34,267.49a.61.61,0,0,0,0-.11l.12-.34.47-1.33c.2-.57.42-1.28.77-2.07a5.13,5.13,0,0,1,1.72-2.29c.44-.3,1-.53,1.48-.83a3.55,3.55,0,0,0,.74-.55,2.06,2.06,0,0,0,.52-.82c.21-.63.14-1.31.29-2a1.65,1.65,0,0,1,.48-.85,3,3,0,0,1,.88-.53,5.8,5.8,0,0,0,1-.51,1.84,1.84,0,0,0,.7-.9,8.16,8.16,0,0,0,.26-2.31,2.74,2.74,0,0,1,.27-1.1,1.45,1.45,0,0,1,.86-.71c.74-.24,1.59-.06,2.43-.28a2.12,2.12,0,0,0,1-.71,5.58,5.58,0,0,0,.62-1.08,11.83,11.83,0,0,1,.53-1.07,2.33,2.33,0,0,1,.77-.82,3.44,3.44,0,0,1,2.2-.21,5,5,0,0,0,2.22-.05,5.87,5.87,0,0,0,1.82-1.07,9.62,9.62,0,0,1,1.61-1.13,6,6,0,0,1,3.43-.48,6.4,6.4,0,0,1,2.69,1,7.28,7.28,0,0,1,1.59,1.51,8.17,8.17,0,0,1,.73,1.19l.17.32.06.11s0,0,0-.12l-.16-.33a7.35,7.35,0,0,0-.71-1.21,6.86,6.86,0,0,0-1.58-1.55,6.56,6.56,0,0,0-2.73-1.09,6.21,6.21,0,0,0-3.52.47,10.41,10.41,0,0,0-1.63,1.14,5.81,5.81,0,0,1-1.78,1,5,5,0,0,1-2.15,0,8.8,8.8,0,0,0-1.16-.08,2.21,2.21,0,0,0-2,1.19,11,11,0,0,0-.54,1.09,5.11,5.11,0,0,1-.6,1,1.88,1.88,0,0,1-1,.65c-.78.21-1.63,0-2.44.29a1.62,1.62,0,0,0-1,.79,2.88,2.88,0,0,0-.29,1.17,8.66,8.66,0,0,1-.24,2.26,1.72,1.72,0,0,1-.65.83,6.08,6.08,0,0,1-1,.49,3.39,3.39,0,0,0-.93.56,1.77,1.77,0,0,0-.52.93c-.15.69-.09,1.36-.28,2a2.41,2.41,0,0,1-1.19,1.3c-.5.3-1,.53-1.49.85a5.29,5.29,0,0,0-1.74,2.35c-.33.8-.54,1.52-.74,2.09s-.33,1-.43,1.33c-.05.15-.08.27-.11.35Z" style="fill: rgb(69, 90, 100); transform-origin: 626.465px 255.292px;" id="elvzc26z3r5ra" class="animable"></path><path d="M615.87,260.76h-.11a.65.65,0,0,0-.3.1A1.24,1.24,0,0,0,615,262a2.89,2.89,0,0,0,.22.85,3.78,3.78,0,0,1,.25,1,2.18,2.18,0,0,1-.29,1.12c-.19.37-.44.74-.63,1.18a1.67,1.67,0,0,0,0,1.48c.23.47.64.85.87,1.33a2.21,2.21,0,0,1,0,1.62c-.17.55-.44,1.1-.6,1.71a2.57,2.57,0,0,0-.08,1,2.29,2.29,0,0,0,.32.94,11,11,0,0,0,1.28,1.54,2.68,2.68,0,0,1,.81,1.77,9.12,9.12,0,0,1-.5,2,3.07,3.07,0,0,0-.1,1.09,2.57,2.57,0,0,0,.38,1,9.29,9.29,0,0,0,1.43,1.5,4.74,4.74,0,0,1,1.19,1.54,13.69,13.69,0,0,0,.8,1.74,2,2,0,0,0,.66.67,2.6,2.6,0,0,0,.87.31,6.72,6.72,0,0,1,.83.2,3.09,3.09,0,0,1,.72.38,6.1,6.1,0,0,1,1.08,1.14c.32.41.61.81.93,1.16a4,4,0,0,0,2.18,1.27,4.19,4.19,0,0,0,1.91,0,3.84,3.84,0,0,0,1.12-.46,2.94,2.94,0,0,0,.34-.25,4.27,4.27,0,0,1-1.48.64,4.2,4.2,0,0,1-1.87,0,3.84,3.84,0,0,1-2.11-1.26c-.31-.34-.6-.74-.91-1.15a5.76,5.76,0,0,0-1.1-1.17,2.93,2.93,0,0,0-.76-.41,6.59,6.59,0,0,0-.85-.21,2.55,2.55,0,0,1-.81-.3,2,2,0,0,1-.62-.62,15.14,15.14,0,0,1-.78-1.72A4.84,4.84,0,0,0,618.5,283a9.34,9.34,0,0,1-1.4-1.48,2.23,2.23,0,0,1-.35-.94,2.73,2.73,0,0,1,.1-1,8.64,8.64,0,0,0,.49-2.08,2.22,2.22,0,0,0-.25-1,4.65,4.65,0,0,0-.6-.85,11.05,11.05,0,0,1-1.27-1.51,2.27,2.27,0,0,1-.3-.86,2.54,2.54,0,0,1,.08-.91c.15-.59.41-1.14.59-1.71a2.32,2.32,0,0,0,0-1.72c-.25-.52-.66-.89-.88-1.33a1.54,1.54,0,0,1,0-1.37c.18-.42.42-.8.61-1.18a2.34,2.34,0,0,0,.29-1.18,3.73,3.73,0,0,0-.27-1,3.15,3.15,0,0,1-.23-.83,1.21,1.21,0,0,1,.42-1.05A.88.88,0,0,1,615.87,260.76Z" style="fill: rgb(69, 90, 100); transform-origin: 622.684px 276.205px;" id="elyppvobzum8" class="animable"></path><path d="M677.71,267.61a2.16,2.16,0,0,0,.46-.1,3.19,3.19,0,0,0,2.21-2.49,3.28,3.28,0,0,0-.76-2.69,8.53,8.53,0,0,0-1.29-1.07A3.83,3.83,0,0,1,677.1,260a2.55,2.55,0,0,1-.11-1.85c.16-.64.44-1.29.58-2a5.72,5.72,0,0,0-5.05-6.79l.06.13a2.79,2.79,0,0,0,.37-1.32,3.61,3.61,0,0,0-.23-1.38,4,4,0,0,0-.72-1.21,4.59,4.59,0,0,0-1.09-.92,9.06,9.06,0,0,0-4-1.14,13.74,13.74,0,0,0-3.92.24l.1.08a4.1,4.1,0,0,0-4.78-3.5,6.4,6.4,0,0,0-1.85.7,4.16,4.16,0,0,1-.88.3,2.37,2.37,0,0,1-.88,0,6.81,6.81,0,0,1-1.62-.59,6,6,0,0,0-1.53-.51,5,5,0,0,0-1.49,0,4.9,4.9,0,0,0-2.34.91,5,5,0,0,0-1.28,1.37,5.07,5.07,0,0,0-.51,1.06,3,3,0,0,0-.1.4s0-.14.13-.39a4.93,4.93,0,0,1,.52-1,5.16,5.16,0,0,1,1.29-1.34,4.91,4.91,0,0,1,2.3-.87,5.16,5.16,0,0,1,1.46.05,6.37,6.37,0,0,1,1.5.52,7.61,7.61,0,0,0,1.64.61,2.7,2.7,0,0,0,.94,0,4.45,4.45,0,0,0,.91-.31,6.37,6.37,0,0,1,1.81-.68,3.95,3.95,0,0,1,4.59,3.37l0,.09.09,0a13.73,13.73,0,0,1,3.87-.23,8.92,8.92,0,0,1,3.9,1.11,4.72,4.72,0,0,1,1,.89,3.8,3.8,0,0,1,.69,1.16,3.63,3.63,0,0,1,.22,1.3,2.78,2.78,0,0,1-.35,1.24l-.06.12h.13a5.58,5.58,0,0,1,4.92,6.59c-.14.69-.41,1.34-.57,2a2.72,2.72,0,0,0,.13,1.95,3.88,3.88,0,0,0,1.28,1.3,8.35,8.35,0,0,1,1.27,1.05,3.17,3.17,0,0,1,.76,2.59,3.06,3.06,0,0,1-1,1.81,3.39,3.39,0,0,1-1.14.67C677.87,267.58,677.71,267.6,677.71,267.61Z" style="fill: rgb(38, 50, 56); transform-origin: 663.127px 253.897px;" id="elinplklzw9bm" class="animable"></path><path d="M613.4,257a.5.5,0,0,0,0-.11v-.33c0-.3,0-.73,0-1.27s0-1.22.07-2a11.2,11.2,0,0,1,.5-2.59,7.53,7.53,0,0,1,1.58-2.74,5.72,5.72,0,0,1,1.39-1.07,14.52,14.52,0,0,1,1.75-.71,5.43,5.43,0,0,0,1.75-1,8.34,8.34,0,0,0,1.32-1.62c.39-.59.76-1.21,1.2-1.78a5.8,5.8,0,0,1,1.61-1.47,10.43,10.43,0,0,1,4.1-1.34,27.13,27.13,0,0,1,4.05-.26,20.77,20.77,0,0,1,6.76,1.14,14.76,14.76,0,0,1,4.06,2.19c.21.18.41.32.57.46l.39.36.25.22.08.07s0,0-.07-.08l-.23-.23-.39-.38c-.15-.14-.35-.29-.56-.47a14.2,14.2,0,0,0-4.06-2.26,20.64,20.64,0,0,0-6.8-1.19,27.53,27.53,0,0,0-4.08.26,10.41,10.41,0,0,0-4.16,1.36,5.82,5.82,0,0,0-1.65,1.51c-.46.58-.83,1.2-1.21,1.79a8.19,8.19,0,0,1-1.3,1.6,5.13,5.13,0,0,1-1.69,1,16.2,16.2,0,0,0-1.76.72,5.88,5.88,0,0,0-1.43,1.11,7.72,7.72,0,0,0-1.59,2.8,11.51,11.51,0,0,0-.48,2.62c-.06.78-.05,1.45,0,2s0,1,0,1.27l0,.33A.5.5,0,0,0,613.4,257Z" style="fill: rgb(38, 50, 56); transform-origin: 629.079px 247.769px;" id="elx8pv00xptsn" class="animable"></path><path d="M642.11,278.53a2.17,2.17,0,0,0-1.49-1.68,1.92,1.92,0,0,0-2.08.72,1.73,1.73,0,0,0,.15,2.07,1.86,1.86,0,0,0,.91.63,2.37,2.37,0,0,0,1.42,0,1.6,1.6,0,0,0,1-.67A1.55,1.55,0,0,0,642.11,278.53Z" style="fill: rgb(125, 67, 54); transform-origin: 640.216px 278.578px;" id="elkwu0u3ip2g" class="animable"></path><path d="M641,275.8c-.21,0,.08,1.47-.93,2.74s-2.57,1.44-2.54,1.64.4.21,1,.09a3.64,3.64,0,0,0,2.14-1.29,3.2,3.2,0,0,0,.7-2.28C641.35,276.09,641.12,275.77,641,275.8Z" style="fill: rgb(38, 50, 56); transform-origin: 639.455px 278.073px;" id="el5xqloy98wte" class="animable"></path><path d="M678.29,343v-1l-8.84-33.41c-2.19-8.26-8-13.67-16.32-15.46-.81-.17-16.67,3.64-16.82,3.66L631,312.45s-5,13.95-4.21,21c.52,4.37,12.81,23,12.81,23l-3.27,5C665,375.69,691.83,374,691.83,374,689.18,360.26,678.29,343,678.29,343Z" style="fill: rgb(235, 235, 235); transform-origin: 659.268px 333.593px;" id="el2f6rdr9jtj" class="animable"></path><path d="M658.94,348a14.58,14.58,0,0,1-2.2,1.54c-1.4.9-3.38,2.06-5.64,3.23s-4.35,2.1-5.89,2.73a13.37,13.37,0,0,1-2.54.9,20.24,20.24,0,0,1,2.41-1.18c1.51-.7,3.57-1.68,5.82-2.84s4.24-2.28,5.68-3.1A18.65,18.65,0,0,1,658.94,348Z" style="fill: rgb(38, 50, 56); transform-origin: 650.805px 352.2px;" id="el2xno2vkqorj" class="animable"></path><path d="M651.58,322.57S620.86,348.42,615.72,348s-43.72-25-43.72-25l5.51-9.42,36.87,16.16,27.89-25.18Z" style="fill: rgb(194, 116, 97); transform-origin: 611.79px 326.283px;" id="elr5fcjqbp9g8" class="animable"></path><path d="M580.13,315.61c.12-.29,1.08-8.37,1.08-8.37s.63-8.93.67-9-.21-1.93-2.15.45-1.59,6.09-1.59,6.09L570.69,301s-2.87-1.76-3.39.18a1.66,1.66,0,0,0-2.41.39,2.7,2.7,0,0,0-.1,2.73s-1.59,1.77-.53,3.1c0,0-1.32.57-.25,2.87l4.09,4.31s.81,5.74,2,7.18,5,2.67,5,2.67l6.43-7.4Z" style="fill: rgb(194, 116, 97); transform-origin: 572.738px 310.956px;" id="el4pap9th9hck" class="animable"></path><path d="M580.7,311.42a30.31,30.31,0,0,0-1.18,5.56c-.49,3.09-1.07,5.54-.95,5.58s1-2.39,1.46-5.49A32.77,32.77,0,0,0,580.7,311.42Z" style="fill: rgb(125, 67, 54); transform-origin: 579.627px 316.99px;" id="elhwhjl8dnogi" class="animable"></path><path d="M567.57,301.48a49.53,49.53,0,0,0,8.76,5.29,25.81,25.81,0,0,0-4.25-2.87A25.45,25.45,0,0,0,567.57,301.48Z" style="fill: rgb(125, 67, 54); transform-origin: 571.95px 304.125px;" id="elks9pbsqkvn" class="animable"></path><path d="M564.67,303.89a36.25,36.25,0,0,0,8.87,5.17,31.13,31.13,0,0,0-4.36-2.71A31.76,31.76,0,0,0,564.67,303.89Z" style="fill: rgb(125, 67, 54); transform-origin: 569.105px 306.475px;" id="eld3k919iot1v" class="animable"></path><path d="M564.26,307.39a9.61,9.61,0,0,0,2.68,2.16,9.15,9.15,0,0,0,3.07,1.53,15.43,15.43,0,0,0-2.79-2A13.8,13.8,0,0,0,564.26,307.39Z" style="fill: rgb(125, 67, 54); transform-origin: 567.135px 309.235px;" id="elkspgh92f3q" class="animable"></path><path d="M571.45,314a1.93,1.93,0,0,0,1.5.07,3.13,3.13,0,0,0,1.48-.86,3.33,3.33,0,0,0,.91-1.93l-.32.22a2,2,0,0,0,1,0,2,2,0,0,0,1.24-1.05,2.06,2.06,0,0,0,.1-1.46l-.35.26a1.7,1.7,0,0,0,1.45.19,1.59,1.59,0,0,0,.86-.73c.28-.57.14-.94.11-.93s0,.35-.35.79a1.25,1.25,0,0,1-.73.5,1.3,1.3,0,0,1-1.08-.2l-.56-.41.21.66a1.54,1.54,0,0,1-1,1.88,1.48,1.48,0,0,1-.78,0l-.28-.07,0,.29a3,3,0,0,1-2,2.53A8.85,8.85,0,0,1,571.45,314Z" style="fill: rgb(125, 67, 54); transform-origin: 575.471px 310.984px;" id="elomiw4uuvvli" class="animable"></path><path d="M660.87,296.14c-5.34-4.18-14.86,1.79-21.45,6.72-6,4.47-15.12,13.36-15.12,13.36l16.79,18.88L658.48,321c4.28-3.33,8.11-9.26,7.79-14.66A13.78,13.78,0,0,0,660.87,296.14Z" style="fill: rgb(224, 224, 224); transform-origin: 645.294px 314.915px;" id="eleh40ldrs25o" class="animable"></path><path d="M660.87,296.14s.08,0,.21.14.35.26.6.48a13.13,13.13,0,0,1,2,2.14,13.37,13.37,0,0,1,2.13,4.15,12.86,12.86,0,0,1,.42,6.21c-.83,4.61-4.14,9.57-9.19,13.21L641.26,335.3l-.19.15-.17-.18L635,328.61l-10.86-12.22-.16-.18.17-.17c4.6-4.41,9-8.41,13.14-11.77a62.57,62.57,0,0,1,11.7-7.62c3.54-1.68,6.77-2.34,8.91-1.87l.75.16a4.45,4.45,0,0,1,.62.24,3.65,3.65,0,0,1,.93.46l.52.36.17.14a8.12,8.12,0,0,0-3-1.19c-2.1-.41-5.25.28-8.74,2a64.44,64.44,0,0,0-11.57,7.67c-4.11,3.37-8.48,7.39-13.06,11.8v-.34l10.88,12.21,5.92,6.66-.36,0,15.84-12.79c5-3.58,8.27-8.42,9.14-12.91a12.87,12.87,0,0,0-.34-6.07,13.52,13.52,0,0,0-2-4.12,14.61,14.61,0,0,0-1.92-2.18l-.57-.51A2.36,2.36,0,0,1,660.87,296.14Z" style="fill: rgb(38, 50, 56); transform-origin: 645.205px 315.041px;" id="elanmhgfuakjo" class="animable"></path><path d="M642.76,434.14l22.68-7.75s15.49,20.44,19.82,19.41l-13.45-44.5L636,411.93Z" style="fill: rgb(69, 90, 100); transform-origin: 660.63px 423.569px;" id="ellzmnvwaepcj" class="animable"></path><path d="M659.35,413.21a1.89,1.89,0,0,1,1.69-1.88,1.82,1.82,0,0,1,1.88,1.66,2,2,0,0,1-1.8,2c-.93,0-2-1-1.77-1.94" style="fill: rgb(224, 224, 224); transform-origin: 661.119px 413.159px;" id="ely0q9928eacf" class="animable"></path><path d="M672.73,401l-3.47,1,13.21,42.72s1.47,1.72,2.79,1.07Z" style="fill: rgb(224, 224, 224); transform-origin: 677.26px 423.468px;" id="elnb0ek9g6e8" class="animable"></path><path d="M665.43,427.18c.21-.08,0-1.19.36-2.47s1.12-2.13,1-2.3-1.3.53-1.73,2.08S665.24,427.28,665.43,427.18Z" style="fill: rgb(38, 50, 56); transform-origin: 665.856px 424.785px;" id="elb9htiyvoncb" class="animable"></path><path d="M668.77,431.26c.23,0,.31-1.07,1-2.08s1.6-1.53,1.53-1.74-1.35,0-2.19,1.3S668.56,431.32,668.77,431.26Z" style="fill: rgb(38, 50, 56); transform-origin: 669.925px 429.316px;" id="elo5ci81dybld" class="animable"></path><path d="M675.16,432.22c0-.21-1.19-.18-2.21.73s-1.19,2.08-1,2.12.65-.79,1.5-1.53S675.2,432.44,675.16,432.22Z" style="fill: rgb(38, 50, 56); transform-origin: 673.522px 433.592px;" id="elmt974eqa0xh" class="animable"></path><path d="M660.07,428.37c.17-.15-.43-1.06-.72-2.31s-.19-2.33-.41-2.39-.72,1.1-.36,2.57S659.93,428.53,660.07,428.37Z" style="fill: rgb(38, 50, 56); transform-origin: 659.277px 426.029px;" id="el6epk2a7g4in" class="animable"></path><path d="M640,373.69c-.87-.25-39.27,40.94-40.14,47.75s.52,12.74,5.06,16.58,56.2-8.72,56.2-8.72l-4.89-21.65,18.67-6.28-16.69-30.54Z" style="fill: rgb(38, 50, 56); transform-origin: 637.257px 404.79px;" id="el925fpfn7y7j" class="animable"></path><g id="elpaxei3dl63s"><g style="opacity: 0.3; transform-origin: 649.475px 393.862px;" class="animable"><path d="M630.92,382.81l-1.23,1.33s22,23.08,28.77,22.77l10.8-3.66L632.7,380.81Z" id="eljfazaek0p38" class="animable" style="transform-origin: 649.475px 393.862px;"></path></g></g><path d="M656.37,408.22c0,.13-8,2.61-17.89,5.52s-18,5.17-18,5,8-2.6,17.89-5.52S656.33,408.08,656.37,408.22Z" style="fill: rgb(38, 50, 56); transform-origin: 638.425px 413.481px;" id="elfitawhypd9d" class="animable"></path><path d="M608.41,410.6l7.47,23.67s-21.56,15.54-20.61,20.05L641.7,441.5l-10.12-37.37Z" style="fill: rgb(69, 90, 100); transform-origin: 618.47px 429.225px;" id="elvmonngn15u" class="animable"></path><path d="M629.68,428.3a2,2,0,0,1,1.91,1.8,1.9,1.9,0,0,1-1.77,1.91,2.07,2.07,0,0,1-2-1.92,1.94,1.94,0,0,1,2.06-1.78" style="fill: rgb(224, 224, 224); transform-origin: 629.705px 430.155px;" id="elez2l5ll5d46" class="animable"></path><path d="M642,442.47l-1-3.62-44.57,12.61s-1.82,1.47-1.18,2.86Z" style="fill: rgb(224, 224, 224); transform-origin: 618.557px 446.585px;" id="elghk7tpxpcuk" class="animable"></path><path d="M615.06,434.25c.07.22,1.23,0,2.55.43s2.17,1.21,2.36,1.06-.52-1.36-2.12-1.84S615,434.05,615.06,434.25Z" style="fill: rgb(38, 50, 56); transform-origin: 617.529px 434.741px;" id="elspy2baniljm" class="animable"></path><path d="M610.75,437.6c0,.24,1.09.35,2.13,1.1s1.54,1.7,1.76,1.63,0-1.4-1.29-2.3S610.69,437.39,610.75,437.6Z" style="fill: rgb(38, 50, 56); transform-origin: 612.731px 438.865px;" id="eltqo6wxo0do7" class="animable"></path><path d="M609.59,444.2c.22,0,.22-1.23-.7-2.31s-2.12-1.29-2.17-1.07.8.7,1.54,1.6S609.36,444.24,609.59,444.2Z" style="fill: rgb(38, 50, 56); transform-origin: 608.214px 442.472px;" id="eljzr8sw40ph" class="animable"></path><path d="M614,428.66c.15.18,1.1-.42,2.41-.69s2.41-.13,2.48-.36-1.12-.77-2.65-.44S613.8,428.51,614,428.66Z" style="fill: rgb(38, 50, 56); transform-origin: 616.433px 427.88px;" id="els6dz2r2wbg" class="animable"></path><g id="elupmlndruqm"><g style="opacity: 0.3; transform-origin: 633.935px 410.06px;" class="animable"><polygon points="642.03 433.6 639.17 422.38 641.3 421.39 628.32 386.03 625.84 388.19 636.04 420.57 639.69 434.09 642.03 433.6" id="elzlsat5nke3m" class="animable" style="transform-origin: 633.935px 410.06px;"></polygon></g></g><path d="M611.38,346.08a18.21,18.21,0,0,0-14.61,3.13,13.41,13.41,0,0,0-5.46,13.41c2.1,14.66,20.83,64.71,20.83,64.71l25.93-7.79c.14-.05.29-.48.21-.35-.21.35-13.15-41.34-12.83-40.85s26.16,21.35,36.89,25.18a23.8,23.8,0,0,0,27.18-8.11c2.51-3.52,9.08-19.23-2.41-34.56L664.88,362s-50.82-15.17-51.58-15.45A13.86,13.86,0,0,0,611.38,346.08Z" style="fill: rgb(38, 50, 56); transform-origin: 642.379px 386.502px;" id="el59062pb9n8h" class="animable"></path><path d="M690.54,394.89s-.1.17-.32.5a15.1,15.1,0,0,1-1.05,1.37,23.53,23.53,0,0,1-5.1,4.28,26.19,26.19,0,0,1-9.93,3.78,23,23,0,0,1-6.71.09,22.09,22.09,0,0,1-7.24-2.18c-1.23-.52-2.4-1.23-3.65-1.86s-2.45-1.41-3.69-2.19c-2.48-1.54-5-3.21-7.63-5q-7.82-5.42-16.32-12.18l-2.12-1.72-1.06-.88-.28-.26-.14-.13c.09,0-.24-.12.19.05.34-.35.1-.17.17-.21l0,.07.19.66q.82,2.65,1.66,5.39l3.53,11.15,7.58,23.76.07.24-.24.07-26.25,7.9-.23.07-.08-.22c-1.68-4.49-3.42-9.27-5.15-14.12-3.76-10.53-7.34-20.85-10.49-30.92-1.58-5-3.06-10-4.23-14.95-.14-.62-.31-1.23-.43-1.85s-.23-1.25-.34-1.87a17.57,17.57,0,0,1-.37-3.76,13.16,13.16,0,0,1,2.09-7.09,17.15,17.15,0,0,1,11.92-7.21,19,19,0,0,1,6.82.3l1.64.41,1.58.47,3.12.93,23,6.86,33.24,10,9,2.73,2.35.73c.52.16.79.26.79.26s-.28-.06-.81-.21l-2.36-.68-9.06-2.64L640.91,355l-23-6.8-3.12-.93-1.58-.46-1.59-.4a18.35,18.35,0,0,0-6.66-.27,16.67,16.67,0,0,0-11.59,7,12.75,12.75,0,0,0-2,6.84,17.57,17.57,0,0,0,.36,3.67c.12.61.23,1.23.35,1.85s.28,1.22.42,1.84c1.18,4.92,2.65,9.89,4.23,14.91,3.16,10.06,6.74,20.37,10.5,30.9,1.73,4.84,3.47,9.63,5.14,14.11l-.31-.15,26.26-7.89-.16.31-7.55-23.77c-1.2-3.8-2.37-7.53-3.51-11.16q-.84-2.73-1.66-5.39l-.19-.68,0-.1c.07-.06-.18.08.16-.29.46.19.15.07.26.12l.11.1.24.21,1,.88,2.11,1.72c5.63,4.5,11.08,8.59,16.26,12.2,2.59,1.82,5.13,3.49,7.6,5,1.23.78,2.48,1.47,3.67,2.19s2.41,1.34,3.62,1.87a21.93,21.93,0,0,0,7.15,2.18,22.62,22.62,0,0,0,6.64-.06,25.89,25.89,0,0,0,9.87-3.68,23.91,23.91,0,0,0,5.13-4.19,15.74,15.74,0,0,0,1.08-1.34C690.41,395.05,690.54,394.89,690.54,394.89Z" style="fill: rgb(69, 90, 100); transform-origin: 640.71px 386.576px;" id="elw4xzl31c6ri" class="animable"></path><path d="M613.61,366.86a8.76,8.76,0,0,1,2.15,1.17,31,31,0,0,1,4.65,3.66,28.33,28.33,0,0,1,3.85,4.5,8.32,8.32,0,0,1,1.19,2.15,19.51,19.51,0,0,1-1.49-1.93,37,37,0,0,0-3.9-4.35,48.05,48.05,0,0,0-4.5-3.74A15.55,15.55,0,0,1,613.61,366.86Z" style="fill: rgb(38, 50, 56); transform-origin: 619.53px 372.6px;" id="elejuj954uz0g" class="animable"></path><path d="M622.46,364a7.54,7.54,0,0,1,.94,1.95,35,35,0,0,1,1.52,5,34.46,34.46,0,0,1,.74,5.17,7.37,7.37,0,0,1,0,2.17c-.16,0-.32-3.28-1.21-7.22S622.31,364,622.46,364Z" style="fill: rgb(38, 50, 56); transform-origin: 624.094px 371.145px;" id="el2l3vm12vkm" class="animable"></path></g><g id="freepik--character-1--inject-25" class="animable" style="transform-origin: 147.016px 298.667px;"><path d="M262.88,188.89,264.55,178,272,167l.47,1.59,1.64-2.13s1.75,1.6,1.33,3.22a67.8,67.8,0,0,1-3.18,7l7.13-8s1,1.51-.42,3.93-5.22,8.17-5.22,8.17-2.16,11.82-2.65,14.08-2.63,3.06-4.81,4.24-8,2.35-8,2.35l-.43-11.85Z" style="fill: rgb(255, 191, 157); transform-origin: 268.796px 183.955px;" id="elqd41perj4f" class="animable"></path><path d="M143.71,209.34s-3.62,17,14.07,15.36S218.2,213,218.2,213l41.38-13-1.28-12.46-51.39,7.11s-49.08,2.13-56.28,3.77C142.62,200.19,143.71,209.34,143.71,209.34Z" style="fill: rgb(69, 90, 100); transform-origin: 201.492px 206.176px;" id="elu97vu9wd5w" class="animable"></path><path d="M31.56,400.84,13.43,427.39l34.88,24c2-3.29-11.72-22-11.72-22L49,412.85Z" style="fill: rgb(69, 90, 100); transform-origin: 31.215px 426.115px;" id="el6ob7x80ctd6" class="animable"></path><g id="elg7n48gj04rr"><g style="opacity: 0.6; transform-origin: 26.3241px 421.96px;" class="animable"><path d="M26.79,420.52a1.62,1.62,0,0,0-2,.86,1.65,1.65,0,0,0,.95,2,1.71,1.71,0,0,0,2.16-.91,1.76,1.76,0,0,0-1.23-2" style="fill: rgb(255, 255, 255); transform-origin: 26.3241px 421.96px;" id="elp04abcxfos8" class="animable"></path></g></g><g id="elygyplgi97y"><g style="opacity: 0.6; transform-origin: 31.0428px 438.07px;" class="animable"><path d="M13.43,427.39l1.93-2.6,32.73,23.94s1.11,1.71.22,2.62Z" style="fill: rgb(255, 255, 255); transform-origin: 31.0428px 438.07px;" id="eluz3v3pwfoj" class="animable"></path></g></g><path d="M37.27,429.58c-.11.16-1-.36-2.21-.42s-2.11.31-2.22.14.78-.92,2.23-.83S37.41,429.46,37.27,429.58Z" style="fill: rgb(38, 50, 56); transform-origin: 35.0576px 429.036px;" id="el2s7nxh5kql9" class="animable"></path><path d="M40,433.52c-.07.18-1,0-2.05.23s-1.71.89-1.88.76.36-1.1,1.67-1.43S40.05,433.36,40,433.52Z" style="fill: rgb(38, 50, 56); transform-origin: 38.0205px 433.755px;" id="el6s3ceawizda" class="animable"></path><path d="M39.17,439.08c-.18-.07.14-1,1.18-1.62s2.09-.38,2.07-.2-.84.32-1.69.81S39.35,439.18,39.17,439.08Z" style="fill: rgb(38, 50, 56); transform-origin: 40.7714px 438.075px;" id="el9cy97ha1kfc" class="animable"></path><path d="M39.65,425.49c-.18.1-.81-.66-1.81-1.26s-2-.83-2-1,1.13-.28,2.3.45S39.82,425.42,39.65,425.49Z" style="fill: rgb(38, 50, 56); transform-origin: 37.761px 424.302px;" id="elgyhg65bsvsl" class="animable"></path><path d="M41.51,421c0,.07-.78-.29-1.74-1.2A10.41,10.41,0,0,1,38.31,418a11.16,11.16,0,0,1-.66-1.19,3,3,0,0,1-.26-.75.82.82,0,0,1,.52-.91,1.16,1.16,0,0,1,1,.15,2.83,2.83,0,0,1,.59.53,8.34,8.34,0,0,1,.85,1.1,7.43,7.43,0,0,1,.92,2.1,3.33,3.33,0,0,1,.1,2.05c-.11,0-.16-.78-.58-1.93a8.44,8.44,0,0,0-1-1.89,7.23,7.23,0,0,0-.8-1c-.3-.34-.62-.56-.82-.47s-.09.06-.09.21a2,2,0,0,0,.2.55,10.84,10.84,0,0,0,.57,1.13,12,12,0,0,0,1.27,1.77C41,420.43,41.58,420.93,41.51,421Z" style="fill: rgb(38, 50, 56); transform-origin: 39.4467px 418.089px;" id="elrnltwl22fy" class="animable"></path><path d="M41.13,421.09c-.08,0,0-.82.64-1.91a6.35,6.35,0,0,1,1.49-1.64,6.53,6.53,0,0,1,1.13-.69,1.73,1.73,0,0,1,1.69-.07,1,1,0,0,1,.41,1,2.41,2.41,0,0,1-.23.73,4.3,4.3,0,0,1-.77,1.11,4.42,4.42,0,0,1-1.92,1.19,2.67,2.67,0,0,1-2.09,0,16.74,16.74,0,0,0,1.89-.48A4.41,4.41,0,0,0,45,419.14a3.77,3.77,0,0,0,.63-1c.19-.39.24-.77.08-.83a1.2,1.2,0,0,0-1,.12,6.56,6.56,0,0,0-1,.6,7,7,0,0,0-1.48,1.41C41.48,420.4,41.24,421.13,41.13,421.09Z" style="fill: rgb(38, 50, 56); transform-origin: 43.8054px 418.842px;" id="el3zxjbb34t7" class="animable"></path><path d="M123.76,405.42l-4.7,32,42.31,1.09c-.14-3.83-21.8-12.06-21.8-12.06L143.93,406Z" style="fill: rgb(69, 90, 100); transform-origin: 140.215px 421.965px;" id="eluydsj1yfpt" class="animable"></path><g id="el5oziez00xw"><g style="opacity: 0.6; transform-origin: 126.901px 425.93px;" class="animable"><path d="M126.53,424.41a1.63,1.63,0,0,0-1.24,1.83,1.66,1.66,0,0,0,1.91,1.19,1.73,1.73,0,0,0,1.31-1.95,1.75,1.75,0,0,0-2.14-1" style="fill: rgb(255, 255, 255); transform-origin: 126.901px 425.93px;" id="el6zdbsfdimtt" class="animable"></path></g></g><g id="elbs72puincb5"><g style="opacity: 0.6; transform-origin: 140.227px 436.375px;" class="animable"><path d="M119.06,437.45l.21-3.24,40.49,2.26s1.86.82,1.61,2.07Z" style="fill: rgb(255, 255, 255); transform-origin: 140.227px 436.375px;" id="el98fp5qc28wu" class="animable"></path></g></g><path d="M140.26,426.29c0,.2-1,.26-2.09.86s-1.59,1.41-1.78,1.33.15-1.21,1.42-1.91S140.31,426.11,140.26,426.29Z" style="fill: rgb(38, 50, 56); transform-origin: 138.301px 427.293px;" id="el8yb0yk7ldqy" class="animable"></path><path d="M144.64,428.14c.05.19-.86.5-1.58,1.31s-1,1.67-1.16,1.66-.31-1.12.62-2.11S144.65,428,144.64,428.14Z" style="fill: rgb(38, 50, 56); transform-origin: 143.211px 429.593px;" id="elsi4k9cnnc7f" class="animable"></path><path d="M147,433.23c-.19,0-.45-1,.11-2s1.54-1.45,1.63-1.29-.54.72-1,1.6S147.23,433.21,147,433.23Z" style="fill: rgb(38, 50, 56); transform-origin: 147.76px 431.569px;" id="elbvgok7qdecj" class="animable"></path><path d="M140,421.57c-.09.18-1-.12-2.2-.07s-2.09.37-2.2.2.8-.85,2.18-.88S140.13,421.42,140,421.57Z" style="fill: rgb(38, 50, 56); transform-origin: 137.801px 421.284px;" id="eli97ia8xh9r" class="animable"></path><path d="M161.25,348.74c-2.09-7.94-31.06-57.26-31.06-57.26l-1.5-4.37,1.17-2.18-44-23.31S74.57,277,72.14,284.32s-11.75,70.42-11.75,70.42-16.11,23-18.87,28.06c-.64,1.16-20.27,29.85-20.27,29.85L42.44,425.7l46.68-61.86,17.73-51.42,26.22,44.26L120.34,422l22.87,1.13S163.33,356.68,161.25,348.74Z" style="fill: rgb(38, 50, 56); transform-origin: 91.3254px 343.66px;" id="el7iimecd9bpo" class="animable"></path><path d="M117,300.85c.11.16-3.39,2-6.3,5.74a26.58,26.58,0,0,0-3.92,7.54,7.38,7.38,0,0,1,.54-2.48,17.89,17.89,0,0,1,3-5.4,20.31,20.31,0,0,1,4.49-4.19A8.52,8.52,0,0,1,117,300.85Z" style="fill: rgb(69, 90, 100); transform-origin: 111.891px 307.49px;" id="elm0r17ufz0ig" class="animable"></path><path d="M94,277.81a3.68,3.68,0,0,1,.11,1.08,15.49,15.49,0,0,1-.23,3,19,19,0,0,1-4.12,8.85,22.46,22.46,0,0,1-7.79,5.9,20.45,20.45,0,0,1-2.78,1,3.67,3.67,0,0,1-1.07.23c0-.09,1.46-.51,3.68-1.62a23.87,23.87,0,0,0,7.54-5.9,20,20,0,0,0,4.16-8.57C94,279.36,93.92,277.8,94,277.81Z" style="fill: rgb(69, 90, 100); transform-origin: 86.117px 287.84px;" id="elic2vw40c1mh" class="animable"></path><path d="M119.42,299.9a47.41,47.41,0,0,1,1.79-6.89,46.62,46.62,0,0,1,2.31-6.73,44.8,44.8,0,0,1-1.79,6.89A45.74,45.74,0,0,1,119.42,299.9Z" style="fill: rgb(69, 90, 100); transform-origin: 121.47px 293.09px;" id="eljnvf8frttr" class="animable"></path><path d="M166.13,163.46l-13.86,35c-2.35,6-4.6,15.18,5,18.48h0c8.53,2.23,13.66-4.69,15.86-10.25,1-2.63,1.91-4.83,2-5.09,0,0,9.25,2.69,13.38-5.88,2-4.14,5.42-13,8.42-21.05a17.71,17.71,0,0,0-9.1-22.23l-.83-.38C177.8,148.39,169.54,154.16,166.13,163.46Z" style="fill: rgb(255, 191, 157); transform-origin: 174.136px 184.155px;" id="elsmtixibs9wn" class="animable"></path><path d="M175.14,201.6a22.93,22.93,0,0,1-9.66-8.56s-.21,7.57,8.75,10.81Z" style="fill: rgb(255, 154, 108); transform-origin: 170.31px 198.445px;" id="elzx7kgz46g0q" class="animable"></path><path d="M180.42,172.52c-.24.12-.95-1.1-2.42-1.7s-2.85-.3-2.93-.55.26-.37.87-.53a3.93,3.93,0,0,1,2.45.22,3.85,3.85,0,0,1,1.83,1.58C180.52,172.08,180.54,172.48,180.42,172.52Z" style="fill: rgb(38, 50, 56); transform-origin: 177.774px 171.083px;" id="el6mn01oxtq8w" class="animable"></path><path d="M179.3,176a1.29,1.29,0,0,1-1.68.65,1.22,1.22,0,0,1-.7-1.61,1.29,1.29,0,0,1,1.67-.65A1.24,1.24,0,0,1,179.3,176Z" style="fill: rgb(38, 50, 56); transform-origin: 178.106px 175.522px;" id="el40wbrevd2lg" class="animable"></path><path d="M180.2,184.26a9.22,9.22,0,0,1,2.33.62c.36.12.71.2.87,0a1.86,1.86,0,0,0,.25-1.11c.06-1,.13-2,.2-3,.32-4.31.73-7.8.9-7.78s.05,3.52-.27,7.83c-.09,1.06-.17,2.08-.26,3a2.14,2.14,0,0,1-.44,1.41,1,1,0,0,1-.79.24,3.16,3.16,0,0,1-.61-.19A9.66,9.66,0,0,1,180.2,184.26Z" style="fill: rgb(38, 50, 56); transform-origin: 182.514px 179.234px;" id="el5xzg7hd4qn4" class="animable"></path><path d="M181.92,166.71c-.27.27-1.36-.43-2.81-.9s-2.74-.6-2.78-1c0-.18.32-.4.91-.51a4.83,4.83,0,0,1,2.31.21,4.77,4.77,0,0,1,1.95,1.22C181.91,166.2,182,166.57,181.92,166.71Z" style="fill: rgb(38, 50, 56); transform-origin: 179.138px 165.507px;" id="elxwzj8oanb0s" class="animable"></path><path d="M195.72,173.91c-.27.2-1.28-.58-2.64-1.21s-2.59-.94-2.62-1.28c0-.16.32-.3.89-.3a5.25,5.25,0,0,1,2.19.53,5.53,5.53,0,0,1,1.82,1.37C195.73,173.47,195.84,173.82,195.72,173.91Z" style="fill: rgb(38, 50, 56); transform-origin: 193.113px 172.531px;" id="elj4j6besyai9" class="animable"></path><path d="M163.85,170.17c-.11-.13-5.1-4.52-7.66,1.46s4,7.32,4,7.15S163.85,170.17,163.85,170.17Z" style="fill: rgb(255, 191, 157); transform-origin: 159.724px 173.645px;" id="el9gw3c3zrdku" class="animable"></path><path d="M159.38,175.73s-.13,0-.34,0a1.16,1.16,0,0,1-.79-.32,2.81,2.81,0,0,1-.2-2.82,3.78,3.78,0,0,1,.93-1.37,1.31,1.31,0,0,1,1.13-.46.57.57,0,0,1,.49.55c0,.2-.08.3,0,.32s.17,0,.23-.31a.76.76,0,0,0-.08-.47.84.84,0,0,0-.51-.4,1.57,1.57,0,0,0-1.48.46,3.69,3.69,0,0,0-1.08,1.51,2.93,2.93,0,0,0,.41,3.23,1.19,1.19,0,0,0,1,.25C159.31,175.87,159.4,175.75,159.38,175.73Z" style="fill: rgb(255, 154, 108); transform-origin: 159.105px 173.169px;" id="else5ci7b8ge" class="animable"></path><path d="M177.32,188.49c.08-.16-1.18-.6-2-1.83a7,7,0,0,1-.82-1.73c-.17-.48-.3-.78-.38-.76s-.06.34,0,.85a4.86,4.86,0,0,0,.76,1.94,3.94,3.94,0,0,0,1.61,1.34C177,188.52,177.3,188.54,177.32,188.49Z" style="fill: rgb(38, 50, 56); transform-origin: 175.695px 186.341px;" id="el2yswn3lbwj2" class="animable"></path><path d="M204.8,168.91a8.41,8.41,0,0,0,1.31-.59c.46-.29,1.14-1.73.82-2.16a9.52,9.52,0,0,1-1.47-.14,4,4,0,0,1-2.44-3h0a32.57,32.57,0,0,0-1.29-3.63c-1.62-3.8-3.11-6.52-5-8.31A21.89,21.89,0,0,0,186,146c-3.39-.37-7.11,1.07-8.74,4.06-1.17-2.12-3.77-3.09-6.2-3.05l0,0c-2.66-.06-4.94,1.91-6.54,4s-2.88,4.57-5,6.23c-.44.35-.95.76-.9,1.32a1,1,0,0,0,.86.84,2.93,2.93,0,0,0,1.28-.08l-1.5,1.58a5.9,5.9,0,0,0,2.61.8,58.74,58.74,0,0,0-.73,6.94,3.84,3.84,0,0,1,2.24,1.56c.54,1.05.38,2.58,1.94,2.57.8,0,2-1.22,2.49-1.83a37.14,37.14,0,0,0,7.08-14.06,12.07,12.07,0,0,1,4.37-1.17l-.14.06c2.8.08,5.93.31,7.83,2.36,1.48,1.6,1.83,3.9,2.61,5.92a14.86,14.86,0,0,0,8.16,8.36c-.82,2.54-4.31,11.15-5.13,13.69l5.56-8.35v0c.29-.23.54-.47.79-.71l2.7-2.37c.21,0,.43,0,.64,0a8.14,8.14,0,0,0,6.9-4.29C207.41,170.4,205.94,170.26,204.8,168.91Z" style="fill: rgb(38, 50, 56); transform-origin: 183.898px 166.021px;" id="el3q9e0a8ecxo" class="animable"></path><path d="M203.77,171.25l-.09,0-.28.08a3.59,3.59,0,0,1-.47.09,5.24,5.24,0,0,1-.65.08,8.43,8.43,0,0,1-4.05-.76,10.7,10.7,0,0,1-4.59-4,18.59,18.59,0,0,1-2.57-7c-.24-1.32-.34-2.62-.53-3.85a13,13,0,0,0-.95-3.46,6.57,6.57,0,0,0-2-2.52,4.82,4.82,0,0,0-1.29-.67A5.23,5.23,0,0,0,185,149a5.32,5.32,0,0,0-2.27.41,5.6,5.6,0,0,0-1.5.91,6.49,6.49,0,0,0-1,1.16s0,0,0-.09l.15-.26a4.36,4.36,0,0,1,.71-.87,5.55,5.55,0,0,1,1.51-1,5.28,5.28,0,0,1,3.69-.22,4.84,4.84,0,0,1,1.34.68,6.63,6.63,0,0,1,2,2.59,12.75,12.75,0,0,1,1,3.5c.2,1.25.3,2.55.54,3.85a18.54,18.54,0,0,0,2.52,7,10.64,10.64,0,0,0,4.49,4,8.45,8.45,0,0,0,4,.83C203.25,171.39,203.77,171.21,203.77,171.25Z" style="fill: rgb(69, 90, 100); transform-origin: 192px 160.162px;" id="el5dzosmqpseh" class="animable"></path><path d="M193.73,178.24c-.24.12-.95-1.1-2.42-1.7s-2.85-.3-2.94-.55.27-.38.88-.53a4,4,0,0,1,2.45.21,3.87,3.87,0,0,1,1.83,1.59C193.83,177.8,193.85,178.2,193.73,178.24Z" style="fill: rgb(38, 50, 56); transform-origin: 191.077px 176.803px;" id="el9l6ogms9xx" class="animable"></path><path d="M191.65,180.7a1.27,1.27,0,0,1-1.67.65,1.24,1.24,0,0,1-.71-1.61,1.29,1.29,0,0,1,1.67-.65A1.22,1.22,0,0,1,191.65,180.7Z" style="fill: rgb(38, 50, 56); transform-origin: 190.463px 180.223px;" id="elz28zscss1d" class="animable"></path><path d="M179.66,152.17a8.88,8.88,0,0,0-1.19.48,6.71,6.71,0,0,0-2.48,2.42,11.77,11.77,0,0,0-1.09,2.16c-.31.82-.58,1.72-.87,2.66a25.86,25.86,0,0,1-1,2.93,12.24,12.24,0,0,1-.79,1.46,3.28,3.28,0,0,1-1.19,1.24,1.44,1.44,0,0,1-1.41-.05,2.14,2.14,0,0,1-.88-1.07,4.87,4.87,0,0,1,0-2.57l.18.09a8,8,0,0,1-1.78,1.44,2.79,2.79,0,0,1-2.08.28,1.82,1.82,0,0,1-.86-.5,1.63,1.63,0,0,1-.38-.85,1.56,1.56,0,0,1,.11-.86,1.14,1.14,0,0,1,.54-.58l.07.12a6,6,0,0,1-2.45.7c-.3,0-.52,0-.68,0l-.23,0a.82.82,0,0,1,.23,0c.16,0,.38,0,.67,0a6.3,6.3,0,0,0,2.39-.75l.06.12a1.23,1.23,0,0,0-.56,1.29,1.49,1.49,0,0,0,.36.76,1.66,1.66,0,0,0,.77.45,2.63,2.63,0,0,0,1.94-.28,7.87,7.87,0,0,0,1.73-1.42l.24-.24-.06.33a4.77,4.77,0,0,0,0,2.46,2,2,0,0,0,.79,1,1.22,1.22,0,0,0,1.2.05,3.28,3.28,0,0,0,1.11-1.17,10.4,10.4,0,0,0,.77-1.43,24.15,24.15,0,0,0,1-2.9c.3-.94.57-1.84.9-2.66a11.79,11.79,0,0,1,1.12-2.19,6.79,6.79,0,0,1,2.58-2.41A4,4,0,0,1,179.66,152.17Z" style="fill: rgb(69, 90, 100); transform-origin: 170.43px 158.925px;" id="elaw2swcx6cbo" class="animable"></path><path d="M82,264.1s49.92-58.38,57.67-65.28c10.18-9.06,25.09-3.18,25.09-3.18l19.61,23.14-8.83,11.83L154.35,259.7,136,290.32s-13.33,1.62-20.84-2.48S82,264.1,82,264.1Z" style="fill: rgb(69, 90, 100); transform-origin: 133.185px 242.2px;" id="eltymgj482sh" class="animable"></path><path d="M145.84,205.06s-5.8,16.38,11.95,17.06,61.43-3.75,61.43-3.75l42.73-7.5-2.1-15.12-49.42,2.94s-48.94-4.29-56.3-3.61C146,195.84,145.84,205.06,145.84,205.06Z" style="fill: rgb(69, 90, 100); transform-origin: 203.442px 208.599px;" id="elk4aw5gy2f9f" class="animable"></path><path d="M145,215a2.53,2.53,0,0,1-.5-.77,13.38,13.38,0,0,1-1-2.32,15,15,0,0,1-.2-8.21,15.77,15.77,0,0,1,4.31-7,8,8,0,0,1,2.08-1.4,2.21,2.21,0,0,1,.89-.27,12.42,12.42,0,0,0-2.71,2,16.57,16.57,0,0,0-4,6.87,15.79,15.79,0,0,0,.05,8C144.45,213.82,145.1,215,145,215Z" style="fill: rgb(38, 50, 56); transform-origin: 146.701px 205.015px;" id="elegp5yum8aoj" class="animable"></path><path d="M262,210.87a1,1,0,0,1-.06-.26c0-.2-.08-.45-.13-.76-.11-.72-.27-1.71-.46-3-.39-2.63-.94-6.4-1.63-11.1l.2.16-44.08,2.74-3.94.23h0L172.55,196l-11.77-.93-3.18-.28-.83-.08a1,1,0,0,1-.28,0,1.29,1.29,0,0,1,.29,0l.83,0,3.19.18,11.77.76,39.29,2.74h0l3.94-.24,44.08-2.55H260l0,.16c.61,4.71,1.11,8.49,1.46,11.13.15,1.27.27,2.26.36,3,0,.32.06.57.08.77A.79.79,0,0,1,262,210.87Z" style="fill: rgb(38, 50, 56); transform-origin: 209.245px 202.786px;" id="el756uihakovd" class="animable"></path><path d="M218.22,218.47a2.49,2.49,0,0,1-.58.14c-.38.08-1,.19-1.69.31-1.48.22-3.63.5-6.28.78-5.31.55-12.67,1.14-20.8,1.64s-15.5.82-20.84.95c-2.67.07-4.83.09-6.32.07l-1.72-.05a3.92,3.92,0,0,1-.6-.05,2.41,2.41,0,0,1,.6-.06l1.72,0,6.31-.25c5.33-.23,12.69-.61,20.82-1.11s15.48-1,20.79-1.48c2.66-.23,4.81-.45,6.29-.6l1.7-.21A2.27,2.27,0,0,1,218.22,218.47Z" style="fill: rgb(38, 50, 56); transform-origin: 188.805px 220.419px;" id="elxk3gurjqfvl" class="animable"></path><g id="eltwissfs7hap"><g style="opacity: 0.3; transform-origin: 167.955px 224.621px;" class="animable"><path d="M153.91,222.19s4.77,6.15,14.55,5.48S182,221.52,182,221.52Z" id="elvow8g7ymec" class="animable" style="transform-origin: 167.955px 224.621px;"></path></g></g><path d="M280.43,178l-8.12,7a66.92,66.92,0,0,0,4.07-6.5c.63-1.55-.9-3.36-.9-3.36l-1.9,1.9-.26-1.64-8.84,9.94-3.07,10.54-1.54.07,1.76,12c2.32-.88,6.34-2.91,7.13-5.08s4.48-13.62,4.48-13.62,4.54-5.2,6.25-7.41S280.43,178,280.43,178Z" style="fill: rgb(255, 191, 157); transform-origin: 270.236px 191.545px;" id="elk92cmi5h8f" class="animable"></path><path d="M275.48,175.12a55.65,55.65,0,0,1-4.08,5.36,50.56,50.56,0,0,1-4.36,5.14,35.4,35.4,0,0,1,3.93-5.48A33.71,33.71,0,0,1,275.48,175.12Z" style="fill: rgb(255, 154, 108); transform-origin: 271.26px 180.37px;" id="elobuofhhxlxc" class="animable"></path><path d="M273.32,175.38a22.84,22.84,0,0,1-2.22,2.78c-1.43,1.67-3.42,4-5.65,6.46l-.77.87.05-.1c-.87,3-1.67,5.59-2.26,7.47a21.4,21.4,0,0,1-1.06,3,19.31,19.31,0,0,1,.72-3.1c.51-1.91,1.25-4.55,2.11-7.52v-.05l0-.05.77-.86c2.23-2.51,4.27-4.75,5.76-6.36A25.42,25.42,0,0,1,273.32,175.38Z" style="fill: rgb(255, 154, 108); transform-origin: 267.365px 185.62px;" id="elxbvtv7yhaoi" class="animable"></path></g><defs>     <filter id="active" height="200%">         <feMorphology in="SourceAlpha" result="DILATED" operator="dilate" radius="2"></feMorphology>                <feFlood flood-color="#32DFEC" flood-opacity="1" result="PINK"></feFlood>        <feComposite in="PINK" in2="DILATED" operator="in" result="OUTLINE"></feComposite>        <feMerge>            <feMergeNode in="OUTLINE"></feMergeNode>            <feMergeNode in="SourceGraphic"></feMergeNode>        </feMerge>    </filter>    <filter id="hover" height="200%">        <feMorphology in="SourceAlpha" result="DILATED" operator="dilate" radius="2"></feMorphology>                <feFlood flood-color="#ff0000" flood-opacity="0.5" result="PINK"></feFlood>        <feComposite in="PINK" in2="DILATED" operator="in" result="OUTLINE"></feComposite>        <feMerge>            <feMergeNode in="OUTLINE"></feMergeNode>            <feMergeNode in="SourceGraphic"></feMergeNode>        </feMerge>            <feColorMatrix type="matrix" values="0   0   0   0   0                0   1   0   0   0                0   0   0   0   0                0   0   0   1   0 "></feColorMatrix>    </filter></defs></svg>