<svg width="140" height="35" viewBox="0 0 140 35" fill="none" xmlns="http://www.w3.org/2000/svg">
<path d="M8.692 33.689C8.65667 33.689 8.62133 33.6713 8.586 33.636C8.586 33.318 8.533 33.0353 8.427 32.788C8.35633 32.788 8.215 32.894 8.003 33.106C7.75567 33.318 7.59667 33.424 7.526 33.424L6.148 33.053C6.11267 33.0883 6.02433 33.106 5.883 33.106L4.823 32.629C4.78767 32.629 4.717 32.629 4.611 32.629C4.54033 32.5937 4.452 32.5583 4.346 32.523L3.71 32.152H3.657L3.498 32.205C3.392 32.0637 3.19767 31.9047 2.915 31.728L2.703 30.986C2.52633 30.88 2.40267 30.774 2.332 30.668L2.173 30.138C2.067 30.0673 1.961 29.9967 1.855 29.926C1.749 29.82 1.62533 29.6963 1.484 29.555C1.44867 29.4843 1.41333 29.396 1.378 29.29C1.34267 29.184 1.28967 29.0603 1.219 28.919V28.601C1.18367 28.5303 1.14833 28.4773 1.113 28.442C1.07767 28.3713 1.02467 28.3007 0.954 28.23C0.812667 27.9827 0.759667 27.6823 0.795 27.329L1.113 26.375C1.113 26.375 1.07767 26.3043 1.007 26.163L0.848 25.898C0.812667 25.792 0.795 25.6507 0.795 25.474C0.830333 24.838 0.883333 24.6083 0.954 24.785C0.954 24.785 0.918667 24.7143 0.848 24.573C0.742 24.467 0.689 24.3787 0.689 24.308C0.759667 23.9193 0.830333 23.6543 0.901 23.513C0.971667 23.4423 1.07767 23.301 1.219 23.089L1.113 22.718C1.07767 22.5413 1.06 22.453 1.06 22.453L1.325 22.029L1.166 21.817C1.20133 21.7817 1.219 21.6757 1.219 21.499L1.113 20.704L1.378 20.227C1.41333 20.121 1.39567 19.9797 1.325 19.803C1.325 19.7677 1.34267 19.75 1.378 19.75C1.41333 19.75 1.431 19.7147 1.431 19.644C1.431 19.644 1.44867 19.4497 1.484 19.061L1.325 17.471C1.60767 17.4003 1.749 17.2943 1.749 17.153L1.59 16.623C1.76667 16.5523 1.94333 16.4463 2.12 16.305C2.29667 16.1637 2.491 16.0223 2.703 15.881C2.703 15.6337 2.597 15.4923 2.385 15.457C2.24367 15.457 2.15533 15.5277 2.12 15.669L2.014 15.987C1.66067 15.8103 1.51933 15.5807 1.59 15.298L1.749 14.98V14.662L2.067 14.344C2.067 14.4147 2.067 14.4323 2.067 14.397C2.067 14.3617 2.08467 14.2733 2.12 14.132L2.067 13.708C2.03167 13.602 2.014 13.5137 2.014 13.443C2.014 13.3723 2.014 13.3193 2.014 13.284L2.226 12.648C2.29667 12.4713 2.332 12.2593 2.332 12.012C2.332 11.7647 2.332 11.5173 2.332 11.27L2.438 10.952C2.438 10.8107 2.438 10.6517 2.438 10.475C2.438 10.2983 2.42033 10.1217 2.385 9.945C2.45567 9.59167 2.544 9.362 2.65 9.256C2.79133 9.11467 2.862 8.97333 2.862 8.832L2.809 8.567C2.809 8.49633 2.79133 8.461 2.756 8.461C2.72067 8.42567 2.703 8.39033 2.703 8.355L2.862 7.666C2.89733 7.666 2.95033 7.63067 3.021 7.56C2.87967 7.20667 2.82667 6.871 2.862 6.553C2.89733 6.48233 2.93267 6.41166 2.968 6.341C3.00333 6.27033 3.03867 6.182 3.074 6.076L3.127 5.599L3.657 5.175L3.922 5.228L3.551 5.493C3.58633 5.52833 3.62167 5.61667 3.657 5.758H3.816L3.975 5.599V5.228C4.11633 5.15733 4.25767 5.03367 4.399 4.857C4.293 4.60966 4.16933 4.46833 4.028 4.433L3.922 4.539L3.604 4.486V4.327C3.604 4.115 3.869 3.797 4.399 3.373C4.43433 3.33767 4.452 3.23167 4.452 3.055L4.876 2.737C4.91133 2.66633 5.035 2.525 5.247 2.313L6.254 1.571C6.28933 1.60633 6.413 1.65933 6.625 1.73C6.55433 1.69467 6.731 1.571 7.155 1.359C7.22567 1.32366 7.314 1.306 7.42 1.306C7.56133 1.27066 7.72033 1.27066 7.897 1.306C7.897 1.306 8.003 1.34133 8.215 1.412C8.427 1.412 8.533 1.32367 8.533 1.147C8.533 0.970333 8.60367 0.882 8.745 0.882C8.92167 0.952665 9.01 1.00566 9.01 1.041V1.359L9.222 1.147C9.328 0.970333 9.381 0.846666 9.381 0.775998V0.669999C9.381 0.669999 9.57533 0.705332 9.964 0.775998L10.282 0.828997C10.5647 0.758331 10.653 0.705332 10.547 0.669999C10.6883 0.740665 10.8297 0.811332 10.971 0.882C11.1477 0.917333 11.3067 0.970332 11.448 1.041C11.4833 1.07633 11.5893 1.05866 11.766 0.987998L12.137 0.882L12.879 0.828997L14.363 1.677L14.893 1.571C15.0697 1.60633 15.158 1.64167 15.158 1.677C15.1933 1.74766 15.211 1.87133 15.211 2.048L15.529 2.525L15.582 2.896C15.6173 3.002 15.741 3.09033 15.953 3.161C16.0237 3.161 16.1297 3.108 16.271 3.002C16.3417 3.108 16.4123 3.214 16.483 3.32C16.5537 3.426 16.6067 3.532 16.642 3.638L17.066 3.956L17.225 4.539V4.592C17.225 4.804 17.2957 4.99833 17.437 5.175L17.808 5.228C17.8787 5.29867 17.914 5.387 17.914 5.493C17.914 5.63433 17.861 5.84633 17.755 6.129L17.649 6.447C17.8963 7.083 18.02 7.47167 18.02 7.613C18.126 7.719 18.179 7.78967 18.179 7.825L18.232 8.09C18.232 8.12533 18.232 8.17833 18.232 8.249C18.2673 8.28433 18.285 8.31967 18.285 8.355C18.1437 8.42567 18.02 8.514 17.914 8.62C17.808 8.726 17.6843 8.84967 17.543 8.991C17.7903 9.23833 17.914 9.50333 17.914 9.786C17.8787 9.85667 17.7727 10.051 17.596 10.369L17.861 11.27C17.861 11.3053 17.808 11.376 17.702 11.482C17.596 11.588 17.543 11.6587 17.543 11.694C17.6137 11.8353 17.6667 11.9943 17.702 12.171C17.7373 12.3477 17.7727 12.5243 17.808 12.701C17.7373 13.0897 17.5607 13.2663 17.278 13.231L16.006 12.913H14.999C14.9283 12.8423 14.8047 12.8423 14.628 12.913L14.257 13.019C14.1863 13.019 14.0627 12.966 13.886 12.86L13.515 12.754H12.402C12.3313 12.754 12.1723 12.6657 11.925 12.489C11.9957 12.383 12.0487 12.2593 12.084 12.118C12.1193 11.9767 12.1193 11.8353 12.084 11.694L12.031 11.429C12.031 11.3583 12.0133 11.323 11.978 11.323C11.978 11.2877 11.978 11.2523 11.978 11.217L12.773 8.249L12.667 7.613C12.6317 7.64833 12.5787 7.666 12.508 7.666C12.3313 7.666 12.2607 7.48933 12.296 7.136L12.349 6.553C12.137 6.129 11.9603 5.89933 11.819 5.864C11.819 5.864 11.7307 5.917 11.554 6.023C11.4833 6.09367 11.3773 6.11133 11.236 6.076L10.282 5.705C10.2113 5.705 10.123 5.705 10.017 5.705C9.911 5.705 9.76967 5.72267 9.593 5.758C9.45167 5.79333 9.34567 5.89933 9.275 6.076L9.169 6.447C9.02767 6.48233 8.86867 6.62367 8.692 6.871C8.65667 6.90633 8.62133 6.977 8.586 7.083C8.55067 7.15367 8.49767 7.242 8.427 7.348L8.48 7.613C8.44467 7.75433 8.40933 7.91333 8.374 8.09C8.374 8.23133 8.33867 8.408 8.268 8.62L8.056 9.044C8.056 9.07933 8.07367 9.18533 8.109 9.362C8.07367 9.50333 8.02067 9.82133 7.95 10.316C7.91467 10.3867 7.93233 10.5457 8.003 10.793L8.109 11.323C7.897 11.3583 7.791 11.4467 7.791 11.588C7.791 11.6233 7.80867 11.6763 7.844 11.747C7.87933 11.8177 7.91467 11.906 7.95 12.012L8.056 12.383C8.02067 12.4183 7.897 12.6127 7.685 12.966C7.50833 13.3193 7.42 13.5137 7.42 13.549L7.579 13.92C7.685 14.2027 7.72033 14.4677 7.685 14.715C7.64967 14.8563 7.42 14.9977 6.996 15.139C7.13733 15.2097 7.261 15.298 7.367 15.404C7.367 15.4747 7.34933 15.6337 7.314 15.881C7.27867 16.093 7.22567 16.3933 7.155 16.782C7.22567 16.994 7.261 17.2413 7.261 17.524C7.261 17.5593 7.24333 17.63 7.208 17.736C7.17267 17.8067 7.11967 17.9127 7.049 18.054L6.837 18.531C6.80167 18.7783 6.80167 18.9727 6.837 19.114C6.943 19.6793 7.01367 19.8913 7.049 19.75C6.943 19.9973 6.837 20.4037 6.731 20.969C6.76633 21.1457 6.784 21.234 6.784 21.234L6.625 22.347C6.58967 22.347 6.53667 22.4 6.466 22.506L6.678 22.877C6.784 23.089 6.837 23.2127 6.837 23.248C6.837 23.248 6.74867 23.3717 6.572 23.619C6.39533 23.9017 6.307 24.043 6.307 24.043C6.307 24.1843 6.36 24.255 6.466 24.255H6.36C6.36 24.3963 6.34233 24.5377 6.307 24.679C6.307 24.8203 6.28933 24.9793 6.254 25.156C6.21867 25.2973 6.201 25.474 6.201 25.686C6.201 25.8627 6.201 26.057 6.201 26.269C6.16567 26.375 6.148 26.5693 6.148 26.852L6.731 27.276V27.7C6.731 27.7353 6.837 27.7883 7.049 27.859C7.08433 28.2123 7.22567 28.4243 7.473 28.495L7.844 28.389C8.056 28.3183 8.162 28.283 8.162 28.283H9.54C9.61067 28.1417 9.68133 28.0003 9.752 27.859C9.858 27.6823 9.98167 27.5233 10.123 27.382L10.494 26.958C10.6 26.852 10.7413 26.7813 10.918 26.746V26.693C10.918 26.6223 10.8827 26.587 10.812 26.587L10.547 26.534C10.547 26.428 10.6177 26.3043 10.759 26.163C10.5823 25.8097 10.5117 25.5977 10.547 25.527C10.6177 25.3857 10.6707 25.2267 10.706 25.05C10.7767 24.8733 10.8297 24.6967 10.865 24.52L10.812 24.255V23.99C10.812 23.884 10.812 23.7603 10.812 23.619C10.812 23.4423 10.8297 23.248 10.865 23.036C10.865 23.0007 10.8297 22.9123 10.759 22.771V22.082C10.759 21.8347 10.8827 21.499 11.13 21.075C11.3067 21.075 11.5363 21.0927 11.819 21.128C12.137 21.128 12.4727 21.1457 12.826 21.181L13.568 21.393C13.78 21.4283 13.939 21.4813 14.045 21.552C14.1863 21.6227 14.2747 21.658 14.31 21.658L14.681 21.552C14.8577 21.4813 14.9813 21.4813 15.052 21.552C15.0873 21.552 15.2463 21.5873 15.529 21.658C15.847 21.6933 16.0237 21.7287 16.059 21.764H16.748L16.854 21.923L16.536 22.453C16.536 22.4883 16.536 22.5413 16.536 22.612C16.536 22.6827 16.5183 22.7887 16.483 22.93C16.6597 23.1773 16.748 23.301 16.748 23.301L16.165 24.043L15.635 23.725L15.9 24.043L15.847 24.308H15.582C15.7587 24.4847 15.8823 24.5907 15.953 24.626C15.6703 24.7673 15.4937 24.997 15.423 25.315C15.423 25.4917 15.4583 25.58 15.529 25.58L15.847 25.474C16.165 25.8627 16.3063 26.11 16.271 26.216C16.271 26.2867 16.165 26.4103 15.953 26.587L16.112 26.958C16.112 27.0287 16.0943 27.0817 16.059 27.117L15.953 27.276C15.953 27.488 15.953 27.6823 15.953 27.859C15.953 28.0003 15.9353 28.124 15.9 28.23L15.529 28.601C15.529 28.6717 15.529 28.76 15.529 28.866C15.529 28.9367 15.5113 29.0427 15.476 29.184C15.4407 29.2547 15.3523 29.396 15.211 29.608C15.105 29.7847 14.9637 30.0143 14.787 30.297C14.7517 30.3323 14.6987 30.3677 14.628 30.403C14.5927 30.4383 14.5397 30.4913 14.469 30.562V30.827C14.3983 30.933 14.2923 31.039 14.151 31.145C14.045 31.251 13.9213 31.3747 13.78 31.516L13.515 31.622C13.409 31.6927 13.3737 31.781 13.409 31.887C13.3737 31.9223 13.2853 31.94 13.144 31.94L12.826 32.258C12.826 32.258 12.72 32.2933 12.508 32.364C12.4373 32.4347 12.3313 32.5407 12.19 32.682C12.084 32.788 11.9427 32.9117 11.766 33.053C11.5893 33.159 11.4127 33.2297 11.236 33.265C11.0593 33.3357 10.8827 33.3533 10.706 33.318L10.547 33.265C10.5117 33.265 10.4233 33.2827 10.282 33.318C10.1407 33.3533 9.92867 33.4063 9.646 33.477L8.692 33.689ZM16.218 2.949C16.218 2.843 16.2357 2.77233 16.271 2.737C16.271 2.737 16.2887 2.75466 16.324 2.79V2.949H16.218ZM8.109 3.426C8.109 3.39067 8.14433 3.33767 8.215 3.267L8.321 3.214C8.28567 3.17867 8.19733 3.17867 8.056 3.214L8.109 3.426ZM8.798 3.691C8.904 3.76167 8.99233 3.691 9.063 3.479C8.99233 3.40833 8.92167 3.40833 8.851 3.479C8.78033 3.54967 8.76267 3.62033 8.798 3.691ZM7.208 4.433C7.27867 4.46833 7.40233 4.433 7.579 4.327C7.43767 4.07967 7.24333 4.02666 6.996 4.168C7.06667 4.30933 7.13733 4.39767 7.208 4.433ZM5.088 7.56C5.15867 7.52467 5.22933 7.507 5.3 7.507C5.22933 7.47167 5.141 7.43633 5.035 7.401C4.96433 7.36567 4.876 7.31267 4.77 7.242C4.77 7.06533 4.78767 6.95933 4.823 6.924C4.78767 6.818 4.64633 6.67667 4.399 6.5C4.25767 6.46467 4.187 6.553 4.187 6.765C4.15167 7.01233 4.09867 7.17133 4.028 7.242C4.41667 7.454 4.68167 7.56 4.823 7.56H5.088ZM6.466 7.613C6.50133 7.57767 6.572 7.54233 6.678 7.507C6.81933 7.43633 6.97833 7.348 7.155 7.242C7.049 7.20667 6.96067 7.17133 6.89 7.136C6.81933 7.10067 6.74867 7.06533 6.678 7.03L6.413 6.712C6.413 6.74733 6.413 6.818 6.413 6.924C6.44833 6.99467 6.466 7.06533 6.466 7.136V7.613ZM16.483 8.673C16.5183 8.63767 16.483 8.54933 16.377 8.408C16.3417 8.408 16.2887 8.44333 16.218 8.514L16.377 8.567C16.4123 8.567 16.43 8.58467 16.43 8.62C16.4653 8.65533 16.483 8.673 16.483 8.673ZM14.787 9.415C14.8577 9.27367 14.893 9.18533 14.893 9.15C14.893 9.00867 14.8223 8.885 14.681 8.779L14.522 9.097C14.522 9.203 14.6103 9.309 14.787 9.415ZM14.045 11.323L14.151 10.793L13.939 10.899L14.045 11.323ZM15.211 11.27C15.2463 11.1993 15.2287 11.1287 15.158 11.058C15.1227 11.0227 15.052 11.0227 14.946 11.058C14.946 11.1993 15.0343 11.27 15.211 11.27ZM4.664 21.605C4.77 21.605 4.84067 21.499 4.876 21.287C4.77 21.2517 4.68167 21.2693 4.611 21.34C4.57567 21.3753 4.59333 21.4637 4.664 21.605ZM4.028 23.301L4.452 23.248H4.876L4.982 22.824L4.452 22.771C4.16933 22.983 4.028 23.1597 4.028 23.301ZM14.575 23.725C14.7517 23.5483 14.8047 23.4247 14.734 23.354L14.257 23.301C14.2217 23.5483 14.2217 23.672 14.257 23.672L14.575 23.725ZM14.522 24.255L14.628 24.202H14.787V24.096C14.787 24.0607 14.7693 24.043 14.734 24.043C14.734 24.043 14.734 24.0253 14.734 23.99C14.5927 24.0253 14.522 24.1137 14.522 24.255ZM11.607 27.806C11.6777 27.7707 11.7483 27.6647 11.819 27.488C11.7483 27.4527 11.6777 27.4703 11.607 27.541C11.5363 27.6117 11.5363 27.7 11.607 27.806ZM8.268 29.714C8.30333 29.6433 8.28567 29.5727 8.215 29.502C8.14433 29.4313 8.07367 29.4313 8.003 29.502C8.003 29.5727 8.09133 29.6433 8.268 29.714ZM21.1805 33.106L20.4915 32.894C20.3855 32.8233 20.3325 32.7527 20.3325 32.682C20.4032 32.576 20.4032 32.2227 20.3325 31.622C20.3679 31.5867 20.3855 31.5337 20.3855 31.463L20.6505 31.251C20.6505 31.145 20.6329 31.0567 20.5975 30.986L20.5445 30.774C20.5799 30.774 20.6505 30.6857 20.7565 30.509C20.7919 30.3677 20.8625 30.297 20.9685 30.297C21.1805 30.1203 21.2865 29.9613 21.2865 29.82C21.2865 29.396 21.0922 29.237 20.7035 29.343L20.4915 29.396C20.5269 29.3253 20.5445 29.2547 20.5445 29.184C20.5445 29.1133 20.5622 29.025 20.5975 28.919L20.3325 28.495C20.3325 28.4597 20.3325 28.4067 20.3325 28.336C20.3325 28.2653 20.3502 28.1593 20.3855 28.018L20.3325 27.806C20.3325 27.7707 20.3149 27.753 20.2795 27.753C20.2442 27.7177 20.2265 27.6823 20.2265 27.647L20.3855 27.117C20.4915 26.8343 20.5445 26.6753 20.5445 26.64L20.3855 26.322C20.3855 26.1453 20.3679 25.9157 20.3325 25.633C20.3325 25.315 20.3149 24.9793 20.2795 24.626L20.0675 24.043V23.884C20.0675 23.778 20.0852 23.6367 20.1205 23.46C20.1912 23.2833 20.2265 23.0713 20.2265 22.824V22.771C20.2265 22.7003 20.2089 22.6297 20.1735 22.559C20.1735 22.453 20.1559 22.3293 20.1205 22.188L20.2795 21.923C20.2795 21.8877 20.2619 21.8523 20.2265 21.817L20.1205 21.446C20.0499 21.2693 20.0675 21.0927 20.1735 20.916L20.3855 20.545L20.2265 20.333V19.962C20.2265 19.8207 20.2089 19.6793 20.1735 19.538C20.1735 19.3613 20.1735 19.1847 20.1735 19.008L19.9615 18.213C19.9969 18.107 20.0145 17.9833 20.0145 17.842C20.0145 17.6653 20.0322 17.4887 20.0675 17.312L20.3325 16.994C20.0852 16.8527 19.9262 16.6053 19.8555 16.252C19.8555 16.1107 19.9439 15.9517 20.1205 15.775C20.2972 15.669 20.3855 15.563 20.3855 15.457C20.3855 15.351 20.3325 15.192 20.2265 14.98L20.4385 14.821C20.3679 14.7857 20.2795 14.7327 20.1735 14.662C20.0675 14.5913 19.9439 14.5207 19.8025 14.45L20.2265 13.973C20.0145 13.867 19.9085 13.496 19.9085 12.86L19.4845 10.422V9.097C19.4845 8.92033 19.4669 8.832 19.4315 8.832L19.3255 8.461C19.3255 8.249 19.3609 8.037 19.4315 7.825C19.4315 7.75433 19.4845 7.70133 19.5905 7.666C19.6612 7.59533 19.6965 7.54233 19.6965 7.507C19.6965 7.507 19.6612 7.43633 19.5905 7.295C19.4845 7.189 19.4315 7.11833 19.4315 7.083C19.4669 7.01233 19.4845 6.85333 19.4845 6.606L19.8555 6.659C19.8909 6.553 19.9085 6.341 19.9085 6.023L19.5375 5.864C19.5729 5.82867 19.5905 5.705 19.5905 5.493L19.3255 3.161L19.4845 2.737L19.2725 2.472L19.1135 1.889C19.1135 1.64166 19.2549 1.32366 19.5375 0.934999H19.8025C19.9439 1.18233 20.0675 1.306 20.1735 1.306C20.2442 1.306 20.3502 1.23533 20.4915 1.094C20.6329 0.952665 20.7389 0.882 20.8095 0.882L21.2335 1.094C21.4809 1.23533 21.6222 1.306 21.6575 1.306C21.6929 1.27066 21.7282 1.23533 21.7635 1.2C21.7989 1.16467 21.8519 1.12933 21.9225 1.094L22.1345 1.147C22.2052 1.18233 22.2759 1.2 22.3465 1.2C22.4172 1.2 22.6115 1.16466 22.9295 1.094C23.2475 0.987998 23.4419 0.917333 23.5125 0.882C23.9012 0.882 24.1485 0.899666 24.2545 0.934999C24.3959 0.970332 24.5902 1.27067 24.8375 1.836L24.6255 2.631C24.6962 2.80767 24.7492 3.03733 24.7845 3.32C24.7845 3.39067 24.7845 3.479 24.7845 3.585C24.7845 3.65567 24.7669 3.76167 24.7315 3.903L24.6255 4.38C24.6255 4.41533 24.6432 4.46833 24.6785 4.539C24.7139 4.57433 24.7492 4.66267 24.7845 4.804L24.8905 5.228C24.8905 5.26333 24.8905 5.31633 24.8905 5.387C24.8905 5.42233 24.8729 5.51066 24.8375 5.652C24.8375 5.758 24.7669 5.864 24.6255 5.97L24.9965 6.765C24.9965 6.80033 24.9435 6.95933 24.8375 7.242C24.9435 7.48933 24.9965 7.772 24.9965 8.09C24.9965 8.09 24.9612 8.196 24.8905 8.408C24.8199 8.58467 24.8022 8.69067 24.8375 8.726L25.1025 9.468C25.1732 9.92733 25.2262 10.2453 25.2615 10.422C25.2615 10.422 25.2085 10.5103 25.1025 10.687C24.9965 10.8283 24.9435 10.9343 24.9435 11.005C24.8729 11.005 24.7315 11.0403 24.5195 11.111C24.8022 11.4643 25.0672 11.9413 25.3145 12.542L25.1025 13.072C24.9612 13.39 24.8905 13.6373 24.8905 13.814C24.9612 13.8847 25.0495 14.0437 25.1555 14.291L25.2085 14.715C25.3145 14.821 25.3852 14.927 25.4205 15.033C25.4205 15.033 25.3675 15.1213 25.2615 15.298L24.9965 15.669C24.9612 15.7397 24.9435 15.8457 24.9435 15.987L25.3675 16.411L25.1555 16.729C25.1909 16.6937 25.2262 16.782 25.2615 16.994L25.2085 17.471L25.3675 17.895L25.1555 18.902L25.6325 19.697C25.6325 19.7677 25.5795 19.962 25.4735 20.28L25.2615 20.81C25.2615 20.8807 25.3675 21.3753 25.5795 22.294C25.4382 22.188 25.2792 22.135 25.1025 22.135C24.8552 22.135 24.7315 22.241 24.7315 22.453C24.7315 22.7003 24.8729 22.824 25.1555 22.824C25.1909 22.824 25.2615 22.877 25.3675 22.983L25.5265 23.089C25.4912 23.3363 25.4912 23.566 25.5265 23.778L25.6855 24.202C25.6855 24.202 25.6502 24.308 25.5795 24.52L25.4735 24.838C25.6149 24.9793 25.7032 25.1383 25.7385 25.315V25.633C25.7032 25.6683 25.5972 25.686 25.4205 25.686L25.4735 26.004V26.375C25.3322 26.3043 25.2085 26.322 25.1025 26.428V26.587L25.5265 26.534C25.5972 26.8873 25.6502 27.1347 25.6855 27.276L25.5795 27.594C25.5089 27.806 25.4735 27.912 25.4735 27.912C25.4735 28.018 25.5442 28.124 25.6855 28.23L25.9505 28.389C25.8445 28.5303 25.8269 28.76 25.8975 29.078C25.8975 29.1133 25.8622 29.1663 25.7915 29.237C25.7209 29.3077 25.6855 29.3783 25.6855 29.449L25.9505 31.039L26.0035 32.682C26.0035 32.894 25.8975 33 25.6855 33L25.4735 32.894C25.4029 32.8587 25.3499 32.841 25.3145 32.841C25.2792 32.8057 25.2439 32.788 25.2085 32.788C25.1379 32.7527 25.0495 32.735 24.9435 32.735C24.8375 32.735 24.7492 32.735 24.6785 32.735C24.2899 32.735 23.9719 32.7527 23.7245 32.788C23.4772 32.788 23.3182 32.7703 23.2475 32.735L22.9295 32.682C22.8589 32.7173 22.7705 32.7703 22.6645 32.841C22.5939 32.8763 22.4879 32.9293 22.3465 33H21.5515C21.5162 33.0353 21.4632 33.053 21.3925 33.053C21.3219 33.053 21.2512 33.0707 21.1805 33.106ZM21.3395 3.055C21.3749 3.01967 21.4102 3.002 21.4455 3.002C21.4809 3.002 21.5162 2.98433 21.5515 2.949C21.5515 2.91367 21.5162 2.86067 21.4455 2.79L21.3395 3.055ZM23.9895 12.224C24.0249 12.1887 23.9895 12.1357 23.8835 12.065C23.8129 12.065 23.7599 12.0827 23.7245 12.118C23.7952 12.1887 23.8835 12.224 23.9895 12.224ZM24.0955 13.072C24.1309 13.0013 24.1132 12.9307 24.0425 12.86C24.0072 12.8247 23.9189 12.8423 23.7775 12.913C23.8482 13.019 23.9542 13.072 24.0955 13.072ZM20.6505 18.213C20.7212 18.213 20.7919 18.1777 20.8625 18.107C20.9332 18.0363 20.9155 17.9657 20.8095 17.895C20.7035 17.895 20.6505 18.001 20.6505 18.213ZM23.4065 21.923H23.5655C23.7775 21.923 23.9365 21.7993 24.0425 21.552C24.2192 21.1987 24.3075 21.0573 24.3075 21.128C24.2369 20.81 23.9719 20.7217 23.5125 20.863C23.3359 20.9337 23.1945 21.0397 23.0885 21.181C23.0179 21.287 22.9825 21.4107 22.9825 21.552C22.9825 21.7993 23.1239 21.923 23.4065 21.923ZM21.9755 32.046C22.0109 31.9753 21.9932 31.9047 21.9225 31.834C21.8872 31.7633 21.7989 31.7987 21.6575 31.94C21.7282 32.046 21.8342 32.0813 21.9755 32.046ZM32.1573 33.212L31.4683 33H31.2563C31.1503 33 31.0267 33 30.8853 33C30.744 32.9647 30.585 32.9293 30.4083 32.894L29.2953 31.94C29.0127 31.6573 28.8007 31.3217 28.6593 30.933C28.624 30.7917 28.5887 30.615 28.5533 30.403C28.518 30.191 28.465 29.9437 28.3943 29.661L28.4473 29.396C28.4473 29.29 28.4297 29.2017 28.3943 29.131C28.3237 28.919 28.2883 28.813 28.2883 28.813C28.3237 28.7423 28.3413 28.6363 28.3413 28.495C28.3413 28.3183 28.3413 28.1417 28.3413 27.965L28.0233 26.905V26.746C28.0233 26.6753 28.0233 26.587 28.0233 26.481C28.0233 26.375 28.041 26.269 28.0763 26.163L28.3413 25.527V25.156C28.4827 24.944 28.624 24.679 28.7653 24.361C28.9067 24.0077 29.048 23.6013 29.1893 23.142L29.6133 22.93C29.6487 22.8593 29.684 22.7887 29.7193 22.718C29.7547 22.6473 29.8077 22.5767 29.8783 22.506L30.6203 21.764C30.6557 21.6933 30.691 21.6227 30.7263 21.552C30.7617 21.446 30.8147 21.3223 30.8853 21.181L32.7933 20.015C32.97 19.909 33.1467 19.803 33.3233 19.697C33.5 19.591 33.6767 19.4673 33.8533 19.326C33.8533 19.326 33.9593 19.3613 34.1713 19.432C34.2067 19.3967 34.242 19.3613 34.2773 19.326C34.3127 19.2553 34.3657 19.2023 34.4363 19.167L34.9663 18.955C34.9663 18.7783 35.037 18.6017 35.1783 18.425C35.2843 18.3543 35.408 18.2483 35.5493 18.107C35.726 17.9657 35.9203 17.789 36.1323 17.577C36.1677 17.5417 36.1677 17.365 36.1323 17.047C36.203 17.1177 36.2383 17.1 36.2383 16.994C36.2383 16.676 36.2207 16.5523 36.1853 16.623C36.15 16.4817 36.097 16.3403 36.0263 16.199C35.991 16.0223 35.9557 15.8457 35.9203 15.669C35.885 15.6337 35.9027 15.5277 35.9733 15.351L36.0793 15.086C36.0793 15.086 35.991 14.9623 35.8143 14.715L35.2843 14.026C35.1077 13.8493 34.878 13.7787 34.5953 13.814L34.3303 13.867C34.1183 13.9377 34.0123 13.973 34.0123 13.973H33.5353L33.4293 14.079C33.4647 14.1143 33.5 14.1497 33.5353 14.185C33.5707 14.2203 33.606 14.2733 33.6413 14.344C33.6413 14.4147 33.6237 14.4677 33.5883 14.503V14.662C33.447 14.6973 33.288 14.8387 33.1113 15.086C33.0407 15.298 33.0053 15.4923 33.0053 15.669C33.076 15.8103 33.182 15.9517 33.3233 16.093C33.288 16.1283 33.235 16.146 33.1643 16.146C33.0937 16.4287 33.0937 16.623 33.1643 16.729L33.3233 16.941V17.206C33.3233 17.2413 33.2703 17.2943 33.1643 17.365L32.5283 17.206C32.493 17.0647 32.4047 17.0293 32.2633 17.1C32.1573 17.1707 32.069 17.153 31.9983 17.047H31.8923C31.7863 17.047 31.7157 17.0117 31.6803 16.941C31.645 16.835 31.5743 16.8527 31.4683 16.994L31.1503 17.365C30.9737 17.365 30.8323 17.3827 30.7263 17.418L30.4613 17.312C30.3553 17.2413 30.2847 17.2237 30.2493 17.259C30.214 17.259 30.1787 17.259 30.1433 17.259L29.0303 17.577C28.9597 17.577 28.8713 17.577 28.7653 17.577C28.6593 17.577 28.5357 17.5593 28.3943 17.524L28.1293 16.729C28.1293 16.6937 28.147 16.676 28.1823 16.676C28.2177 16.6407 28.2353 16.6053 28.2353 16.57L28.2883 16.411C28.253 16.305 28.2353 16.1813 28.2353 16.04C28.2353 15.8633 28.2353 15.6867 28.2353 15.51C28.3413 15.404 28.412 15.298 28.4473 15.192C28.4827 15.086 28.5003 14.8563 28.5003 14.503V14.185C28.5003 13.2663 29.2777 12.118 30.8323 10.74C30.8677 10.634 30.9913 10.475 31.2033 10.263C31.2387 10.2277 31.4683 10.1217 31.8923 9.945C31.963 9.87433 31.9807 9.82133 31.9453 9.786L31.9983 9.521C32.1397 9.55633 32.281 9.59167 32.4223 9.627C32.599 9.627 32.758 9.627 32.8993 9.627L33.2703 9.468C33.341 9.43267 33.4117 9.39733 33.4823 9.362C33.553 9.32667 33.606 9.309 33.6413 9.309H34.0123C34.0477 9.27367 34.1713 9.22067 34.3833 9.15C34.5953 9.11467 34.772 9.097 34.9133 9.097C35.09 9.06167 35.249 9.044 35.3903 9.044C35.567 9.044 35.938 9.097 36.5033 9.203C37.1393 9.309 37.4927 9.415 37.5633 9.521L37.5103 9.892L37.6693 10.104L37.9873 9.945C38.0933 9.945 38.217 10.051 38.3583 10.263L38.7823 10.316C38.853 10.316 38.9237 10.3337 38.9943 10.369C39.1003 10.369 39.171 10.369 39.2063 10.369C39.2417 10.4043 39.277 10.4397 39.3123 10.475C39.3477 10.475 39.383 10.5103 39.4183 10.581V11.005L38.9943 11.217C39.0297 11.3583 39.171 11.4467 39.4183 11.482C39.701 11.5173 39.86 11.5703 39.8953 11.641L40.4253 13.602C40.4253 13.708 40.5313 13.8493 40.7433 14.026C40.7787 14.2733 40.7963 14.556 40.7963 14.874C40.7963 15.192 40.7963 15.5277 40.7963 15.881L40.9553 16.146C40.9907 16.1813 41.0083 16.3757 41.0083 16.729L40.9553 17.63C40.92 17.948 40.9023 18.2307 40.9023 18.478C40.9023 18.69 40.9023 18.8667 40.9023 19.008L41.0083 19.167C41.0437 19.5203 41.0613 19.803 41.0613 20.015C41.0967 20.1917 41.1143 20.2623 41.1143 20.227L40.9023 20.757C40.867 20.8983 40.8317 21.0043 40.7963 21.075C40.7963 21.1103 40.7963 21.1457 40.7963 21.181C40.7963 21.287 40.7963 21.393 40.7963 21.499C40.8317 21.605 40.867 21.711 40.9023 21.817C40.973 21.8877 41.026 21.9937 41.0613 22.135C41.132 22.241 41.185 22.3647 41.2203 22.506L41.1673 23.195C41.132 23.2303 41.0967 23.301 41.0613 23.407C41.026 23.4777 40.9907 23.566 40.9553 23.672C40.9553 23.672 41.026 24.149 41.1673 25.103L40.9553 25.845C40.9907 25.8803 41.0437 26.004 41.1143 26.216C41.185 26.3927 41.2203 26.4987 41.2203 26.534V26.799C41.2203 27.011 41.2027 27.17 41.1673 27.276C41.4853 27.3113 41.6443 27.5763 41.6443 28.071L41.5383 28.389C41.4677 28.601 41.4323 28.707 41.4323 28.707L41.5913 29.29C41.6267 29.4313 41.6443 29.5903 41.6443 29.767C41.6797 29.9437 41.6973 30.1733 41.6973 30.456V30.986C41.8033 31.1273 41.9093 31.3747 42.0153 31.728V31.781C42.0153 32.1697 41.5383 32.3993 40.5843 32.47L39.5773 32.311C39.542 32.311 39.436 32.311 39.2593 32.311C39.0827 32.311 38.8177 32.3287 38.4643 32.364C38.429 32.364 38.376 32.3993 38.3053 32.47C38.2347 32.5407 38.164 32.576 38.0933 32.576H37.6163C37.6163 32.576 37.4043 32.5053 36.9803 32.364L37.0863 31.887C37.0863 31.675 36.9803 31.516 36.7683 31.41C36.7683 31.3747 36.786 31.2333 36.8213 30.986L36.9273 30.615C36.68 30.6503 36.044 31.1803 35.0193 32.205C34.772 32.4523 34.5953 32.5583 34.4893 32.523L34.2773 32.47C34.1713 32.576 34.0653 32.6643 33.9593 32.735C33.7473 32.841 33.553 32.894 33.3763 32.894C33.341 32.9293 33.3233 32.9293 33.3233 32.894C33.288 32.8587 33.2527 32.841 33.2173 32.841C33.182 32.8763 33.0053 32.947 32.6873 33.053C32.4047 33.159 32.228 33.212 32.1573 33.212ZM32.4223 10.369C32.4223 10.263 32.3517 10.1923 32.2103 10.157C32.1397 10.2277 32.1043 10.2807 32.1043 10.316C32.1397 10.528 32.2457 10.5457 32.4223 10.369ZM38.9943 13.072L39.1533 12.86C39.1887 12.7893 39.1533 12.7187 39.0473 12.648C38.9413 12.6127 38.8177 12.6127 38.6763 12.648C38.7117 12.754 38.8177 12.8953 38.9943 13.072ZM31.4683 14.98L32.1043 14.927C32.387 14.927 32.5283 14.8033 32.5283 14.556L32.4223 14.291L31.7333 14.238C31.4507 14.238 31.327 14.344 31.3623 14.556L31.4153 14.768C31.4507 14.8387 31.4683 14.9093 31.4683 14.98ZM36.2913 18.849C36.3267 18.8843 36.415 18.8843 36.5563 18.849L36.5033 18.637C36.362 18.6723 36.2913 18.743 36.2913 18.849ZM32.7933 21.976L32.8463 21.711L32.5283 21.658L32.7933 21.976ZM34.0653 28.548H34.3303C34.401 28.548 34.4717 28.5127 34.5423 28.442C34.613 28.3713 34.666 28.336 34.7013 28.336C34.772 28.3713 34.878 28.4243 35.0193 28.495C35.1607 28.495 35.3197 28.4067 35.4963 28.23C35.567 28.0533 35.673 27.8413 35.8143 27.594C35.991 27.5233 36.1853 27.382 36.3973 27.17C36.362 27.0993 36.3443 26.958 36.3443 26.746C36.3443 26.5693 36.3443 26.375 36.3443 26.163C36.3797 25.951 36.415 25.7213 36.4503 25.474C36.415 25.2973 36.3797 25.103 36.3443 24.891C36.309 24.6437 36.2737 24.361 36.2383 24.043C36.2383 23.831 36.3443 23.7073 36.5563 23.672C36.4503 23.3187 36.2207 22.824 35.8673 22.188H35.0193C34.9133 22.612 34.7543 22.983 34.5423 23.301L34.1713 23.566L33.9593 23.937L33.5883 24.149C33.553 24.2903 33.4823 24.4493 33.3763 24.626C33.3057 24.8027 33.235 25.0147 33.1643 25.262C33.1643 25.474 33.0407 25.8273 32.7933 26.322L32.8463 26.534C32.599 26.8167 32.4753 26.9933 32.4753 27.064C32.546 27.0287 32.6167 27.064 32.6873 27.17L33.0053 28.018C33.076 28.0533 33.1467 28.0887 33.2173 28.124C33.288 28.124 33.3587 28.1593 33.4293 28.23C33.4647 28.2653 33.5 28.3007 33.5353 28.336C33.5707 28.3713 33.606 28.4243 33.6413 28.495L34.0653 28.548ZM39.4713 25.845C39.542 25.845 39.6303 25.792 39.7363 25.686C39.8777 25.5447 39.9483 25.4387 39.9483 25.368L39.8423 25.156C39.807 25.1207 39.754 25.103 39.6833 25.103C39.6127 25.103 39.542 25.0853 39.4713 25.05L39.1003 25.315C39.1357 25.3503 39.1887 25.474 39.2593 25.686C39.33 25.792 39.4007 25.845 39.4713 25.845ZM37.2983 27.329L37.6163 27.223C37.581 27.1877 37.5633 27.0993 37.5633 26.958L37.2453 27.011C37.2453 27.1877 37.263 27.2937 37.2983 27.329ZM34.4893 31.834C34.56 31.5513 34.5423 31.41 34.4363 31.41L34.3303 31.516C34.295 31.5513 34.2773 31.6397 34.2773 31.781L34.4893 31.834ZM50.6452 33.795L50.2742 33.689C50.0622 33.583 49.9209 33.53 49.8502 33.53L49.4792 33.583H49.3202C49.3556 33.583 49.2849 33.5653 49.1082 33.53C48.9316 33.53 48.5959 33.477 48.1012 33.371C47.9599 33.1237 47.8186 33 47.6772 33L47.4122 33.053C47.3769 33.053 47.3416 33.053 47.3062 33.053C47.2709 33.0883 47.2356 33.106 47.2002 33.106C47.0589 33.106 46.8999 33.0177 46.7232 32.841C46.6526 32.7703 46.5642 32.682 46.4582 32.576C46.3522 32.4347 46.2109 32.2933 46.0342 32.152C45.4689 32.0107 45.0979 31.7633 44.9212 31.41C44.9212 31.198 44.8682 31.0743 44.7622 31.039C44.6209 31.0037 44.5502 30.8977 44.5502 30.721C44.5502 30.509 44.6209 30.191 44.7622 29.767L43.9672 29.449L43.7022 28.389C43.6316 28.2123 43.5256 28.018 43.3842 27.806C43.2782 27.5587 43.1369 27.2937 42.9602 27.011V26.693C42.9602 26.481 42.9956 26.3397 43.0662 26.269C43.1016 26.2337 43.2076 26.216 43.3842 26.216H43.5432C43.5786 26.216 43.5962 26.2337 43.5962 26.269C43.5962 26.269 43.6139 26.269 43.6492 26.269L43.9142 26.11C43.9496 26.0747 44.0909 26.057 44.3382 26.057L44.5502 26.11C44.5856 26.11 44.6032 26.1277 44.6032 26.163C44.6386 26.163 44.6739 26.163 44.7092 26.163L45.3452 25.951L45.5042 25.792C45.6456 25.7213 45.8222 25.6683 46.0342 25.633C46.2462 25.5977 46.5289 25.5623 46.8822 25.527L47.0412 25.58C47.0059 25.58 46.9882 25.7037 46.9882 25.951C46.9882 26.1277 47.0942 26.216 47.3062 26.216C47.3416 26.216 47.5359 26.004 47.8892 25.58C47.9599 25.792 47.9952 26.1453 47.9952 26.64C47.9952 26.8873 48.0659 27.064 48.2072 27.17C48.3132 27.3467 48.3486 27.5233 48.3132 27.7C48.3132 27.7707 48.3486 27.806 48.4192 27.806C48.1366 27.806 47.9952 27.8767 47.9952 28.018C47.9952 28.2653 48.1189 28.389 48.3662 28.389C48.4369 28.389 48.5606 28.2477 48.7372 27.965C48.7726 28.0357 48.8786 28.23 49.0552 28.548C49.1612 28.654 49.5322 28.866 50.1682 29.184C50.4509 29.29 50.8219 29.343 51.2812 29.343C51.4226 29.343 51.5816 29.2017 51.7582 28.919C52.0056 28.919 52.2352 28.7423 52.4472 28.389C52.4119 28.4243 52.3766 28.442 52.3412 28.442C52.3412 28.4067 52.3236 28.389 52.2882 28.389C52.2882 28.3537 52.2882 28.3183 52.2882 28.283C52.2882 28.177 52.3059 28.071 52.3412 27.965C52.4119 27.8237 52.4649 27.6823 52.5002 27.541C52.4296 27.4703 52.3412 27.3643 52.2352 27.223C52.1646 27.0463 52.0762 26.852 51.9702 26.64C52.1469 26.4633 52.1116 26.269 51.8642 26.057L51.3342 25.686L51.4402 25.103C51.3342 24.9263 50.9102 24.785 50.1682 24.679L49.9562 24.255C49.7796 24.0783 49.5322 23.884 49.2142 23.672C49.1082 23.672 48.9492 23.619 48.7372 23.513C48.7019 23.4777 48.6666 23.4423 48.6312 23.407C48.5959 23.3363 48.5429 23.2833 48.4722 23.248C48.4369 23.2127 48.3309 23.195 48.1542 23.195C48.0482 23.1243 47.8892 22.9653 47.6772 22.718L47.6242 22.294C47.5182 22.294 47.3239 22.2587 47.0412 22.188C46.7586 22.082 46.5466 21.9583 46.4052 21.817L46.0342 21.181C45.7162 20.8983 45.4159 20.598 45.1332 20.28C44.6739 19.8207 44.4266 19.4497 44.3912 19.167L44.7092 18.796C44.6739 18.796 44.5856 18.796 44.4442 18.796C44.3382 18.796 44.2146 18.6723 44.0732 18.425V18.054C44.0026 17.8067 43.9319 17.6653 43.8612 17.63C43.8259 17.5593 43.8082 17.5063 43.8082 17.471L43.8612 17.259V16.358C43.8966 16.3933 43.9496 16.411 44.0202 16.411C44.1969 16.411 44.2852 16.305 44.2852 16.093C44.2852 15.8457 44.1086 15.722 43.7552 15.722C44.1439 15.4393 44.3382 15.1743 44.3382 14.927C44.3382 14.6797 44.1616 14.45 43.8082 14.238C43.7729 14.0613 43.8259 13.9023 43.9672 13.761L44.3912 13.549C44.4266 13.4783 44.4619 13.4077 44.4972 13.337C44.5679 13.231 44.6562 13.1073 44.7622 12.966C44.7269 12.8953 44.6916 12.807 44.6562 12.701C44.6562 12.595 44.6562 12.5067 44.6562 12.436C44.6562 12.224 44.6916 12.065 44.7622 11.959C44.7976 11.9237 44.8506 11.906 44.9212 11.906C44.9919 11.906 45.0802 11.8883 45.1862 11.853L45.3982 11.429C45.9282 11.429 46.1049 11.2347 45.9282 10.846H45.9812C46.0872 10.846 46.2109 10.687 46.3522 10.369C46.4229 10.369 46.6172 10.263 46.9352 10.051C47.0766 9.90967 47.2709 9.839 47.5182 9.839H47.6772C47.7126 9.839 47.7302 9.85667 47.7302 9.892C47.7656 9.892 47.8009 9.892 47.8362 9.892L48.0482 9.839C48.0482 9.76833 48.1012 9.68 48.2072 9.574C48.4899 9.362 48.7019 9.256 48.8432 9.256L49.2672 9.362L49.4262 9.309H49.5852C50.1152 9.309 50.5039 9.43267 50.7512 9.68L50.6982 9.945H50.8042C50.8396 9.945 50.9456 9.85667 51.1222 9.68C51.2636 9.53866 51.4049 9.468 51.5462 9.468C51.7582 9.468 51.9349 9.521 52.0762 9.627C52.2529 9.733 52.3589 9.786 52.3942 9.786L52.8182 9.68C52.9596 9.64467 53.0479 9.627 53.0832 9.627C53.1539 9.627 53.2069 9.627 53.2422 9.627C53.3482 9.627 53.4542 9.64467 53.5602 9.68L53.7722 9.786C53.8076 9.85667 53.9312 9.998 54.1432 10.21H54.1962C54.4082 10.21 54.7439 10.316 55.2032 10.528C55.4506 10.7047 55.6449 10.9697 55.7862 11.323L56.2632 12.277C56.2632 12.5597 56.3162 12.9483 56.4222 13.443C56.4929 13.5137 56.5812 13.6197 56.6872 13.761C56.7932 13.867 56.9169 14.0083 57.0582 14.185C57.0582 14.2203 57.0406 14.291 57.0052 14.397C57.0052 14.4677 56.9876 14.556 56.9522 14.662C57.0582 14.768 57.1466 14.9447 57.2172 15.192C57.2526 15.298 57.2879 15.3863 57.3232 15.457C57.3586 15.5277 57.3939 15.5983 57.4292 15.669V15.934L56.4752 16.305C55.9452 16.4463 55.4859 16.5523 55.0972 16.623C54.7439 16.6937 54.4436 16.729 54.1962 16.729L54.0372 16.676C54.0019 16.676 53.9666 16.676 53.9312 16.676C53.9312 16.6407 53.9136 16.623 53.8782 16.623C53.8076 16.623 53.7192 16.676 53.6132 16.782L53.4012 16.994C53.0832 17.1 52.8359 17.153 52.6592 17.153C52.5179 17.153 52.3589 16.994 52.1822 16.676C52.0409 16.4287 51.9702 16.252 51.9702 16.146C51.9702 14.9447 51.9349 14.3793 51.8642 14.45C51.5109 14.238 51.2636 14.185 51.1222 14.291H51.0692L50.5922 14.079C50.4509 14.0083 50.3272 13.973 50.2212 13.973C50.1506 13.9377 50.0976 13.92 50.0622 13.92L49.7972 13.973C49.6912 14.0083 49.6029 14.026 49.5322 14.026C49.4616 14.026 49.3909 14.026 49.3202 14.026L49.2142 14.503C49.1436 14.5383 49.0022 14.662 48.7902 14.874L48.6312 15.563C48.8079 15.5983 48.9316 15.722 49.0022 15.934C49.0729 16.252 49.1082 16.411 49.1082 16.411C49.0729 16.4463 48.8609 16.4993 48.4722 16.57C48.4016 16.57 48.3309 16.6053 48.2602 16.676C48.2956 16.782 48.5429 16.8703 49.0022 16.941C49.1082 17.047 49.1789 17.2237 49.2142 17.471L49.7972 17.577C49.7972 17.7183 49.8679 17.8773 50.0092 18.054C50.0446 18.054 50.1329 18.0893 50.2742 18.16C50.3449 18.3013 50.4509 18.4427 50.5922 18.584C50.7689 18.584 50.9279 18.637 51.0692 18.743C51.2459 18.9197 51.3342 19.0787 51.3342 19.22H51.2282C51.1222 19.22 50.9809 19.273 50.8042 19.379V19.591C50.8749 19.6617 50.9632 19.7323 51.0692 19.803C51.2106 19.8383 51.3696 19.8383 51.5462 19.803L51.7052 19.75H51.8642L52.0762 19.909C52.2882 19.9443 52.4472 19.962 52.5532 19.962C52.6592 19.962 52.7299 19.962 52.7652 19.962C53.0479 20.0327 53.2422 20.1387 53.3482 20.28C53.4542 20.5627 53.6309 20.8453 53.8782 21.128L54.4082 21.287C54.5849 21.393 54.7086 21.552 54.7792 21.764C55.3092 22.2233 55.5742 22.559 55.5742 22.771V22.877L56.2102 23.513C56.2102 23.5837 56.2102 23.672 56.2102 23.778C56.2456 23.884 56.2809 24.0077 56.3162 24.149C56.3869 24.1843 56.4576 24.2197 56.5282 24.255C56.5989 24.2903 56.6696 24.3433 56.7402 24.414C56.9522 24.6613 57.0582 24.8557 57.0582 24.997L56.9522 25.262C56.9169 25.3327 56.8816 25.3857 56.8462 25.421C56.8462 25.4563 56.8462 25.4917 56.8462 25.527C56.8462 25.633 56.9699 25.8803 57.2172 26.269C57.2172 26.269 57.1819 26.3573 57.1112 26.534L57.2172 27.011L57.3232 27.382L57.1642 27.912C57.1996 27.9827 57.2172 28.1593 57.2172 28.442C57.1819 28.4773 57.1466 28.5127 57.1112 28.548C57.0759 28.548 57.0406 28.5833 57.0052 28.654L56.5812 29.979C56.5812 30.0497 56.5812 30.1557 56.5812 30.297C56.5812 30.403 56.5636 30.5267 56.5282 30.668C56.4576 30.9507 56.1749 31.092 55.6802 31.092L55.3092 31.993L54.5142 32.523C54.4082 32.629 54.1609 32.8233 53.7722 33.106H53.3482L52.5002 33.477C51.4049 33.689 50.7866 33.795 50.6452 33.795ZM49.6912 10.528C49.7266 10.4573 49.7089 10.3867 49.6382 10.316C49.6029 10.2807 49.5146 10.2983 49.3732 10.369C49.4439 10.475 49.5499 10.528 49.6912 10.528ZM56.4752 15.51C56.4752 15.2627 56.4576 15.139 56.4222 15.139L56.1572 15.086C56.1219 15.086 56.0866 15.086 56.0512 15.086C56.0159 15.0507 55.9806 15.033 55.9452 15.033C55.8746 15.1037 55.8392 15.2273 55.8392 15.404L56.4752 15.51ZM45.1862 15.828C45.1862 15.6867 45.1686 15.5983 45.1332 15.563C45.0272 15.5277 44.9389 15.5453 44.8682 15.616C44.8682 15.6867 44.9742 15.7573 45.1862 15.828ZM48.6842 19.591C48.8609 19.5203 48.9492 19.4497 48.9492 19.379C48.9492 19.3083 48.8609 19.2377 48.6842 19.167V19.591ZM45.0802 28.177C45.0802 28.1063 45.0449 28.0003 44.9742 27.859L44.8152 27.912C44.6386 27.912 44.5856 27.8237 44.6562 27.647L44.5502 27.859C44.5856 27.965 44.6562 28.071 44.7622 28.177H45.0802ZM54.9382 29.608C54.9029 29.608 55.1326 29.4313 55.6272 29.078V28.866C55.4152 28.6187 55.2209 28.495 55.0442 28.495H54.8852C54.8852 28.5657 54.8676 28.654 54.8322 28.76C54.8322 28.8307 54.8146 28.919 54.7792 29.025C54.6026 29.3077 54.5142 29.449 54.5142 29.449C54.6202 29.555 54.7616 29.608 54.9382 29.608ZM49.4792 31.834L49.1612 31.463H48.9492L48.8962 31.622L49.4792 31.834ZM65.6032 33.795L65.2322 33.689C65.0202 33.583 64.8789 33.53 64.8082 33.53L64.4372 33.583H64.2782C64.3136 33.583 64.2429 33.5653 64.0662 33.53C63.8896 33.53 63.5539 33.477 63.0592 33.371C62.9179 33.1237 62.7766 33 62.6352 33L62.3702 33.053C62.3349 33.053 62.2996 33.053 62.2642 33.053C62.2289 33.0883 62.1936 33.106 62.1582 33.106C62.0169 33.106 61.8579 33.0177 61.6812 32.841C61.6106 32.7703 61.5222 32.682 61.4162 32.576C61.3102 32.4347 61.1689 32.2933 60.9922 32.152C60.4269 32.0107 60.0559 31.7633 59.8792 31.41C59.8792 31.198 59.8262 31.0743 59.7202 31.039C59.5789 31.0037 59.5082 30.8977 59.5082 30.721C59.5082 30.509 59.5789 30.191 59.7202 29.767L58.9252 29.449L58.6602 28.389C58.5896 28.2123 58.4836 28.018 58.3422 27.806C58.2362 27.5587 58.0949 27.2937 57.9182 27.011V26.693C57.9182 26.481 57.9536 26.3397 58.0242 26.269C58.0596 26.2337 58.1656 26.216 58.3422 26.216H58.5012C58.5366 26.216 58.5542 26.2337 58.5542 26.269C58.5542 26.269 58.5719 26.269 58.6072 26.269L58.8722 26.11C58.9076 26.0747 59.0489 26.057 59.2962 26.057L59.5082 26.11C59.5436 26.11 59.5612 26.1277 59.5612 26.163C59.5966 26.163 59.6319 26.163 59.6672 26.163L60.3032 25.951L60.4622 25.792C60.6036 25.7213 60.7802 25.6683 60.9922 25.633C61.2042 25.5977 61.4869 25.5623 61.8402 25.527L61.9992 25.58C61.9639 25.58 61.9462 25.7037 61.9462 25.951C61.9462 26.1277 62.0522 26.216 62.2642 26.216C62.2996 26.216 62.4939 26.004 62.8472 25.58C62.9179 25.792 62.9532 26.1453 62.9532 26.64C62.9532 26.8873 63.0239 27.064 63.1652 27.17C63.2712 27.3467 63.3066 27.5233 63.2712 27.7C63.2712 27.7707 63.3066 27.806 63.3772 27.806C63.0946 27.806 62.9532 27.8767 62.9532 28.018C62.9532 28.2653 63.0769 28.389 63.3242 28.389C63.3949 28.389 63.5186 28.2477 63.6952 27.965C63.7306 28.0357 63.8366 28.23 64.0132 28.548C64.1192 28.654 64.4902 28.866 65.1262 29.184C65.4089 29.29 65.7799 29.343 66.2392 29.343C66.3806 29.343 66.5396 29.2017 66.7162 28.919C66.9636 28.919 67.1932 28.7423 67.4052 28.389C67.3699 28.4243 67.3346 28.442 67.2992 28.442C67.2992 28.4067 67.2816 28.389 67.2462 28.389C67.2462 28.3537 67.2462 28.3183 67.2462 28.283C67.2462 28.177 67.2639 28.071 67.2992 27.965C67.3699 27.8237 67.4229 27.6823 67.4582 27.541C67.3876 27.4703 67.2992 27.3643 67.1932 27.223C67.1226 27.0463 67.0342 26.852 66.9282 26.64C67.1049 26.4633 67.0696 26.269 66.8222 26.057L66.2922 25.686L66.3982 25.103C66.2922 24.9263 65.8682 24.785 65.1262 24.679L64.9142 24.255C64.7376 24.0783 64.4902 23.884 64.1722 23.672C64.0662 23.672 63.9072 23.619 63.6952 23.513C63.6599 23.4777 63.6246 23.4423 63.5892 23.407C63.5539 23.3363 63.5009 23.2833 63.4302 23.248C63.3949 23.2127 63.2889 23.195 63.1122 23.195C63.0062 23.1243 62.8472 22.9653 62.6352 22.718L62.5822 22.294C62.4762 22.294 62.2819 22.2587 61.9992 22.188C61.7166 22.082 61.5046 21.9583 61.3632 21.817L60.9922 21.181C60.6742 20.8983 60.3739 20.598 60.0912 20.28C59.6319 19.8207 59.3846 19.4497 59.3492 19.167L59.6672 18.796C59.6319 18.796 59.5436 18.796 59.4022 18.796C59.2962 18.796 59.1726 18.6723 59.0312 18.425V18.054C58.9606 17.8067 58.8899 17.6653 58.8192 17.63C58.7839 17.5593 58.7662 17.5063 58.7662 17.471L58.8192 17.259V16.358C58.8546 16.3933 58.9076 16.411 58.9782 16.411C59.1549 16.411 59.2432 16.305 59.2432 16.093C59.2432 15.8457 59.0666 15.722 58.7132 15.722C59.1019 15.4393 59.2962 15.1743 59.2962 14.927C59.2962 14.6797 59.1196 14.45 58.7662 14.238C58.7309 14.0613 58.7839 13.9023 58.9252 13.761L59.3492 13.549C59.3846 13.4783 59.4199 13.4077 59.4552 13.337C59.5259 13.231 59.6142 13.1073 59.7202 12.966C59.6849 12.8953 59.6496 12.807 59.6142 12.701C59.6142 12.595 59.6142 12.5067 59.6142 12.436C59.6142 12.224 59.6496 12.065 59.7202 11.959C59.7556 11.9237 59.8086 11.906 59.8792 11.906C59.9499 11.906 60.0382 11.8883 60.1442 11.853L60.3562 11.429C60.8862 11.429 61.0629 11.2347 60.8862 10.846H60.9392C61.0452 10.846 61.1689 10.687 61.3102 10.369C61.3809 10.369 61.5752 10.263 61.8932 10.051C62.0346 9.90967 62.2289 9.839 62.4762 9.839H62.6352C62.6706 9.839 62.6882 9.85667 62.6882 9.892C62.7236 9.892 62.7589 9.892 62.7942 9.892L63.0062 9.839C63.0062 9.76833 63.0592 9.68 63.1652 9.574C63.4479 9.362 63.6599 9.256 63.8012 9.256L64.2252 9.362L64.3842 9.309H64.5432C65.0732 9.309 65.4619 9.43267 65.7092 9.68L65.6562 9.945H65.7622C65.7976 9.945 65.9036 9.85667 66.0802 9.68C66.2216 9.53866 66.3629 9.468 66.5042 9.468C66.7162 9.468 66.8929 9.521 67.0342 9.627C67.2109 9.733 67.3169 9.786 67.3522 9.786L67.7762 9.68C67.9176 9.64467 68.0059 9.627 68.0412 9.627C68.1119 9.627 68.1649 9.627 68.2002 9.627C68.3062 9.627 68.4122 9.64467 68.5182 9.68L68.7302 9.786C68.7656 9.85667 68.8892 9.998 69.1012 10.21H69.1542C69.3662 10.21 69.7019 10.316 70.1612 10.528C70.4086 10.7047 70.6029 10.9697 70.7442 11.323L71.2212 12.277C71.2212 12.5597 71.2742 12.9483 71.3802 13.443C71.4509 13.5137 71.5392 13.6197 71.6452 13.761C71.7512 13.867 71.8749 14.0083 72.0162 14.185C72.0162 14.2203 71.9986 14.291 71.9632 14.397C71.9632 14.4677 71.9456 14.556 71.9102 14.662C72.0162 14.768 72.1046 14.9447 72.1752 15.192C72.2106 15.298 72.2459 15.3863 72.2812 15.457C72.3166 15.5277 72.3519 15.5983 72.3872 15.669V15.934L71.4332 16.305C70.9032 16.4463 70.4439 16.5523 70.0552 16.623C69.7019 16.6937 69.4016 16.729 69.1542 16.729L68.9952 16.676C68.9599 16.676 68.9246 16.676 68.8892 16.676C68.8892 16.6407 68.8716 16.623 68.8362 16.623C68.7656 16.623 68.6772 16.676 68.5712 16.782L68.3592 16.994C68.0412 17.1 67.7939 17.153 67.6172 17.153C67.4759 17.153 67.3169 16.994 67.1402 16.676C66.9989 16.4287 66.9282 16.252 66.9282 16.146C66.9282 14.9447 66.8929 14.3793 66.8222 14.45C66.4689 14.238 66.2216 14.185 66.0802 14.291H66.0272L65.5502 14.079C65.4089 14.0083 65.2852 13.973 65.1792 13.973C65.1086 13.9377 65.0556 13.92 65.0202 13.92L64.7552 13.973C64.6492 14.0083 64.5609 14.026 64.4902 14.026C64.4196 14.026 64.3489 14.026 64.2782 14.026L64.1722 14.503C64.1016 14.5383 63.9602 14.662 63.7482 14.874L63.5892 15.563C63.7659 15.5983 63.8896 15.722 63.9602 15.934C64.0309 16.252 64.0662 16.411 64.0662 16.411C64.0309 16.4463 63.8189 16.4993 63.4302 16.57C63.3596 16.57 63.2889 16.6053 63.2182 16.676C63.2536 16.782 63.5009 16.8703 63.9602 16.941C64.0662 17.047 64.1369 17.2237 64.1722 17.471L64.7552 17.577C64.7552 17.7183 64.8259 17.8773 64.9672 18.054C65.0026 18.054 65.0909 18.0893 65.2322 18.16C65.3029 18.3013 65.4089 18.4427 65.5502 18.584C65.7269 18.584 65.8859 18.637 66.0272 18.743C66.2039 18.9197 66.2922 19.0787 66.2922 19.22H66.1862C66.0802 19.22 65.9389 19.273 65.7622 19.379V19.591C65.8329 19.6617 65.9212 19.7323 66.0272 19.803C66.1686 19.8383 66.3276 19.8383 66.5042 19.803L66.6632 19.75H66.8222L67.0342 19.909C67.2462 19.9443 67.4052 19.962 67.5112 19.962C67.6172 19.962 67.6879 19.962 67.7232 19.962C68.0059 20.0327 68.2002 20.1387 68.3062 20.28C68.4122 20.5627 68.5889 20.8453 68.8362 21.128L69.3662 21.287C69.5429 21.393 69.6666 21.552 69.7372 21.764C70.2672 22.2233 70.5322 22.559 70.5322 22.771V22.877L71.1682 23.513C71.1682 23.5837 71.1682 23.672 71.1682 23.778C71.2036 23.884 71.2389 24.0077 71.2742 24.149C71.3449 24.1843 71.4156 24.2197 71.4862 24.255C71.5569 24.2903 71.6276 24.3433 71.6982 24.414C71.9102 24.6613 72.0162 24.8557 72.0162 24.997L71.9102 25.262C71.8749 25.3327 71.8396 25.3857 71.8042 25.421C71.8042 25.4563 71.8042 25.4917 71.8042 25.527C71.8042 25.633 71.9279 25.8803 72.1752 26.269C72.1752 26.269 72.1399 26.3573 72.0692 26.534L72.1752 27.011L72.2812 27.382L72.1222 27.912C72.1576 27.9827 72.1752 28.1593 72.1752 28.442C72.1399 28.4773 72.1046 28.5127 72.0692 28.548C72.0339 28.548 71.9986 28.5833 71.9632 28.654L71.5392 29.979C71.5392 30.0497 71.5392 30.1557 71.5392 30.297C71.5392 30.403 71.5216 30.5267 71.4862 30.668C71.4156 30.9507 71.1329 31.092 70.6382 31.092L70.2672 31.993L69.4722 32.523C69.3662 32.629 69.1189 32.8233 68.7302 33.106H68.3062L67.4582 33.477C66.3629 33.689 65.7446 33.795 65.6032 33.795ZM64.6492 10.528C64.6846 10.4573 64.6669 10.3867 64.5962 10.316C64.5609 10.2807 64.4726 10.2983 64.3312 10.369C64.4019 10.475 64.5079 10.528 64.6492 10.528ZM71.4332 15.51C71.4332 15.2627 71.4156 15.139 71.3802 15.139L71.1152 15.086C71.0799 15.086 71.0446 15.086 71.0092 15.086C70.9739 15.0507 70.9386 15.033 70.9032 15.033C70.8326 15.1037 70.7972 15.2273 70.7972 15.404L71.4332 15.51ZM60.1442 15.828C60.1442 15.6867 60.1266 15.5983 60.0912 15.563C59.9852 15.5277 59.8969 15.5453 59.8262 15.616C59.8262 15.6867 59.9322 15.7573 60.1442 15.828ZM63.6422 19.591C63.8189 19.5203 63.9072 19.4497 63.9072 19.379C63.9072 19.3083 63.8189 19.2377 63.6422 19.167V19.591ZM60.0382 28.177C60.0382 28.1063 60.0029 28.0003 59.9322 27.859L59.7732 27.912C59.5966 27.912 59.5436 27.8237 59.6142 27.647L59.5082 27.859C59.5436 27.965 59.6142 28.071 59.7202 28.177H60.0382ZM69.8962 29.608C69.8609 29.608 70.0906 29.4313 70.5852 29.078V28.866C70.3732 28.6187 70.1789 28.495 70.0022 28.495H69.8432C69.8432 28.5657 69.8256 28.654 69.7902 28.76C69.7902 28.8307 69.7726 28.919 69.7372 29.025C69.5606 29.3077 69.4722 29.449 69.4722 29.449C69.5782 29.555 69.7196 29.608 69.8962 29.608ZM64.4372 31.834L64.1192 31.463H63.9072L63.8542 31.622L64.4372 31.834Z" fill="#263238"/>
<path d="M74.3602 33.212C74.2189 33.0707 74.1482 32.9823 74.1482 32.947C74.1482 32.8057 74.3602 32.47 74.7842 31.94V31.728C74.7842 31.5867 74.7666 31.463 74.7312 31.357C74.7312 31.2157 74.7136 31.0743 74.6782 30.933L75.2082 29.873C75.3142 29.6257 75.3319 29.4667 75.2612 29.396L74.6252 29.29L74.7312 28.919C74.8019 28.8483 74.8019 28.707 74.7312 28.495C74.4839 28.283 74.3602 28.124 74.3602 28.018C74.3602 27.5587 74.5192 27.1523 74.8372 26.799H74.8902C74.8902 26.799 74.8019 26.7283 74.6252 26.587C74.4839 26.4457 74.3956 26.375 74.3602 26.375L74.4662 25.633C74.4662 25.5977 74.5016 25.5447 74.5722 25.474C74.6429 25.4033 74.6782 25.3503 74.6782 25.315L74.5192 24.891C74.4132 24.6083 74.3602 24.4493 74.3602 24.414L74.5192 24.202V23.407L74.6782 22.771C74.7136 22.7003 74.7136 22.6297 74.6782 22.559C74.6782 22.4883 74.6782 22.4 74.6782 22.294L74.6252 21.764C74.6252 21.7287 74.6782 21.658 74.7842 21.552C74.8902 21.446 74.9432 21.3753 74.9432 21.34C74.9432 21.34 74.8549 21.2163 74.6782 20.969L74.7312 20.81C74.7312 20.7747 74.7312 20.7217 74.7312 20.651C74.7312 20.5803 74.7136 20.4743 74.6782 20.333C74.6782 20.333 74.6606 20.333 74.6252 20.333C74.6252 20.2977 74.6252 20.2623 74.6252 20.227C74.6252 20.0503 74.6429 19.909 74.6782 19.803C74.7489 19.697 74.7842 19.6263 74.7842 19.591L74.6782 19.326C74.6076 19.1847 74.5722 19.114 74.5722 19.114L74.7312 18.796C74.8372 18.6193 74.8902 18.4957 74.8902 18.425L74.7312 17.63C74.6959 17.3827 74.6429 17.206 74.5722 17.1C74.5369 16.994 74.5192 16.9233 74.5192 16.888C74.5192 16.782 74.6076 16.676 74.7842 16.57L75.0492 16.411C75.1906 16.1283 75.2612 15.9163 75.2612 15.775C75.2612 15.3157 75.2082 15.033 75.1022 14.927C74.8902 14.6443 74.7842 14.503 74.7842 14.503L74.7312 14.132V13.443C75.3319 13.3723 75.6322 13.1603 75.6322 12.807C75.6322 12.595 75.5439 12.489 75.3672 12.489C75.2966 12.489 75.1906 12.5243 75.0492 12.595L74.9432 12.33C74.9079 12.2593 74.8726 12.2063 74.8372 12.171C74.8019 12.1003 74.7842 12.0473 74.7842 12.012C74.7842 11.8353 74.7666 11.6057 74.7312 11.323C74.7312 11.005 74.7136 10.6517 74.6782 10.263C74.6782 10.2277 74.6429 10.1747 74.5722 10.104C74.5016 10.0333 74.4662 9.96267 74.4662 9.892C74.4662 9.574 74.5722 9.415 74.7842 9.415L75.4202 9.521C75.5969 9.55633 75.7206 9.59167 75.7912 9.627C75.8972 9.66233 75.9679 9.68 76.0032 9.68L76.2152 9.627H76.4802L76.7452 9.68C76.8159 9.68 76.8512 9.69767 76.8512 9.733C76.8866 9.733 76.9219 9.733 76.9572 9.733L77.2222 9.627C77.2929 9.59167 77.3636 9.574 77.4342 9.574L78.0172 9.627C78.1939 9.66233 78.3176 9.68 78.3882 9.68C78.4589 9.68 78.5119 9.68 78.5472 9.68L78.9712 9.574C79.1126 9.53867 79.2009 9.521 79.2362 9.521C79.3069 9.521 79.3599 9.521 79.3952 9.521C79.6426 9.521 79.8016 9.76833 79.8722 10.263C79.9429 10.793 80.1726 11.058 80.5612 11.058C80.8086 11.058 80.9852 10.9873 81.0912 10.846C81.1266 10.7753 81.1619 10.7047 81.1972 10.634C81.2326 10.5633 81.2856 10.475 81.3562 10.369H81.7272C82.0806 9.90967 82.3986 9.68 82.6812 9.68L82.9992 9.839C82.9992 9.839 83.0346 9.80367 83.1052 9.733C83.6352 9.48567 83.9886 9.362 84.1652 9.362C84.2712 9.362 84.3949 9.37967 84.5362 9.415C84.6776 9.415 84.8189 9.43267 84.9602 9.468C85.1016 9.60933 85.1722 9.76833 85.1722 9.945C85.1722 9.945 85.0839 10.0687 84.9072 10.316C84.9426 10.4573 84.9602 10.634 84.9602 10.846C84.9956 11.058 84.9956 11.3053 84.9602 11.588C84.8542 11.8 84.7659 11.906 84.6952 11.906C84.6952 11.906 84.7129 11.9237 84.7482 11.959C84.7836 11.9943 84.8189 12.0827 84.8542 12.224L85.0132 12.595C85.0132 12.7363 84.9602 12.8423 84.8542 12.913C84.7482 12.9483 84.6952 13.019 84.6952 13.125C84.6952 13.1603 84.7129 13.2133 84.7482 13.284C84.7836 13.3193 84.8189 13.3723 84.8542 13.443L84.9602 13.708C84.9602 13.708 84.9426 13.7433 84.9072 13.814C84.8719 13.8493 84.8189 13.9023 84.7482 13.973C84.9602 14.1143 85.0662 14.397 85.0662 14.821C85.0662 15.1037 84.9249 15.245 84.6422 15.245C84.6422 15.245 84.3419 15.1743 83.7412 15.033C83.1759 14.8917 82.7519 14.821 82.4692 14.821C82.5752 14.821 82.2749 14.9447 81.5682 15.192H81.4622C81.2149 15.192 80.9499 15.2627 80.6672 15.404C80.6319 15.51 80.5789 15.6337 80.5082 15.775C80.4376 15.9163 80.3669 16.0753 80.2962 16.252C80.2256 16.2873 80.1372 16.3227 80.0312 16.358C79.9606 16.3933 79.8722 16.4463 79.7662 16.517C79.7662 16.517 79.7309 16.676 79.6602 16.994C79.3069 17.1353 79.1302 17.2943 79.1302 17.471C79.1302 17.6123 79.2539 17.7007 79.5012 17.736C79.5719 17.7007 79.6426 17.7713 79.7132 17.948L79.6072 18.531C79.7839 19.061 79.8899 19.326 79.9252 19.326C79.9252 19.326 79.9076 19.3613 79.8722 19.432C79.8369 19.5027 79.7839 19.5557 79.7132 19.591C79.5012 19.6617 79.3952 19.697 79.3952 19.697C79.3952 19.7323 79.3952 19.8207 79.3952 19.962C79.4306 20.068 79.4659 20.227 79.5012 20.439C79.4659 20.5097 79.4482 20.6333 79.4482 20.81C79.4482 20.9513 79.4482 21.1103 79.4482 21.287C79.3776 21.3577 79.3422 21.4107 79.3422 21.446C79.3422 21.4813 79.4482 21.5343 79.6602 21.605C79.8369 21.711 79.9252 21.7817 79.9252 21.817C79.9252 21.8523 79.9076 21.87 79.8722 21.87L79.4482 22.294C79.4129 22.4 79.3952 22.559 79.3952 22.771C79.3952 23.0537 79.5012 23.301 79.7132 23.513L79.5012 23.99V24.096C79.5012 24.1313 79.5012 24.1843 79.5012 24.255C79.5012 24.3257 79.5189 24.414 79.5542 24.52L79.2362 24.891C79.3422 24.997 79.4482 25.156 79.5542 25.368C79.5896 25.4387 79.6072 25.5447 79.6072 25.686C79.6426 25.792 79.6602 25.9333 79.6602 26.11C79.6602 25.9687 79.6072 26.057 79.5012 26.375C79.4659 26.481 79.4482 26.7283 79.4482 27.117C79.4482 27.1523 79.5012 27.223 79.6072 27.329C79.6426 27.3997 79.6602 27.4527 79.6602 27.488C79.6956 27.5233 79.7132 27.5587 79.7132 27.594C79.6779 27.594 79.6072 27.7707 79.5012 28.124C79.5012 28.23 79.5189 28.3007 79.5542 28.336V28.389C79.5542 28.5303 79.5012 28.76 79.3952 29.078L79.4482 29.449V29.555C79.4482 29.5903 79.4306 29.6433 79.3952 29.714C79.3952 29.7847 79.3776 29.873 79.3422 29.979C79.3422 30.0143 79.2362 30.0673 79.0242 30.138C79.0242 30.244 79.0772 30.4913 79.1832 30.88C79.2892 31.1627 79.2716 31.41 79.1302 31.622V31.781C79.2009 31.8163 79.3952 31.834 79.7132 31.834L79.7662 31.993C79.7662 32.1343 79.6956 32.3287 79.5542 32.576C79.4129 32.894 79.2892 33.053 79.1832 33.053L78.9712 33C78.9006 32.9647 78.8122 32.947 78.7062 32.947L78.4942 33.053C78.3882 33.0883 78.2822 33.106 78.1762 33.106L76.4802 32.894L76.3212 32.947C76.2859 32.947 76.2506 32.9647 76.2152 33C76.2152 33 76.1976 33 76.1622 33C76.1269 33 76.0916 32.9823 76.0562 32.947C76.0209 32.9117 75.9679 32.894 75.8972 32.894L75.6322 32.841C75.5262 32.841 75.4556 32.8587 75.4202 32.894L75.2082 33C75.1376 33.0353 74.8549 33.106 74.3602 33.212ZM76.0032 10.899C76.0032 10.793 75.9679 10.7047 75.8972 10.634C75.8619 10.5633 75.7912 10.581 75.6852 10.687C75.6852 10.7577 75.7912 10.8283 76.0032 10.899ZM78.5472 12.489C78.5826 12.4537 78.5472 12.383 78.4412 12.277L78.2822 12.383C78.3176 12.4183 78.3529 12.436 78.3882 12.436C78.4589 12.436 78.5119 12.4537 78.5472 12.489ZM78.6002 13.337C78.6356 13.2663 78.6179 13.1957 78.5472 13.125C78.4766 13.0543 78.3882 13.0543 78.2822 13.125C78.3176 13.1957 78.4236 13.2663 78.6002 13.337ZM82.9992 13.867C83.0346 13.761 83.0169 13.6727 82.9462 13.602C82.9109 13.5667 82.8226 13.5843 82.6812 13.655C82.6812 13.7257 82.7872 13.7963 82.9992 13.867ZM79.6072 15.669L79.6602 15.563L79.1832 15.298V15.616L79.6072 15.669ZM76.7982 21.976C76.8689 21.976 76.9396 21.8877 77.0102 21.711L77.1162 21.446V21.075L76.7452 20.916C76.3212 20.916 76.0739 20.969 76.0032 21.075V21.128C76.0032 21.234 76.1269 21.34 76.3742 21.446L76.5862 21.711C76.6922 21.8877 76.7629 21.976 76.7982 21.976ZM79.7132 27.594V27.647C79.7132 27.647 79.7132 27.6293 79.7132 27.594ZM78.4942 28.336L78.4412 28.177C78.4059 28.2123 78.4236 28.2653 78.4942 28.336ZM75.2082 32.417C75.2436 32.417 75.3319 32.3463 75.4732 32.205C75.5086 32.1343 75.4909 32.0637 75.4202 31.993C75.3849 31.9223 75.3142 31.94 75.2082 32.046V32.417ZM76.2682 32.417L76.3742 32.258H76.1092L76.2682 32.417ZM92.1869 34.113C92.1515 34.0423 92.0985 33.9717 92.0279 33.901C91.9572 33.8657 91.8865 33.8127 91.8159 33.742C91.6039 33.6007 91.3742 33.4947 91.1269 33.424C91.0915 33.4593 90.9855 33.5123 90.8089 33.583L90.4379 33.424C90.2259 33.318 90.0845 33.265 90.0139 33.265L89.5369 33.371C89.4309 33.371 89.1835 33.212 88.7949 32.894C88.6182 32.7173 88.4592 32.5583 88.3179 32.417C88.2119 32.2757 88.1412 32.152 88.1059 32.046C88.1059 32.0107 88.0705 31.993 87.9999 31.993L87.7879 32.046C87.7172 32.046 87.6465 31.993 87.5759 31.887C87.5405 31.8163 87.5052 31.728 87.4699 31.622C87.4345 31.4807 87.3815 31.3393 87.3109 31.198C87.2755 31.1273 87.1165 31.0037 86.8339 30.827C86.7985 30.827 86.7455 30.721 86.6749 30.509C86.5335 30.4737 86.4629 30.403 86.4629 30.297L86.6219 30.032C86.6925 29.926 86.7279 29.8023 86.7279 29.661C86.7279 29.4843 86.6572 29.3253 86.5159 29.184C86.3392 28.9367 86.2509 28.7423 86.2509 28.601C86.3215 28.5303 86.3745 28.442 86.4099 28.336C86.4452 28.1947 86.4982 28.0533 86.5689 27.912C86.5689 27.912 86.4982 27.7883 86.3569 27.541C86.1095 27.1523 86.0035 26.8343 86.0389 26.587C86.0389 26.5517 86.1802 26.3927 86.4629 26.11L86.1449 25.845C86.1449 25.8097 86.1272 25.7743 86.0919 25.739V25.209C86.0919 25.1383 86.0919 25.0677 86.0919 24.997C86.0919 24.9263 86.1095 24.838 86.1449 24.732L86.4099 24.414C86.3392 24.202 86.3392 24.0077 86.4099 23.831C86.4452 23.7957 86.4805 23.7603 86.5159 23.725C86.5512 23.6897 86.5865 23.6543 86.6219 23.619C86.5865 23.5837 86.4982 23.566 86.3569 23.566L86.2509 22.718V22.559C86.2509 22.135 86.3569 21.9583 86.5689 22.029L86.9399 22.082L87.0459 22.029C87.0105 21.8877 86.8692 21.7817 86.6219 21.711C86.4452 21.6403 86.3569 21.5697 86.3569 21.499L86.5689 20.174C86.6395 20.174 86.6925 20.1033 86.7279 19.962L86.6219 19.591C86.5512 19.273 86.4982 19.0963 86.4629 19.061C86.5335 18.9903 86.6219 18.9197 86.7279 18.849C86.8339 18.7783 86.9222 18.6723 86.9929 18.531C86.9929 18.4957 86.8869 18.3013 86.6749 17.948C86.5689 17.7713 86.5159 17.5593 86.5159 17.312C86.5865 17.2413 86.6395 17.1353 86.6749 16.994C86.7455 16.8527 86.8162 16.6937 86.8869 16.517C86.8869 16.2697 86.8869 16.0047 86.8869 15.722C86.9222 15.404 86.9575 15.0507 86.9929 14.662C87.0989 14.556 87.1695 14.45 87.2049 14.344C87.3109 13.708 87.3462 13.2663 87.3109 13.019C87.4522 13.0543 87.5759 13.019 87.6819 12.913L87.7349 12.489C87.9469 12.4183 88.0529 12.2947 88.0529 12.118C88.1235 11.8 88.1589 11.641 88.1589 11.641C88.7242 10.9697 89.0775 10.634 89.2189 10.634H89.2719V10.687H89.3779C89.4485 10.687 89.5015 10.6163 89.5369 10.475L90.1199 10.263C90.6852 10.7223 90.9679 10.8637 90.9679 10.687V10.369C90.9679 10.2983 90.9502 10.2277 90.9149 10.157C90.9149 10.0863 90.9149 10.0333 90.9149 9.998V9.786C91.3389 9.468 91.5862 9.309 91.6569 9.309L91.9749 9.415L92.5579 9.309C92.8405 9.69767 93.0525 9.892 93.1939 9.892C93.2999 9.892 93.4235 9.82133 93.5649 9.68C93.7415 9.468 93.8475 9.362 93.8829 9.362L94.3069 9.044C94.3069 9.18533 94.3775 9.32667 94.5189 9.468L94.8899 9.203C94.9252 9.34433 95.0665 9.50333 95.3139 9.68L95.5259 9.627H95.7379L95.9499 9.468C96.0205 9.50333 96.1265 9.53867 96.2679 9.574C96.4092 9.60933 96.5505 9.64467 96.6919 9.68C96.7979 10.0333 97.0982 10.2453 97.5929 10.316L97.6989 10.528C97.7342 10.4927 97.8402 10.475 98.0169 10.475C98.1229 10.475 98.1759 10.5103 98.1759 10.581L98.5999 11.482C98.6705 11.4113 98.7412 11.376 98.8119 11.376C98.9885 11.376 99.0945 11.482 99.1299 11.694L99.2889 12.383L99.6599 12.595C99.7305 12.6657 99.7835 12.913 99.8189 13.337C99.8542 13.4077 99.8895 13.496 99.9249 13.602C99.9602 13.6727 99.9955 13.7787 100.031 13.92C99.9955 14.026 99.9779 14.291 99.9779 14.715L100.243 15.033C100.42 15.1743 100.49 15.3333 100.455 15.51L100.402 15.828C100.367 15.8633 100.296 15.8987 100.19 15.934C100.119 15.9693 100.049 16.0223 99.9779 16.093C99.8719 16.199 99.7482 16.2343 99.6069 16.199C99.5715 16.2343 99.5539 16.305 99.5539 16.411C99.7659 16.623 99.9779 16.7643 100.19 16.835L100.084 17.312C100.084 17.312 100.013 17.3473 99.8719 17.418C99.7659 17.524 99.6775 17.577 99.6069 17.577C99.4302 17.7537 99.3419 17.9127 99.3419 18.054C99.3419 18.266 99.5715 18.4427 100.031 18.584L100.137 18.955C100.102 18.9903 100.049 19.1317 99.9779 19.379V19.591C99.9779 19.697 99.9779 19.8207 99.9779 19.962C99.9779 20.068 99.9955 20.2093 100.031 20.386L99.6069 20.598C99.6422 20.6333 99.6775 20.704 99.7129 20.81C99.7482 20.916 99.8012 21.0397 99.8719 21.181C100.013 21.3577 100.084 21.4813 100.084 21.552L99.9779 22.347C99.9072 22.2763 99.8012 22.241 99.6599 22.241H99.5009L99.3949 22.453C99.3949 22.453 99.4832 22.5767 99.6599 22.824C99.8365 23.0713 99.9249 23.2127 99.9249 23.248C99.9249 23.4247 99.8542 23.5307 99.7129 23.566C99.5362 23.6367 99.4479 23.7427 99.4479 23.884C99.4479 23.8487 99.5009 23.9547 99.6069 24.202C99.6775 24.2373 99.6775 24.3433 99.6069 24.52C99.6069 24.52 99.5715 24.5553 99.5009 24.626C99.5715 25.0853 99.6245 25.474 99.6599 25.792C99.6952 26.0747 99.7129 26.2513 99.7129 26.322C99.6775 26.428 99.6422 26.5693 99.6069 26.746C99.5715 26.8873 99.5185 27.0463 99.4479 27.223L99.5539 27.647L99.5009 29.396L98.8649 30.456L98.6529 31.251C98.5822 31.3217 98.5115 31.357 98.4409 31.357C98.4055 31.3217 98.3525 31.304 98.2819 31.304C98.2112 31.304 98.0875 31.3747 97.9109 31.516V32.046C97.0982 32.8233 96.6389 33.1943 96.5329 33.159L96.3209 33.106C96.3562 33.106 95.8969 33.265 94.9429 33.583C94.9075 33.6183 94.8722 33.6537 94.8369 33.689C94.8015 33.7597 94.7485 33.848 94.6779 33.954H94.5189L94.1479 33.848C94.0419 33.848 93.6885 33.9187 93.0879 34.06L92.6109 33.901C92.6109 33.901 92.4695 33.9717 92.1869 34.113ZM90.0139 12.436C90.0492 12.436 90.0139 12.3653 89.9079 12.224L89.7489 12.33C89.7842 12.3653 89.8195 12.383 89.8549 12.383C89.9255 12.383 89.9785 12.4007 90.0139 12.436ZM96.2679 12.86L96.4799 12.701C96.4445 12.5597 96.3562 12.5067 96.2149 12.542L96.2679 12.86ZM90.0139 13.284C90.0492 13.2133 90.0315 13.1427 89.9609 13.072C89.8902 13.0013 89.8195 13.0013 89.7489 13.072C89.7489 13.1427 89.8372 13.2133 90.0139 13.284ZM92.7699 29.343C92.8052 29.3077 92.9995 29.2017 93.3529 29.025C93.6355 28.919 93.7592 28.866 93.7239 28.866H93.6709C93.7062 28.866 93.7239 28.866 93.7239 28.866L94.0419 28.972C94.1125 28.972 94.2009 28.9013 94.3069 28.76C94.1302 28.5127 94.0419 28.3183 94.0419 28.177L94.1479 27.7C94.2185 27.6293 94.2715 27.594 94.3069 27.594L94.4129 27.7C94.3775 27.806 94.3775 27.9297 94.4129 28.071L94.6249 27.912V27.594L94.2539 26.852C94.3952 26.7813 94.5365 26.6753 94.6779 26.534C94.5012 26.11 94.4305 25.7743 94.4659 25.527L94.5189 25.156C94.5542 25.0147 94.5719 24.9087 94.5719 24.838C94.5719 24.732 94.5719 24.6613 94.5719 24.626C94.6425 24.5553 94.7485 24.5023 94.8899 24.467C95.1725 24.3963 95.3139 24.202 95.3139 23.884C95.3139 23.8133 95.2609 23.778 95.1549 23.778C95.0842 23.778 94.9959 23.7073 94.8899 23.566C94.8545 23.5307 94.7839 23.513 94.6779 23.513C94.5012 23.2303 94.4129 23.0183 94.4129 22.877C94.4835 22.3823 94.5365 22.1703 94.5719 22.241C94.6779 22.241 94.7309 21.9583 94.7309 21.393C94.8015 20.863 94.8015 20.5097 94.7309 20.333C94.6602 20.0503 94.6072 19.909 94.5719 19.909V19.962C94.5719 19.9267 94.5719 19.909 94.5719 19.909C94.6072 19.7677 94.6425 19.591 94.6779 19.379C94.7132 19.1317 94.7485 18.8667 94.7839 18.584C94.8192 18.5487 94.8545 18.5133 94.8899 18.478C94.9605 18.4427 95.0135 18.4073 95.0489 18.372C95.1549 18.266 95.2079 18.1777 95.2079 18.107L95.0489 17.895C94.9075 17.7537 94.8369 17.5417 94.8369 17.259C94.9429 17.153 95.0135 17.0293 95.0489 16.888L95.1019 16.146C95.1725 16.0753 95.2255 15.9693 95.2609 15.828C95.2609 15.7927 95.2609 15.7397 95.2609 15.669C95.2609 15.5983 95.2255 15.5277 95.1549 15.457L94.9959 15.192C95.0312 14.662 95.0665 14.4147 95.1019 14.45L94.8899 14.397C94.8192 14.3617 94.7485 14.344 94.6779 14.344C94.6425 14.344 94.6249 14.3263 94.6249 14.291C94.4835 14.1143 94.3775 14.0613 94.3069 14.132L93.9359 14.238C93.7592 14.238 93.5649 14.0967 93.3529 13.814H93.1409L93.0349 14.185C92.9642 14.397 92.8582 14.4853 92.7169 14.45L92.2929 14.556C92.5049 14.5913 92.6109 14.6973 92.6109 14.874L92.2929 15.934C92.3282 15.8987 92.3635 16.0577 92.3989 16.411V16.57C92.3989 16.9233 92.3282 17.3827 92.1869 17.948C92.0809 18.054 92.0102 18.16 91.9749 18.266V18.743C91.9749 18.849 91.9749 18.955 91.9749 19.061C92.0102 19.167 92.0102 19.2907 91.9749 19.432C91.9749 19.5027 91.9572 19.5733 91.9219 19.644C91.9219 19.7147 91.9219 19.7853 91.9219 19.856C91.9219 20.068 91.9749 20.227 92.0809 20.333C92.1869 20.7217 92.2222 21.128 92.1869 21.552C92.1162 21.6227 92.0455 21.7287 91.9749 21.87C91.9042 21.976 91.8335 22.0997 91.7629 22.241L92.0279 22.877C92.0279 22.9477 92.0102 23.0007 91.9749 23.036C91.7629 23.036 91.6215 23.0537 91.5509 23.089C91.7629 23.4423 91.8689 23.6543 91.8689 23.725L91.7099 24.414C91.6745 24.4493 91.6392 24.4847 91.6039 24.52C91.5685 24.5553 91.5332 24.6083 91.4979 24.679V24.732L91.6569 25.368C91.6569 25.6153 91.4802 25.686 91.1269 25.58V25.792C91.3035 25.8627 91.4979 26.0217 91.7099 26.269C91.6745 26.5163 91.6569 26.8167 91.6569 27.17C91.6569 27.488 91.6569 27.8413 91.6569 28.23C91.7275 28.336 91.8512 28.5657 92.0279 28.919C92.0985 28.919 92.2399 28.9543 92.4519 29.025C92.4165 29.131 92.4165 29.237 92.4519 29.343H92.7699ZM89.3779 18.319L89.8019 18.16C89.9079 17.9833 89.9609 17.789 89.9609 17.577C90.0315 17.5063 89.9962 17.418 89.8549 17.312L89.5369 17.577H89.4309C89.3249 17.365 89.2012 17.259 89.0599 17.259C88.9185 17.259 88.8479 17.365 88.8479 17.577C88.8479 17.789 88.8832 17.9303 88.9539 18.001L89.3779 18.319ZM97.0629 22.135L97.2219 22.029C97.2219 21.9583 97.2042 21.9053 97.1689 21.87L97.0629 22.135ZM88.6359 24.573L88.5829 23.99C88.5122 24.0607 88.4415 24.1843 88.3709 24.361C88.3709 24.4317 88.4592 24.5023 88.6359 24.573ZM97.4339 28.919C97.5752 28.9897 97.6635 28.972 97.6989 28.866C97.6635 28.8307 97.6282 28.7953 97.5929 28.76C97.5929 28.7247 97.5575 28.6893 97.4869 28.654L97.4339 28.919ZM98.6529 29.555C98.7589 29.4137 98.7765 29.3077 98.7059 29.237L98.3349 29.29C98.3702 29.3253 98.3702 29.4137 98.3349 29.555H98.6529ZM88.9009 32.205C89.0069 32.205 89.1129 32.152 89.2189 32.046V31.675L88.9009 31.516C88.7242 31.516 88.6359 31.6397 88.6359 31.887C88.6005 32.099 88.6889 32.205 88.9009 32.205ZM107.973 34.113C107.938 34.0423 107.885 33.9717 107.814 33.901C107.743 33.8657 107.673 33.8127 107.602 33.742C107.39 33.6007 107.16 33.4947 106.913 33.424C106.878 33.4593 106.772 33.5123 106.595 33.583L106.224 33.424C106.012 33.318 105.871 33.265 105.8 33.265L105.323 33.371C105.217 33.371 104.97 33.212 104.581 32.894C104.404 32.7173 104.245 32.5583 104.104 32.417C103.998 32.2757 103.927 32.152 103.892 32.046C103.892 32.0107 103.857 31.993 103.786 31.993L103.574 32.046C103.503 32.046 103.433 31.993 103.362 31.887C103.327 31.8163 103.291 31.728 103.256 31.622C103.221 31.4807 103.168 31.3393 103.097 31.198C103.062 31.1273 102.903 31.0037 102.62 30.827C102.585 30.827 102.532 30.721 102.461 30.509C102.32 30.4737 102.249 30.403 102.249 30.297L102.408 30.032C102.479 29.926 102.514 29.8023 102.514 29.661C102.514 29.4843 102.443 29.3253 102.302 29.184C102.125 28.9367 102.037 28.7423 102.037 28.601C102.108 28.5303 102.161 28.442 102.196 28.336C102.231 28.1947 102.284 28.0533 102.355 27.912C102.355 27.912 102.284 27.7883 102.143 27.541C101.896 27.1523 101.79 26.8343 101.825 26.587C101.825 26.5517 101.966 26.3927 102.249 26.11L101.931 25.845C101.931 25.8097 101.913 25.7743 101.878 25.739V25.209C101.878 25.1383 101.878 25.0677 101.878 24.997C101.878 24.9263 101.896 24.838 101.931 24.732L102.196 24.414C102.125 24.202 102.125 24.0077 102.196 23.831C102.231 23.7957 102.267 23.7603 102.302 23.725C102.337 23.6897 102.373 23.6543 102.408 23.619C102.373 23.5837 102.284 23.566 102.143 23.566L102.037 22.718V22.559C102.037 22.135 102.143 21.9583 102.355 22.029L102.726 22.082L102.832 22.029C102.797 21.8877 102.655 21.7817 102.408 21.711C102.231 21.6403 102.143 21.5697 102.143 21.499L102.355 20.174C102.426 20.174 102.479 20.1033 102.514 19.962L102.408 19.591C102.337 19.273 102.284 19.0963 102.249 19.061C102.32 18.9903 102.408 18.9197 102.514 18.849C102.62 18.7783 102.708 18.6723 102.779 18.531C102.779 18.4957 102.673 18.3013 102.461 17.948C102.355 17.7713 102.302 17.5593 102.302 17.312C102.373 17.2413 102.426 17.1353 102.461 16.994C102.532 16.8527 102.602 16.6937 102.673 16.517C102.673 16.2697 102.673 16.0047 102.673 15.722C102.708 15.404 102.744 15.0507 102.779 14.662C102.885 14.556 102.956 14.45 102.991 14.344C103.097 13.708 103.132 13.2663 103.097 13.019C103.238 13.0543 103.362 13.019 103.468 12.913L103.521 12.489C103.733 12.4183 103.839 12.2947 103.839 12.118C103.91 11.8 103.945 11.641 103.945 11.641C104.51 10.9697 104.864 10.634 105.005 10.634H105.058V10.687H105.164C105.235 10.687 105.288 10.6163 105.323 10.475L105.906 10.263C106.471 10.7223 106.754 10.8637 106.754 10.687V10.369C106.754 10.2983 106.736 10.2277 106.701 10.157C106.701 10.0863 106.701 10.0333 106.701 9.998V9.786C107.125 9.468 107.372 9.309 107.443 9.309L107.761 9.415L108.344 9.309C108.627 9.69767 108.839 9.892 108.98 9.892C109.086 9.892 109.21 9.82133 109.351 9.68C109.528 9.468 109.634 9.362 109.669 9.362L110.093 9.044C110.093 9.18533 110.164 9.32667 110.305 9.468L110.676 9.203C110.711 9.34433 110.853 9.50333 111.1 9.68L111.312 9.627H111.524L111.736 9.468C111.807 9.50333 111.913 9.53867 112.054 9.574C112.195 9.60933 112.337 9.64467 112.478 9.68C112.584 10.0333 112.884 10.2453 113.379 10.316L113.485 10.528C113.52 10.4927 113.626 10.475 113.803 10.475C113.909 10.475 113.962 10.5103 113.962 10.581L114.386 11.482C114.457 11.4113 114.527 11.376 114.598 11.376C114.775 11.376 114.881 11.482 114.916 11.694L115.075 12.383L115.446 12.595C115.517 12.6657 115.57 12.913 115.605 13.337C115.64 13.4077 115.676 13.496 115.711 13.602C115.746 13.6727 115.782 13.7787 115.817 13.92C115.782 14.026 115.764 14.291 115.764 14.715L116.029 15.033C116.206 15.1743 116.276 15.3333 116.241 15.51L116.188 15.828C116.153 15.8633 116.082 15.8987 115.976 15.934C115.905 15.9693 115.835 16.0223 115.764 16.093C115.658 16.199 115.534 16.2343 115.393 16.199C115.358 16.2343 115.34 16.305 115.34 16.411C115.552 16.623 115.764 16.7643 115.976 16.835L115.87 17.312C115.87 17.312 115.799 17.3473 115.658 17.418C115.552 17.524 115.464 17.577 115.393 17.577C115.216 17.7537 115.128 17.9127 115.128 18.054C115.128 18.266 115.358 18.4427 115.817 18.584L115.923 18.955C115.888 18.9903 115.835 19.1317 115.764 19.379V19.591C115.764 19.697 115.764 19.8207 115.764 19.962C115.764 20.068 115.782 20.2093 115.817 20.386L115.393 20.598C115.428 20.6333 115.464 20.704 115.499 20.81C115.534 20.916 115.587 21.0397 115.658 21.181C115.799 21.3577 115.87 21.4813 115.87 21.552L115.764 22.347C115.693 22.2763 115.587 22.241 115.446 22.241H115.287L115.181 22.453C115.181 22.453 115.269 22.5767 115.446 22.824C115.623 23.0713 115.711 23.2127 115.711 23.248C115.711 23.4247 115.64 23.5307 115.499 23.566C115.322 23.6367 115.234 23.7427 115.234 23.884C115.234 23.8487 115.287 23.9547 115.393 24.202C115.464 24.2373 115.464 24.3433 115.393 24.52C115.393 24.52 115.358 24.5553 115.287 24.626C115.358 25.0853 115.411 25.474 115.446 25.792C115.481 26.0747 115.499 26.2513 115.499 26.322C115.464 26.428 115.428 26.5693 115.393 26.746C115.358 26.8873 115.305 27.0463 115.234 27.223L115.34 27.647L115.287 29.396L114.651 30.456L114.439 31.251C114.368 31.3217 114.298 31.357 114.227 31.357C114.192 31.3217 114.139 31.304 114.068 31.304C113.997 31.304 113.874 31.3747 113.697 31.516V32.046C112.884 32.8233 112.425 33.1943 112.319 33.159L112.107 33.106C112.142 33.106 111.683 33.265 110.729 33.583C110.694 33.6183 110.658 33.6537 110.623 33.689C110.588 33.7597 110.535 33.848 110.464 33.954H110.305L109.934 33.848C109.828 33.848 109.475 33.9187 108.874 34.06L108.397 33.901C108.397 33.901 108.256 33.9717 107.973 34.113ZM105.8 12.436C105.835 12.436 105.8 12.3653 105.694 12.224L105.535 12.33C105.57 12.3653 105.606 12.383 105.641 12.383C105.712 12.383 105.765 12.4007 105.8 12.436ZM112.054 12.86L112.266 12.701C112.231 12.5597 112.142 12.5067 112.001 12.542L112.054 12.86ZM105.8 13.284C105.835 13.2133 105.818 13.1427 105.747 13.072C105.676 13.0013 105.606 13.0013 105.535 13.072C105.535 13.1427 105.623 13.2133 105.8 13.284ZM108.556 29.343C108.591 29.3077 108.786 29.2017 109.139 29.025C109.422 28.919 109.545 28.866 109.51 28.866H109.457C109.492 28.866 109.51 28.866 109.51 28.866L109.828 28.972C109.899 28.972 109.987 28.9013 110.093 28.76C109.916 28.5127 109.828 28.3183 109.828 28.177L109.934 27.7C110.005 27.6293 110.058 27.594 110.093 27.594L110.199 27.7C110.164 27.806 110.164 27.9297 110.199 28.071L110.411 27.912V27.594L110.04 26.852C110.181 26.7813 110.323 26.6753 110.464 26.534C110.287 26.11 110.217 25.7743 110.252 25.527L110.305 25.156C110.34 25.0147 110.358 24.9087 110.358 24.838C110.358 24.732 110.358 24.6613 110.358 24.626C110.429 24.5553 110.535 24.5023 110.676 24.467C110.959 24.3963 111.1 24.202 111.1 23.884C111.1 23.8133 111.047 23.778 110.941 23.778C110.87 23.778 110.782 23.7073 110.676 23.566C110.641 23.5307 110.57 23.513 110.464 23.513C110.287 23.2303 110.199 23.0183 110.199 22.877C110.27 22.3823 110.323 22.1703 110.358 22.241C110.464 22.241 110.517 21.9583 110.517 21.393C110.588 20.863 110.588 20.5097 110.517 20.333C110.446 20.0503 110.393 19.909 110.358 19.909V19.962C110.358 19.9267 110.358 19.909 110.358 19.909C110.393 19.7677 110.429 19.591 110.464 19.379C110.499 19.1317 110.535 18.8667 110.57 18.584C110.605 18.5487 110.641 18.5133 110.676 18.478C110.747 18.4427 110.8 18.4073 110.835 18.372C110.941 18.266 110.994 18.1777 110.994 18.107L110.835 17.895C110.694 17.7537 110.623 17.5417 110.623 17.259C110.729 17.153 110.8 17.0293 110.835 16.888L110.888 16.146C110.959 16.0753 111.012 15.9693 111.047 15.828C111.047 15.7927 111.047 15.7397 111.047 15.669C111.047 15.5983 111.012 15.5277 110.941 15.457L110.782 15.192C110.817 14.662 110.853 14.4147 110.888 14.45L110.676 14.397C110.605 14.3617 110.535 14.344 110.464 14.344C110.429 14.344 110.411 14.3263 110.411 14.291C110.27 14.1143 110.164 14.0613 110.093 14.132L109.722 14.238C109.545 14.238 109.351 14.0967 109.139 13.814H108.927L108.821 14.185C108.75 14.397 108.644 14.4853 108.503 14.45L108.079 14.556C108.291 14.5913 108.397 14.6973 108.397 14.874L108.079 15.934C108.114 15.8987 108.15 16.0577 108.185 16.411V16.57C108.185 16.9233 108.114 17.3827 107.973 17.948C107.867 18.054 107.796 18.16 107.761 18.266V18.743C107.761 18.849 107.761 18.955 107.761 19.061C107.796 19.167 107.796 19.2907 107.761 19.432C107.761 19.5027 107.743 19.5733 107.708 19.644C107.708 19.7147 107.708 19.7853 107.708 19.856C107.708 20.068 107.761 20.227 107.867 20.333C107.973 20.7217 108.008 21.128 107.973 21.552C107.902 21.6227 107.832 21.7287 107.761 21.87C107.69 21.976 107.62 22.0997 107.549 22.241L107.814 22.877C107.814 22.9477 107.796 23.0007 107.761 23.036C107.549 23.036 107.408 23.0537 107.337 23.089C107.549 23.4423 107.655 23.6543 107.655 23.725L107.496 24.414C107.461 24.4493 107.425 24.4847 107.39 24.52C107.355 24.5553 107.319 24.6083 107.284 24.679V24.732L107.443 25.368C107.443 25.6153 107.266 25.686 106.913 25.58V25.792C107.09 25.8627 107.284 26.0217 107.496 26.269C107.461 26.5163 107.443 26.8167 107.443 27.17C107.443 27.488 107.443 27.8413 107.443 28.23C107.514 28.336 107.637 28.5657 107.814 28.919C107.885 28.919 108.026 28.9543 108.238 29.025C108.203 29.131 108.203 29.237 108.238 29.343H108.556ZM105.164 18.319L105.588 18.16C105.694 17.9833 105.747 17.789 105.747 17.577C105.818 17.5063 105.782 17.418 105.641 17.312L105.323 17.577H105.217C105.111 17.365 104.987 17.259 104.846 17.259C104.705 17.259 104.634 17.365 104.634 17.577C104.634 17.789 104.669 17.9303 104.74 18.001L105.164 18.319ZM112.849 22.135L113.008 22.029C113.008 21.9583 112.99 21.9053 112.955 21.87L112.849 22.135ZM104.422 24.573L104.369 23.99C104.298 24.0607 104.228 24.1843 104.157 24.361C104.157 24.4317 104.245 24.5023 104.422 24.573ZM113.22 28.919C113.361 28.9897 113.45 28.972 113.485 28.866C113.45 28.8307 113.414 28.7953 113.379 28.76C113.379 28.7247 113.344 28.6893 113.273 28.654L113.22 28.919ZM114.439 29.555C114.545 29.4137 114.563 29.3077 114.492 29.237L114.121 29.29C114.156 29.3253 114.156 29.4137 114.121 29.555H114.439ZM104.687 32.205C104.793 32.205 104.899 32.152 105.005 32.046V31.675L104.687 31.516C104.51 31.516 104.422 31.6397 104.422 31.887C104.387 32.099 104.475 32.205 104.687 32.205ZM137.168 33.477L136.797 33.318C136.585 33.2473 136.355 33.212 136.108 33.212L135.684 33.371L135.26 33.265C135.225 33.3003 135.172 33.318 135.101 33.318C135.03 33.318 134.96 33.3357 134.889 33.371L134.677 33.265C134.536 33.1943 134.447 33.159 134.412 33.159L134.147 33.212C134.112 33.0353 134.076 32.894 134.041 32.788C134.041 32.6467 134.041 32.5407 134.041 32.47L134.2 31.993C134.235 31.8517 134.253 31.6043 134.253 31.251C134.253 30.8623 134.253 30.3853 134.253 29.82L134.359 29.237C134.359 28.9543 134.412 28.654 134.518 28.336C134.871 28.1947 135.048 28.018 135.048 27.806L134.306 26.693L134.359 25.156C134.359 24.8027 134.518 24.4493 134.836 24.096C134.659 23.672 134.571 23.5307 134.571 23.672L134.624 21.87C134.73 21.87 134.818 21.8347 134.889 21.764L134.624 21.446L134.73 20.969C134.553 20.7923 134.465 20.5273 134.465 20.174C134.465 19.962 134.483 19.7853 134.518 19.644L134.359 19.432C134.465 19.326 134.571 19.2553 134.677 19.22C134.606 19.008 134.571 18.8667 134.571 18.796C134.571 18.584 134.677 18.425 134.889 18.319C134.748 17.8597 134.677 17.6477 134.677 17.683V17.736C134.677 17.7007 134.677 17.683 134.677 17.683C134.712 17.471 134.836 17.259 135.048 17.047C135.013 17.0117 134.977 16.9763 134.942 16.941C134.907 16.9057 134.871 16.8703 134.836 16.835V15.934C134.695 15.7927 134.624 15.6867 134.624 15.616V14.715C134.589 14.6797 134.447 14.662 134.2 14.662L133.882 14.715C133.776 14.7503 133.67 14.768 133.564 14.768L133.405 14.715C133.334 14.6797 133.264 14.662 133.193 14.662C133.158 14.662 133.069 14.6973 132.928 14.768L133.034 14.98C132.928 15.298 132.804 15.457 132.663 15.457L132.61 15.404H132.504C132.575 15.404 132.38 15.5277 131.921 15.775C131.921 15.9163 131.921 16.0577 131.921 16.199C131.921 16.305 131.903 16.4287 131.868 16.57C131.833 16.994 131.762 17.206 131.656 17.206H131.603L131.55 17.259C131.55 17.5063 131.656 17.63 131.868 17.63C131.939 17.63 132.009 17.5947 132.08 17.524L131.868 18.213C131.903 18.2837 131.939 18.372 131.974 18.478C132.009 18.5487 132.045 18.6193 132.08 18.69L131.815 19.22C131.78 19.1847 131.691 19.1847 131.55 19.22C131.797 19.326 131.921 19.5027 131.921 19.75C131.921 19.856 131.833 19.9973 131.656 20.174C131.797 20.492 131.903 20.6157 131.974 20.545C131.939 20.6863 131.886 20.969 131.815 21.393V22.029C131.815 22.4177 131.797 22.665 131.762 22.771L131.603 23.142C131.603 23.142 131.656 23.2303 131.762 23.407L131.868 23.725C131.903 23.9723 131.921 24.255 131.921 24.573C131.921 24.891 131.921 25.2797 131.921 25.739L131.762 26.481C131.727 26.5517 131.709 26.693 131.709 26.905C131.709 27.011 131.709 27.1347 131.709 27.276C131.744 27.382 131.78 27.5233 131.815 27.7C131.815 27.7707 131.797 27.8413 131.762 27.912C131.762 27.9827 131.744 28.0533 131.709 28.124C131.568 28.4067 131.497 28.601 131.497 28.707L131.656 29.449L131.338 30.138C131.197 30.3853 131.126 30.5797 131.126 30.721C131.126 30.7563 131.144 30.774 131.179 30.774C131.179 30.774 131.285 30.7387 131.497 30.668L131.656 30.986C131.691 31.3393 131.709 31.5867 131.709 31.728C131.744 31.8693 131.762 31.9223 131.762 31.887L131.656 32.311V33.053C130.949 33.1943 130.578 33.265 130.543 33.265H130.596C130.596 33.265 130.578 33.265 130.543 33.265L130.384 33.212C130.243 33.1413 130.154 33.106 130.119 33.106L129.695 33.265C129.695 33.265 129.589 33.2297 129.377 33.159L129.059 33C128.988 33 128.918 33.0177 128.847 33.053C128.741 33.053 128.511 32.9117 128.158 32.629C128.052 33.0177 127.84 33.212 127.522 33.212C127.275 33.212 127.045 33.159 126.833 33.053C126.621 32.8763 126.515 32.5583 126.515 32.099C126.515 31.6043 126.727 31.2333 127.151 30.986L126.78 30.721L126.833 30.403C126.727 30.085 126.674 29.8907 126.674 29.82C126.709 29.7493 126.745 29.661 126.78 29.555C126.851 29.4137 126.904 29.2547 126.939 29.078L126.833 28.23C126.833 27.9827 126.921 27.7707 127.098 27.594C127.098 27.488 127.045 27.382 126.939 27.276C126.868 27.1347 126.833 27.0287 126.833 26.958L126.992 26.534L127.098 26.11L126.886 25.474L126.992 24.732L127.098 24.096C127.098 24.096 127.063 24.0607 126.992 23.99C126.886 23.8133 126.833 23.6013 126.833 23.354C126.833 23.0713 126.886 22.7533 126.992 22.4C127.098 22.294 127.169 22.1703 127.204 22.029L127.098 21.499C126.992 21.2163 126.939 21.0397 126.939 20.969L127.151 19.909C127.504 19.8737 127.681 19.803 127.681 19.697C127.681 19.6263 127.61 19.5203 127.469 19.379C127.363 19.273 127.275 19.1493 127.204 19.008C127.239 18.902 127.257 18.69 127.257 18.372C127.151 18.1247 127.08 17.9833 127.045 17.948C127.08 17.9127 127.116 17.8597 127.151 17.789C127.186 17.7183 127.222 17.63 127.257 17.524C127.257 17.524 127.186 17.4003 127.045 17.153L127.098 14.874C127.133 14.7327 127.133 14.6443 127.098 14.609L126.992 14.662C126.886 14.5207 126.762 14.397 126.621 14.291L126.197 14.344C126.056 14.3793 125.95 14.4147 125.879 14.45C125.808 14.45 125.738 14.45 125.667 14.45C125.314 14.7327 125.172 14.874 125.243 14.874L124.925 14.821C124.89 15.1743 124.784 15.4923 124.607 15.775C124.466 15.8457 124.324 15.9517 124.183 16.093L124.077 16.464L124.289 17.312C124.289 17.312 124.254 17.3827 124.183 17.524C124.077 17.6653 124.024 17.7713 124.024 17.842L124.236 18.902C124.236 18.9373 124.148 19.1847 123.971 19.644C123.794 20.174 123.706 20.439 123.706 20.439V20.598C123.777 20.5627 123.83 20.5273 123.865 20.492C123.936 20.4567 124.006 20.4213 124.077 20.386L124.183 21.605L124.024 22.506L123.812 23.407C123.812 23.6543 123.883 23.9017 124.024 24.149C123.953 24.3257 123.847 24.414 123.706 24.414C123.812 24.9793 123.865 25.3857 123.865 25.633C123.83 25.7037 123.794 25.792 123.759 25.898C123.724 26.004 123.688 26.1277 123.653 26.269L123.706 26.534C123.777 26.6753 123.83 26.7637 123.865 26.799C123.9 26.9403 123.918 27.0993 123.918 27.276C123.918 27.4173 123.918 27.6117 123.918 27.859C123.847 27.7883 123.777 28.018 123.706 28.548L123.812 28.76C123.918 28.972 123.847 29.131 123.6 29.237C123.6 29.2723 123.653 29.343 123.759 29.449C123.83 29.5903 123.865 29.6787 123.865 29.714C123.865 29.82 123.794 29.8907 123.653 29.926L123.282 30.085V30.297C123.459 30.3677 123.582 30.456 123.653 30.562C123.618 30.7033 123.6 30.88 123.6 31.092C123.6 31.2687 123.6 31.4983 123.6 31.781C123.706 32.3463 123.759 32.5937 123.759 32.523C123.759 32.8763 123.565 33.053 123.176 33.053C123.141 33.053 123.052 33.0353 122.911 33C122.805 32.9293 122.717 32.8763 122.646 32.841C122.611 32.841 122.575 32.8587 122.54 32.894C122.469 32.9647 122.399 33 122.328 33L122.222 32.947C122.187 32.9117 122.151 32.894 122.116 32.894L121.586 33.159C121.551 33.1237 121.427 33.0707 121.215 33C121.038 32.9647 120.879 32.947 120.738 32.947C120.632 32.9117 120.544 32.894 120.473 32.894L119.943 32.947C119.766 32.9823 119.625 33 119.519 33C119.413 33 119.342 33 119.307 33C119.272 33 119.201 32.947 119.095 32.841C118.954 32.735 118.865 32.682 118.83 32.682L118.512 32.947H118.247V32.788C118.247 32.7173 118.247 32.6113 118.247 32.47C118.247 32.3287 118.265 32.152 118.3 31.94C118.441 31.94 118.583 31.887 118.724 31.781C118.724 31.781 118.583 31.6043 118.3 31.251V30.509C118.477 30.3323 118.565 30.191 118.565 30.085C118.565 29.979 118.512 29.82 118.406 29.608C118.3 29.396 118.247 29.237 118.247 29.131C118.247 29.0957 118.335 28.9543 118.512 28.707L118.459 28.177C118.494 28.1063 118.512 28.0357 118.512 27.965C118.512 27.8943 118.53 27.806 118.565 27.7L118.459 27.435C118.459 27.435 118.494 27.3643 118.565 27.223L118.618 27.064C118.618 27.0287 118.618 26.9757 118.618 26.905C118.618 26.8343 118.6 26.746 118.565 26.64C118.53 26.4987 118.494 26.3927 118.459 26.322C118.459 26.216 118.459 26.1453 118.459 26.11V24.838L118.565 24.679C118.494 24.679 118.459 24.6437 118.459 24.573L118.565 24.52C118.6 24.4493 118.618 24.3787 118.618 24.308C118.653 24.202 118.653 24.0783 118.618 23.937L118.565 23.672C118.565 23.6367 118.565 23.566 118.565 23.46C118.565 23.354 118.547 23.2127 118.512 23.036C118.512 23.1067 118.618 22.93 118.83 22.506C118.865 22.4 118.883 22.1703 118.883 21.817C118.883 21.8523 118.777 21.7463 118.565 21.499V21.34C118.6 21.234 118.636 21.1103 118.671 20.969C118.742 20.8277 118.795 20.6863 118.83 20.545L118.724 20.227C118.653 20.015 118.618 19.909 118.618 19.909C118.618 19.697 118.671 19.5733 118.777 19.538C118.883 19.4673 118.936 19.3967 118.936 19.326C118.936 19.3967 118.865 19.2907 118.724 19.008V18.69C118.724 18.5133 118.795 18.3543 118.936 18.213C119.042 18.0363 119.095 17.948 119.095 17.948C118.954 17.7713 118.795 17.5593 118.618 17.312L118.883 16.305C118.954 16.2343 119.007 16.1637 119.042 16.093L118.777 15.775V14.874C119.13 14.768 119.307 14.7327 119.307 14.768C119.307 14.662 119.236 14.5383 119.095 14.397C119.13 14.291 119.148 14.0967 119.148 13.814C118.936 13.39 118.83 13.0543 118.83 12.807L119.095 10.634C119.06 10.4573 119.024 10.263 118.989 10.051C118.954 9.80367 118.901 9.55633 118.83 9.309C118.83 9.097 118.936 8.991 119.148 8.991C119.219 8.991 119.342 9.06167 119.519 9.203C119.66 9.34433 119.766 9.415 119.837 9.415L119.943 9.362H120.049C120.084 9.362 120.12 9.37967 120.155 9.415C120.19 9.415 120.243 9.43267 120.314 9.468C120.42 9.574 120.508 9.627 120.579 9.627H120.95C120.95 9.733 120.932 9.839 120.897 9.945L121.003 10.051C121.109 10.051 121.197 9.945 121.268 9.733C121.374 9.521 121.409 9.32667 121.374 9.15H121.692C121.869 9.32667 121.975 9.415 122.01 9.415C122.116 9.415 122.187 9.39733 122.222 9.362L122.381 9.309L122.911 9.468L123.441 9.68C123.512 9.68 123.618 9.60933 123.759 9.468C123.83 9.53866 123.918 9.627 124.024 9.733C124.13 9.80367 124.254 9.892 124.395 9.998C124.36 10.0333 124.307 10.0863 124.236 10.157C124.201 10.2277 124.13 10.316 124.024 10.422C124.236 10.7047 124.43 10.846 124.607 10.846L124.713 10.793C124.819 10.687 124.89 10.5987 124.925 10.528L125.455 10.369C125.738 10.2983 125.879 10.157 125.879 9.945C125.985 9.839 126.091 9.76833 126.197 9.733C126.374 9.59167 126.603 9.521 126.886 9.521C126.886 9.521 126.957 9.55633 127.098 9.627C127.133 9.59167 127.31 9.521 127.628 9.415L128.052 9.362C128.193 9.22067 128.299 9.15 128.37 9.15C128.441 9.15 128.547 9.203 128.688 9.309C128.794 9.415 128.882 9.468 128.953 9.468L129.377 9.309C129.448 9.309 129.819 9.521 130.49 9.945H130.755L131.391 10.581V10.687C131.391 10.8637 131.479 11.0403 131.656 11.217C131.515 11.217 131.444 11.27 131.444 11.376C131.444 11.7647 131.78 11.959 132.451 11.959C132.486 11.959 132.628 11.8 132.875 11.482C133.158 11.164 133.334 11.005 133.405 11.005V11.058C133.546 10.952 133.599 10.8283 133.564 10.687L133.458 10.369C133.458 10.157 133.546 10.051 133.723 10.051L134.094 10.369C134.165 10.3337 134.218 10.316 134.253 10.316C134.324 10.316 134.377 10.2983 134.412 10.263C134.553 10.2277 134.624 10.1393 134.624 9.998V9.839C134.695 9.87433 134.801 9.892 134.942 9.892C135.189 9.892 135.313 9.76833 135.313 9.521V9.415C135.384 9.48567 135.525 9.59167 135.737 9.733H135.896C136.355 9.733 136.585 9.59167 136.585 9.309L137.115 9.68C137.186 9.892 137.292 10.104 137.433 10.316C137.504 10.316 137.61 10.1393 137.751 9.786H138.016C138.087 9.96267 138.193 10.051 138.334 10.051L138.599 9.998C138.67 9.998 138.74 10.0863 138.811 10.263V10.475C138.846 10.5103 138.935 10.5633 139.076 10.634L139.659 11.641C139.624 11.6763 139.606 11.747 139.606 11.853C139.606 11.9237 139.588 12.012 139.553 12.118L139.818 12.436C139.853 12.542 139.871 12.7363 139.871 13.019C139.871 13.3017 139.871 13.6727 139.871 14.132V14.185L139.818 14.291C139.818 14.291 139.836 14.3793 139.871 14.556C139.906 14.5913 139.871 14.7327 139.765 14.98V15.086C139.624 15.1213 139.5 15.2273 139.394 15.404V15.616C139.394 15.6867 139.359 15.7927 139.288 15.934C139.217 16.0753 139.182 16.1637 139.182 16.199C139.182 16.2697 139.235 16.3933 139.341 16.57C139.588 17.206 139.694 17.5947 139.659 17.736C139.447 17.8067 139.323 18.0187 139.288 18.372L139.818 18.584V18.796C139.783 18.8313 139.747 18.8667 139.712 18.902C139.677 18.9373 139.624 18.9903 139.553 19.061C139.553 19.1317 139.606 19.22 139.712 19.326C139.747 19.3967 139.765 19.4497 139.765 19.485C139.8 19.5203 139.818 19.5557 139.818 19.591C139.818 19.6617 139.73 19.7853 139.553 19.962C139.624 20.28 139.677 20.545 139.712 20.757C139.783 20.969 139.8 21.128 139.765 21.234V23.566C139.765 23.6367 139.677 23.9723 139.5 24.573C139.535 24.7143 139.553 24.8027 139.553 24.838C139.588 24.8733 139.606 24.8733 139.606 24.838V26.587L139.553 26.746C139.482 26.8873 139.447 26.958 139.447 26.958C139.518 27.276 139.535 27.4703 139.5 27.541L139.235 27.912L139.182 28.919C139.076 28.813 138.97 28.76 138.864 28.76C138.652 28.76 138.546 28.8483 138.546 29.025C138.546 29.2017 138.652 29.3783 138.864 29.555C139.005 29.6963 139.147 29.767 139.288 29.767V30.191C139.394 30.4383 139.465 30.562 139.5 30.562L139.235 31.304C139.235 31.3393 139.235 31.41 139.235 31.516C139.27 31.5867 139.306 31.6927 139.341 31.834C139.376 31.834 139.359 31.9753 139.288 32.258C139.429 32.3993 139.5 32.5407 139.5 32.682C139.5 32.788 139.447 32.9293 139.341 33.106C139.235 33.2827 139.129 33.371 139.023 33.371L138.652 33.424H138.281L137.963 33.318C137.751 33.212 137.627 33.159 137.592 33.159C137.557 33.265 137.415 33.371 137.168 33.477ZM122.063 10.369L122.275 10.21L122.222 10.104C122.151 10.1747 122.098 10.263 122.063 10.369ZM126.833 11.535L127.204 11.429C127.098 11.2523 126.921 11.0933 126.674 10.952C126.639 10.9873 126.586 11.0933 126.515 11.27V11.429C126.586 11.535 126.692 11.5703 126.833 11.535ZM119.996 12.012C120.102 12.012 120.173 11.9943 120.208 11.959C120.279 11.8883 120.279 11.8 120.208 11.694C120.137 11.694 120.067 11.8 119.996 12.012ZM135.26 13.231C135.331 13.231 135.507 13.1427 135.79 12.966L135.896 12.383C135.896 12.2417 135.808 12.0827 135.631 11.906L135.419 11.959C135.348 11.9943 135.295 12.0297 135.26 12.065C135.225 12.065 135.189 12.065 135.154 12.065C134.73 12.065 134.483 12.065 134.412 12.065C134.447 12.1357 134.571 12.2947 134.783 12.542C134.748 12.6833 134.748 12.8247 134.783 12.966C134.924 13.1073 135.083 13.1957 135.26 13.231ZM122.54 15.351C122.575 15.2803 122.54 15.2097 122.434 15.139C122.399 15.1037 122.328 15.1037 122.222 15.139C122.222 15.2803 122.328 15.351 122.54 15.351ZM130.755 15.563C130.755 15.457 130.737 15.3863 130.702 15.351C130.631 15.2803 130.543 15.2803 130.437 15.351C130.437 15.4217 130.543 15.4923 130.755 15.563ZM127.045 18.001C127.045 17.9303 127.045 17.9127 127.045 17.948C127.045 17.948 127.045 17.9657 127.045 18.001ZM137.804 21.817C137.804 21.7463 137.769 21.6757 137.698 21.605C137.663 21.5343 137.592 21.552 137.486 21.658C137.486 21.764 137.592 21.817 137.804 21.817ZM120.738 26.481C120.879 26.481 121.021 26.375 121.162 26.163C121.268 25.9863 121.321 25.8273 121.321 25.686C121.215 25.5093 121.003 25.3503 120.685 25.209H120.632C120.279 25.209 119.996 25.4563 119.784 25.951C120.031 26.2337 120.349 26.4103 120.738 26.481ZM121.798 30.562C121.833 30.5267 121.798 30.456 121.692 30.35L121.533 30.456C121.604 30.456 121.657 30.4737 121.692 30.509L121.798 30.562ZM139.5 30.509C139.5 30.5797 139.5 30.5973 139.5 30.562V30.509ZM122.381 31.834V31.781C122.381 31.675 122.31 31.5867 122.169 31.516C122.063 31.4453 121.957 31.4453 121.851 31.516V31.675C121.851 31.9223 122.028 31.9753 122.381 31.834Z" fill="#0080FF"/>
</svg>
