<svg width="148" height="34" viewBox="0 0 148 34" fill="none" xmlns="http://www.w3.org/2000/svg">
<path d="M18.5508 29.9336V33H3.49219V29.9336H18.5508ZM4.25391 4.5625V33H0.484375V4.5625H4.25391ZM16.5586 16.7891V19.8555H3.49219V16.7891H16.5586ZM18.3555 4.5625V7.64844H3.49219V4.5625H18.3555ZM35.6016 28.8984V3H39.2344V33H35.9141L35.6016 28.8984ZM21.3828 22.668V22.2578C21.3828 20.6432 21.5781 19.1784 21.9688 17.8633C22.3724 16.5352 22.9388 15.3958 23.668 14.4453C24.4102 13.4948 25.2891 12.7656 26.3047 12.2578C27.3333 11.737 28.4792 11.4766 29.7422 11.4766C31.0703 11.4766 32.2292 11.7109 33.2188 12.1797C34.2214 12.6354 35.0677 13.306 35.7578 14.1914C36.4609 15.0638 37.0143 16.1185 37.418 17.3555C37.8216 18.5924 38.1016 19.9922 38.2578 21.5547V23.3516C38.1146 24.901 37.8346 26.2943 37.418 27.5312C37.0143 28.7682 36.4609 29.8229 35.7578 30.6953C35.0677 31.5677 34.2214 32.2383 33.2188 32.707C32.2161 33.1628 31.0443 33.3906 29.7031 33.3906C28.4661 33.3906 27.3333 33.1237 26.3047 32.5898C25.2891 32.056 24.4102 31.3073 23.668 30.3438C22.9388 29.3802 22.3724 28.2474 21.9688 26.9453C21.5781 25.6302 21.3828 24.2044 21.3828 22.668ZM25.0156 22.2578V22.668C25.0156 23.7227 25.1198 24.7122 25.3281 25.6367C25.5495 26.5612 25.888 27.375 26.3438 28.0781C26.7995 28.7812 27.3789 29.3346 28.082 29.7383C28.7852 30.1289 29.625 30.3242 30.6016 30.3242C31.7995 30.3242 32.7826 30.0703 33.5508 29.5625C34.332 29.0547 34.957 28.3841 35.4258 27.5508C35.8945 26.7174 36.2591 25.8125 36.5195 24.8359V20.1289C36.3633 19.4128 36.1354 18.7227 35.8359 18.0586C35.5495 17.3815 35.1719 16.7826 34.7031 16.2617C34.2474 15.7279 33.681 15.3047 33.0039 14.9922C32.3398 14.6797 31.5521 14.5234 30.6406 14.5234C29.651 14.5234 28.7982 14.7318 28.082 15.1484C27.3789 15.5521 26.7995 16.112 26.3438 16.8281C25.888 17.5312 25.5495 18.3516 25.3281 19.2891C25.1198 20.2135 25.0156 21.2031 25.0156 22.2578ZM57.7891 28.1172V11.8672H61.4219V33H57.9648L57.7891 28.1172ZM58.4727 23.6641L59.9766 23.625C59.9766 25.0312 59.8268 26.3333 59.5273 27.5312C59.2409 28.7161 58.7721 29.7448 58.1211 30.6172C57.4701 31.4896 56.6172 32.1732 55.5625 32.668C54.5078 33.1497 53.2253 33.3906 51.7148 33.3906C50.6862 33.3906 49.7422 33.2409 48.8828 32.9414C48.0365 32.6419 47.3073 32.1797 46.6953 31.5547C46.0833 30.9297 45.6081 30.1159 45.2695 29.1133C44.944 28.1107 44.7812 26.9062 44.7812 25.5V11.8672H48.3945V25.5391C48.3945 26.4896 48.4987 27.2773 48.707 27.9023C48.9284 28.5143 49.2214 29.0026 49.5859 29.3672C49.9635 29.7188 50.3802 29.9661 50.8359 30.1094C51.3047 30.2526 51.7865 30.3242 52.2812 30.3242C53.8177 30.3242 55.0352 30.0312 55.9336 29.4453C56.832 28.8464 57.4766 28.0456 57.8672 27.043C58.2708 26.0273 58.4727 24.901 58.4727 23.6641Z" fill="black"/>
<path d="M67.4618 33.848C67.3911 33.848 67.3381 33.8303 67.3028 33.795L67.0908 33.689C66.9848 33.689 66.8434 33.689 66.6668 33.689C66.5254 33.689 66.3664 33.6713 66.1898 33.636C66.1544 33.6007 66.1368 33.5123 66.1368 33.371C66.1368 33.4417 66.1544 33.3887 66.1898 33.212C66.2251 33.0353 66.2781 32.735 66.3488 32.311V32.099C66.3488 31.9223 66.3311 31.781 66.2958 31.675L66.1368 31.198C66.1368 31.198 66.1721 31.1273 66.2428 30.986L66.3488 30.721C66.3134 30.6503 66.2958 30.4913 66.2958 30.244L66.4018 29.979V29.555L66.5608 29.025L66.1898 28.813L66.4548 28.23L66.2958 27.912C66.3664 27.7353 66.4724 27.5763 66.6138 27.435V27.382C66.4371 27.2407 66.2428 27.0287 66.0308 26.746L66.0838 26.11C66.1898 26.004 66.2604 25.9157 66.2958 25.845C66.2958 25.633 66.2781 25.4917 66.2428 25.421L66.0838 25.103C66.0838 25.0323 66.1368 24.891 66.2428 24.679C66.3488 24.5023 66.4018 24.361 66.4018 24.255L66.1368 23.831C66.0308 23.725 65.9601 23.619 65.9248 23.513V22.612C65.9954 22.5767 66.0838 22.506 66.1898 22.4C66.1191 22.2587 65.9954 22.1173 65.8188 21.976C65.8894 21.9053 65.9248 21.7993 65.9248 21.658C65.9248 21.552 65.9071 21.4283 65.8718 21.287C65.8364 21.1457 65.7834 21.0043 65.7128 20.863C66.0661 20.651 66.3134 20.5803 66.4548 20.651L66.6138 20.598C66.6491 20.5273 66.6668 20.492 66.6668 20.492C66.6668 20.4567 66.6668 20.439 66.6668 20.439C66.6668 20.2977 66.5608 20.1563 66.3488 20.015H65.8718C65.8718 19.9797 65.8541 19.962 65.8188 19.962C65.8188 19.9267 65.8188 19.8913 65.8188 19.856C65.8188 19.7147 65.8718 19.538 65.9778 19.326L65.9248 18.955C65.8894 18.9197 65.8718 18.6547 65.8718 18.16C65.8718 17.9833 65.8718 17.789 65.8718 17.577C65.8718 17.365 65.8541 17.1353 65.8188 16.888C66.0308 16.888 66.1721 16.8527 66.2428 16.782C66.1721 16.7467 66.1014 16.6053 66.0308 16.358V16.252C66.0308 16.146 65.9601 16.0047 65.8188 15.828V14.98H65.9248C66.0308 14.98 66.1544 14.9447 66.2958 14.874C66.4724 14.768 66.5608 14.6973 66.5608 14.662C66.5608 14.4853 66.2428 14.4323 65.6068 14.503C65.7834 14.2203 65.8364 14.0083 65.7658 13.867L65.6068 13.549C65.6068 13.443 65.6774 13.337 65.8188 13.231L65.9248 12.966V12.754L65.5538 11.323C65.5538 11.111 65.7128 10.8283 66.0308 10.475C66.0308 10.4043 65.9954 10.3337 65.9248 10.263C66.1014 10.1923 66.2251 10.1217 66.2958 10.051V9.945C66.1544 9.87433 66.0308 9.839 65.9248 9.839C65.7128 9.521 65.6068 9.29133 65.6068 9.15C65.6068 9.07933 65.6421 9.00867 65.7128 8.938C65.7481 8.90267 65.7658 8.832 65.7658 8.726L65.7128 7.401C65.6068 7.33033 65.5184 7.189 65.4478 6.977C65.4478 6.977 65.5361 6.765 65.7128 6.341C65.6421 5.42233 65.5714 4.71566 65.5008 4.221C65.4654 3.691 65.4478 3.373 65.4478 3.267C65.4478 3.161 65.4124 2.96667 65.3418 2.684C65.2711 2.40133 65.2358 2.26 65.2358 2.26L65.2888 1.889C65.3594 1.81833 65.4654 1.76533 65.6068 1.73H65.9778C65.9778 1.69467 66.0484 1.65933 66.1898 1.624C66.2604 1.624 66.3311 1.81833 66.4018 2.207C66.4018 2.38366 66.4901 2.472 66.6668 2.472C66.8788 2.472 66.9494 2.26 66.8788 1.836L67.6208 1.677C67.7268 1.783 67.8858 1.889 68.0978 1.995C68.2744 1.995 68.3628 1.90666 68.3628 1.73V1.571L68.7868 1.518L69.1048 1.624C69.5641 1.624 69.8114 1.624 69.8468 1.624V1.571C69.8468 1.571 69.8468 1.58866 69.8468 1.624V1.677C69.8468 1.889 69.9704 2.048 70.2178 2.154H70.4828C70.5534 2.26 70.6418 2.34833 70.7478 2.419H70.9068C70.9421 2.419 70.9598 2.38366 70.9598 2.313C70.8184 2.101 70.7301 1.889 70.6948 1.677V1.465L70.8008 1.359C70.9421 1.42967 71.0304 1.518 71.0658 1.624L71.5958 1.412C71.7018 1.412 71.8254 1.42967 71.9668 1.465L72.4968 1.518L72.6558 2.101C72.8324 2.24233 73.0268 2.45433 73.2388 2.737C73.2034 2.70167 73.1681 2.843 73.1328 3.161C73.0268 3.19633 72.9738 3.28466 72.9738 3.426C72.9738 3.49666 72.9914 3.62033 73.0268 3.797C73.0621 3.97367 73.1151 4.18567 73.1858 4.433L73.4508 4.963V5.228C73.6274 5.68733 73.7158 6.288 73.7158 7.03C73.7158 7.63067 73.8394 8.037 74.0868 8.249C74.0868 8.53167 74.2104 9.11467 74.4578 9.998L74.7228 10.528C74.5814 10.74 74.4578 11.058 74.3518 11.482C74.3871 11.5527 74.4048 11.641 74.4048 11.747C74.4048 11.853 74.4048 11.9413 74.4048 12.012C74.4401 12.1533 74.4578 12.2947 74.4578 12.436C74.4931 12.542 74.5108 12.648 74.5108 12.754C74.5108 12.86 74.5108 12.966 74.5108 13.072C74.5461 13.178 74.6168 13.284 74.7228 13.39C74.8994 13.602 75.0054 14.2027 75.0408 15.192C75.2174 15.2627 75.3234 15.351 75.3588 15.457C75.3234 15.5983 75.3588 15.722 75.4648 15.828C75.6768 15.934 75.7828 16.0047 75.7828 16.04V16.411C75.9241 16.6583 76.0124 16.8527 76.0478 16.994C76.1184 17.1 76.1538 17.153 76.1538 17.153C76.3658 17.153 76.4894 16.994 76.5248 16.676C76.5954 16.358 76.6484 16.199 76.6838 16.199C76.7898 16.2697 76.9134 16.3403 77.0548 16.411C77.1961 16.411 77.2668 16.2873 77.2668 16.04C77.2668 15.934 77.1961 15.7927 77.0548 15.616C76.9488 15.51 76.8958 15.298 76.8958 14.98C76.8958 14.9093 76.8958 14.821 76.8958 14.715C76.9311 14.609 76.9664 14.4853 77.0018 14.344C77.0724 14.2027 77.1078 14.079 77.1078 13.973C77.1431 13.8317 77.1784 13.708 77.2138 13.602L77.3728 13.39C77.3728 13.3193 77.3728 13.231 77.3728 13.125C77.3728 13.019 77.3551 12.8953 77.3198 12.754L77.2668 12.065C77.3728 12.065 77.5141 11.9943 77.6908 11.853C77.6908 11.8177 77.6731 11.8 77.6378 11.8C77.5671 11.7293 77.4964 11.694 77.4258 11.694C77.3198 11.5173 77.2668 11.3937 77.2668 11.323C77.2668 11.2523 77.3198 11.111 77.4258 10.899L77.5848 10.422C77.7968 10.2453 77.9028 10.1217 77.9028 10.051C77.8321 9.98033 77.7261 9.839 77.5848 9.627C77.5848 9.48567 77.6378 9.362 77.7438 9.256C77.8498 9.07933 77.9028 8.991 77.9028 8.991C77.8674 8.885 77.8674 8.70833 77.9028 8.461C77.9028 8.39033 78.0088 8.23133 78.2208 7.984L77.9028 7.666L78.1148 7.295C78.5741 6.83567 78.8038 6.51767 78.8038 6.341C78.8038 6.235 78.7331 6.09366 78.5918 5.917C78.4151 5.74033 78.3268 5.493 78.3268 5.175V4.857C78.5034 4.57433 78.6624 4.30933 78.8038 4.062C78.9804 3.81467 79.1041 3.56733 79.1748 3.32C79.2101 3.17867 79.2278 3.09033 79.2278 3.055C79.2631 3.01967 79.2808 3.01967 79.2808 3.055C79.2808 2.91367 79.2454 2.843 79.1748 2.843C79.1394 2.843 79.0511 2.91367 78.9098 3.055C78.7684 2.98433 78.6624 2.77233 78.5918 2.419V1.995C78.6271 1.85366 78.6624 1.73 78.6978 1.624C78.7684 1.518 78.8214 1.412 78.8568 1.306L79.3338 1.2C79.6164 1.2 79.8284 1.253 79.9698 1.359L80.1818 1.518C80.2878 1.48266 80.4468 1.39433 80.6588 1.253L81.0298 1.147L81.8778 1.412V1.995C81.9484 2.207 82.0544 2.313 82.1958 2.313C82.4078 2.24233 82.5138 2.13633 82.5138 1.995L82.4608 1.73C82.4254 1.65933 82.4078 1.571 82.4078 1.465C82.4078 1.39433 82.4254 1.34133 82.4608 1.306L82.8848 1.147C82.9554 1.00567 83.0614 0.917333 83.2028 0.882L84.0508 1.094C84.1214 1.094 84.1744 1.11166 84.2098 1.147L84.3688 1.253C84.4394 1.18233 84.5454 1.12933 84.6868 1.094L86.0648 1.041C86.1001 1.11167 86.1354 1.2 86.1708 1.306C86.2414 1.37667 86.2944 1.465 86.3298 1.571C86.3298 1.571 86.2768 1.65933 86.1708 1.836C86.1354 1.97733 86.1001 2.101 86.0648 2.207C86.0648 2.313 86.0648 2.419 86.0648 2.525C86.0648 2.631 86.1354 2.75467 86.2768 2.896C86.2414 2.93133 86.2061 2.96666 86.1708 3.002C86.1708 3.03733 86.1354 3.09033 86.0648 3.161L85.9588 3.479V4.062L86.0118 4.115L85.9588 4.433C85.9941 4.50367 86.0118 4.645 86.0118 4.857C86.0471 5.069 86.0648 5.24566 86.0648 5.387C86.0648 5.42233 86.0648 5.493 86.0648 5.599C86.1001 5.705 86.1354 5.82867 86.1708 5.97L86.2768 6.447L86.1178 7.03C86.0118 7.27733 85.9411 7.48933 85.9058 7.666C85.9764 7.772 86.0471 7.878 86.1178 7.984C86.1884 8.09 86.2768 8.21367 86.3828 8.355C86.2768 8.21367 86.1884 8.09 86.1178 7.984C86.0471 7.878 85.9764 7.78967 85.9058 7.719C85.9058 7.719 85.9058 7.70133 85.9058 7.666C85.3758 6.85333 84.8988 6.16433 84.4748 5.599C84.0508 4.99833 83.6798 4.50366 83.3618 4.115L83.3088 4.221C83.5914 4.68033 83.9801 5.26333 84.4748 5.97C85.0048 6.67667 85.6054 7.48933 86.2768 8.408C86.1354 8.33733 86.0471 8.249 86.0118 8.143C85.7644 8.17833 85.6584 8.28433 85.6938 8.461L85.9058 8.779C85.8704 8.81433 85.8704 8.92033 85.9058 9.097C85.9764 9.13233 86.0294 9.18533 86.0648 9.256C86.1354 9.32667 86.2061 9.39733 86.2768 9.468L86.0648 9.733C86.0294 9.80367 85.9941 9.85667 85.9588 9.892C85.9588 9.92733 85.9588 9.96267 85.9588 9.998C85.9588 10.1393 86.0824 10.21 86.3298 10.21C86.2238 10.74 86.1531 10.9697 86.1178 10.899C86.1178 10.899 86.2591 11.0403 86.5418 11.323C86.5418 11.3937 86.5241 11.482 86.4888 11.588C86.4888 11.694 86.4711 11.8177 86.4358 11.959C86.3651 12.0297 86.2768 12.1357 86.1708 12.277C86.0648 12.383 85.9411 12.5243 85.7998 12.701L85.5878 13.125C85.5878 13.4077 85.6408 13.5843 85.7468 13.655C85.8528 13.6903 85.9588 13.7257 86.0648 13.761C86.1354 13.655 86.2061 13.602 86.2768 13.602C86.4181 13.602 86.5064 13.708 86.5418 13.92C86.5418 13.9907 86.4181 14.1497 86.1708 14.397C86.2414 14.5737 86.3828 14.8033 86.5948 15.086L86.1708 15.457C85.9588 15.5983 85.8528 15.7397 85.8528 15.881L85.9588 16.093H86.1178C86.2591 16.093 86.4004 15.9693 86.5418 15.722H86.7538L86.8068 15.881C86.8068 15.881 86.7891 15.934 86.7538 16.04C86.7538 16.146 86.7361 16.305 86.7008 16.517C86.6654 16.7643 86.6301 16.9763 86.5948 17.153C86.5948 17.2943 86.5948 17.4003 86.5948 17.471C86.4181 17.7183 86.3298 17.895 86.3298 18.001C86.2591 17.9303 86.2061 17.895 86.1708 17.895C86.1001 17.895 86.0648 17.9833 86.0648 18.16C86.0648 18.372 86.1531 18.8667 86.3298 19.644C86.4004 19.8207 86.4534 19.9973 86.4888 20.174C86.5241 20.3507 86.5594 20.5273 86.5948 20.704C86.6301 21.3047 86.6478 21.605 86.6478 21.605C86.5771 21.7817 86.5418 21.9053 86.5418 21.976V22.347C86.5418 23.0537 86.4534 23.407 86.2768 23.407C86.2768 23.3717 86.2591 23.354 86.2238 23.354L86.4358 23.672C86.4711 23.7073 86.4888 23.7603 86.4888 23.831V23.99C86.5948 24.0607 86.6831 24.1843 86.7538 24.361L86.8598 25.156V25.474L86.8068 26.004C86.7361 26.0747 86.6478 26.1277 86.5418 26.163C86.4004 26.1983 86.3298 26.2867 86.3298 26.428L86.3828 27.011L86.5948 26.958C86.7714 26.958 86.8774 27.0287 86.9128 27.17C86.9834 27.2407 86.9834 27.382 86.9128 27.594L86.8068 27.965C86.8421 28.0003 86.8951 28.0887 86.9658 28.23C86.9658 28.336 86.9481 28.4067 86.9128 28.442V28.654C86.8774 28.76 86.8598 28.8483 86.8598 28.919L86.9128 30.35C87.0188 30.456 87.0894 30.562 87.1248 30.668L86.9658 31.092C87.0011 31.3747 87.0188 31.5867 87.0188 31.728C87.0188 31.834 87.0364 31.8517 87.0718 31.781C87.0011 32.099 86.9481 32.2757 86.9128 32.311L87.0188 32.47C87.0541 32.5407 87.0718 32.5937 87.0718 32.629C87.1071 32.6643 87.1248 32.6997 87.1248 32.735C87.1248 33.0177 87.0718 33.1767 86.9658 33.212C86.9658 33.212 86.9481 33.212 86.9128 33.212H86.9658C86.9658 33.1767 86.9658 33.159 86.9658 33.159L86.5418 33H86.0648C85.9941 33 85.9058 33.0177 85.7998 33.053H85.3758L85.1638 33C85.0931 33 85.0224 33.0177 84.9518 33.053L84.7398 33.106L83.7858 32.894C83.7504 32.894 83.6798 32.947 83.5738 33.053C83.4678 33.159 83.3618 33.212 83.2558 33.212C83.1144 33.212 82.8671 33.0883 82.5138 32.841C82.4784 32.9117 82.3018 33.053 81.9838 33.265C81.7364 33.265 81.6128 33.1237 81.6128 32.841L81.8248 30.562V30.297C81.7188 30.2617 81.5951 30.2617 81.4538 30.297C81.6304 30.1557 81.7011 29.979 81.6658 29.767L81.5598 29.343V29.29C81.5598 29.184 81.6658 29.078 81.8778 28.972C81.8071 28.866 81.7364 28.7423 81.6658 28.601C81.6304 28.495 81.5951 28.4067 81.5598 28.336C81.5598 28.23 81.5598 28.1417 81.5598 28.071C81.5951 28.0003 81.6128 27.8413 81.6128 27.594L81.4538 27.276C81.6658 27.2407 81.8248 27.0993 81.9308 26.852C81.8954 26.7813 81.7894 26.7107 81.6128 26.64C81.6481 26.4633 81.6658 26.322 81.6658 26.216C81.7011 26.0747 81.7011 25.9687 81.6658 25.898L81.4538 25.209L81.5598 24.679L81.6658 24.255L81.3478 23.195C81.3478 23.089 81.4361 22.9477 81.6128 22.771C81.5421 22.7357 81.4714 22.6827 81.4008 22.612C81.3301 22.5413 81.2594 22.4707 81.1888 22.4C81.2594 22.188 81.2948 21.87 81.2948 21.446C81.2948 21.34 81.3124 21.2693 81.3478 21.234L81.1888 20.81C81.1888 20.4567 81.2418 20.227 81.3478 20.121C81.4538 20.015 81.5068 19.8737 81.5068 19.697C81.5068 19.4143 81.4008 19.1493 81.1888 18.902C81.2948 18.9727 81.3654 18.9903 81.4008 18.955C81.5421 18.955 81.6304 18.902 81.6658 18.796L81.1888 18.637C81.1534 18.6017 81.1181 18.5663 81.0828 18.531C81.0474 18.4603 80.9944 18.4073 80.9238 18.372C80.9944 18.266 81.1181 18.16 81.2948 18.054C81.2948 18.1247 81.3301 18.1953 81.4008 18.266C81.4008 18.2307 81.4361 18.1777 81.5068 18.107C81.0121 17.8243 80.8001 17.683 80.8708 17.683C80.7294 17.683 80.6234 17.7713 80.5528 17.948V18.584C80.4114 18.6193 80.3408 18.7253 80.3408 18.902V19.22C80.3054 19.2553 80.2524 19.3613 80.1818 19.538L80.2348 20.28C80.1994 20.3153 80.1464 20.386 80.0758 20.492C80.0051 20.5627 79.8991 20.6687 79.7578 20.81C79.9344 20.9513 80.0581 21.234 80.1288 21.658C80.1288 21.7993 80.1111 21.8877 80.0758 21.923C79.8638 22.135 79.7401 22.4 79.7048 22.718C79.6694 22.8947 79.6341 23.0713 79.5988 23.248C79.5634 23.3893 79.5104 23.5483 79.4398 23.725L79.7048 23.778V24.573L79.4398 24.997C79.4751 25.0323 79.5104 25.156 79.5458 25.368C79.5811 25.474 79.5988 25.58 79.5988 25.686C79.6341 25.792 79.6341 25.898 79.5988 26.004L79.4398 26.322H79.2808L78.9628 26.163C78.6801 26.905 78.5388 27.2053 78.5388 27.064L78.9628 27.488C79.0334 27.7 79.0688 27.9297 79.0688 28.177V28.707C79.0334 28.7423 78.9628 28.813 78.8568 28.919C78.7861 28.9897 78.7154 29.0957 78.6448 29.237C78.5741 29.3783 78.5388 29.5727 78.5388 29.82L78.6448 29.926C78.6801 29.9613 78.6978 30.0143 78.6978 30.085L78.5388 31.251C78.5388 31.357 78.4681 31.4807 78.3268 31.622V31.781C78.3268 31.9223 78.2561 32.0107 78.1148 32.046C78.2914 32.364 78.3974 32.629 78.4328 32.841C78.4328 32.9117 78.3974 33.0177 78.3268 33.159C78.1854 33.1943 78.0264 33.2297 77.8498 33.265C77.6731 33.3357 77.4964 33.4063 77.3198 33.477L76.6838 33.424L76.0478 33.318L75.3058 33.53C75.1998 33.53 75.1291 33.5123 75.0938 33.477C75.0938 33.4417 75.0584 33.3003 74.9878 33.053C74.8464 32.9117 74.7581 32.788 74.7228 32.682L74.5108 31.834C74.5814 31.728 74.6698 31.675 74.7758 31.675V31.304C75.0584 31.2333 75.2174 31.145 75.2528 31.039C75.2174 30.8977 75.1468 30.827 75.0408 30.827C74.8288 30.8623 74.7228 31.0213 74.7228 31.304H74.4048L74.5108 30.138L74.4048 29.714L74.2458 29.29C74.2458 29.0427 74.4224 28.919 74.7758 28.919L74.9878 29.025C75.1291 29.025 75.2174 28.9543 75.2528 28.813C74.9348 28.6717 74.6874 28.601 74.5108 28.601L74.3518 28.654C74.3518 28.6187 74.3871 28.5303 74.4578 28.389C74.3518 28.283 74.2811 28.23 74.2458 28.23L73.8748 28.283C73.8394 28.2477 73.8218 28.1063 73.8218 27.859C73.8218 27.647 73.8748 27.4703 73.9808 27.329L74.0868 27.064C74.0161 26.9933 73.9278 26.9227 73.8218 26.852C73.7511 26.7813 73.6451 26.693 73.5038 26.587C73.4684 26.5517 73.4508 26.4987 73.4508 26.428C73.4508 26.322 73.4331 26.1983 73.3978 26.057L73.6098 25.103C73.5744 25.0677 73.5391 25.0323 73.5038 24.997C73.4684 24.9617 73.4154 24.9087 73.3448 24.838L73.2388 24.255C73.2034 24.2197 73.1504 24.1843 73.0798 24.149C73.0444 24.0783 72.9914 23.99 72.9208 23.884C72.9561 23.8487 72.9738 23.7957 72.9738 23.725C72.9738 23.5837 72.9208 23.4423 72.8148 23.301V23.089L72.9738 23.036C73.3271 23.0007 73.5038 22.8947 73.5038 22.718C73.5038 22.5767 73.2741 22.4883 72.8148 22.453C72.7088 22.1703 72.6558 21.923 72.6558 21.711L72.7618 21.552V21.446C72.6558 21.1987 72.5321 21.0397 72.3908 20.969L72.3378 20.863C72.3378 20.8277 72.3554 20.7923 72.3908 20.757L72.1788 20.598C72.4614 20.1387 72.6028 19.909 72.6028 19.909C72.6028 19.7323 72.4968 19.5733 72.2848 19.432C72.2848 19.3967 72.3731 19.2907 72.5498 19.114L71.8608 19.008C71.7548 18.8313 71.6841 18.743 71.6488 18.743C71.4721 18.8137 71.3661 18.8843 71.3308 18.955V19.22L71.1718 19.379V19.591C71.2071 19.6617 71.2424 19.75 71.2778 19.856C71.3131 19.962 71.3484 20.0857 71.3838 20.227C71.3838 20.4037 71.3308 20.545 71.2248 20.651C71.0834 20.757 71.0128 20.8277 71.0128 20.863L71.4898 21.658C71.5251 21.6933 71.5428 21.764 71.5428 21.87C71.5428 21.9407 71.5604 22.0113 71.5958 22.082C71.5604 22.0467 71.5251 22.0997 71.4898 22.241C71.3484 22.2763 71.2601 22.3647 71.2248 22.506L71.1718 22.771C71.3131 22.9123 71.4368 22.983 71.5428 22.983L71.6488 26.11L71.5428 26.269C71.5781 26.375 71.5958 26.5517 71.5958 26.799C71.5958 26.905 71.5428 27.064 71.4368 27.276L71.3308 27.594C71.3308 27.6293 71.3308 27.6647 71.3308 27.7C71.3661 27.7353 71.4014 27.7883 71.4368 27.859C71.5074 27.965 71.5074 28.1593 71.4368 28.442C71.5781 28.6187 71.6134 28.9013 71.5428 29.29C71.5781 29.6787 71.5958 29.9967 71.5958 30.244C71.6311 30.4913 71.6311 30.6857 71.5958 30.827C71.6664 30.933 71.7194 31.039 71.7548 31.145C71.7901 31.2157 71.8254 31.2863 71.8608 31.357C71.7901 31.569 71.7194 31.7987 71.6488 32.046C71.6134 32.258 71.5604 32.5053 71.4898 32.788L71.7548 33.159V33.371C71.6841 33.4417 71.5781 33.5123 71.4368 33.583C71.3308 33.6537 71.2071 33.7243 71.0658 33.795C70.8538 33.795 70.6241 33.7243 70.3768 33.583L69.8468 33.318C69.7408 33.424 69.6348 33.5123 69.5288 33.583C69.3874 33.6183 69.2461 33.636 69.1048 33.636C68.9988 33.6713 68.9104 33.689 68.8398 33.689L68.0978 33.583C68.0624 33.583 67.9564 33.636 67.7798 33.742L67.4618 33.848ZM81.0828 2.154C81.0828 2.01267 81.0474 1.90667 80.9768 1.836L80.8708 2.154H81.0828ZM70.0058 4.115L70.2178 4.009L70.1118 3.85C70.0764 3.88533 70.0588 3.92067 70.0588 3.956C70.0588 3.99133 70.0411 4.04433 70.0058 4.115ZM82.0368 4.539L82.2488 4.38C82.2488 4.34467 82.1781 4.34467 82.0368 4.38C82.0014 4.41533 82.0014 4.46833 82.0368 4.539ZM82.7258 4.91C82.8318 4.98067 82.9201 4.91 82.9908 4.698C82.9554 4.66267 82.9024 4.645 82.8318 4.645C82.6904 4.645 82.6551 4.73333 82.7258 4.91ZM67.9918 5.864C68.0978 5.89933 68.1861 5.88167 68.2568 5.811C68.3274 5.74033 68.2921 5.652 68.1508 5.546C68.0448 5.58133 67.9918 5.68733 67.9918 5.864ZM71.8078 6.977C71.9491 6.90633 72.0374 6.85333 72.0728 6.818C71.9314 6.53533 71.8784 6.32333 71.9138 6.182C71.9844 6.11133 72.0551 6.04067 72.1258 5.97C72.1964 5.864 72.2671 5.758 72.3378 5.652C72.0551 5.58133 71.8608 5.56367 71.7548 5.599C71.5428 5.599 71.4191 5.61667 71.3838 5.652C71.2071 5.758 71.1188 5.88167 71.1188 6.023C71.1188 6.659 71.3484 6.977 71.8078 6.977ZM70.6948 9.097C70.7301 9.02633 70.7124 8.95567 70.6418 8.885C70.6064 8.84967 70.5181 8.86733 70.3768 8.938C70.4474 9.044 70.5534 9.097 70.6948 9.097ZM68.3628 10.581C68.3628 10.5103 68.3274 10.4397 68.2568 10.369C68.2214 10.2983 68.1508 10.316 68.0448 10.422C68.0448 10.528 68.1508 10.581 68.3628 10.581ZM83.2558 11.27C83.2558 11.2347 83.2028 11.164 83.0968 11.058L82.9908 11.164C83.0261 11.1993 83.0614 11.217 83.0968 11.217C83.1674 11.217 83.2204 11.2347 83.2558 11.27ZM66.3488 11.535C66.4548 11.6057 66.5431 11.5527 66.6138 11.376C66.5784 11.3407 66.5254 11.323 66.4548 11.323C66.3488 11.323 66.3134 11.3937 66.3488 11.535ZM84.6338 11.8C84.5984 11.7293 84.5454 11.7293 84.4748 11.8L84.6338 12.012V11.8ZM83.3618 12.118C83.3618 12.012 83.3264 11.9237 83.2558 11.853C83.1851 11.853 83.1144 11.8883 83.0438 11.959C83.0438 12.065 83.1498 12.118 83.3618 12.118ZM72.1788 14.503C72.2494 14.4323 72.2848 14.344 72.2848 14.238C72.1081 14.2733 71.9844 14.3617 71.9138 14.503H72.1788ZM72.4438 15.033L72.3378 14.874L71.9668 15.033H72.4438ZM74.4578 15.351C74.4578 15.2803 74.3871 15.245 74.2458 15.245C74.3518 15.351 74.4224 15.3863 74.4578 15.351ZM70.0058 18.955C70.0411 18.955 70.0764 18.9373 70.1118 18.902L69.8998 18.743C69.8644 18.743 69.8291 18.7607 69.7938 18.796L70.0058 18.955ZM74.7758 19.803V19.432C74.5991 19.6087 74.4754 19.697 74.4048 19.697C74.4401 19.697 74.4578 19.7323 74.4578 19.803H74.7758ZM70.1648 20.015L70.5358 19.962C70.5004 19.7853 70.3944 19.6793 70.2178 19.644L70.1648 20.015ZM83.4678 21.658C83.6444 21.4813 83.7328 21.3047 83.7328 21.128V20.969C83.6974 20.8983 83.6268 20.8277 83.5208 20.757C83.4501 20.6863 83.3618 20.5803 83.2558 20.439L83.1498 21.022C83.1498 21.1633 83.2558 21.3753 83.4678 21.658ZM77.6908 22.082C78.1501 22.0113 78.3974 21.9937 78.4328 22.029L78.3798 21.605C78.2031 21.4283 78.0441 21.3577 77.9028 21.393C77.8321 21.4637 77.7614 21.6933 77.6908 22.082ZM86.7008 21.552C86.7008 21.552 86.6831 21.5697 86.6478 21.605C86.6831 21.605 86.7008 21.605 86.7008 21.605C86.7008 21.5697 86.7008 21.552 86.7008 21.552ZM76.6308 23.513L76.5248 23.354H76.4718L76.5248 23.513H76.6308ZM70.0058 24.838C70.1118 24.8733 70.2178 24.8203 70.3238 24.679C70.2178 24.573 70.1294 24.5553 70.0588 24.626C69.9881 24.6967 69.9704 24.7673 70.0058 24.838ZM68.3098 25.898C68.3451 25.8627 68.3628 25.8097 68.3628 25.739C68.3628 25.633 68.2921 25.58 68.1508 25.58C68.1154 25.686 68.1684 25.792 68.3098 25.898ZM85.1638 28.707C85.3051 28.707 85.4111 28.6717 85.4818 28.601C85.3051 28.3183 85.2698 28.0887 85.3758 27.912C85.4464 27.8413 85.5171 27.7707 85.5878 27.7C85.6584 27.6293 85.7291 27.541 85.7998 27.435C85.6584 27.3997 85.5348 27.382 85.4288 27.382C85.3228 27.3467 85.2344 27.329 85.1638 27.329C85.0578 27.329 84.9341 27.3643 84.7928 27.435C84.6161 27.541 84.5278 27.7 84.5278 27.912C84.5984 28.442 84.8104 28.707 85.1638 28.707ZM70.1648 28.336C70.2001 28.2653 70.1648 28.1947 70.0588 28.124C70.0234 28.0533 69.9528 28.071 69.8468 28.177C69.9174 28.283 70.0234 28.336 70.1648 28.336ZM68.6808 32.576C68.7514 32.5053 68.9281 32.4523 69.2108 32.417C69.4581 32.417 69.5641 32.2933 69.5288 32.046L69.4758 31.887L69.2638 31.834L68.7868 31.993C68.7514 31.993 68.7338 31.9753 68.7338 31.94H68.6278C68.4864 31.94 68.4158 31.993 68.4158 32.099C68.4158 32.311 68.5041 32.47 68.6808 32.576ZM94.211 33.212L93.522 33H93.31C93.204 33 93.0804 33 92.939 33C92.7977 32.9647 92.6387 32.9293 92.462 32.894L91.349 31.94C91.0664 31.6573 90.8544 31.3217 90.713 30.933C90.6777 30.7917 90.6424 30.615 90.607 30.403C90.5717 30.191 90.5187 29.9437 90.448 29.661L90.501 29.396C90.501 29.29 90.4834 29.2017 90.448 29.131C90.3774 28.919 90.342 28.813 90.342 28.813C90.3774 28.7423 90.395 28.6363 90.395 28.495C90.395 28.3183 90.395 28.1417 90.395 27.965L90.077 26.905V26.746C90.077 26.6753 90.077 26.587 90.077 26.481C90.077 26.375 90.0947 26.269 90.13 26.163L90.395 25.527V25.156C90.5364 24.944 90.6777 24.679 90.819 24.361C90.9604 24.0077 91.1017 23.6013 91.243 23.142L91.667 22.93C91.7024 22.8593 91.7377 22.7887 91.773 22.718C91.8084 22.6473 91.8614 22.5767 91.932 22.506L92.674 21.764C92.7094 21.6933 92.7447 21.6227 92.78 21.552C92.8154 21.446 92.8684 21.3223 92.939 21.181L94.847 20.015C95.0237 19.909 95.2004 19.803 95.377 19.697C95.5537 19.591 95.7304 19.4673 95.907 19.326C95.907 19.326 96.013 19.3613 96.225 19.432C96.2604 19.3967 96.2957 19.3613 96.331 19.326C96.3664 19.2553 96.4194 19.2023 96.49 19.167L97.02 18.955C97.02 18.7783 97.0907 18.6017 97.232 18.425C97.338 18.3543 97.4617 18.2483 97.603 18.107C97.7797 17.9657 97.974 17.789 98.186 17.577C98.2214 17.5417 98.2214 17.365 98.186 17.047C98.2567 17.1177 98.292 17.1 98.292 16.994C98.292 16.676 98.2744 16.5523 98.239 16.623C98.2037 16.4817 98.1507 16.3403 98.08 16.199C98.0447 16.0223 98.0094 15.8457 97.974 15.669C97.9387 15.6337 97.9564 15.5277 98.027 15.351L98.133 15.086C98.133 15.086 98.0447 14.9623 97.868 14.715L97.338 14.026C97.1614 13.8493 96.9317 13.7787 96.649 13.814L96.384 13.867C96.172 13.9377 96.066 13.973 96.066 13.973H95.589L95.483 14.079C95.5184 14.1143 95.5537 14.1497 95.589 14.185C95.6244 14.2203 95.6597 14.2733 95.695 14.344C95.695 14.4147 95.6774 14.4677 95.642 14.503V14.662C95.5007 14.6973 95.3417 14.8387 95.165 15.086C95.0944 15.298 95.059 15.4923 95.059 15.669C95.1297 15.8103 95.2357 15.9517 95.377 16.093C95.3417 16.1283 95.2887 16.146 95.218 16.146C95.1474 16.4287 95.1474 16.623 95.218 16.729L95.377 16.941V17.206C95.377 17.2413 95.324 17.2943 95.218 17.365L94.582 17.206C94.5467 17.0647 94.4584 17.0293 94.317 17.1C94.211 17.1707 94.1227 17.153 94.052 17.047H93.946C93.84 17.047 93.7694 17.0117 93.734 16.941C93.6987 16.835 93.628 16.8527 93.522 16.994L93.204 17.365C93.0274 17.365 92.886 17.3827 92.78 17.418L92.515 17.312C92.409 17.2413 92.3384 17.2237 92.303 17.259C92.2677 17.259 92.2324 17.259 92.197 17.259L91.084 17.577C91.0134 17.577 90.925 17.577 90.819 17.577C90.713 17.577 90.5894 17.5593 90.448 17.524L90.183 16.729C90.183 16.6937 90.2007 16.676 90.236 16.676C90.2714 16.6407 90.289 16.6053 90.289 16.57L90.342 16.411C90.3067 16.305 90.289 16.1813 90.289 16.04C90.289 15.8633 90.289 15.6867 90.289 15.51C90.395 15.404 90.4657 15.298 90.501 15.192C90.5364 15.086 90.554 14.8563 90.554 14.503V14.185C90.554 13.2663 91.3314 12.118 92.886 10.74C92.9214 10.634 93.045 10.475 93.257 10.263C93.2924 10.2277 93.522 10.1217 93.946 9.945C94.0167 9.87433 94.0344 9.82133 93.999 9.786L94.052 9.521C94.1934 9.55633 94.3347 9.59167 94.476 9.627C94.6527 9.627 94.8117 9.627 94.953 9.627L95.324 9.468C95.3947 9.43267 95.4654 9.39733 95.536 9.362C95.6067 9.32667 95.6597 9.309 95.695 9.309H96.066C96.1014 9.27367 96.225 9.22067 96.437 9.15C96.649 9.11467 96.8257 9.097 96.967 9.097C97.1437 9.06167 97.3027 9.044 97.444 9.044C97.6207 9.044 97.9917 9.097 98.557 9.203C99.193 9.309 99.5464 9.415 99.617 9.521L99.564 9.892L99.723 10.104L100.041 9.945C100.147 9.945 100.271 10.051 100.412 10.263L100.836 10.316C100.907 10.316 100.977 10.3337 101.048 10.369C101.154 10.369 101.225 10.369 101.26 10.369C101.295 10.4043 101.331 10.4397 101.366 10.475C101.401 10.475 101.437 10.5103 101.472 10.581V11.005L101.048 11.217C101.083 11.3583 101.225 11.4467 101.472 11.482C101.755 11.5173 101.914 11.5703 101.949 11.641L102.479 13.602C102.479 13.708 102.585 13.8493 102.797 14.026C102.832 14.2733 102.85 14.556 102.85 14.874C102.85 15.192 102.85 15.5277 102.85 15.881L103.009 16.146C103.044 16.1813 103.062 16.3757 103.062 16.729L103.009 17.63C102.974 17.948 102.956 18.2307 102.956 18.478C102.956 18.69 102.956 18.8667 102.956 19.008L103.062 19.167C103.097 19.5203 103.115 19.803 103.115 20.015C103.15 20.1917 103.168 20.2623 103.168 20.227L102.956 20.757C102.921 20.8983 102.885 21.0043 102.85 21.075C102.85 21.1103 102.85 21.1457 102.85 21.181C102.85 21.287 102.85 21.393 102.85 21.499C102.885 21.605 102.921 21.711 102.956 21.817C103.027 21.8877 103.08 21.9937 103.115 22.135C103.186 22.241 103.239 22.3647 103.274 22.506L103.221 23.195C103.186 23.2303 103.15 23.301 103.115 23.407C103.08 23.4777 103.044 23.566 103.009 23.672C103.009 23.672 103.08 24.149 103.221 25.103L103.009 25.845C103.044 25.8803 103.097 26.004 103.168 26.216C103.239 26.3927 103.274 26.4987 103.274 26.534V26.799C103.274 27.011 103.256 27.17 103.221 27.276C103.539 27.3113 103.698 27.5763 103.698 28.071L103.592 28.389C103.521 28.601 103.486 28.707 103.486 28.707L103.645 29.29C103.68 29.4313 103.698 29.5903 103.698 29.767C103.733 29.9437 103.751 30.1733 103.751 30.456V30.986C103.857 31.1273 103.963 31.3747 104.069 31.728V31.781C104.069 32.1697 103.592 32.3993 102.638 32.47L101.631 32.311C101.596 32.311 101.49 32.311 101.313 32.311C101.136 32.311 100.871 32.3287 100.518 32.364C100.483 32.364 100.43 32.3993 100.359 32.47C100.288 32.5407 100.218 32.576 100.147 32.576H99.67C99.67 32.576 99.458 32.5053 99.034 32.364L99.14 31.887C99.14 31.675 99.034 31.516 98.822 31.41C98.822 31.3747 98.8397 31.2333 98.875 30.986L98.981 30.615C98.7337 30.6503 98.0977 31.1803 97.073 32.205C96.8257 32.4523 96.649 32.5583 96.543 32.523L96.331 32.47C96.225 32.576 96.119 32.6643 96.013 32.735C95.801 32.841 95.6067 32.894 95.43 32.894C95.3947 32.9293 95.377 32.9293 95.377 32.894C95.3417 32.8587 95.3064 32.841 95.271 32.841C95.2357 32.8763 95.059 32.947 94.741 33.053C94.4584 33.159 94.2817 33.212 94.211 33.212ZM94.476 10.369C94.476 10.263 94.4054 10.1923 94.264 10.157C94.1934 10.2277 94.158 10.2807 94.158 10.316C94.1934 10.528 94.2994 10.5457 94.476 10.369ZM101.048 13.072L101.207 12.86C101.242 12.7893 101.207 12.7187 101.101 12.648C100.995 12.6127 100.871 12.6127 100.73 12.648C100.765 12.754 100.871 12.8953 101.048 13.072ZM93.522 14.98L94.158 14.927C94.4407 14.927 94.582 14.8033 94.582 14.556L94.476 14.291L93.787 14.238C93.5044 14.238 93.3807 14.344 93.416 14.556L93.469 14.768C93.5044 14.8387 93.522 14.9093 93.522 14.98ZM98.345 18.849C98.3804 18.8843 98.4687 18.8843 98.61 18.849L98.557 18.637C98.4157 18.6723 98.345 18.743 98.345 18.849ZM94.847 21.976L94.9 21.711L94.582 21.658L94.847 21.976ZM96.119 28.548H96.384C96.4547 28.548 96.5254 28.5127 96.596 28.442C96.6667 28.3713 96.7197 28.336 96.755 28.336C96.8257 28.3713 96.9317 28.4243 97.073 28.495C97.2144 28.495 97.3734 28.4067 97.55 28.23C97.6207 28.0533 97.7267 27.8413 97.868 27.594C98.0447 27.5233 98.239 27.382 98.451 27.17C98.4157 27.0993 98.398 26.958 98.398 26.746C98.398 26.5693 98.398 26.375 98.398 26.163C98.4334 25.951 98.4687 25.7213 98.504 25.474C98.4687 25.2973 98.4334 25.103 98.398 24.891C98.3627 24.6437 98.3274 24.361 98.292 24.043C98.292 23.831 98.398 23.7073 98.61 23.672C98.504 23.3187 98.2744 22.824 97.921 22.188H97.073C96.967 22.612 96.808 22.983 96.596 23.301L96.225 23.566L96.013 23.937L95.642 24.149C95.6067 24.2903 95.536 24.4493 95.43 24.626C95.3594 24.8027 95.2887 25.0147 95.218 25.262C95.218 25.474 95.0944 25.8273 94.847 26.322L94.9 26.534C94.6527 26.8167 94.529 26.9933 94.529 27.064C94.5997 27.0287 94.6704 27.064 94.741 27.17L95.059 28.018C95.1297 28.0533 95.2004 28.0887 95.271 28.124C95.3417 28.124 95.4124 28.1593 95.483 28.23C95.5184 28.2653 95.5537 28.3007 95.589 28.336C95.6244 28.3713 95.6597 28.4243 95.695 28.495L96.119 28.548ZM101.525 25.845C101.596 25.845 101.684 25.792 101.79 25.686C101.931 25.5447 102.002 25.4387 102.002 25.368L101.896 25.156C101.861 25.1207 101.808 25.103 101.737 25.103C101.666 25.103 101.596 25.0853 101.525 25.05L101.154 25.315C101.189 25.3503 101.242 25.474 101.313 25.686C101.384 25.792 101.454 25.845 101.525 25.845ZM99.352 27.329L99.67 27.223C99.6347 27.1877 99.617 27.0993 99.617 26.958L99.299 27.011C99.299 27.1877 99.3167 27.2937 99.352 27.329ZM96.543 31.834C96.6137 31.5513 96.596 31.41 96.49 31.41L96.384 31.516C96.3487 31.5513 96.331 31.6397 96.331 31.781L96.543 31.834ZM113.918 33.795L113.017 33.742C112.734 33.7067 112.505 33.689 112.328 33.689C112.187 33.689 112.098 33.689 112.063 33.689C111.533 33.689 111.215 33.6713 111.109 33.636L110.208 33.159C110.137 33.1237 110.049 33.0883 109.943 33.053C109.837 33.0177 109.713 32.9823 109.572 32.947C109.36 32.841 109.254 32.6643 109.254 32.417C109.183 32.3817 109.113 32.364 109.042 32.364C108.971 32.3287 108.901 32.311 108.83 32.311C108.83 31.993 108.759 31.781 108.618 31.675L108.247 31.516C108.176 31.4453 108.088 31.251 107.982 30.933L107.77 30.403V30.244C107.77 30.1733 107.752 30.085 107.717 29.979C107.717 29.8377 107.699 29.6963 107.664 29.555C107.664 29.2723 107.664 29.025 107.664 28.813C107.699 28.601 107.735 28.4243 107.77 28.283C107.629 28.2123 107.523 28.1063 107.452 27.965C107.417 27.8943 107.434 27.753 107.505 27.541L107.558 27.064C107.593 26.8873 107.611 26.7283 107.611 26.587C107.611 26.4457 107.629 26.3043 107.664 26.163C107.664 25.9863 107.717 25.7743 107.823 25.527C107.964 25.2797 108.035 25.1207 108.035 25.05C108.035 25.0147 108 24.9617 107.929 24.891C107.858 24.8203 107.823 24.785 107.823 24.785C107.823 24.7143 107.805 24.6613 107.77 24.626C107.77 24.5907 107.77 24.5553 107.77 24.52C107.77 24.308 107.823 24.096 107.929 23.884C107.788 23.6367 107.717 23.3363 107.717 22.983C107.717 22.7003 107.805 22.4353 107.982 22.188C107.876 22.0467 107.788 21.9053 107.717 21.764V20.386C107.717 20.386 107.682 20.3153 107.611 20.174C107.54 20.1033 107.505 20.0327 107.505 19.962C107.505 19.856 107.699 19.4673 108.088 18.796C107.805 18.6193 107.664 18.5133 107.664 18.478L107.929 17.524C107.929 17.4533 107.911 17.3473 107.876 17.206C107.876 17.0647 107.876 16.9057 107.876 16.729L107.823 15.881C107.788 15.4923 107.788 15.1743 107.823 14.927C107.858 14.6797 107.858 14.4853 107.823 14.344C107.717 14.1673 107.593 14.079 107.452 14.079V13.814L107.929 13.602C107.929 13.5313 107.911 13.4783 107.876 13.443H106.975V13.602C106.975 13.7433 107.046 13.867 107.187 13.973C107.328 14.079 107.399 14.1673 107.399 14.238L106.763 14.185C106.622 14.1497 106.498 14.132 106.392 14.132C106.321 14.132 106.268 14.132 106.233 14.132L105.915 14.238C105.703 14.3087 105.597 14.344 105.597 14.344C105.456 14.344 105.244 14.2733 104.961 14.132C104.926 14.0613 104.926 13.9553 104.961 13.814L105.067 13.496C105.032 13.39 105.014 13.284 105.014 13.178C105.014 13.072 105.014 12.9837 105.014 12.913C105.085 12.701 105.208 12.5773 105.385 12.542C105.244 12.4007 105.155 12.2593 105.12 12.118C105.12 11.9413 105.12 11.7647 105.12 11.588L105.067 11.323C105.138 11.005 105.155 10.8107 105.12 10.74L104.961 10.475C104.89 10.3337 104.855 10.2453 104.855 10.21L105.067 9.733C105.102 9.69767 105.155 9.68 105.226 9.68C105.297 9.68 105.385 9.66233 105.491 9.627C105.597 9.59167 105.668 9.521 105.703 9.415H105.809L106.339 9.574L107.028 9.786C107.063 9.82133 107.099 9.87433 107.134 9.945C107.169 10.0157 107.205 10.104 107.24 10.21C107.381 10.104 107.523 9.96267 107.664 9.786C107.805 9.60933 107.947 9.39733 108.088 9.15C108.3 9.00867 108.318 8.90267 108.141 8.832C108.035 8.76133 107.982 8.65533 107.982 8.514L108.035 6.818C107.858 6.182 107.77 5.74033 107.77 5.493L107.929 5.069L108.035 4.645C108.035 4.539 107.982 4.45066 107.876 4.38C107.77 4.30933 107.717 4.168 107.717 3.956L107.823 3.426C107.894 3.39067 107.964 3.33767 108.035 3.267C108.106 3.19633 108.212 3.108 108.353 3.002C108.565 2.79 108.689 2.684 108.724 2.684L109.201 2.896C109.342 2.93133 109.448 2.98433 109.519 3.055C109.59 3.12567 109.643 3.161 109.678 3.161L109.837 3.108H111.003C111.25 3.108 111.445 3.12567 111.586 3.161C111.763 3.161 111.904 3.161 112.01 3.161L112.381 3.055C112.593 2.98433 112.699 2.949 112.699 2.949C112.946 2.949 113.07 3.12566 113.07 3.479C113.07 3.585 113.052 3.72633 113.017 3.903C113.017 4.04433 112.999 4.221 112.964 4.433L112.752 4.38C112.611 4.38 112.434 4.45067 112.222 4.592C111.904 4.76867 111.78 4.99833 111.851 5.281C111.922 5.35167 111.957 5.387 111.957 5.387C111.992 5.387 112.063 5.334 112.169 5.228C112.31 5.15733 112.399 5.122 112.434 5.122C112.611 5.122 112.787 5.26333 112.964 5.546C113.105 5.79333 113.176 5.95233 113.176 6.023C113.176 6.09367 113.141 6.182 113.07 6.288C113.035 6.35867 112.999 6.41166 112.964 6.447C112.929 7.04766 112.893 7.47167 112.858 7.719C112.858 7.96633 112.858 8.01933 112.858 7.878C112.611 7.91333 112.487 8.01933 112.487 8.196C112.487 8.37267 112.593 8.49633 112.805 8.567V8.885C112.805 9.097 112.893 9.468 113.07 9.998C113.105 10.0687 113.229 10.1747 113.441 10.316H113.6V9.945C113.635 9.80367 113.741 9.733 113.918 9.733C114.625 9.627 114.925 9.574 114.819 9.574L115.084 9.627C115.19 9.66233 115.296 9.68 115.402 9.68L115.932 10.051C115.897 10.1923 115.879 10.3337 115.879 10.475C115.879 10.581 115.879 10.7223 115.879 10.899C116.162 11.1817 116.303 11.3053 116.303 11.27C116.303 11.376 116.232 11.4997 116.091 11.641C116.126 11.6763 116.162 11.7117 116.197 11.747C116.126 11.7823 116.073 11.9237 116.038 12.171L116.091 12.33C116.126 12.4007 116.144 12.4713 116.144 12.542C116.144 12.8247 116.126 13.1073 116.091 13.39C116.091 13.6373 116.073 13.867 116.038 14.079C115.967 14.291 115.861 14.397 115.72 14.397H115.667H115.72C115.72 14.3617 115.561 14.291 115.243 14.185C115.102 14.1497 114.819 14.132 114.395 14.132C114.218 14.132 113.865 14.185 113.335 14.291L113.123 14.45C112.982 14.5207 112.911 14.556 112.911 14.556L112.858 15.033C112.823 15.3863 112.77 15.563 112.699 15.563C112.911 16.0577 113.017 16.517 113.017 16.941C112.982 16.941 112.893 17.153 112.752 17.577C112.787 17.5063 112.805 17.7007 112.805 18.16L112.699 18.425C112.628 18.637 112.593 18.743 112.593 18.743L112.752 19.379C112.823 19.5557 112.858 19.7147 112.858 19.856C112.858 19.962 112.858 20.0327 112.858 20.068C112.858 20.068 112.787 20.1563 112.646 20.333C112.611 20.333 112.593 20.4213 112.593 20.598C112.593 20.81 112.681 20.9513 112.858 21.022V22.771C112.858 22.8063 112.823 22.8593 112.752 22.93C112.681 23.0713 112.646 23.1597 112.646 23.195C112.611 23.4423 112.611 23.6543 112.646 23.831C112.717 24.1137 112.77 24.2373 112.805 24.202C112.699 24.308 112.611 24.414 112.54 24.52C112.611 24.5907 112.699 24.838 112.805 25.262C112.381 25.5093 112.169 25.7213 112.169 25.898C112.169 25.8273 112.31 26.0393 112.593 26.534C112.593 26.534 112.628 26.8167 112.699 27.382L112.805 27.541C112.805 27.6823 112.805 27.8413 112.805 28.018C112.805 28.1593 112.823 28.336 112.858 28.548C112.858 28.548 113.07 28.6893 113.494 28.972C113.494 29.1133 113.582 29.237 113.759 29.343H113.865C113.936 29.343 114.059 29.2723 114.236 29.131C114.377 28.9897 114.501 28.919 114.607 28.919C114.607 28.919 114.678 28.9543 114.819 29.025C114.89 29.0957 114.943 29.131 114.978 29.131C115.049 29.131 115.155 29.0957 115.296 29.025C115.367 28.9543 115.437 28.9013 115.508 28.866C115.579 28.7953 115.667 28.7247 115.773 28.654L115.985 28.813V31.039C115.985 31.0743 115.967 31.1097 115.932 31.145C115.861 31.2157 115.826 31.2687 115.826 31.304V31.834C115.755 31.9047 115.685 31.9577 115.614 31.993C115.649 32.2403 115.72 32.4347 115.826 32.576C115.932 32.682 115.985 32.841 115.985 33.053C115.985 33.4063 115.791 33.583 115.402 33.583H115.243C115.208 33.583 115.172 33.5653 115.137 33.53C115.137 33.53 115.119 33.53 115.084 33.53L114.501 33.689C114.324 33.7243 114.183 33.742 114.077 33.742C114.006 33.7773 113.953 33.795 113.918 33.795ZM109.625 11.27C109.837 11.27 109.943 11.164 109.943 10.952L109.837 10.634H109.572C109.466 10.74 109.378 10.8283 109.307 10.899C109.272 10.9697 109.236 11.0227 109.201 11.058C109.236 11.0933 109.254 11.1463 109.254 11.217H109.466C109.501 11.217 109.519 11.2347 109.519 11.27C109.554 11.27 109.59 11.27 109.625 11.27ZM114.819 11.164L115.031 11.058L114.766 10.899C114.731 10.9343 114.695 10.952 114.66 10.952L114.819 11.164ZM116.197 11.747V11.853C116.197 11.8177 116.197 11.7823 116.197 11.747ZM110.685 12.489C110.72 12.4537 110.685 12.383 110.579 12.277L110.42 12.383C110.455 12.4183 110.491 12.436 110.526 12.436C110.597 12.436 110.65 12.4537 110.685 12.489ZM110.738 13.337C110.773 13.2663 110.756 13.1957 110.685 13.125C110.614 13.0543 110.526 13.0543 110.42 13.125C110.455 13.1957 110.561 13.2663 110.738 13.337ZM113.017 16.941V16.994V16.941ZM111.48 22.347L111.586 22.294C111.621 22.2587 111.657 22.241 111.692 22.241L111.586 22.082C111.551 22.1173 111.533 22.1527 111.533 22.188C111.533 22.2233 111.515 22.2763 111.48 22.347ZM109.413 24.043C109.484 24.0783 109.554 24.0607 109.625 23.99C109.696 23.9193 109.678 23.831 109.572 23.725C109.466 23.7603 109.413 23.8663 109.413 24.043ZM108.989 30.721L109.254 30.986C109.325 30.986 109.448 30.9683 109.625 30.933L109.89 30.615L109.519 30.297C109.484 30.3323 109.307 30.403 108.989 30.509V30.721ZM107.611 32.205C107.54 32.205 107.452 32.152 107.346 32.046C107.381 32.0107 107.434 31.993 107.505 31.993C107.611 31.993 107.646 32.0637 107.611 32.205ZM123.599 33.689C123.528 33.689 123.51 33.689 123.546 33.689C123.51 33.689 123.44 33.6537 123.334 33.583L123.069 33.477C122.998 33.5123 122.91 33.53 122.804 33.53C122.733 33.53 122.645 33.5477 122.539 33.583L121.797 33.159C121.691 32.9117 121.549 32.788 121.373 32.788C121.337 32.7527 121.302 32.7527 121.267 32.788C121.231 32.8233 121.161 32.841 121.055 32.841C121.055 32.841 120.878 32.6997 120.525 32.417L120.101 32.258C119.995 32.152 119.871 32.0283 119.73 31.887C119.624 31.7457 119.482 31.5867 119.306 31.41L118.882 31.092V30.986C118.882 30.8447 118.793 30.6327 118.617 30.35C118.44 30.1733 118.299 30.032 118.193 29.926C118.122 29.7847 118.069 29.6963 118.034 29.661V29.025C118.21 29.131 118.316 29.1133 118.352 28.972C118.422 28.866 118.352 28.76 118.14 28.654C117.998 28.548 117.928 28.4597 117.928 28.389V27.753C117.928 27.647 117.928 27.541 117.928 27.435C117.928 27.329 117.91 27.223 117.875 27.117C117.839 26.9403 117.804 26.7813 117.769 26.64C117.769 26.4633 117.786 26.3043 117.822 26.163L117.928 25.633C117.892 25.421 117.875 25.209 117.875 24.997C117.875 24.7497 117.875 24.5023 117.875 24.255C117.875 24.1137 117.928 23.937 118.034 23.725L118.193 23.301C118.157 23.0183 118.122 22.718 118.087 22.4C118.051 22.0467 118.016 21.6933 117.981 21.34C117.981 21.234 118.122 20.8983 118.405 20.333C118.475 20.2977 118.546 20.2623 118.617 20.227C118.687 20.1917 118.758 20.1387 118.829 20.068C118.829 20.0327 118.67 19.909 118.352 19.697L118.193 18.584C118.193 18.4073 118.263 18.3013 118.405 18.266C118.511 18.1953 118.546 18.0717 118.511 17.895L119.2 17.418C119.164 17.2767 119.041 17.1883 118.829 17.153C118.793 17.153 118.67 17.1883 118.458 17.259C118.352 17.1883 118.299 17.1177 118.299 17.047C118.299 16.835 118.405 16.6583 118.617 16.517C118.829 16.3403 118.935 16.2343 118.935 16.199L118.67 15.298C118.67 15.298 118.811 15.0507 119.094 14.556C119.341 14.5207 119.465 14.45 119.465 14.344C119.465 14.2733 119.412 14.185 119.306 14.079C119.164 13.973 119.094 13.8847 119.094 13.814C119.094 13.7787 119.129 13.7257 119.2 13.655C119.306 13.443 119.412 13.0543 119.518 12.489L119.836 12.171L119.995 11.641C120.207 11.5703 120.454 11.4643 120.737 11.323L121.426 10.475C121.779 10.0157 122.079 9.80367 122.327 9.839L122.486 9.892C122.486 9.85667 122.627 9.80367 122.91 9.733C123.758 9.45033 124.235 9.32667 124.341 9.362L124.606 9.415C124.818 9.27367 124.977 9.15 125.083 9.044L125.348 9.097C125.418 9.097 125.471 9.11467 125.507 9.15C125.542 9.18533 125.577 9.203 125.613 9.203L126.037 9.15L126.514 9.574C126.514 9.574 126.62 9.53866 126.832 9.468L127.097 9.362C127.238 9.43267 127.397 9.50333 127.574 9.574C127.75 9.64467 127.927 9.71533 128.104 9.786C128.28 9.71533 128.528 9.71533 128.846 9.786L128.793 10.051V10.104C128.793 10.316 128.987 10.422 129.376 10.422H129.8C129.8 10.422 130.029 10.846 130.489 11.694L130.807 11.588C130.948 11.588 131.036 11.641 131.072 11.747L131.655 13.761C131.619 13.8317 131.602 13.9553 131.602 14.132C131.602 14.2733 131.602 14.4323 131.602 14.609L131.761 14.98C131.831 15.192 131.867 15.298 131.867 15.298L131.761 15.457C131.725 15.4923 131.708 15.5453 131.708 15.616V16.411C131.672 16.4463 131.637 16.517 131.602 16.623C131.566 16.6937 131.531 16.7997 131.496 16.941C131.284 16.9763 131.178 17.047 131.178 17.153C131.178 17.259 131.337 17.4533 131.655 17.736C131.937 18.0187 132.079 18.1953 132.079 18.266C132.079 18.3367 131.99 18.372 131.814 18.372L131.655 19.114C131.619 19.1493 131.566 19.2553 131.496 19.432C131.496 19.644 131.602 20.1033 131.814 20.81C131.672 20.8807 131.566 20.969 131.496 21.075C131.496 21.075 131.496 21.2163 131.496 21.499L131.549 22.029C131.549 22.0643 131.549 22.135 131.549 22.241C131.549 22.3117 131.531 22.4177 131.496 22.559L131.443 23.089H131.178C130.895 23.089 130.665 22.9477 130.489 22.665C130.347 22.4177 130.224 22.294 130.118 22.294C130.082 22.294 129.976 22.4 129.8 22.612C129.588 22.824 129.446 22.93 129.376 22.93L128.793 22.877C128.616 22.8417 128.475 22.8417 128.369 22.877C128.263 22.877 128.192 22.877 128.157 22.877L127.044 22.4C126.796 22.612 126.514 22.718 126.196 22.718C125.807 22.718 125.471 22.5943 125.189 22.347C125.118 22.4177 125.083 22.4707 125.083 22.506H124.288C124.252 22.506 124.235 22.506 124.235 22.506C124.235 22.4707 124.217 22.453 124.182 22.453H123.97C123.652 22.453 123.387 22.6473 123.175 23.036V23.248C123.139 23.3187 123.086 23.4247 123.016 23.566C122.98 23.672 122.927 23.7957 122.857 23.937C122.857 23.9723 122.892 24.0253 122.963 24.096L123.069 24.308V24.414C123.069 24.4493 123.069 24.52 123.069 24.626C123.069 24.6967 123.051 24.8027 123.016 24.944C123.051 25.05 123.069 25.2267 123.069 25.474C123.069 25.6153 122.98 25.739 122.804 25.845L122.698 27.594C122.91 27.7707 122.998 28.071 122.963 28.495H123.599C123.811 28.495 123.97 28.5657 124.076 28.707C124.182 28.8483 124.252 28.919 124.288 28.919L124.659 28.76L125.03 29.025C125.136 29.025 125.206 28.972 125.242 28.866L125.56 28.124V27.329L125.613 26.534C125.648 26.428 125.666 26.3397 125.666 26.269C125.701 26.163 125.719 26.0923 125.719 26.057L125.666 25.898C125.736 25.7567 125.772 25.6507 125.772 25.58C125.772 25.474 125.772 25.4033 125.772 25.368L125.666 24.891C125.807 24.5377 125.984 24.361 126.196 24.361C126.478 24.5023 126.867 24.626 127.362 24.732L127.627 24.626C127.733 24.5907 127.821 24.573 127.892 24.573C127.962 24.573 128.086 24.7143 128.263 24.997C128.651 24.8557 128.846 24.785 128.846 24.785L129.27 25.05H129.376C129.8 25.05 130.206 24.8733 130.595 24.52L131.496 25.368C131.319 25.686 131.125 26.0923 130.913 26.587C130.877 26.7637 130.824 26.9757 130.754 27.223C130.718 27.4703 130.648 27.7353 130.542 28.018C130.294 28.124 130.171 28.2653 130.171 28.442C130.171 28.5127 130.224 28.6363 130.33 28.813C130.436 29.025 130.489 29.1663 130.489 29.237L130.383 29.396C130.453 29.5727 130.436 29.7317 130.33 29.873L130.171 30.138C130.206 30.1733 130.224 30.244 130.224 30.35C130.224 30.668 129.994 30.933 129.535 31.145L129.429 31.251C129.464 31.2863 129.482 31.3393 129.482 31.41C129.482 31.6573 129.34 31.8163 129.058 31.887C128.669 31.993 128.439 32.0813 128.369 32.152C128.298 32.258 128.192 32.3817 128.051 32.523C127.909 32.6643 127.75 32.8233 127.574 33C126.867 33.4593 126.372 33.6537 126.09 33.583L125.454 33.424C125.277 33.424 125.1 33.477 124.924 33.583C124.747 33.689 124.606 33.7243 124.5 33.689L124.288 33.636H124.023C123.881 33.636 123.775 33.636 123.705 33.636C123.634 33.6713 123.581 33.689 123.546 33.689C123.581 33.689 123.599 33.689 123.599 33.689ZM124.659 11.376L124.765 11.164L124.606 11.058C124.606 11.164 124.623 11.27 124.659 11.376ZM128.369 13.178C128.545 13.178 128.651 13.072 128.687 12.86L128.634 12.171H128.528C128.422 12.171 128.369 12.0827 128.369 11.906C128.298 11.7293 128.21 11.641 128.104 11.641C127.962 11.5703 127.856 11.6233 127.786 11.8C127.75 11.8353 127.733 11.8883 127.733 11.959C127.768 12.0297 127.786 12.1003 127.786 12.171L127.839 12.542L127.68 12.701L128.369 13.178ZM123.705 13.867C123.987 13.761 123.987 13.6373 123.705 13.496C123.634 13.5667 123.634 13.6903 123.705 13.867ZM130.595 13.814L130.489 13.602L130.33 13.708L130.595 13.814ZM123.546 18.637L124.076 18.478L124.818 18.266C125.065 18.266 125.33 18.2483 125.613 18.213C125.895 18.1423 126.213 18.0717 126.567 18.001L126.726 17.365C126.761 17.3297 126.849 17.2767 126.991 17.206C126.849 17.0647 126.726 16.9233 126.62 16.782C126.549 16.6407 126.531 16.4993 126.567 16.358L126.62 15.987V15.669C126.62 15.351 126.478 15.086 126.196 14.874C126.231 14.768 126.249 14.6267 126.249 14.45C126.249 14.1673 125.931 14.0083 125.295 13.973C125.189 13.973 124.994 14.079 124.712 14.291L123.864 14.874C124.005 14.98 124.023 15.1213 123.917 15.298C123.881 15.4393 123.758 15.51 123.546 15.51V15.669C123.652 15.5983 123.758 15.6513 123.864 15.828C123.934 15.9693 123.952 16.0577 123.917 16.093L123.811 17.683C123.811 17.789 123.811 17.8773 123.811 17.948C123.846 18.0187 123.864 18.054 123.864 18.054C123.864 18.16 123.811 18.213 123.705 18.213C123.599 18.1423 123.51 18.054 123.44 17.948L123.281 18.054L123.228 18.372L123.546 18.637ZM127.256 15.404C127.326 15.51 127.432 15.51 127.574 15.404C127.468 15.086 127.362 15.086 127.256 15.404ZM123.864 18.001C123.864 18.0717 123.864 18.0893 123.864 18.054C123.864 18.054 123.864 18.0363 123.864 18.001ZM119.2 22.188C119.306 22.1173 119.447 21.923 119.624 21.605L119.571 21.446H119.465C119.288 21.446 119.058 21.5343 118.776 21.711C118.882 21.8877 119.023 22.0467 119.2 22.188ZM129.376 21.817C129.411 21.711 129.393 21.6227 129.323 21.552C129.287 21.5167 129.199 21.5343 129.058 21.605C129.058 21.6757 129.164 21.7463 129.376 21.817ZM120.207 28.919L120.631 28.707L120.578 28.495L120.313 28.442L120.207 28.548V28.495L120.154 28.283L119.995 28.23L119.889 28.813L120.207 28.919ZM124.235 29.767C124.27 29.6963 124.252 29.6257 124.182 29.555C124.111 29.4843 124.04 29.4843 123.97 29.555C123.97 29.6257 124.058 29.6963 124.235 29.767ZM140.596 33.795L140.225 33.689C140.013 33.583 139.872 33.53 139.801 33.53L139.43 33.583H139.271C139.307 33.583 139.236 33.5653 139.059 33.53C138.883 33.53 138.547 33.477 138.052 33.371C137.911 33.1237 137.77 33 137.628 33L137.363 33.053C137.328 33.053 137.293 33.053 137.257 33.053C137.222 33.0883 137.187 33.106 137.151 33.106C137.01 33.106 136.851 33.0177 136.674 32.841C136.604 32.7703 136.515 32.682 136.409 32.576C136.303 32.4347 136.162 32.2933 135.985 32.152C135.42 32.0107 135.049 31.7633 134.872 31.41C134.872 31.198 134.819 31.0743 134.713 31.039C134.572 31.0037 134.501 30.8977 134.501 30.721C134.501 30.509 134.572 30.191 134.713 29.767L133.918 29.449L133.653 28.389C133.583 28.2123 133.477 28.018 133.335 27.806C133.229 27.5587 133.088 27.2937 132.911 27.011V26.693C132.911 26.481 132.947 26.3397 133.017 26.269C133.053 26.2337 133.159 26.216 133.335 26.216H133.494C133.53 26.216 133.547 26.2337 133.547 26.269C133.547 26.269 133.565 26.269 133.6 26.269L133.865 26.11C133.901 26.0747 134.042 26.057 134.289 26.057L134.501 26.11C134.537 26.11 134.554 26.1277 134.554 26.163C134.59 26.163 134.625 26.163 134.66 26.163L135.296 25.951L135.455 25.792C135.597 25.7213 135.773 25.6683 135.985 25.633C136.197 25.5977 136.48 25.5623 136.833 25.527L136.992 25.58C136.957 25.58 136.939 25.7037 136.939 25.951C136.939 26.1277 137.045 26.216 137.257 26.216C137.293 26.216 137.487 26.004 137.84 25.58C137.911 25.792 137.946 26.1453 137.946 26.64C137.946 26.8873 138.017 27.064 138.158 27.17C138.264 27.3467 138.3 27.5233 138.264 27.7C138.264 27.7707 138.3 27.806 138.37 27.806C138.088 27.806 137.946 27.8767 137.946 28.018C137.946 28.2653 138.07 28.389 138.317 28.389C138.388 28.389 138.512 28.2477 138.688 27.965C138.724 28.0357 138.83 28.23 139.006 28.548C139.112 28.654 139.483 28.866 140.119 29.184C140.402 29.29 140.773 29.343 141.232 29.343C141.374 29.343 141.533 29.2017 141.709 28.919C141.957 28.919 142.186 28.7423 142.398 28.389C142.363 28.4243 142.328 28.442 142.292 28.442C142.292 28.4067 142.275 28.389 142.239 28.389C142.239 28.3537 142.239 28.3183 142.239 28.283C142.239 28.177 142.257 28.071 142.292 27.965C142.363 27.8237 142.416 27.6823 142.451 27.541C142.381 27.4703 142.292 27.3643 142.186 27.223C142.116 27.0463 142.027 26.852 141.921 26.64C142.098 26.4633 142.063 26.269 141.815 26.057L141.285 25.686L141.391 25.103C141.285 24.9263 140.861 24.785 140.119 24.679L139.907 24.255C139.731 24.0783 139.483 23.884 139.165 23.672C139.059 23.672 138.9 23.619 138.688 23.513C138.653 23.4777 138.618 23.4423 138.582 23.407C138.547 23.3363 138.494 23.2833 138.423 23.248C138.388 23.2127 138.282 23.195 138.105 23.195C137.999 23.1243 137.84 22.9653 137.628 22.718L137.575 22.294C137.469 22.294 137.275 22.2587 136.992 22.188C136.71 22.082 136.498 21.9583 136.356 21.817L135.985 21.181C135.667 20.8983 135.367 20.598 135.084 20.28C134.625 19.8207 134.378 19.4497 134.342 19.167L134.66 18.796C134.625 18.796 134.537 18.796 134.395 18.796C134.289 18.796 134.166 18.6723 134.024 18.425V18.054C133.954 17.8067 133.883 17.6653 133.812 17.63C133.777 17.5593 133.759 17.5063 133.759 17.471L133.812 17.259V16.358C133.848 16.3933 133.901 16.411 133.971 16.411C134.148 16.411 134.236 16.305 134.236 16.093C134.236 15.8457 134.06 15.722 133.706 15.722C134.095 15.4393 134.289 15.1743 134.289 14.927C134.289 14.6797 134.113 14.45 133.759 14.238C133.724 14.0613 133.777 13.9023 133.918 13.761L134.342 13.549C134.378 13.4783 134.413 13.4077 134.448 13.337C134.519 13.231 134.607 13.1073 134.713 12.966C134.678 12.8953 134.643 12.807 134.607 12.701C134.607 12.595 134.607 12.5067 134.607 12.436C134.607 12.224 134.643 12.065 134.713 11.959C134.749 11.9237 134.802 11.906 134.872 11.906C134.943 11.906 135.031 11.8883 135.137 11.853L135.349 11.429C135.879 11.429 136.056 11.2347 135.879 10.846H135.932C136.038 10.846 136.162 10.687 136.303 10.369C136.374 10.369 136.568 10.263 136.886 10.051C137.028 9.90967 137.222 9.839 137.469 9.839H137.628C137.664 9.839 137.681 9.85667 137.681 9.892C137.717 9.892 137.752 9.892 137.787 9.892L137.999 9.839C137.999 9.76833 138.052 9.68 138.158 9.574C138.441 9.362 138.653 9.256 138.794 9.256L139.218 9.362L139.377 9.309H139.536C140.066 9.309 140.455 9.43267 140.702 9.68L140.649 9.945H140.755C140.791 9.945 140.897 9.85667 141.073 9.68C141.215 9.53866 141.356 9.468 141.497 9.468C141.709 9.468 141.886 9.521 142.027 9.627C142.204 9.733 142.31 9.786 142.345 9.786L142.769 9.68C142.911 9.64467 142.999 9.627 143.034 9.627C143.105 9.627 143.158 9.627 143.193 9.627C143.299 9.627 143.405 9.64467 143.511 9.68L143.723 9.786C143.759 9.85667 143.882 9.998 144.094 10.21H144.147C144.359 10.21 144.695 10.316 145.154 10.528C145.402 10.7047 145.596 10.9697 145.737 11.323L146.214 12.277C146.214 12.5597 146.267 12.9483 146.373 13.443C146.444 13.5137 146.532 13.6197 146.638 13.761C146.744 13.867 146.868 14.0083 147.009 14.185C147.009 14.2203 146.992 14.291 146.956 14.397C146.956 14.4677 146.939 14.556 146.903 14.662C147.009 14.768 147.098 14.9447 147.168 15.192C147.204 15.298 147.239 15.3863 147.274 15.457C147.31 15.5277 147.345 15.5983 147.38 15.669V15.934L146.426 16.305C145.896 16.4463 145.437 16.5523 145.048 16.623C144.695 16.6937 144.395 16.729 144.147 16.729L143.988 16.676C143.953 16.676 143.918 16.676 143.882 16.676C143.882 16.6407 143.865 16.623 143.829 16.623C143.759 16.623 143.67 16.676 143.564 16.782L143.352 16.994C143.034 17.1 142.787 17.153 142.61 17.153C142.469 17.153 142.31 16.994 142.133 16.676C141.992 16.4287 141.921 16.252 141.921 16.146C141.921 14.9447 141.886 14.3793 141.815 14.45C141.462 14.238 141.215 14.185 141.073 14.291H141.02L140.543 14.079C140.402 14.0083 140.278 13.973 140.172 13.973C140.102 13.9377 140.049 13.92 140.013 13.92L139.748 13.973C139.642 14.0083 139.554 14.026 139.483 14.026C139.413 14.026 139.342 14.026 139.271 14.026L139.165 14.503C139.095 14.5383 138.953 14.662 138.741 14.874L138.582 15.563C138.759 15.5983 138.883 15.722 138.953 15.934C139.024 16.252 139.059 16.411 139.059 16.411C139.024 16.4463 138.812 16.4993 138.423 16.57C138.353 16.57 138.282 16.6053 138.211 16.676C138.247 16.782 138.494 16.8703 138.953 16.941C139.059 17.047 139.13 17.2237 139.165 17.471L139.748 17.577C139.748 17.7183 139.819 17.8773 139.96 18.054C139.996 18.054 140.084 18.0893 140.225 18.16C140.296 18.3013 140.402 18.4427 140.543 18.584C140.72 18.584 140.879 18.637 141.02 18.743C141.197 18.9197 141.285 19.0787 141.285 19.22H141.179C141.073 19.22 140.932 19.273 140.755 19.379V19.591C140.826 19.6617 140.914 19.7323 141.02 19.803C141.162 19.8383 141.321 19.8383 141.497 19.803L141.656 19.75H141.815L142.027 19.909C142.239 19.9443 142.398 19.962 142.504 19.962C142.61 19.962 142.681 19.962 142.716 19.962C142.999 20.0327 143.193 20.1387 143.299 20.28C143.405 20.5627 143.582 20.8453 143.829 21.128L144.359 21.287C144.536 21.393 144.66 21.552 144.73 21.764C145.26 22.2233 145.525 22.559 145.525 22.771V22.877L146.161 23.513C146.161 23.5837 146.161 23.672 146.161 23.778C146.197 23.884 146.232 24.0077 146.267 24.149C146.338 24.1843 146.409 24.2197 146.479 24.255C146.55 24.2903 146.621 24.3433 146.691 24.414C146.903 24.6613 147.009 24.8557 147.009 24.997L146.903 25.262C146.868 25.3327 146.833 25.3857 146.797 25.421C146.797 25.4563 146.797 25.4917 146.797 25.527C146.797 25.633 146.921 25.8803 147.168 26.269C147.168 26.269 147.133 26.3573 147.062 26.534L147.168 27.011L147.274 27.382L147.115 27.912C147.151 27.9827 147.168 28.1593 147.168 28.442C147.133 28.4773 147.098 28.5127 147.062 28.548C147.027 28.548 146.992 28.5833 146.956 28.654L146.532 29.979C146.532 30.0497 146.532 30.1557 146.532 30.297C146.532 30.403 146.515 30.5267 146.479 30.668C146.409 30.9507 146.126 31.092 145.631 31.092L145.26 31.993L144.465 32.523C144.359 32.629 144.112 32.8233 143.723 33.106H143.299L142.451 33.477C141.356 33.689 140.738 33.795 140.596 33.795ZM139.642 10.528C139.678 10.4573 139.66 10.3867 139.589 10.316C139.554 10.2807 139.466 10.2983 139.324 10.369C139.395 10.475 139.501 10.528 139.642 10.528ZM146.426 15.51C146.426 15.2627 146.409 15.139 146.373 15.139L146.108 15.086C146.073 15.086 146.038 15.086 146.002 15.086C145.967 15.0507 145.932 15.033 145.896 15.033C145.826 15.1037 145.79 15.2273 145.79 15.404L146.426 15.51ZM135.137 15.828C135.137 15.6867 135.12 15.5983 135.084 15.563C134.978 15.5277 134.89 15.5453 134.819 15.616C134.819 15.6867 134.925 15.7573 135.137 15.828ZM138.635 19.591C138.812 19.5203 138.9 19.4497 138.9 19.379C138.9 19.3083 138.812 19.2377 138.635 19.167V19.591ZM135.031 28.177C135.031 28.1063 134.996 28.0003 134.925 27.859L134.766 27.912C134.59 27.912 134.537 27.8237 134.607 27.647L134.501 27.859C134.537 27.965 134.607 28.071 134.713 28.177H135.031ZM144.889 29.608C144.854 29.608 145.084 29.4313 145.578 29.078V28.866C145.366 28.6187 145.172 28.495 144.995 28.495H144.836C144.836 28.5657 144.819 28.654 144.783 28.76C144.783 28.8307 144.766 28.919 144.73 29.025C144.554 29.3077 144.465 29.449 144.465 29.449C144.571 29.555 144.713 29.608 144.889 29.608ZM139.43 31.834L139.112 31.463H138.9L138.847 31.622L139.43 31.834Z" fill="#0080FF"/>
</svg>
